<svg aria-hidden="true" xmlns="http://www.w3.org/2000/svg" xmlns:xlink="http://www.w3.org/1999/xlink"><symbol viewBox="0 0 8 8" id="add" xmlns="http://www.w3.org/2000/svg">
<path d="M4.61538 0.615385C4.61538 0.275 4.34038 0 4 0C3.65962 0 3.38462 0.275 3.38462 0.615385V3.38462H0.615385C0.275 3.38462 0 3.65962 0 4C0 4.34038 0.275 4.61538 0.615385 4.61538H3.38462V7.38462C3.38462 7.725 3.65962 8 4 8C4.34038 8 4.61538 7.725 4.61538 7.38462V4.61538H7.38462C7.725 4.61538 8 4.34038 8 4C8 3.65962 7.725 3.38462 7.38462 3.38462H4.61538V0.615385Z"/>
</symbol><symbol viewBox="0 0 20 16" id="analytics" xmlns="http://www.w3.org/2000/svg">
<path d="M2.5 1.14286C2.5 0.510714 1.94141 0 1.25 0C0.558594 0 0 0.510714 0 1.14286V13.1429C0 14.7214 1.39844 16 3.125 16H18.75C19.4414 16 20 15.4893 20 14.8571C20 14.225 19.4414 13.7143 18.75 13.7143H3.125C2.78125 13.7143 2.5 13.4571 2.5 13.1429V1.14286ZM18.3828 4.23571C18.8711 3.78929 18.8711 3.06429 18.3828 2.61786C17.8945 2.17143 17.1016 2.17143 16.6133 2.61786L12.5 6.38214L10.2578 4.33214C9.76953 3.88571 8.97656 3.88571 8.48828 4.33214L4.11328 8.33214C3.625 8.77857 3.625 9.50357 4.11328 9.95C4.60156 10.3964 5.39453 10.3964 5.88281 9.95L9.375 6.76071L11.6172 8.81071C12.1055 9.25714 12.8984 9.25714 13.3867 8.81071L18.3867 4.23929L18.3828 4.23571Z"/>
</symbol>
<symbol viewBox="0 0 12 7" id="arrow" fill="none" xmlns="http://www.w3.org/2000/svg">
<path d="M11 0.998627L6 5.99863L1 0.998627" stroke-width="1.5" stroke-linecap="round" stroke-linejoin="round"/>
</symbol><symbol viewBox="0 0 20 14" id="billing" xmlns="http://www.w3.org/2000/svg">
<path d="M2.22222 0C0.996528 0 0 1.04635 0 2.33333V11.6667C0 12.9536 0.996528 14 2.22222 14H17.7778C19.0035 14 20 12.9536 20 11.6667V2.33333C20 1.04635 19.0035 0 17.7778 0H2.22222ZM4.44444 11.6667H2.22222V9.33333C3.44792 9.33333 4.44444 10.3797 4.44444 11.6667ZM2.22222 4.66667V2.33333H4.44444C4.44444 3.62031 3.44792 4.66667 2.22222 4.66667ZM15.5556 11.6667C15.5556 10.3797 16.5521 9.33333 17.7778 9.33333V11.6667H15.5556ZM17.7778 4.66667C16.5521 4.66667 15.5556 3.62031 15.5556 2.33333H17.7778V4.66667ZM10 10.5C8.15972 10.5 6.66667 8.93229 6.66667 7C6.66667 5.06771 8.15972 3.5 10 3.5C11.8403 3.5 13.3333 5.06771 13.3333 7C13.3333 8.93229 11.8403 10.5 10 10.5Z"/>
</symbol><symbol viewBox="0 0 8 6" id="check" xmlns="http://www.w3.org/2000/svg">
<path d="M2.93212 5.54947L0.75765 3.38801C0.696886 3.32725 0.666504 3.24913 0.666504 3.15364C0.666504 3.05815 0.696886 2.98003 0.75765 2.91927L1.23942 2.45052C1.30018 2.38107 1.37614 2.34635 1.46728 2.34635C1.55843 2.34635 1.63872 2.38107 1.70817 2.45052L3.1665 3.90885L6.29149 0.783854C6.36093 0.71441 6.44123 0.679688 6.53238 0.679688C6.62352 0.679688 6.69948 0.71441 6.76024 0.783854L7.24201 1.2526C7.30277 1.31337 7.33315 1.39149 7.33315 1.48698C7.33315 1.58246 7.30277 1.66059 7.24201 1.72135L3.40087 5.54947C3.34011 5.61891 3.26198 5.65363 3.1665 5.65363C3.07101 5.65363 2.99289 5.61891 2.93212 5.54947Z"/>
</symbol><symbol viewBox="0 0 9 9" id="circle-check" xmlns="http://www.w3.org/2000/svg">
<path d="M4.5 9C6.98555 9 9 6.98555 9 4.5C9 2.01445 6.98555 0 4.5 0C2.01445 0 0 2.01445 0 4.5C0 6.98555 2.01445 9 4.5 9ZM6.48633 3.67383L4.23633 5.92383C4.07109 6.08906 3.80391 6.08906 3.64043 5.92383L2.51543 4.79883C2.3502 4.63359 2.3502 4.36641 2.51543 4.20293C2.68066 4.03945 2.94785 4.0377 3.11133 4.20293L3.9375 5.0291L5.88867 3.07617C6.05391 2.91094 6.32109 2.91094 6.48457 3.07617C6.64805 3.24141 6.6498 3.50859 6.48457 3.67207L6.48633 3.67383Z"/>
</symbol><symbol viewBox="0 0 18 18" id="circle-close" xmlns="http://www.w3.org/2000/svg">
<path d="M9 18C13.9711 18 18 13.9711 18 9C18 4.02891 13.9711 0 9 0C4.02891 0 0 4.02891 0 9C0 13.9711 4.02891 18 9 18ZM6.15234 6.15234C6.48281 5.82188 7.01719 5.82188 7.34414 6.15234L8.99648 7.80469L10.6488 6.15234C10.9793 5.82188 11.5137 5.82188 11.8406 6.15234C12.1676 6.48281 12.1711 7.01719 11.8406 7.34414L10.1883 8.99648L11.8406 10.6488C12.1711 10.9793 12.1711 11.5137 11.8406 11.8406C11.5102 12.1676 10.9758 12.1711 10.6488 11.8406L8.99648 10.1883L7.34414 11.8406C7.01367 12.1711 6.4793 12.1711 6.15234 11.8406C5.82539 11.5102 5.82188 10.9758 6.15234 10.6488L7.80469 8.99648L6.15234 7.34414C5.82188 7.01367 5.82188 6.4793 6.15234 6.15234Z"/>
</symbol><symbol viewBox="0 0 8 8" id="close" xmlns="http://www.w3.org/2000/svg">
<path fill-rule="evenodd" clip-rule="evenodd" d="M0.158447 0.154917C0.368687 -0.0526462 0.708388 -0.0514867 0.917189 0.157507L7.84416 7.09084C8.05296 7.29983 8.05179 7.63752 7.84155 7.84508C7.63131 8.05265 7.29161 8.05149 7.08281 7.84249L0.155841 0.90916C-0.0529603 0.700166 -0.0517939 0.36248 0.158447 0.154917Z"/>
<path fill-rule="evenodd" clip-rule="evenodd" d="M7.84155 0.154917C8.05179 0.36248 8.05296 0.700166 7.84416 0.90916L0.917189 7.84249C0.708388 8.05149 0.368687 8.05265 0.158447 7.84508C-0.0517939 7.63752 -0.0529603 7.29983 0.155841 7.09084L7.08281 0.157507C7.29161 -0.0514867 7.63131 -0.0526462 7.84155 0.154917Z"/>
</symbol><symbol viewBox="0 0 20 20" id="dashboard" xmlns="http://www.w3.org/2000/svg">
<path d="M20 10C20 15.5234 15.5234 20 10 20C4.47656 20 0 15.5234 0 10C0 4.47656 4.47656 0 10 0C15.5234 0 20 4.47656 20 10ZM11.25 3.75C11.25 3.05859 10.6914 2.5 10 2.5C9.30859 2.5 8.75 3.05859 8.75 3.75C8.75 4.44141 9.30859 5 10 5C10.6914 5 11.25 4.44141 11.25 3.75ZM10 16.25C11.3789 16.25 12.5 15.1289 12.5 13.75C12.5 13.0703 12.2305 12.457 11.793 12.0078L14.2969 6.31641C14.5039 5.84375 14.2891 5.28906 13.8164 5.08203C13.3438 4.875 12.7891 5.08984 12.582 5.5625L10.0742 11.25C10.0508 11.25 10.0234 11.25 10 11.25C8.62109 11.25 7.5 12.3711 7.5 13.75C7.5 15.1289 8.62109 16.25 10 16.25ZM6.875 5.625C6.875 4.93359 6.31641 4.375 5.625 4.375C4.93359 4.375 4.375 4.93359 4.375 5.625C4.375 6.31641 4.93359 6.875 5.625 6.875C6.31641 6.875 6.875 6.31641 6.875 5.625ZM3.75 11.25C4.44141 11.25 5 10.6914 5 10C5 9.30859 4.44141 8.75 3.75 8.75C3.05859 8.75 2.5 9.30859 2.5 10C2.5 10.6914 3.05859 11.25 3.75 11.25ZM17.5 10C17.5 9.30859 16.9414 8.75 16.25 8.75C15.5586 8.75 15 9.30859 15 10C15 10.6914 15.5586 11.25 16.25 11.25C16.9414 11.25 17.5 10.6914 17.5 10Z"/>
</symbol><symbol viewBox="0 0 18 21" id="delete" xmlns="http://www.w3.org/2000/svg">
<path d="M5.43214 0.725977C5.64911 0.278906 6.09509 0 6.58125 0H11.4188C11.9049 0 12.3509 0.278906 12.5679 0.725977L12.8571 1.3125H16.7143C17.4254 1.3125 18 1.89902 18 2.625C18 3.35098 17.4254 3.9375 16.7143 3.9375H1.28571C0.574554 3.9375 0 3.35098 0 2.625C0 1.89902 0.574554 1.3125 1.28571 1.3125H5.14286L5.43214 0.725977ZM1.28571 5.25H16.7143V18.375C16.7143 19.8229 15.5612 21 14.1429 21H3.85714C2.43884 21 1.28571 19.8229 1.28571 18.375V5.25ZM5.14286 7.875C4.78929 7.875 4.5 8.17031 4.5 8.53125V17.7188C4.5 18.0797 4.78929 18.375 5.14286 18.375C5.49643 18.375 5.78571 18.0797 5.78571 17.7188V8.53125C5.78571 8.17031 5.49643 7.875 5.14286 7.875ZM9 7.875C8.64643 7.875 8.35714 8.17031 8.35714 8.53125V17.7188C8.35714 18.0797 8.64643 18.375 9 18.375C9.35357 18.375 9.64286 18.0797 9.64286 17.7188V8.53125C9.64286 8.17031 9.35357 7.875 9 7.875ZM12.8571 7.875C12.5036 7.875 12.2143 8.17031 12.2143 8.53125V17.7188C12.2143 18.0797 12.5036 18.375 12.8571 18.375C13.2107 18.375 13.5 18.0797 13.5 17.7188V8.53125C13.5 8.17031 13.2107 7.875 12.8571 7.875Z"/>
</symbol><symbol viewBox="0 0 18 18" id="download" xmlns="http://www.w3.org/2000/svg">
<path d="M10.125 1.125C10.125 0.502734 9.62227 0 9 0C8.37773 0 7.875 0.502734 7.875 1.125V9.65742L5.29453 7.07695C4.85508 6.6375 4.14141 6.6375 3.70195 7.07695C3.2625 7.51641 3.2625 8.23008 3.70195 8.66953L8.20195 13.1695C8.64141 13.609 9.35508 13.609 9.79453 13.1695L14.2945 8.66953C14.734 8.23008 14.734 7.51641 14.2945 7.07695C13.8551 6.6375 13.1414 6.6375 12.702 7.07695L10.125 9.65742V1.125ZM2.25 12.375C1.00898 12.375 0 13.384 0 14.625V15.75C0 16.991 1.00898 18 2.25 18H15.75C16.991 18 18 16.991 18 15.75V14.625C18 13.384 16.991 12.375 15.75 12.375H12.1816L10.5891 13.9676C9.71016 14.8465 8.28633 14.8465 7.40742 13.9676L5.81836 12.375H2.25ZM15.1875 16.0312C14.7199 16.0312 14.3438 15.6551 14.3438 15.1875C14.3438 14.7199 14.7199 14.3438 15.1875 14.3438C15.6551 14.3438 16.0312 14.7199 16.0312 15.1875C16.0312 15.6551 15.6551 16.0312 15.1875 16.0312Z"/>
</symbol><symbol viewBox="0 0 20 20" id="edit" xmlns="http://www.w3.org/2000/svg">
<path d="M14.1831 0.733162L12.2904 2.6257L17.3741 7.70896L19.2668 5.81642C20.2444 4.83887 20.2444 3.25524 19.2668 2.27769L17.726 0.733162C16.7484 -0.244387 15.1647 -0.244387 14.187 0.733162H14.1831ZM11.4067 3.5094L2.29128 12.628C1.88459 13.0346 1.58739 13.5391 1.42315 14.0904L0.038834 18.7944C-0.0589286 19.1267 0.031013 19.4826 0.273464 19.725C0.515915 19.9674 0.871771 20.0574 1.20025 19.9635L5.90459 18.5793C6.45597 18.4151 6.96043 18.1179 7.36712 17.7112L16.4903 8.59266L11.4067 3.5094Z"/>
</symbol><symbol viewBox="0 0 16 19" id="instructions" xmlns="http://www.w3.org/2000/svg">
<path d="M3.42857 0C1.53571 0 0 1.5957 0 3.5625V15.4375C0 17.4043 1.53571 19 3.42857 19H13.7143H14.8571C15.4893 19 16 18.4693 16 17.8125C16 17.1557 15.4893 16.625 14.8571 16.625V14.25C15.4893 14.25 16 13.7193 16 13.0625V1.1875C16 0.530664 15.4893 0 14.8571 0H13.7143H3.42857ZM3.42857 14.25H12.5714V16.625H3.42857C2.79643 16.625 2.28571 16.0943 2.28571 15.4375C2.28571 14.7807 2.79643 14.25 3.42857 14.25ZM4.57143 5.34375C4.57143 5.01719 4.82857 4.75 5.14286 4.75H12C12.3143 4.75 12.5714 5.01719 12.5714 5.34375C12.5714 5.67031 12.3143 5.9375 12 5.9375H5.14286C4.82857 5.9375 4.57143 5.67031 4.57143 5.34375ZM5.14286 7.125H12C12.3143 7.125 12.5714 7.39219 12.5714 7.71875C12.5714 8.04531 12.3143 8.3125 12 8.3125H5.14286C4.82857 8.3125 4.57143 8.04531 4.57143 7.71875C4.57143 7.39219 4.82857 7.125 5.14286 7.125Z"/>
</symbol><symbol viewBox="0 0 22 16" id="keyboard" xmlns="http://www.w3.org/2000/svg">
<path d="M2.44444 0C1.09618 0 0 1.19583 0 2.66667V13.3333C0 14.8042 1.09618 16 2.44444 16H19.5556C20.9038 16 22 14.8042 22 13.3333V2.66667C22 1.19583 20.9038 0 19.5556 0H2.44444ZM3.05556 2.66667H4.27778C4.61389 2.66667 4.88889 2.96667 4.88889 3.33333V4.66667C4.88889 5.03333 4.61389 5.33333 4.27778 5.33333H3.05556C2.71944 5.33333 2.44444 5.03333 2.44444 4.66667V3.33333C2.44444 2.96667 2.71944 2.66667 3.05556 2.66667ZM2.44444 7.33333C2.44444 6.96667 2.71944 6.66667 3.05556 6.66667H4.27778C4.61389 6.66667 4.88889 6.96667 4.88889 7.33333V8.66667C4.88889 9.03333 4.61389 9.33333 4.27778 9.33333H3.05556C2.71944 9.33333 2.44444 9.03333 2.44444 8.66667V7.33333ZM3.05556 10.6667H4.27778C4.61389 10.6667 4.88889 10.9667 4.88889 11.3333V12.6667C4.88889 13.0333 4.61389 13.3333 4.27778 13.3333H3.05556C2.71944 13.3333 2.44444 13.0333 2.44444 12.6667V11.3333C2.44444 10.9667 2.71944 10.6667 3.05556 10.6667ZM6.11111 3.33333C6.11111 2.96667 6.38611 2.66667 6.72222 2.66667H7.94444C8.28056 2.66667 8.55556 2.96667 8.55556 3.33333V4.66667C8.55556 5.03333 8.28056 5.33333 7.94444 5.33333H6.72222C6.38611 5.33333 6.11111 5.03333 6.11111 4.66667V3.33333ZM6.72222 6.66667H7.94444C8.28056 6.66667 8.55556 6.96667 8.55556 7.33333V8.66667C8.55556 9.03333 8.28056 9.33333 7.94444 9.33333H6.72222C6.38611 9.33333 6.11111 9.03333 6.11111 8.66667V7.33333C6.11111 6.96667 6.38611 6.66667 6.72222 6.66667ZM6.11111 11.3333C6.11111 10.9667 6.38611 10.6667 6.72222 10.6667H15.2778C15.6139 10.6667 15.8889 10.9667 15.8889 11.3333V12.6667C15.8889 13.0333 15.6139 13.3333 15.2778 13.3333H6.72222C6.38611 13.3333 6.11111 13.0333 6.11111 12.6667V11.3333ZM10.3889 2.66667H11.6111C11.9472 2.66667 12.2222 2.96667 12.2222 3.33333V4.66667C12.2222 5.03333 11.9472 5.33333 11.6111 5.33333H10.3889C10.0528 5.33333 9.77778 5.03333 9.77778 4.66667V3.33333C9.77778 2.96667 10.0528 2.66667 10.3889 2.66667ZM9.77778 7.33333C9.77778 6.96667 10.0528 6.66667 10.3889 6.66667H11.6111C11.9472 6.66667 12.2222 6.96667 12.2222 7.33333V8.66667C12.2222 9.03333 11.9472 9.33333 11.6111 9.33333H10.3889C10.0528 9.33333 9.77778 9.03333 9.77778 8.66667V7.33333ZM14.0556 2.66667H15.2778C15.6139 2.66667 15.8889 2.96667 15.8889 3.33333V4.66667C15.8889 5.03333 15.6139 5.33333 15.2778 5.33333H14.0556C13.7194 5.33333 13.4444 5.03333 13.4444 4.66667V3.33333C13.4444 2.96667 13.7194 2.66667 14.0556 2.66667ZM13.4444 7.33333C13.4444 6.96667 13.7194 6.66667 14.0556 6.66667H15.2778C15.6139 6.66667 15.8889 6.96667 15.8889 7.33333V8.66667C15.8889 9.03333 15.6139 9.33333 15.2778 9.33333H14.0556C13.7194 9.33333 13.4444 9.03333 13.4444 8.66667V7.33333ZM17.7222 2.66667H18.9444C19.2806 2.66667 19.5556 2.96667 19.5556 3.33333V4.66667C19.5556 5.03333 19.2806 5.33333 18.9444 5.33333H17.7222C17.3861 5.33333 17.1111 5.03333 17.1111 4.66667V3.33333C17.1111 2.96667 17.3861 2.66667 17.7222 2.66667ZM17.1111 7.33333C17.1111 6.96667 17.3861 6.66667 17.7222 6.66667H18.9444C19.2806 6.66667 19.5556 6.96667 19.5556 7.33333V8.66667C19.5556 9.03333 19.2806 9.33333 18.9444 9.33333H17.7222C17.3861 9.33333 17.1111 9.03333 17.1111 8.66667V7.33333ZM17.7222 10.6667H18.9444C19.2806 10.6667 19.5556 10.9667 19.5556 11.3333V12.6667C19.5556 13.0333 19.2806 13.3333 18.9444 13.3333H17.7222C17.3861 13.3333 17.1111 13.0333 17.1111 12.6667V11.3333C17.1111 10.9667 17.3861 10.6667 17.7222 10.6667Z"/>
</symbol><symbol viewBox="0 0 20 17" id="log-out" xmlns="http://www.w3.org/2000/svg">
<path d="M6.25 2.38095C6.94141 2.38095 7.5 1.84896 7.5 1.19048C7.5 0.531994 6.94141 0 6.25 0H3.75C1.67969 0 0 1.5997 0 3.57143V13.0952C0 15.067 1.67969 16.6667 3.75 16.6667H6.25C6.94141 16.6667 7.5 16.1347 7.5 15.4762C7.5 14.8177 6.94141 14.2857 6.25 14.2857H3.75C3.05859 14.2857 2.5 13.7537 2.5 13.0952V3.57143C2.5 2.91295 3.05859 2.38095 3.75 2.38095H6.25ZM19.707 8.98065C19.8945 8.81324 20 8.57887 20 8.33333C20 8.0878 19.8945 7.85342 19.707 7.68601L14.082 2.62649C13.8086 2.38095 13.4102 2.31399 13.0664 2.45536C12.7227 2.59673 12.5 2.92039 12.5 3.27381V5.95238H7.5C6.80859 5.95238 6.25 6.48437 6.25 7.14286V9.52381C6.25 10.1823 6.80859 10.7143 7.5 10.7143H12.5V13.3929C12.5 13.75 12.7227 14.0699 13.0664 14.2113C13.4102 14.3527 13.8086 14.2857 14.082 14.0402L19.707 8.98065Z"/>
</symbol><symbol viewBox="0 0 24 20" id="message" xmlns="http://www.w3.org/2000/svg">
<path d="M12.0012 18.5673C18.6287 18.5673 24 14.412 24 9.28364C24 4.15532 18.6287 0 12.0012 0C5.37376 0 0.00243508 4.15532 0.00243508 9.28364C0.00243508 11.2966 0.832038 13.1578 2.23815 14.6798C2.14909 15.7733 1.70382 16.7463 1.23512 17.4872C0.977336 17.8978 0.714863 18.2281 0.522695 18.4512C0.424267 18.5628 0.349275 18.6476 0.293031 18.7056C0.264908 18.7324 0.24616 18.7547 0.232099 18.7681L0.218038 18.7815C0.00243509 18.9868 -0.0584962 19.2903 0.0586794 19.5581C0.175855 19.8259 0.447702 20 0.752359 20C2.09754 20 3.45209 19.6028 4.57697 19.1386C5.6503 18.6923 6.56427 18.1611 7.12203 17.7728C8.6125 18.2861 10.2623 18.5717 12.0012 18.5717V18.5673Z"/>
</symbol><symbol viewBox="0 0 20 20" id="monitor" xmlns="http://www.w3.org/2000/svg">
<path d="M15.56 0H4.41C1.98 0 0 1.98 0 4.41V10.91V11.11C0 13.55 1.98 15.52 4.41 15.52H8.25C8.8 15.52 9.25 15.97 9.25 16.52V17.49C9.25 18.04 8.8 18.49 8.25 18.49H5.83C5.42 18.49 5.08 18.83 5.08 19.24C5.08 19.65 5.41 20 5.83 20H14.18C14.59 20 14.93 19.66 14.93 19.25C14.93 18.84 14.59 18.5 14.18 18.5H11.76C11.21 18.5 10.76 18.05 10.76 17.5V16.53C10.76 15.98 11.21 15.53 11.76 15.53H15.57C18.01 15.53 19.98 13.55 19.98 11.12V10.92V4.42C19.97 1.98 17.99 0 15.56 0Z"/>
</symbol><symbol viewBox="0 0 22 20" id="network" xmlns="http://www.w3.org/2000/svg">
<path d="M3.06701 1.72128C2.66597 2.73286 2.44444 3.83818 2.44444 5.00208C2.44444 6.16598 2.66597 7.2713 3.06701 8.28287C3.3191 8.92341 3.01736 9.64987 2.39097 9.91155C1.76458 10.1732 1.05417 9.86078 0.798264 9.22024C0.282639 7.91574 0 6.49015 0 5.00208C0 3.514 0.282639 2.08842 0.798264 0.783912C1.05417 0.143376 1.76458 -0.165175 2.39097 0.0926018C3.01736 0.350379 3.3191 1.08075 3.06701 1.72128ZM21.2017 0.783912C21.7174 2.08842 22 3.514 22 5.00208C22 6.49015 21.7174 7.91574 21.2017 9.22024C20.9497 9.86078 20.2354 10.1693 19.609 9.91155C18.9826 9.65378 18.6809 8.92341 18.933 8.28287C19.334 7.2713 19.5556 6.16598 19.5556 5.00208C19.5556 3.83818 19.334 2.73286 18.933 1.72128C18.6809 1.08075 18.9826 0.354284 19.609 0.0926018C20.2354 -0.169081 20.9458 0.143376 21.2017 0.783912ZM13.4444 5.00208C13.4444 5.92773 12.9517 6.73621 12.2222 7.16584V18.7502C12.2222 19.4415 11.676 20 11 20C10.324 20 9.77778 19.4415 9.77778 18.7502V7.16584C9.04826 6.73231 8.55556 5.92773 8.55556 5.00208C8.55556 3.62336 9.65174 2.50242 11 2.50242C12.3483 2.50242 13.4444 3.62336 13.4444 5.00208ZM6.51597 3.00236C6.25625 3.61165 6.11111 4.28733 6.11111 5.00208C6.11111 5.71682 6.25625 6.39251 6.51597 7.0018C6.78715 7.63453 6.50451 8.37271 5.88576 8.6461C5.26701 8.9195 4.54514 8.63439 4.27778 8.00166C3.88437 7.07992 3.66667 6.06443 3.66667 5.00208C3.66667 3.93973 3.88437 2.92424 4.27778 2.00249C4.54896 1.36977 5.26701 1.08075 5.88576 1.35805C6.50451 1.63536 6.78715 2.36963 6.51597 3.00236ZM17.7222 2.00249C18.1156 2.92424 18.3333 3.93973 18.3333 5.00208C18.3333 6.06443 18.1156 7.07992 17.7222 8.00166C17.451 8.63439 16.733 8.92341 16.1142 8.6461C15.4955 8.3688 15.2128 7.63453 15.484 7.0018C15.7437 6.39251 15.8889 5.71682 15.8889 5.00208C15.8889 4.28733 15.7437 3.61165 15.484 3.00236C15.2128 2.36963 15.4955 1.63145 16.1142 1.35805C16.733 1.08465 17.4549 1.36977 17.7222 2.00249Z"/>
</symbol><symbol viewBox="0 0 20 20" id="pin" xmlns="http://www.w3.org/2000/svg">
<path d="M13.1425 13.7417C14.5913 13.7389 16.0021 13.2782 17.1733 12.4254C18.3446 11.5727 19.2163 10.3715 19.6639 8.99356C20.1115 7.61565 20.1121 6.1315 19.6655 4.75324C19.219 3.37497 18.3482 2.17312 17.1777 1.31945C16.0071 0.465773 14.5966 0.00396637 13.1478 2.54343e-05C11.6991 -0.0039155 10.2861 0.450211 9.11089 1.2975C7.93569 2.1448 7.0584 3.34189 6.60438 4.71771C6.15037 6.09353 6.14288 7.57765 6.58297 8.95798L0.273804 15.2671C0.186704 15.3545 0.11769 15.4583 0.0707084 15.5724C0.0237269 15.6865 -0.000299635 15.8087 2.9486e-06 15.9321V19.0612C-0.000306626 19.1846 0.0237635 19.3068 0.0708303 19.4209C0.117897 19.5349 0.187033 19.6385 0.274265 19.7257C0.361498 19.813 0.465108 19.8821 0.579141 19.9292C0.693175 19.9762 0.815386 20.0003 0.938751 20H4.06791C4.19127 20.0003 4.31348 19.9762 4.42752 19.9292C4.54155 19.8821 4.64516 19.813 4.73239 19.7257C4.81963 19.6385 4.88876 19.5349 4.93583 19.4209C4.9829 19.3068 5.00697 19.1846 5.00666 19.0612V17.4967H6.57124C6.6946 17.497 6.81681 17.4729 6.93085 17.4258C7.04488 17.3788 7.14849 17.3096 7.23572 17.2224C7.32295 17.1352 7.39209 17.0316 7.43916 16.9175C7.48622 16.8035 7.51029 16.6813 7.50998 16.5579V14.9933H9.07456C9.19796 14.9936 9.3202 14.9696 9.43429 14.9226C9.54839 14.8757 9.65211 14.8066 9.73951 14.7195L11.042 13.417C11.7212 13.6331 12.4298 13.7426 13.1425 13.7417ZM14.707 6.85754C14.3976 6.85754 14.0951 6.76577 13.8378 6.59386C13.5805 6.42194 13.38 6.17758 13.2616 5.8917C13.1431 5.60581 13.1122 5.29122 13.1725 4.98772C13.2329 4.68422 13.3819 4.40544 13.6007 4.18663C13.8195 3.96782 14.0983 3.81881 14.4018 3.75844C14.7053 3.69807 15.0199 3.72906 15.3058 3.84747C15.5917 3.96589 15.836 4.16643 16.0079 4.42372C16.1799 4.68102 16.2716 4.98351 16.2716 5.29296C16.2716 5.70791 16.1068 6.10587 15.8134 6.39928C15.52 6.6927 15.122 6.85754 14.707 6.85754Z"/>
</symbol><symbol viewBox="0 0 20 20" id="power" xmlns="http://www.w3.org/2000/svg">
<path d="M11.3333 1.29032C11.3333 0.576613 10.7375 0 10 0C9.2625 0 8.66667 0.576613 8.66667 1.29032V10.3226C8.66667 11.0363 9.2625 11.6129 10 11.6129C10.7375 11.6129 11.3333 11.0363 11.3333 10.3226V1.29032ZM5.3125 4.8629C5.87917 4.40726 5.95417 3.59274 5.48333 3.04435C5.0125 2.49597 4.17083 2.42339 3.60417 2.87903C1.40417 4.65323 0 7.33065 0 10.3226C0 15.6653 4.47917 20 10 20C15.5208 20 20 15.6653 20 10.3226C20 7.33065 18.5917 4.65323 16.3917 2.87903C15.825 2.42339 14.9833 2.5 14.5125 3.04435C14.0417 3.58871 14.1208 4.40726 14.6833 4.8629C16.3042 6.16532 17.3292 8.12903 17.3292 10.3226C17.3292 14.2419 14.0458 17.4194 9.99583 17.4194C5.94583 17.4194 2.6625 14.2419 2.6625 10.3226C2.6625 8.12903 3.69167 6.16532 5.30833 4.8629H5.3125Z"/>
</symbol><symbol viewBox="0 0 20 18" id="prices" xmlns="http://www.w3.org/2000/svg">
<path d="M13.4739 0.28526L18.4651 5.4802C20.5116 7.6096 20.5116 11.0327 18.4651 13.1621L14.091 17.7142C13.7278 18.0919 13.1342 18.0959 12.767 17.7223C12.3999 17.3486 12.396 16.7379 12.7592 16.3602L17.1295 11.8081C18.4534 10.4301 18.4534 8.21628 17.1295 6.8382L12.1422 1.64326C11.7789 1.26559 11.7829 0.654892 12.15 0.281242C12.5171 -0.0924081 13.1107 -0.0883903 13.4739 0.289277V0.28526ZM0 7.93504V1.92852C0 0.863814 0.83968 0 1.87463 0H7.71334C8.37727 0 9.01387 0.269189 9.48252 0.751318L16.0437 7.50112C17.0201 8.50556 17.0201 10.1327 16.0437 11.1372L10.8299 16.5009C9.85354 17.5053 8.27182 17.5053 7.29545 16.5009L0.734232 9.75106C0.261668 9.26893 0 8.61806 0 7.93504ZM5.6239 4.49987C5.6239 3.78873 5.06542 3.21419 4.37415 3.21419C3.68287 3.21419 3.12439 3.78873 3.12439 4.49987C3.12439 5.21101 3.68287 5.78555 4.37415 5.78555C5.06542 5.78555 5.6239 5.21101 5.6239 4.49987Z"/>
</symbol><symbol viewBox="0 0 20 18" id="ready" xmlns="http://www.w3.org/2000/svg">
<path d="M0.637515 0.964286C0.637515 0.429911 1.06206 0 1.58977 0H2.85944C3.38715 0 3.81169 0.429911 3.81169 0.964286V5.78571H4.44653C4.97424 5.78571 5.39878 6.21562 5.39878 6.75C5.39878 7.28437 4.97424 7.71429 4.44653 7.71429H1.27235C0.744644 7.71429 0.320097 7.28437 0.320097 6.75C0.320097 6.21562 0.744644 5.78571 1.27235 5.78571H1.90719V1.92857H1.58977C1.06206 1.92857 0.637515 1.49866 0.637515 0.964286ZM3.12528 12.4232C2.86737 12.1259 2.39918 12.146 2.17302 12.4714L1.72864 13.0942C1.42312 13.5281 0.827966 13.6286 0.399452 13.3192C-0.0290623 13.0098 -0.128255 12.4071 0.177259 11.9732L0.617676 11.3464C1.55803 10.0125 3.48634 9.91607 4.55366 11.1496C5.39878 12.1299 5.37894 13.5964 4.51001 14.5527L3.12924 16.0714H4.44653C4.97424 16.0714 5.39878 16.5013 5.39878 17.0357C5.39878 17.5701 4.97424 18 4.44653 18H0.954933C0.577999 18 0.232807 17.775 0.0820339 17.4214C-0.0687395 17.0679 -0.00128821 16.6621 0.252646 16.3808L3.10941 13.2469C3.3197 13.0138 3.32366 12.6603 3.12131 12.4232H3.12528ZM8.57296 1.28571H18.7303C19.4326 1.28571 20 1.86027 20 2.57143C20 3.28259 19.4326 3.85714 18.7303 3.85714H8.57296C7.87067 3.85714 7.30329 3.28259 7.30329 2.57143C7.30329 1.86027 7.87067 1.28571 8.57296 1.28571ZM8.57296 7.71429H18.7303C19.4326 7.71429 20 8.28884 20 9C20 9.71116 19.4326 10.2857 18.7303 10.2857H8.57296C7.87067 10.2857 7.30329 9.71116 7.30329 9C7.30329 8.28884 7.87067 7.71429 8.57296 7.71429ZM8.57296 14.1429H18.7303C19.4326 14.1429 20 14.7174 20 15.4286C20 16.1397 19.4326 16.7143 18.7303 16.7143H8.57296C7.87067 16.7143 7.30329 16.1397 7.30329 15.4286C7.30329 14.7174 7.87067 14.1429 8.57296 14.1429Z"/>
</symbol><symbol viewBox="0 0 20 20" id="refresh" xmlns="http://www.w3.org/2000/svg">
  <defs id="awdefs23874"/>
  <sodipodi:namedview id="awnamedview23872" pagecolor="#ffffff" bordercolor="#000000" borderopacity="0.25" xmlns:inkscape="http://www.inkscape.org/namespaces/inkscape" inkscape:showpageshadow="2" inkscape:pageopacity="0.0" inkscape:pagecheckerboard="0" inkscape:deskcolor="#d1d1d1" showgrid="false" inkscape:zoom="26.25" inkscape:cx="10" inkscape:cy="10.019048" inkscape:window-width="1366" inkscape:window-height="705" inkscape:window-x="-8" inkscape:window-y="-8" inkscape:window-maximized="1" inkscape:current-layer="svg23870" xmlns:sodipodi="http://sodipodi.sourceforge.net/DTD/sodipodi-0.dtd"/>
  <path d="m 2.5,0.66601562 a 1,1 0 0 0 -1,0.99999998 v 5 a 1.0001,1.0001 0 0 0 1,1 h 5 a 1,1 0 0 0 1,-1 1,1 0 0 0 -1,-1 h -4 v -4 a 1,1 0 0 0 -1,-0.99999998 z" id="awpath23862"/>
  <path d="M 11.123047,1.5820312 C 10.318479,1.4746932 9.499709,1.4829197 8.6894531,1.609375 7.0689516,1.8622989 5.5564576,2.5784703 4.3339844,3.671875 a 1.0001,1.0001 0 0 0 -0.00391,0.00195 l -2.5,2.25 a 1,1 0 0 0 -0.074219,1.4121094 1,1 0 0 0 1.4140625,0.074219 l 2.4960937,-2.2480468 0.00391,-0.00195 C 6.6042939,4.3255664 7.7601332,3.7771949 8.9980469,3.5839844 10.237432,3.3905555 11.505101,3.5606988 12.650391,4.0722656 13.795762,4.5838302 14.768203,5.4147301 15.451172,6.4667969 16.134226,7.5188696 16.498873,8.7456582 16.5,10 a 1,1 0 0 0 1,1 1,1 0 0 0 1,-1 C 18.498527,8.3598847 18.022051,6.7545711 17.128906,5.3789062 16.235877,4.0032554 14.964423,2.914988 13.466797,2.2460938 12.718043,1.9116477 11.927615,1.6893693 11.123047,1.5820312 Z" id="awpath23864"/>
  <path d="m 12.5,12.333984 a 1,1 0 0 0 -1,1 1,1 0 0 0 1,1 h 4 v 4 a 1,1 0 0 0 1,1 1,1 0 0 0 1,-1 v -5 a 1.0001,1.0001 0 0 0 -1,-1 z" id="awpath23866"/>
  <path d="m 2.5,9 a 1,1 0 0 0 -1,1 c 0.0015,1.640085 0.4780151,3.245409 1.3710938,4.621094 0.8930686,1.375555 2.1645506,2.463936 3.6621093,3.132812 1.4975154,0.668857 3.1568324,0.889545 4.7773439,0.636719 1.620455,-0.252945 3.132991,-0.96899 4.355469,-2.0625 a 1.0001,1.0001 0 0 0 0.0039,-0.002 l 2.5,-2.25 a 1,1 0 0 0 0.07422,-1.412109 1,1 0 0 0 -1.414063,-0.07422 l -2.5,2.25 c -0.934347,0.834644 -2.090225,1.382942 -3.328125,1.576172 C 9.7625074,16.609389 8.4949114,16.439277 7.3496094,15.927734 6.2043508,15.416211 5.2318579,14.585245 4.5488281,13.533203 3.8658084,12.48109 3.5011441,11.254312 3.5,10 a 1,1 0 0 0 -1,-1 z" id="awpath23868"/>
</symbol><symbol viewBox="0 0 18 18" id="reset" xmlns="http://www.w3.org/2000/svg">
<path d="M16.7393 7.71474H17.069C17.5849 7.71474 18 7.28489 18 6.75059V1.60846C18 1.21878 17.775 0.86526 17.4259 0.71662C17.0768 0.567981 16.6772 0.648327 16.4096 0.92552L14.7959 2.59671C11.3978 -0.878243 5.92436 -0.866191 2.54566 2.63688C-0.848555 6.15201 -0.848555 11.8485 2.54566 15.3637C5.93987 18.8788 11.4404 18.8788 14.8347 15.3637C15.3195 14.8615 15.3195 14.046 14.8347 13.5438C14.3498 13.0417 13.5623 13.0417 13.0774 13.5438C10.653 16.0546 6.72345 16.0546 4.29901 13.5438C1.87457 11.033 1.87457 6.9635 4.29901 4.4527C6.71181 1.95395 10.6103 1.94189 13.0386 4.41253L11.4443 6.06765C11.1767 6.34484 11.0991 6.75862 11.2426 7.12018C11.3861 7.48173 11.7275 7.71474 12.1038 7.71474H16.7393Z"/>
</symbol><symbol viewBox="0 0 16 16" id="save" xmlns="http://www.w3.org/2000/svg">
<path d="M2.28571 0C1.025 0 0 1.025 0 2.28571V13.7143C0 14.975 1.025 16 2.28571 16H13.7143C14.975 16 16 14.975 16 13.7143V5.04643C16 4.43929 15.7607 3.85714 15.3321 3.42857L12.5714 0.667857C12.1429 0.239286 11.5607 0 10.9536 0H2.28571ZM2.28571 3.42857C2.28571 2.79643 2.79643 2.28571 3.42857 2.28571H10.2857C10.9179 2.28571 11.4286 2.79643 11.4286 3.42857V5.71429C11.4286 6.34643 10.9179 6.85714 10.2857 6.85714H3.42857C2.79643 6.85714 2.28571 6.34643 2.28571 5.71429V3.42857ZM8 13.7143C6.73929 13.7143 5.71429 12.6893 5.71429 11.4286C5.71429 10.1679 6.73929 9.14286 8 9.14286C9.26071 9.14286 10.2857 10.1679 10.2857 11.4286C10.2857 12.6893 9.26071 13.7143 8 13.7143Z"/>
</symbol><symbol viewBox="0 0 16 17" id="search" xmlns="http://www.w3.org/2000/svg">
<path fill-rule="evenodd" clip-rule="evenodd" d="M15.7781 14.8968L14.8937 15.7812C14.6031 16.075 14.1281 16.075 13.8343 15.7812L10.7187 12.6656C10.5781 12.525 10.5 12.3344 10.5 12.1343V11.625C9.39686 12.4875 8.00935 13 6.49998 13C2.90936 13 0 10.0906 0 6.49998C0 2.90936 2.90936 0 6.49998 0C10.0906 0 13 2.90936 13 6.49998C13 8.00935 12.4875 9.39686 11.625 10.5H12.1343C12.3344 10.5 12.525 10.5781 12.6656 10.7187L15.7812 13.8343C16.0718 14.1281 16.0718 14.6031 15.7781 14.8968ZM2.49999 6.49999C2.49999 8.71248 4.29061 10.5 6.49998 10.5C8.71247 10.5 10.5 8.70937 10.5 6.49999C10.5 4.2875 8.70936 2.5 6.49998 2.5C4.2875 2.5 2.49999 4.29061 2.49999 6.49999Z"/>
</symbol><symbol viewBox="0 0 21 16" id="signal" xmlns="http://www.w3.org/2000/svg">
<rect y="12.5718" width="2.28571" height="3.42857"/>
<rect x="4.57143" y="9.14258" width="2.28571" height="6.85714"/>
<rect x="9.14287" y="5.71387" width="2.28571" height="10.2857"/>
<rect x="13.7143" y="3.42871" width="2.28571" height="12.5714"/>
<rect x="18.2857" width="2.28571" height="16"/>
</symbol><symbol viewBox="0 0 6 9" id="sim" xmlns="http://www.w3.org/2000/svg">
<path d="M1 0H3.79219C4.05781 0 4.3125 0.117773 4.5 0.328711L5.70781 1.6875C5.89531 1.89844 6 2.18496 6 2.48379V7.875C6 8.49551 5.55156 9 5 9H1C0.448438 9 0 8.49551 0 7.875V1.125C0 0.504492 0.448438 0 1 0ZM1.5 3.375C1.22344 3.375 1 3.62637 1 3.9375V4.5H2V3.375H1.5ZM1 6.1875H2.25H3.75H5V5.0625H3.75H2.25H1V6.1875ZM5 3.9375C5 3.62637 4.77656 3.375 4.5 3.375H4V4.5H5V3.9375ZM2.5 3.375V4.5H3.5V3.375H2.5ZM4.5 7.875C4.77656 7.875 5 7.62363 5 7.3125V6.75H4V7.875H4.5ZM2.5 6.75V7.875H3.5V6.75H2.5ZM1 7.3125C1 7.62363 1.22344 7.875 1.5 7.875H2V6.75H1V7.3125Z"/>
</symbol><symbol viewBox="0 0 25 25" id="star" xmlns="http://www.w3.org/2000/svg">
<path d="M13.86 0.848243C13.7359 0.593209 13.5422 0.378125 13.3011 0.227629C13.06 0.077134 12.7811 -0.00268555 12.4965 -0.00268555C12.2119 -0.00268555 11.9331 0.077134 11.6919 0.227629C11.4508 0.378125 11.2571 0.593209 11.133 0.848243L8.08887 7.08472L1.2904 8.08406C1.01216 8.12525 0.750928 8.24277 0.535973 8.42344C0.321018 8.60411 0.160829 8.8408 0.073349 9.107C-0.014131 9.37321 -0.0254464 9.6584 0.0406702 9.93064C0.106787 10.2029 0.247724 10.4514 0.447695 10.6484L5.38085 15.5084L4.21621 22.3766C4.16963 22.6549 4.20218 22.9406 4.31017 23.2014C4.41817 23.4623 4.5973 23.6879 4.82731 23.8526C5.05733 24.0174 5.32905 24.1148 5.61177 24.1339C5.89448 24.1529 6.17691 24.0929 6.42713 23.9604L12.5012 20.7314L18.5754 23.9604C18.8256 24.0929 19.108 24.1529 19.3907 24.1339C19.6734 24.1148 19.9452 24.0174 20.1752 23.8526C20.4052 23.6879 20.5843 23.4623 20.6923 23.2014C20.8003 22.9406 20.8329 22.6549 20.7863 22.3766L19.6169 15.5084L24.5501 10.6484C24.75 10.4514 24.891 10.2029 24.9571 9.93064C25.0232 9.6584 25.0119 9.37321 24.9244 9.107C24.8369 8.8408 24.6767 8.60411 24.4618 8.42344C24.2468 8.24277 23.9856 8.12525 23.7074 8.08406L16.9042 7.08472L13.86 0.848243Z"/>
</symbol><symbol viewBox="0 0 20 20" id="support" xmlns="http://www.w3.org/2000/svg">
<path d="M19.4577 0.218854C19.8523 0.492235 20.0593 0.964793 19.9851 1.43735L17.4851 17.684C17.4265 18.0628 17.196 18.3948 16.86 18.5822C16.5241 18.7697 16.1217 18.7931 15.7663 18.6447L11.0943 16.7037L8.4185 19.5976C8.07084 19.9765 7.52396 20.1015 7.04348 19.914C6.56301 19.7265 6.2505 19.2618 6.2505 18.7463V15.4813C6.2505 15.3251 6.3091 15.1767 6.41457 15.0634L12.9615 7.92038C13.1881 7.67434 13.1803 7.29551 12.9459 7.06119C12.7115 6.82686 12.3326 6.81124 12.0865 7.03385L4.1411 14.091L0.691824 12.3648C0.277755 12.1578 0.0121258 11.7438 0.000406863 11.283C-0.0113121 10.8221 0.230879 10.3925 0.629323 10.1621L18.1296 0.164178C18.5476 -0.074054 19.0632 -0.0506214 19.4577 0.218854Z"/>
</symbol><symbol viewBox="0 0 25 25" id="time" xmlns="http://www.w3.org/2000/svg">
<g clip-path="url(#beclip0_130_6090)">
<path d="M3.66211 3.66212L2.00196 2.00196C1.26465 1.26466 3.68085e-06 1.78712 3.68085e-06 2.82716V8.20313C-0.000382773 8.35713 0.0296649 8.50969 0.0884202 8.65205C0.147176 8.7944 0.23348 8.92374 0.342376 9.03263C0.451272 9.14153 0.580612 9.22784 0.722965 9.28659C0.865318 9.34535 1.01788 9.37539 1.17188 9.37501H6.54786C7.59278 9.37501 8.11524 8.11036 7.37793 7.37305L5.87403 5.86915C6.74332 4.9979 7.77617 4.30698 8.91325 3.83605C10.0503 3.36513 11.2693 3.12349 12.5 3.12501C17.6758 3.12501 21.875 7.32423 21.875 12.5C21.875 17.6758 17.6758 21.875 12.5 21.875C10.5844 21.8785 8.71416 21.292 7.14356 20.1953C6.80362 19.9577 6.38321 19.8648 5.9748 19.9372C5.5664 20.0095 5.20346 20.2411 4.96582 20.5811C4.72819 20.921 4.63533 21.3414 4.70767 21.7498C4.78001 22.1582 5.01163 22.5212 5.35157 22.7588C7.44907 24.2194 9.94405 25.0017 12.5 25C19.4043 25 25 19.4043 25 12.5C25 5.59571 19.4043 7.7486e-06 12.5 7.7486e-06C10.8583 -0.00182296 9.23234 0.32076 7.71566 0.949222C6.19897 1.57768 4.8214 2.49964 3.66211 3.66212ZM12.5 6.25001C12.346 6.24962 12.1934 6.27967 12.0511 6.33842C11.9087 6.39718 11.7794 6.48348 11.6705 6.59238C11.5616 6.70128 11.4753 6.83062 11.4165 6.97297C11.3578 7.11532 11.3277 7.26788 11.3281 7.42188V12.5C11.3278 12.654 11.3577 12.8066 11.4164 12.9491C11.475 13.0915 11.5612 13.221 11.6699 13.3301L15.1855 16.8457C15.4085 17.0477 15.7005 17.1562 16.0013 17.1488C16.302 17.1414 16.5883 17.0186 16.801 16.8059C17.0138 16.5932 17.1365 16.3069 17.1439 16.0061C17.1513 15.7054 17.0428 15.4134 16.8408 15.1904L13.667 12.0166V7.42188C13.6674 7.26788 13.6373 7.11532 13.5786 6.97297C13.5198 6.83062 13.4335 6.70128 13.3246 6.59238C13.2157 6.48348 13.0864 6.39718 12.944 6.33842C12.8017 6.27967 12.6491 6.24962 12.4951 6.25001H12.5Z"/>
</g>
<defs>
<clipPath id="beclip0_130_6090">
<rect width="25" height="25"/>
</clipPath>
</defs>
</symbol><symbol viewBox="0 0 25 28" id="user-white" xmlns="http://www.w3.org/2000/svg">
<path d="M12.5 14C13.9127 14 15.2937 13.5895 16.4684 12.8203C17.643 12.0511 18.5585 10.9579 19.0991 9.67879C19.6398 8.3997 19.7812 6.99224 19.5056 5.63437C19.23 4.2765 18.5497 3.02922 17.5508 2.05026C16.5518 1.07129 15.2791 0.404603 13.8935 0.134506C12.5079 -0.13559 11.0717 0.00303297 9.76655 0.532846C8.46136 1.06266 7.3458 1.95987 6.56093 3.11101C5.77606 4.26216 5.35714 5.61553 5.35714 7C5.35714 8.85652 6.10969 10.637 7.44924 11.9497C8.78878 13.2625 10.6056 14 12.5 14ZM9.94978 16.625C8.64307 16.6247 7.34911 16.8767 6.14182 17.3666C4.93452 17.8566 3.83755 18.5748 2.91357 19.4803C1.98959 20.3858 1.2567 21.4608 0.756785 22.644C0.256865 23.8271 -0.000292996 25.0952 2.50516e-07 26.3758C2.50516e-07 26.8065 0.174615 27.2197 0.485432 27.5243C0.796248 27.8289 1.21781 28 1.65737 28H23.3426C23.7822 28 24.2038 27.8289 24.5146 27.5243C24.8254 27.2197 25 26.8065 25 26.3758C25.0003 25.0952 24.7431 23.8271 24.2432 22.644C23.7433 21.4608 23.0104 20.3858 22.0864 19.4803C21.1625 18.5748 20.0655 17.8566 18.8582 17.3666C17.6509 16.8767 16.3569 16.6247 15.0502 16.625H9.94978Z"/>
</symbol><symbol viewBox="0 0 21 15" id="users" xmlns="http://www.w3.org/2000/svg">
<path d="M3.14878 6.13632C3.56417 6.13632 3.97024 6.01635 4.31562 5.79158C4.66101 5.56681 4.93019 5.24734 5.08916 4.87356C5.24812 4.49979 5.28973 4.0885 5.20869 3.6917C5.12765 3.2949 4.92761 2.93042 4.63389 2.64434C4.34016 2.35827 3.96595 2.16344 3.55854 2.08452C3.15113 2.00559 2.72883 2.0461 2.34506 2.20092C1.96129 2.35574 1.63328 2.61793 1.4025 2.95432C1.17172 3.2907 1.04854 3.68619 1.04854 4.09076C1.04909 4.63311 1.27057 5.15309 1.66432 5.53659C2.05807 5.92009 2.59193 6.13578 3.14878 6.13632ZM17.8498 6.13632C18.2652 6.13632 18.6713 6.01635 19.0166 5.79158C19.362 5.56681 19.6312 5.24734 19.7902 4.87356C19.9491 4.49979 19.9907 4.0885 19.9097 3.6917C19.8286 3.2949 19.6286 2.93042 19.3349 2.64434C19.0412 2.35827 18.6669 2.16344 18.2595 2.08452C17.8521 2.00559 17.4298 2.0461 17.0461 2.20092C16.6623 2.35574 16.3343 2.61793 16.1035 2.95432C15.8727 3.2907 15.7495 3.68619 15.7495 4.09076C15.7501 4.63311 15.9715 5.15309 16.3653 5.53659C16.7591 5.92009 17.2929 6.13578 17.8498 6.13632ZM18.8998 7.15892H16.7999C16.2451 7.15823 15.7127 7.37207 15.3198 7.75346C15.9845 8.10582 16.5542 8.60624 16.9825 9.21391C17.4108 9.82158 17.6855 10.5193 17.7842 11.25H19.95C20.088 11.2501 20.2246 11.2237 20.352 11.1723C20.4795 11.121 20.5953 11.0456 20.6928 10.9506C20.7903 10.8556 20.8676 10.7428 20.9204 10.6186C20.9731 10.4945 21.0001 10.3614 21 10.2271V9.20448C20.9994 8.66224 20.7781 8.14237 20.3845 7.75889C19.9909 7.37541 19.4572 7.15964 18.9004 7.15892H18.8998ZM10.4991 7.15892C11.226 7.15892 11.9365 6.94899 12.5409 6.55568C13.1453 6.16236 13.6164 5.60332 13.8945 4.94926C14.1727 4.2952 14.2455 3.57549 14.1037 2.88114C13.9619 2.18679 13.6118 1.549 13.0978 1.0484C12.5839 0.547803 11.929 0.206894 11.2161 0.0687798C10.5032 -0.0693345 9.76423 0.00155133 9.09268 0.272472C8.42113 0.543393 7.84715 1.00218 7.44332 1.59082C7.03948 2.17946 6.82396 2.87151 6.82396 3.57946C6.82373 4.04959 6.91864 4.51515 7.10325 4.94953C7.28786 5.38391 7.55856 5.77859 7.89988 6.11102C8.2412 6.44345 8.64641 6.7071 9.09241 6.88691C9.5384 7.06671 10.0164 7.15915 10.4991 7.15892ZM13.0194 8.18187H12.7469C12.0479 8.51822 11.2788 8.69318 10.4991 8.69318C9.71949 8.69318 8.95031 8.51822 8.25132 8.18187H7.97925C6.97672 8.18205 6.01528 8.56999 5.30635 9.2604C4.59742 9.95081 4.19902 10.8872 4.19875 11.8636V12.7839C4.19884 13.1908 4.36482 13.581 4.66022 13.8687C4.95562 14.1564 5.35626 14.3181 5.77402 14.3182H15.2246C15.6423 14.3181 16.043 14.1564 16.3384 13.8687C16.6338 13.581 16.7998 13.1908 16.7999 12.7839V11.8636C16.7995 10.8872 16.401 9.95089 15.6921 9.2605C14.9832 8.57011 14.0219 8.18214 13.0194 8.18187ZM5.68017 7.75346C5.28723 7.37207 4.7549 7.15823 4.20014 7.15892H2.10024C1.54339 7.15946 1.0095 7.37515 0.615749 7.75865C0.221997 8.14215 0.000554601 8.66213 5.21979e-07 9.20448V10.2278C-0.000137078 10.3621 0.0269314 10.4952 0.0796431 10.6193C0.132355 10.7435 0.209674 10.8563 0.307193 10.9513C0.404713 11.0463 0.52049 11.1216 0.64794 11.173C0.77539 11.2244 0.911998 11.2508 1.04993 11.2507H3.21262C3.31244 10.5198 3.58794 9.82216 4.01671 9.21448C4.44547 8.6068 5.01539 8.10623 5.68017 7.75346Z"/>
</symbol><symbol viewBox="0 0 18 20" id="work-mode" xmlns="http://www.w3.org/2000/svg">
<path d="M3.21429 4.0625C3.74866 4.0625 4.17857 3.64453 4.17857 3.125C4.17857 2.60547 3.74866 2.1875 3.21429 2.1875C2.67991 2.1875 2.25 2.60547 2.25 3.125C2.25 3.64453 2.67991 4.0625 3.21429 4.0625ZM6.42857 3.125C6.42857 4.40625 5.63705 5.50781 4.5 5.98828V9.41797C5.25536 8.99219 6.13527 8.75 7.07143 8.75H10.9286C12.3469 8.75 13.5 7.62891 13.5 6.25V5.98828C12.3629 5.50781 11.5714 4.40625 11.5714 3.125C11.5714 1.39844 13.0098 0 14.7857 0C16.5616 0 18 1.39844 18 3.125C18 4.40625 17.2085 5.50781 16.0714 5.98828V6.25C16.0714 9.01172 13.7692 11.25 10.9286 11.25H7.07143C5.65312 11.25 4.5 12.3711 4.5 13.75V14.0117C5.63705 14.4922 6.42857 15.5938 6.42857 16.875C6.42857 18.6016 4.99018 20 3.21429 20C1.43839 20 0 18.6016 0 16.875C0 15.5938 0.791518 14.4922 1.92857 14.0117V13.75V5.98828C0.791518 5.50781 0 4.40625 0 3.125C0 1.39844 1.43839 0 3.21429 0C4.99018 0 6.42857 1.39844 6.42857 3.125ZM15.75 3.125C15.75 2.60547 15.3201 2.1875 14.7857 2.1875C14.2513 2.1875 13.8214 2.60547 13.8214 3.125C13.8214 3.64453 14.2513 4.0625 14.7857 4.0625C15.3201 4.0625 15.75 3.64453 15.75 3.125ZM3.21429 17.8125C3.74866 17.8125 4.17857 17.3945 4.17857 16.875C4.17857 16.3555 3.74866 15.9375 3.21429 15.9375C2.67991 15.9375 2.25 16.3555 2.25 16.875C2.25 17.3945 2.67991 17.8125 3.21429 17.8125Z"/>
</symbol><symbol viewBox="0 0 20 17" id="workers" xmlns="http://www.w3.org/2000/svg">
<path d="M0 2.42857C0 1.08906 1.12109 0 2.5 0H17.5C18.8789 0 20 1.08906 20 2.42857V9.42589C19.3359 8.84911 18.4609 8.5 17.5 8.5H2.5C1.53906 8.5 0.664062 8.84911 0 9.42589V2.42857ZM2.5 9.71429H17.5C18.8789 9.71429 20 10.8033 20 12.1429V14.5714C20 15.9109 18.8789 17 17.5 17H2.5C1.12109 17 0 15.9109 0 14.5714V12.1429C0 10.8033 1.12109 9.71429 2.5 9.71429ZM12.5 14.5714C13.1914 14.5714 13.75 14.0288 13.75 13.3571C13.75 12.6855 13.1914 12.1429 12.5 12.1429C11.8086 12.1429 11.25 12.6855 11.25 13.3571C11.25 14.0288 11.8086 14.5714 12.5 14.5714ZM17.5 13.3571C17.5 12.6855 16.9414 12.1429 16.25 12.1429C15.5586 12.1429 15 12.6855 15 13.3571C15 14.0288 15.5586 14.5714 16.25 14.5714C16.9414 14.5714 17.5 14.0288 17.5 13.3571Z"/>
</symbol></svg>