<svg width="19" height="7" viewBox="0 0 19 7" fill="none" xmlns="http://www.w3.org/2000/svg">
<path d="M6.43351 2.587H5.08279C5.05812 2.41875 5.00775 2.2693 4.93168 2.13866C4.85561 2.00604 4.75796 1.89321 4.63872 1.80018C4.51948 1.70715 4.38173 1.63589 4.22548 1.5864C4.07129 1.53692 3.90374 1.51217 3.72282 1.51217C3.39593 1.51217 3.11119 1.59036 2.8686 1.74673C2.626 1.90113 2.43789 2.12678 2.30425 2.42369C2.17062 2.71863 2.1038 3.0769 2.1038 3.49852C2.1038 3.93201 2.17062 4.29622 2.30425 4.59115C2.43994 4.88608 2.62908 5.10877 2.87168 5.2592C3.11427 5.40964 3.3949 5.48486 3.71357 5.48486C3.89243 5.48486 4.05793 5.46209 4.21006 5.41657C4.36426 5.37104 4.50097 5.30473 4.62021 5.21764C4.73946 5.12856 4.83814 5.02069 4.91626 4.894C4.99644 4.76732 5.05195 4.62282 5.08279 4.46051L6.43351 4.46645C6.39856 4.74555 6.31119 5.01475 6.17138 5.27405C6.03364 5.53137 5.84758 5.76198 5.61321 5.96586C5.38089 6.16776 5.10335 6.32809 4.78057 6.44685C4.45986 6.56364 4.09699 6.62203 3.69198 6.62203C3.12867 6.62203 2.62497 6.49931 2.1809 6.25386C1.73888 6.00841 1.38938 5.65311 1.1324 5.18795C0.877465 4.72278 0.75 4.15964 0.75 3.49852C0.75 2.83541 0.879521 2.27128 1.13856 1.80612C1.39761 1.34095 1.74916 0.986639 2.19324 0.743171C2.63731 0.497724 3.13689 0.375 3.69198 0.375C4.05793 0.375 4.39715 0.424485 4.70965 0.523456C5.0242 0.622427 5.30277 0.766924 5.54537 0.956948C5.78796 1.14499 5.98533 1.37559 6.13746 1.64875C6.29165 1.92191 6.39034 2.23466 6.43351 2.587Z" fill="#27425B"/>
<path d="M7.39104 6.5389V0.458135H9.88278C10.3618 0.458135 10.7699 0.546219 11.1071 0.722387C11.4442 0.896576 11.7012 1.13905 11.878 1.44982C12.0569 1.75861 12.1463 2.1149 12.1463 2.51871C12.1463 2.92251 12.0559 3.2788 11.8749 3.58759C11.694 3.89638 11.4319 4.13688 11.0886 4.30909C10.7473 4.48129 10.334 4.5674 9.84886 4.5674H8.26068V3.53711H9.63299C9.88998 3.53711 10.1017 3.49456 10.2683 3.40944C10.4368 3.32235 10.5623 3.20259 10.6445 3.05018C10.7288 2.89578 10.7709 2.71863 10.7709 2.51871C10.7709 2.31681 10.7288 2.14064 10.6445 1.9902C10.5623 1.83779 10.4368 1.72001 10.2683 1.63688C10.0997 1.55176 9.88587 1.5092 9.62682 1.5092H8.72634V6.5389H7.39104Z" fill="#27425B"/>
<path d="M16.9147 0.458135H18.25V4.40707C18.25 4.85046 18.14 5.23842 17.92 5.57096C17.7021 5.9035 17.3968 6.16281 17.0041 6.34887C16.6115 6.53296 16.154 6.625 15.6318 6.625C15.1076 6.625 14.6491 6.53296 14.2564 6.34887C13.8638 6.16281 13.5585 5.9035 13.3405 5.57096C13.1226 5.23842 13.0136 4.85046 13.0136 4.40707V0.458135H14.3489V4.29721C14.3489 4.5288 14.4014 4.73466 14.5062 4.91479C14.6131 5.09491 14.7632 5.23644 14.9565 5.33937C15.1497 5.4423 15.3748 5.49376 15.6318 5.49376C15.8909 5.49376 16.116 5.4423 16.3072 5.33937C16.5004 5.23644 16.6495 5.09491 16.7543 4.91479C16.8612 4.73466 16.9147 4.5288 16.9147 4.29721V0.458135Z" fill="#27425B"/>
</svg>
