<svg width="10" height="9" viewBox="0 0 10 9" fill="none" xmlns="http://www.w3.org/2000/svg">
<path d="M1.94097 0.693359V8.87518H0.211121V0.693359H1.94097Z" fill="#27425B"/>
<path d="M3.3642 8.87518V0.693359H6.59218C7.21274 0.693359 7.74142 0.811878 8.17821 1.04892C8.615 1.28329 8.94792 1.60955 9.17696 2.0277C9.40868 2.44318 9.52453 2.92259 9.52453 3.46591C9.52453 4.00923 9.40734 4.48864 9.17297 4.90412C8.93859 5.3196 8.59902 5.6432 8.15424 5.87491C7.71212 6.10662 7.17679 6.22248 6.54823 6.22248H4.4908V4.8362H6.26858C6.6015 4.8362 6.87583 4.77894 7.09156 4.66442C7.30995 4.54723 7.47242 4.3861 7.57895 4.18102C7.68815 3.97328 7.74275 3.73491 7.74275 3.46591C7.74275 3.19425 7.68815 2.95721 7.57895 2.75479C7.47242 2.54972 7.30995 2.39125 7.09156 2.27939C6.87316 2.16486 6.59618 2.1076 6.26059 2.1076H5.09404V8.87518H3.3642Z" fill="#27425B"/>
</svg>
