<svg width="19" height="7" viewBox="0 0 19 7" fill="none" xmlns="http://www.w3.org/2000/svg">
<path d="M0.75 6.53773V0.375H3.22831C3.70271 0.375 4.10758 0.458253 4.44293 0.624759C4.78032 0.789259 5.03694 1.02297 5.2128 1.32589C5.3907 1.62681 5.47965 1.98088 5.47965 2.38812C5.47965 2.79736 5.38968 3.14943 5.20973 3.44433C5.02979 3.73722 4.76908 3.9619 4.42759 4.11838C4.08815 4.27486 3.67715 4.35309 3.19457 4.35309H1.53521V3.30591H2.97987C3.23342 3.30591 3.44404 3.27181 3.61171 3.2036C3.77939 3.13539 3.90412 3.03308 3.98591 2.89667C4.06975 2.76025 4.11167 2.59074 4.11167 2.38812C4.11167 2.1835 4.06975 2.01097 3.98591 1.87055C3.90412 1.73012 3.77836 1.6238 3.60865 1.55158C3.44097 1.47735 3.22933 1.44024 2.97373 1.44024H2.0781V6.53773H0.75ZM4.14234 3.73321L5.70355 6.53773H4.23742L2.70995 3.73321H4.14234Z" fill="#27425B"/>
<path d="M7.73712 6.625C7.43653 6.625 7.16866 6.57384 6.93351 6.47153C6.69835 6.36722 6.51228 6.21375 6.37527 6.01113C6.24032 5.80651 6.17284 5.55174 6.17284 5.24681C6.17284 4.99003 6.22089 4.77437 6.317 4.59984C6.4131 4.42531 6.54397 4.28489 6.7096 4.17856C6.87523 4.07224 7.06335 3.992 7.27397 3.93783C7.48663 3.88367 7.70951 3.84555 7.94262 3.82348C8.21663 3.7954 8.43746 3.76932 8.60514 3.74525C8.77281 3.71917 8.89448 3.68105 8.97014 3.6309C9.0458 3.58075 9.08362 3.50652 9.08362 3.40822V3.39017C9.08362 3.19959 9.02228 3.05214 8.89959 2.94782C8.77895 2.8435 8.60718 2.79135 8.3843 2.79135C8.14915 2.79135 7.96205 2.8425 7.823 2.94481C7.68395 3.04512 7.59194 3.1715 7.54695 3.32397L6.33847 3.22767C6.39981 2.94682 6.52045 2.70408 6.7004 2.49946C6.88034 2.29283 7.11243 2.13435 7.39666 2.02401C7.68293 1.91167 8.01419 1.8555 8.39043 1.8555C8.65217 1.8555 8.90266 1.88559 9.1419 1.94578C9.38319 2.00596 9.59687 2.09924 9.78295 2.22563C9.97107 2.35201 10.1193 2.5145 10.2277 2.71311C10.3361 2.90971 10.3903 3.14542 10.3903 3.42026V6.53773H9.1511V5.89679H9.1143C9.03864 6.04123 8.93742 6.16861 8.81064 6.27895C8.68386 6.38728 8.53153 6.47254 8.35363 6.53473C8.17573 6.59491 7.97023 6.625 7.73712 6.625ZM8.11132 5.74031C8.30353 5.74031 8.47325 5.7032 8.62048 5.62897C8.7677 5.55274 8.88323 5.45043 8.96707 5.32204C9.05091 5.19365 9.09283 5.04821 9.09283 4.88571V4.39522C9.05193 4.4213 8.9957 4.44537 8.92413 4.46744C8.85461 4.4875 8.77588 4.50656 8.68795 4.52462C8.60003 4.54066 8.5121 4.55571 8.42417 4.56975C8.33625 4.58179 8.2565 4.59282 8.18493 4.60285C8.03157 4.62492 7.89763 4.66003 7.78313 4.70817C7.66862 4.75632 7.57967 4.82152 7.51628 4.90377C7.45289 4.98401 7.42119 5.08432 7.42119 5.20468C7.42119 5.37921 7.48561 5.51262 7.61443 5.6049C7.7453 5.69517 7.91093 5.74031 8.11132 5.74031Z" fill="#27425B"/>
<path d="M11.404 6.53773V1.91568H12.6493V2.73116H12.7045C12.8026 2.46034 12.9662 2.24669 13.1952 2.09021C13.4242 1.93374 13.6983 1.8555 14.0172 1.8555C14.3403 1.8555 14.6153 1.93474 14.8423 2.09322C15.0693 2.2497 15.2206 2.46235 15.2963 2.73116H15.3453C15.4415 2.46636 15.6153 2.25471 15.8668 2.09623C16.1203 1.93574 16.4199 1.8555 16.7655 1.8555C17.2051 1.8555 17.5619 1.99292 17.8359 2.26775C18.112 2.54058 18.25 2.92776 18.25 3.42929V6.53773H16.9464V3.68205C16.9464 3.42527 16.8769 3.23269 16.7379 3.1043C16.5988 2.97591 16.425 2.91171 16.2164 2.91171C15.9792 2.91171 15.7942 2.98594 15.6613 3.13439C15.5284 3.28083 15.4619 3.47442 15.4619 3.71515V6.53773H14.1951V3.65497C14.1951 3.42828 14.1287 3.24773 13.9958 3.11332C13.8649 2.97892 13.6921 2.91171 13.4774 2.91171C13.3322 2.91171 13.2014 2.94782 13.0848 3.02004C12.9703 3.09025 12.8793 3.18956 12.8118 3.31795C12.7443 3.44433 12.7106 3.59278 12.7106 3.7633V6.53773H11.404Z" fill="#27425B"/>
</svg>
