<svg width="18" height="9" viewBox="0 0 18 9" fill="none" xmlns="http://www.w3.org/2000/svg">
<path d="M2.69607 0.977295L4.45389 6.50286H4.52136L6.28272 0.977295H7.98727L5.48016 8.25002H3.49863L0.987976 0.977295H2.69607Z" fill="#27425B"/>
<path d="M10.7048 8.35656C10.1437 8.35656 9.66074 8.24292 9.25591 8.01565C8.85345 7.78601 8.54331 7.46167 8.32551 7.04264C8.10771 6.62123 7.99881 6.12289 7.99881 5.54761C7.99881 4.98653 8.10771 4.4941 8.32551 4.07033C8.54331 3.64657 8.8499 3.31631 9.24526 3.07957C9.64298 2.84283 10.1094 2.72445 10.6444 2.72445C11.0043 2.72445 11.3392 2.78246 11.6494 2.89846C11.9619 3.0121 12.2341 3.18373 12.4661 3.41337C12.7005 3.64302 12.8828 3.93184 13.013 4.27985C13.1432 4.6255 13.2083 5.03033 13.2083 5.49434V5.90982H8.6025V4.97232H11.7843C11.7843 4.75452 11.737 4.56158 11.6423 4.39349C11.5476 4.2254 11.4162 4.09401 11.2481 3.99931C11.0824 3.90225 10.8894 3.85372 10.6693 3.85372C10.4396 3.85372 10.236 3.90698 10.0585 4.01352C9.88328 4.11768 9.74597 4.25854 9.64653 4.4361C9.5471 4.61129 9.4962 4.8066 9.49384 5.02204V5.91337C9.49384 6.18326 9.54355 6.41645 9.64298 6.61295C9.74478 6.80944 9.88801 6.96096 10.0727 7.06749C10.2573 7.17403 10.4763 7.22729 10.7296 7.22729C10.8977 7.22729 11.0516 7.20362 11.1913 7.15627C11.331 7.10892 11.4505 7.0379 11.5499 6.9432C11.6494 6.84851 11.7251 6.7325 11.7772 6.59519L13.1764 6.68752C13.1053 7.0237 12.9597 7.31726 12.7396 7.5682C12.5218 7.81678 12.24 8.01091 11.8944 8.15059C11.5511 8.2879 11.1546 8.35656 10.7048 8.35656Z" fill="#27425B"/>
<path d="M14.1955 8.25002V2.79548H15.6622V3.74718H15.719C15.8184 3.40864 15.9853 3.15296 16.2197 2.98014C16.4541 2.80495 16.7239 2.71735 17.0293 2.71735C17.1051 2.71735 17.1868 2.72209 17.2744 2.73156C17.362 2.74103 17.4389 2.75405 17.5052 2.77062V4.11295C17.4342 4.09164 17.3359 4.0727 17.2105 4.05613C17.085 4.03956 16.9702 4.03127 16.866 4.03127C16.6435 4.03127 16.4446 4.0798 16.2694 4.17687C16.0966 4.27157 15.9593 4.40414 15.8575 4.5746C15.758 4.74505 15.7083 4.94155 15.7083 5.16408V8.25002H14.1955Z" fill="#27425B"/>
</svg>
