<svg width="75" height="54" viewBox="0 0 75 54" fill="none" xmlns="http://www.w3.org/2000/svg">
<path d="M75 48.006C74.5725 49.0767 74.2955 50.2601 73.6827 51.1993C72.4719 53.0777 70.6152 53.8986 68.443 54C68.2981 54 68.1513 54 68.0045 54C47.6755 54 27.3453 54 7.01383 54C4.70402 54 2.77582 53.1923 1.3448 51.2857C0.448327 50.0841 -0.0238042 48.6068 0.00550391 47.095C-0.00183464 33.6958 -0.00183464 20.3023 0.00550391 6.91436C0.00550391 2.86079 2.90974 0.0131487 6.93126 0.00751357C15.351 -0.00250452 23.7708 -0.00250452 32.1906 0.00751357H67.9935C70.8574 0.00751357 73.0333 1.22283 74.3249 3.88451C74.6441 4.54383 74.7762 5.29706 74.9945 6.00522L75 48.006ZM7.57889 4.5288C7.79905 4.77299 7.92015 4.91763 8.05225 5.05287C16.236 13.3892 24.4221 21.7248 32.6107 30.0599C35.5461 33.0484 39.4777 33.0221 42.4333 30.0167C50.5914 21.7217 58.7427 13.4205 66.8872 5.11298C67.0469 4.95332 67.1863 4.77299 67.3991 4.5288H7.57889ZM7.99903 49.4411H66.9771L48.4913 30.1294C47.4089 31.2564 46.4255 32.329 45.3963 33.3508C42.2902 36.4389 38.6265 37.4589 34.4325 36.3187C32.4988 35.7927 30.8861 34.6901 29.49 33.2419C28.5176 32.2332 27.5508 31.217 26.5014 30.1219L7.99903 49.4411ZM22.9073 27.1371L4.45269 7.93808V46.3869L22.9073 27.1371ZM70.5804 7.89863L70.4207 7.79157L51.7735 27.1803L70.5804 46.3136V7.89863Z" fill="#307EF3"/>
</svg>
