<svg width="61" height="61" viewBox="0 0 61 61" fill="none" xmlns="http://www.w3.org/2000/svg">
<path d="M0.00195312 32.0633V28.514C0.0502274 28.0887 0.100804 27.6635 0.149078 27.2359C0.873192 20.7189 3.36737 14.9696 7.75573 10.0962C12.4199 4.91939 18.1967 1.68961 25.0724 0.47126C26.2218 0.271267 27.3712 0.156317 28.5205 0H32.0698C33.0836 0.128731 34.102 0.229878 35.1088 0.388493C41.4351 1.44593 46.9475 4.16769 51.483 8.70087C58.2874 15.5006 61.2827 23.7647 60.4137 33.3345C59.8275 39.7573 57.315 45.4353 53.0186 50.2604C47.313 56.6671 40.1454 60.1175 31.5664 60.5359C25.6987 60.8653 19.8705 59.3926 14.8635 56.3154C7.00172 51.5201 2.1766 44.5755 0.480102 35.5C0.261718 34.3644 0.15827 33.2104 0.00195312 32.0633ZM30.309 5.51477C16.7117 5.47799 5.60638 16.5489 5.51672 30.2404C5.42477 43.8031 16.6083 55.0281 30.2722 55.0671C43.8695 55.1016 54.9748 44.033 55.0645 30.3415C55.1541 16.7604 43.9729 5.54925 30.309 5.51477Z" fill="#307EF3"/>
<path d="M27.5502 36.6794C27.5502 33.9001 27.5318 31.1232 27.5502 28.344C27.564 27.1946 28.1778 26.3625 29.2329 25.9234C29.7148 25.7057 30.2513 25.6392 30.7717 25.7328C31.2921 25.8264 31.7719 26.0756 32.1478 26.4475C32.446 26.722 32.6797 27.0592 32.832 27.4348C32.9842 27.8105 33.0512 28.2152 33.0282 28.6199C33.0282 30.7462 33.0282 32.8749 33.0282 35.0036C33.0282 38.2724 33.0282 41.5436 33.0282 44.8147C33.0282 46.479 31.9248 47.656 30.3869 47.7066C28.7778 47.7572 27.564 46.5733 27.5502 44.8952C27.5295 42.1551 27.5502 39.4172 27.5502 36.6794Z" fill="#307EF3"/>
<path d="M30.309 12.8686C31.2832 12.8771 32.2143 13.2718 32.8979 13.9661C33.5814 14.6605 33.9615 15.5976 33.9548 16.5719C33.9339 17.5353 33.5378 18.4525 32.8508 19.1282C32.1639 19.804 31.2404 20.185 30.2768 20.1902C29.3016 20.1769 28.3712 19.7787 27.6883 19.0825C27.0055 18.3862 26.6254 17.4483 26.6309 16.4731C26.6502 15.5104 27.0462 14.5937 27.7339 13.9197C28.4215 13.2458 29.3461 12.8684 30.309 12.8686Z" fill="#307EF3"/>
</svg>
