<svg width="69" height="60" viewBox="0 0 69 60" fill="none" xmlns="http://www.w3.org/2000/svg">
<path d="M69 5.97066C68.5957 7.95011 68.182 9.92679 67.7871 11.909C65.4691 23.6482 63.1543 35.3888 60.8426 47.1307C60.3305 49.7275 59.8171 52.3239 59.3023 54.9198C59.2659 55.0997 59.2255 55.2783 59.181 55.4569C58.1109 59.7978 54.1475 61.3481 50.6355 58.6973C48.2501 56.8978 45.9982 54.9087 43.687 53.0026C42.2544 51.8205 40.8219 50.6356 39.3489 49.4175C38.1252 50.5733 36.9231 51.707 35.7183 52.8434C34.4605 54.0311 33.2054 55.2192 31.9529 56.4078C30.4772 57.799 28.7832 58.6337 26.7415 58.2322C24.5503 57.8017 23.2242 56.2943 22.4924 54.218C21.3927 51.1007 20.3456 47.9626 19.2782 44.8343C18.2109 41.7059 17.1355 38.5776 16.0897 35.4409C15.9428 34.9979 15.7258 34.7723 15.2892 34.645C11.5157 33.5528 7.74228 32.4385 3.96885 31.3297C3.75457 31.2661 3.5376 31.2052 3.32736 31.1276C1.79777 30.5518 0.539062 29.6673 0 27.9882V26.7424C0.371953 26.1237 0.622617 25.3582 1.14146 24.9235C1.95912 24.2477 2.87321 23.7052 3.8516 23.3151C21.2624 16.4539 38.68 9.61395 56.1043 2.79524C58.3225 1.92595 60.5232 0.987438 62.7887 0.267639C65.802 -0.690248 68.4488 1.01512 68.903 3.91508C68.926 4.00253 68.9586 4.08704 69 4.16701V5.97066ZM33.2049 38.9831C33.6092 39.325 33.9744 39.6323 34.3396 39.9355C40.4068 44.9566 46.4748 49.9771 52.5438 54.9973C54.1973 56.3649 54.9695 56.0631 55.386 53.9176C55.8024 51.772 56.2229 49.6265 56.6447 47.4795C59.3867 33.5699 62.127 19.6593 64.8654 5.7478C64.9191 5.4539 64.9453 5.15539 64.9436 4.85636C64.9503 4.3262 64.674 4.06873 64.1727 4.19193C63.6516 4.32372 63.1397 4.49112 62.6404 4.69302C43.6429 12.1346 24.6459 19.5795 5.64937 27.0276C5.49305 27.0885 5.3475 27.1784 5.08875 27.3044C5.29764 27.3792 5.39197 27.4193 5.49305 27.4428C9.28535 28.5599 13.075 29.6825 16.874 30.7733C17.1328 30.848 17.4899 30.7567 17.7419 30.6238C27.0542 25.7513 36.3625 20.8696 45.6667 15.9786C47.6882 14.9197 49.6989 13.8552 51.7217 12.8074C52.7311 12.2841 53.7769 12.507 54.3806 13.3375C54.9844 14.1681 54.9022 15.2395 54.1448 16.1143C53.9521 16.3385 53.7405 16.5531 53.5464 16.7718L37.1953 34.6214L33.2049 38.9831ZM25.4343 50.32C25.534 49.9808 25.5785 49.8535 25.6095 49.7234C26.4451 46.2628 27.2968 42.8022 28.1013 39.3292C28.2819 38.5452 28.6683 37.827 29.2185 37.2529C33.7224 32.3619 38.2146 27.4613 42.6951 22.551C42.815 22.4125 42.9148 22.2741 43.0239 22.1357L42.9538 22.0803L19.9305 34.1646C21.7566 39.5133 23.5665 44.8301 25.4343 50.32ZM31.426 42.8618L28.8654 53.5079L28.9773 53.5729L36.159 46.7791L31.426 42.8618Z" fill="#307EF3"/>
</svg>
