<svg width="14" height="16" viewBox="0 0 14 16" fill="none" xmlns="http://www.w3.org/2000/svg">
<path d="M13.2274 12.1896C13.0023 12.6991 12.7243 13.1849 12.3976 13.6395C11.9614 14.2441 11.6051 14.6626 11.3287 14.895C10.902 15.2766 10.4441 15.4726 9.95516 15.483C9.60359 15.483 9.1797 15.3858 8.68613 15.1886C8.19256 14.9913 7.73598 14.895 7.32017 14.895C6.88381 14.895 6.41552 14.9929 5.91531 15.1886C5.41391 15.3858 5.01019 15.4881 4.70153 15.4987C4.23199 15.5183 3.7637 15.3171 3.29667 14.895C2.99845 14.6423 2.62577 14.209 2.17867 13.5951C1.69932 12.9395 1.30524 12.1788 0.996427 11.3129C0.66564 10.3767 0.500158 9.46998 0.5 8.59275C0.5 7.58742 0.723713 6.72117 1.17114 5.99401C1.50941 5.4233 1.99356 4.94712 2.5767 4.61158C3.1515 4.27721 3.80741 4.09735 4.47726 4.09041C4.85016 4.09041 5.33923 4.20238 5.94707 4.42288C6.55491 4.64338 6.94275 4.75604 7.11297 4.75604C7.24051 4.75604 7.67269 4.62494 8.40569 4.36436C9.09872 4.12197 9.68442 4.0209 10.1628 4.06114C11.4613 4.16298 12.4355 4.6615 13.0854 5.5567C11.9242 6.24116 11.3495 7.1978 11.3612 8.42663C11.3716 9.38358 11.7283 10.1789 12.4311 10.8125C12.7415 11.1012 13.1038 11.3321 13.5 11.4938C13.4142 11.7356 13.3233 11.9673 13.2274 12.1891V12.1896ZM10.2491 0.800219C10.2491 1.55042 9.96779 2.25 9.40516 2.89898C8.72691 3.66968 7.90642 4.11506 7.01672 4.04478C7.00482 3.95053 6.99888 3.85566 6.99894 3.7607C6.99894 3.04045 7.32135 2.26974 7.89433 1.63959C8.18024 1.3204 8.54374 1.05505 8.98484 0.843535C9.42483 0.634941 9.84081 0.520429 10.2328 0.5C10.2438 0.599482 10.2491 0.699473 10.2489 0.799527L10.2491 0.800219Z" fill="#27425B"/>
</svg>
