<svg width="934" height="1024" viewBox="0 0 934 1024" fill="none" xmlns="http://www.w3.org/2000/svg">
<mask id="mask0_29_359" style="mask-type:alpha" maskUnits="userSpaceOnUse" x="0" y="0" width="934" height="1024">
<rect x="0.791321" width="933" height="1024" fill="#307EF3"/>
</mask>
<g mask="url(#mask0_29_359)">
<g opacity="0.4">
<path d="M236.109 321.084C238.122 316.318 241.264 312.114 245.264 308.832C249.264 305.551 254.003 303.293 259.07 302.251C263.313 301.392 267.684 301.392 271.926 302.251C272.095 302.285 272.271 302.251 272.415 302.157C272.559 302.062 272.66 301.914 272.695 301.745C272.729 301.576 272.695 301.4 272.6 301.256C272.505 301.112 272.357 301.011 272.188 300.976C267.773 300.081 263.223 300.081 258.808 300.976C251.314 302.51 244.579 306.584 239.742 312.51C234.906 318.437 232.264 325.852 232.264 333.501C232.264 341.151 234.906 348.566 239.742 354.492C244.579 360.418 251.314 364.493 258.808 366.026C258.892 366.043 258.978 366.044 259.062 366.027C259.146 366.011 259.226 365.978 259.297 365.931C259.369 365.884 259.43 365.823 259.478 365.752C259.526 365.682 259.559 365.602 259.576 365.518C259.593 365.434 259.594 365.348 259.578 365.264C259.561 365.18 259.529 365.1 259.482 365.029C259.434 364.958 259.374 364.896 259.303 364.848C259.232 364.801 259.152 364.767 259.069 364.75C252.957 363.494 247.348 360.473 242.937 356.061C238.526 351.649 235.506 346.039 234.251 339.928C233.387 335.686 233.387 331.313 234.251 327.071C234.672 325.019 235.294 323.014 236.109 321.084Z" fill="url(#paint0_radial_29_359)"/>
<path d="M281.243 299.169C281.321 299.204 281.405 299.224 281.491 299.227C281.577 299.229 281.662 299.215 281.742 299.185C281.822 299.155 281.895 299.109 281.958 299.05C282.02 298.992 282.071 298.921 282.106 298.843C282.141 298.765 282.161 298.681 282.163 298.596C282.166 298.51 282.152 298.425 282.122 298.345C282.092 298.264 282.046 298.191 281.987 298.129C281.929 298.066 281.858 298.016 281.78 297.981C274.72 294.78 266.881 293.706 259.22 294.889C254.131 295.662 249.251 297.457 244.873 300.166C240.495 302.874 236.711 306.44 233.747 310.648C232.289 312.717 231.028 314.918 229.981 317.221C226.78 324.281 225.706 332.121 226.889 339.782C227.662 344.871 229.457 349.751 232.166 354.129C234.874 358.506 238.44 362.291 242.648 365.255C244.716 366.711 246.916 367.97 249.218 369.017C253.858 371.125 258.86 372.322 263.952 372.542C264.522 372.566 265.093 372.579 265.664 372.58C267.711 372.579 269.755 372.423 271.778 372.114C271.949 372.088 272.102 371.996 272.204 371.857C272.306 371.718 272.349 371.544 272.324 371.374C272.311 371.289 272.281 371.208 272.237 371.135C272.193 371.062 272.134 370.998 272.065 370.948C271.997 370.897 271.918 370.86 271.835 370.84C271.752 370.82 271.666 370.816 271.581 370.829C269.076 371.212 266.54 371.351 264.008 371.244C259.082 371.03 254.244 369.87 249.757 367.826C247.527 366.813 245.397 365.593 243.395 364.183C239.329 361.32 235.885 357.664 233.269 353.436C230.653 349.207 228.919 344.493 228.173 339.577C227.789 337.071 227.65 334.535 227.758 332.003C227.971 327.077 229.132 322.239 231.175 317.752C232.185 315.524 233.401 313.396 234.808 311.395C237.67 307.33 241.326 303.885 245.554 301.269C249.782 298.653 254.496 296.92 259.412 296.173C261.918 295.789 264.455 295.65 266.987 295.758C271.913 295.971 276.751 297.132 281.238 299.175L281.243 299.169Z" fill="url(#paint1_radial_29_359)"/>
<path d="M294.339 299.529C294.404 299.584 294.48 299.625 294.562 299.651C294.643 299.676 294.729 299.686 294.814 299.678C294.9 299.671 294.983 299.646 295.059 299.607C295.134 299.567 295.202 299.513 295.257 299.447C295.311 299.382 295.353 299.306 295.378 299.224C295.404 299.142 295.413 299.056 295.405 298.971C295.398 298.886 295.373 298.803 295.333 298.727C295.294 298.651 295.239 298.584 295.174 298.529C292.876 296.609 290.389 294.927 287.753 293.507C285.124 292.094 282.37 290.929 279.525 290.026C273.845 288.227 267.875 287.525 261.933 287.958C258.903 288.181 255.902 288.692 252.969 289.483C247.15 291.05 241.713 293.788 236.989 297.53C232.266 301.272 228.357 305.939 225.501 311.246C224.087 313.874 222.921 316.629 222.02 319.474C220.221 325.153 219.519 331.124 219.951 337.066C220.175 340.095 220.685 343.096 221.476 346.029C223.043 351.849 225.783 357.287 229.526 362.011C233.27 366.734 237.939 370.643 243.247 373.498C245.876 374.911 248.63 376.076 251.475 376.979C256.061 378.432 260.844 379.171 265.655 379.171C266.794 379.171 267.933 379.13 269.072 379.047C269.157 379.041 269.241 379.018 269.317 378.98C269.393 378.941 269.461 378.888 269.517 378.824C269.573 378.759 269.616 378.684 269.643 378.603C269.67 378.521 269.68 378.436 269.674 378.351C269.668 378.265 269.645 378.182 269.607 378.106C269.568 378.029 269.515 377.961 269.451 377.905C269.386 377.849 269.311 377.807 269.23 377.78C269.149 377.753 269.063 377.742 268.978 377.748C263.2 378.17 257.395 377.488 251.872 375.737C249.105 374.86 246.425 373.726 243.869 372.35C238.716 369.581 234.183 365.788 230.549 361.204C226.914 356.62 224.255 351.341 222.734 345.692C221.964 342.839 221.467 339.92 221.25 336.973C220.827 331.197 221.507 325.393 223.253 319.871C224.131 317.103 225.266 314.424 226.641 311.867C229.412 306.715 233.207 302.183 237.793 298.55C242.378 294.917 247.658 292.26 253.308 290.741C256.161 289.971 259.08 289.474 262.027 289.257C267.804 288.835 273.609 289.517 279.131 291.268C281.899 292.143 284.579 293.274 287.136 294.646C289.695 296.027 292.109 297.662 294.339 299.529Z" fill="url(#paint2_radial_29_359)"/>
<path d="M309.268 305.996C309.313 306.068 309.372 306.132 309.441 306.182C309.51 306.232 309.589 306.268 309.672 306.288C309.756 306.308 309.842 306.311 309.926 306.297C310.011 306.284 310.092 306.254 310.165 306.209C310.238 306.164 310.301 306.105 310.351 306.035C310.401 305.966 310.437 305.887 310.457 305.804C310.476 305.721 310.479 305.635 310.466 305.55C310.452 305.466 310.421 305.385 310.376 305.312C304.879 296.409 296.776 289.412 287.167 285.271C283.979 283.898 280.67 282.826 277.282 282.07C270.567 280.572 263.628 280.362 256.834 281.451C253.394 282.006 250.013 282.882 246.736 284.068C240.189 286.439 234.197 290.125 229.13 294.9C224.062 299.675 220.026 305.437 217.271 311.831C215.898 315.018 214.826 318.326 214.068 321.713C212.571 328.43 212.362 335.37 213.452 342.166C214.005 345.607 214.882 348.989 216.068 352.267C218.439 358.814 222.126 364.805 226.901 369.873C231.676 374.941 237.439 378.976 243.833 381.732C247.02 383.105 250.328 384.177 253.714 384.933C257.063 385.678 260.473 386.107 263.902 386.212C264.444 386.228 264.989 386.237 265.537 386.237C268.426 386.236 271.31 386.007 274.162 385.551C277.604 384.997 280.986 384.12 284.264 382.933C287.553 381.741 290.711 380.214 293.688 378.376C293.834 378.286 293.939 378.14 293.979 377.973C294.018 377.805 293.99 377.628 293.899 377.481C293.809 377.334 293.664 377.229 293.496 377.189C293.328 377.149 293.151 377.178 293.004 377.268C290.103 379.06 287.025 380.549 283.819 381.711C280.619 382.87 277.316 383.726 273.956 384.267C267.325 385.332 260.552 385.127 253.998 383.665C250.691 382.926 247.46 381.879 244.349 380.537C238.116 377.853 232.5 373.92 227.847 368.98C223.194 364.041 219.602 358.201 217.294 351.819C216.133 348.619 215.277 345.317 214.737 341.956C213.673 335.325 213.877 328.552 215.339 321.997C216.078 318.691 217.126 315.46 218.467 312.349C221.151 306.117 225.083 300.502 230.02 295.849C234.958 291.196 240.796 287.603 247.176 285.294C250.377 284.134 253.68 283.278 257.041 282.737C263.672 281.673 270.444 281.877 276.999 283.339C280.306 284.078 283.536 285.125 286.648 286.467C296.013 290.501 303.91 297.319 309.268 305.996Z" fill="url(#paint3_radial_29_359)"/>
<path d="M210.277 312.845C212.878 305.537 216.95 298.839 222.24 293.165C227.53 287.491 233.926 282.96 241.034 279.853C244.582 278.302 248.267 277.087 252.042 276.222C259.526 274.51 267.267 274.234 274.854 275.409C275.025 275.435 275.198 275.392 275.338 275.291C275.477 275.189 275.57 275.036 275.596 274.865C275.622 274.695 275.58 274.521 275.478 274.382C275.376 274.243 275.223 274.15 275.053 274.123C267.305 272.923 259.399 273.205 251.757 274.955C247.903 275.838 244.14 277.079 240.516 278.662C233.245 281.84 226.702 286.474 221.29 292.277C215.878 298.081 211.712 304.932 209.05 312.407C207.714 316.152 206.733 320.014 206.12 323.942C204.919 331.691 205.2 339.598 206.949 347.243C207.832 351.097 209.073 354.86 210.656 358.483C215.432 369.41 223.455 378.602 233.636 384.812C233.709 384.857 233.79 384.887 233.874 384.9C233.959 384.913 234.045 384.91 234.128 384.89C234.211 384.87 234.29 384.833 234.359 384.783C234.428 384.732 234.486 384.669 234.531 384.596C234.576 384.523 234.605 384.442 234.619 384.357C234.632 384.273 234.628 384.187 234.608 384.104C234.588 384.02 234.552 383.942 234.501 383.873C234.451 383.804 234.388 383.745 234.315 383.701C224.366 377.628 216.527 368.641 211.862 357.961C210.311 354.413 209.096 350.727 208.231 346.953C206.519 339.469 206.243 331.728 207.417 324.141C208.013 320.294 208.971 316.512 210.277 312.845Z" fill="url(#paint4_radial_29_359)"/>
<path d="M202.081 313.35C204.605 304.966 208.817 297.187 214.459 290.491C220.101 283.796 227.053 278.325 234.887 274.416C238.783 272.472 242.851 270.896 247.039 269.708C247.121 269.685 247.198 269.646 247.265 269.593C247.332 269.54 247.388 269.474 247.43 269.4C247.472 269.325 247.498 269.243 247.508 269.158C247.518 269.073 247.511 268.987 247.488 268.904C247.465 268.822 247.426 268.745 247.373 268.678C247.32 268.611 247.254 268.555 247.179 268.513C247.105 268.472 247.022 268.445 246.937 268.435C246.853 268.425 246.766 268.432 246.684 268.455C242.418 269.666 238.274 271.271 234.306 273.251C226.313 277.24 219.221 282.821 213.464 289.653C207.708 296.484 203.41 304.42 200.834 312.974C199.538 317.274 198.651 321.688 198.187 326.156C197.277 334.939 198.047 343.816 200.455 352.312C201.665 356.579 203.271 360.723 205.251 364.69C209.239 372.684 214.821 379.777 221.652 385.533C228.483 391.289 236.42 395.587 244.974 398.162C249.274 399.459 253.688 400.345 258.156 400.81C260.538 401.056 262.932 401.179 265.327 401.179C267.347 401.179 269.365 401.091 271.368 400.917C275.748 400.533 280.082 399.738 284.312 398.541C284.395 398.518 284.472 398.479 284.539 398.426C284.606 398.373 284.662 398.307 284.704 398.232C284.745 398.158 284.772 398.076 284.782 397.991C284.792 397.906 284.785 397.82 284.762 397.737C284.738 397.655 284.699 397.578 284.646 397.511C284.593 397.444 284.527 397.388 284.453 397.346C284.378 397.304 284.296 397.278 284.211 397.268C284.126 397.258 284.04 397.265 283.958 397.288C275.62 399.651 266.909 400.407 258.289 399.516C253.902 399.058 249.569 398.187 245.346 396.912C236.963 394.388 229.184 390.175 222.489 384.533C215.794 378.892 210.323 371.94 206.413 364.106C204.469 360.211 202.893 356.143 201.705 351.954C199.342 343.617 198.586 334.906 199.477 326.286C199.935 321.901 200.807 317.57 202.081 313.35Z" fill="url(#paint5_radial_29_359)"/>
<path d="M302.897 399.159C303.048 399.076 303.16 398.937 303.209 398.771C303.257 398.605 303.237 398.427 303.154 398.276C303.071 398.125 302.931 398.013 302.765 397.965C302.599 397.917 302.422 397.937 302.27 398.02C298.029 400.359 293.578 402.296 288.976 403.807C279.787 406.824 270.106 408.061 260.453 407.453C255.526 407.141 250.64 406.359 245.861 405.119C236.403 402.67 227.544 398.316 219.827 392.323C212.11 386.331 205.698 378.827 200.983 370.27C198.644 366.028 196.706 361.577 195.194 356.975C192.178 347.785 190.94 338.105 191.547 328.452C191.861 323.525 192.643 318.639 193.882 313.861C196.331 304.402 200.685 295.543 206.677 287.826C212.67 280.109 220.174 273.696 228.731 268.981C232.972 266.642 237.423 264.705 242.025 263.194C251.215 260.177 260.895 258.94 270.548 259.548C275.475 259.861 280.361 260.642 285.139 261.882C299.407 265.577 312.192 273.576 321.755 284.791C321.811 284.856 321.878 284.909 321.954 284.948C322.031 284.987 322.114 285.011 322.199 285.017C322.284 285.024 322.37 285.014 322.451 284.988C322.532 284.962 322.608 284.919 322.673 284.864C322.738 284.808 322.792 284.741 322.83 284.665C322.869 284.588 322.893 284.505 322.9 284.42C322.906 284.335 322.896 284.249 322.87 284.168C322.844 284.087 322.802 284.011 322.746 283.946C313.009 272.528 299.993 264.385 285.466 260.623C280.607 259.362 275.639 258.567 270.629 258.248C260.812 257.631 250.966 258.89 241.62 261.957C236.941 263.493 232.416 265.463 228.103 267.84C219.391 272.641 211.751 279.17 205.65 287.027C199.55 294.884 195.118 303.904 192.626 313.533C191.365 318.392 190.57 323.36 190.252 328.37C189.635 338.188 190.893 348.033 193.96 357.38C195.496 362.059 197.466 366.584 199.843 370.897C204.644 379.609 211.173 387.249 219.03 393.35C226.887 399.45 235.907 403.882 245.537 406.374C250.396 407.635 255.364 408.43 260.374 408.748C261.988 408.849 263.606 408.899 265.228 408.899C273.434 408.901 281.587 407.598 289.383 405.039C294.061 403.504 298.585 401.535 302.897 399.159Z" fill="url(#paint6_radial_29_359)"/>
<path d="M185.682 314.375C188.058 303.842 192.554 293.904 198.896 285.165C205.237 276.427 213.292 269.071 222.568 263.545C227.157 260.813 231.99 258.515 237.006 256.681C247.047 253.009 257.697 251.289 268.384 251.614C268.556 251.618 268.723 251.555 268.849 251.436C268.974 251.318 269.047 251.154 269.053 250.982C269.058 250.81 268.994 250.642 268.876 250.517C268.758 250.391 268.595 250.317 268.423 250.312C257.57 249.983 246.755 251.729 236.557 255.457C231.466 257.319 226.56 259.652 221.903 262.424C212.473 268.038 204.285 275.515 197.839 284.397C191.394 293.28 186.825 303.382 184.413 314.088C183.188 319.504 182.484 325.025 182.312 330.575C181.981 341.428 183.725 352.243 187.451 362.441C189.314 367.532 191.647 372.439 194.421 377.097C202.83 391.22 215.345 402.443 230.297 409.269C230.375 409.304 230.459 409.324 230.544 409.327C230.63 409.329 230.715 409.315 230.795 409.285C230.875 409.255 230.949 409.209 231.011 409.15C231.074 409.092 231.124 409.021 231.159 408.943C231.194 408.865 231.214 408.781 231.217 408.696C231.22 408.61 231.206 408.525 231.175 408.445C231.145 408.364 231.099 408.291 231.041 408.229C230.982 408.166 230.912 408.116 230.834 408.081C216.124 401.363 203.811 390.322 195.536 376.428C192.803 371.84 190.505 367.006 188.672 361.99C185.003 351.948 183.286 341.298 183.614 330.611C183.783 325.145 184.476 319.709 185.682 314.375Z" fill="url(#paint7_radial_29_359)"/>
<path d="M301.305 250.782C301.464 250.849 301.643 250.851 301.803 250.787C301.963 250.722 302.09 250.597 302.158 250.439C302.192 250.36 302.21 250.275 302.21 250.19C302.211 250.104 302.195 250.02 302.164 249.94C302.132 249.861 302.084 249.789 302.025 249.728C301.965 249.666 301.894 249.618 301.815 249.584C296.197 247.195 290.347 245.39 284.36 244.198C278.384 243.009 272.308 242.399 266.216 242.377C254.329 242.335 242.543 244.569 231.496 248.958C225.991 251.145 220.703 253.842 215.701 257.013C205.556 263.442 196.825 271.865 190.035 281.771C183.245 291.677 178.539 302.86 176.203 314.64C175.013 320.613 174.402 326.687 174.377 332.777C174.335 344.665 176.569 356.45 180.958 367.497C183.145 373.002 185.842 378.29 189.013 383.293C195.441 393.438 203.863 402.172 213.77 408.963C223.676 415.753 234.859 420.46 246.64 422.796C252.613 423.986 258.687 424.598 264.777 424.623H265.103C270.951 424.623 276.787 424.073 282.532 422.979C282.701 422.947 282.851 422.849 282.948 422.707C283.045 422.564 283.082 422.389 283.05 422.22C283.017 422.05 282.919 421.901 282.777 421.804C282.634 421.707 282.459 421.67 282.29 421.702C276.521 422.8 270.66 423.345 264.787 423.329C258.78 423.304 252.79 422.701 246.899 421.528C235.292 419.224 224.273 414.586 214.513 407.895C204.752 401.204 196.453 392.6 190.118 382.604C186.991 377.67 184.331 372.454 182.173 367.025C177.846 356.132 175.643 344.512 175.683 332.79C175.709 326.784 176.312 320.793 177.485 314.902C179.786 303.293 184.422 292.273 191.113 282.511C197.803 272.749 206.407 264.448 216.404 258.113C221.338 254.985 226.553 252.325 231.983 250.168C242.875 245.841 254.495 243.638 266.216 243.678C272.223 243.704 278.213 244.307 284.104 245.48C290.004 246.653 295.769 248.43 301.305 250.782Z" fill="url(#paint8_radial_29_359)"/>
<path d="M347.222 278.417C347.293 278.369 347.354 278.308 347.402 278.237C347.449 278.166 347.483 278.086 347.499 278.002C347.516 277.919 347.516 277.832 347.5 277.748C347.483 277.664 347.45 277.585 347.402 277.513C340.16 266.653 330.791 257.375 319.861 250.239C308.931 243.103 296.667 238.257 283.811 235.996C277.28 234.84 270.653 234.32 264.022 234.442C251.101 234.686 238.346 237.406 226.449 242.456C220.532 244.97 214.862 248.03 209.513 251.597C198.653 258.839 189.375 268.209 182.238 279.139C175.102 290.069 170.257 302.333 167.996 315.189C166.84 321.719 166.32 328.347 166.442 334.978C166.686 347.899 169.406 360.654 174.456 372.551C176.969 378.468 180.03 384.138 183.597 389.487C190.839 400.347 200.209 409.625 211.139 416.761C222.069 423.898 234.333 428.743 247.189 431.004C253.093 432.048 259.078 432.574 265.074 432.576C265.708 432.576 266.343 432.576 266.978 432.558C279.899 432.314 292.654 429.594 304.55 424.544C304.709 424.476 304.835 424.348 304.899 424.189C304.964 424.029 304.963 423.85 304.895 423.691C304.828 423.532 304.7 423.407 304.54 423.342C304.381 423.277 304.202 423.279 304.043 423.346C292.3 428.332 279.709 431.018 266.953 431.258C260.406 431.376 253.863 430.86 247.415 429.719C234.733 427.487 222.636 422.707 211.854 415.668C201.072 408.628 191.829 399.476 184.684 388.764C181.162 383.484 178.14 377.885 175.659 372.043C170.672 360.3 167.985 347.709 167.743 334.953C167.624 328.406 168.137 321.863 169.276 315.415C171.509 302.733 176.289 290.635 183.329 279.852C190.368 269.07 199.521 259.827 210.234 252.681C215.515 249.158 221.113 246.137 226.955 243.656C238.698 238.669 251.289 235.983 264.045 235.744C270.592 235.623 277.135 236.137 283.583 237.278C296.265 239.511 308.363 244.292 319.145 251.331C329.928 258.371 339.171 267.524 346.317 278.236C346.364 278.307 346.426 278.369 346.497 278.416C346.568 278.464 346.648 278.497 346.732 278.514C346.816 278.531 346.903 278.531 346.987 278.514C347.071 278.498 347.151 278.464 347.222 278.417Z" fill="url(#paint9_radial_29_359)"/>
<path d="M166.511 295.403C173.888 275.933 186.979 259.147 204.066 247.251C209.692 243.331 215.673 239.948 221.93 237.145C234.523 231.5 248.084 228.33 261.874 227.807C268.961 227.543 276.056 227.967 283.061 229.074C296.974 231.257 310.293 236.264 322.198 243.789C322.27 243.835 322.35 243.866 322.435 243.881C322.519 243.895 322.605 243.893 322.689 243.874C322.772 243.856 322.851 243.821 322.921 243.771C322.991 243.722 323.05 243.66 323.096 243.587C323.142 243.515 323.173 243.435 323.187 243.35C323.202 243.266 323.2 243.18 323.181 243.096C323.162 243.013 323.127 242.934 323.078 242.864C323.029 242.794 322.966 242.735 322.894 242.689C310.841 235.071 297.357 230 283.271 227.787C276.179 226.668 268.996 226.239 261.822 226.506C247.866 227.037 234.143 230.245 221.398 235.957C215.067 238.793 209.015 242.217 203.321 246.181C191.747 254.238 181.923 264.553 174.441 276.506C166.959 288.46 161.974 301.804 159.786 315.735C158.667 322.824 158.238 330.004 158.505 337.174C159.034 351.131 162.242 364.856 167.953 377.602C170.79 383.932 174.212 389.984 178.175 395.677C178.224 395.747 178.286 395.807 178.358 395.853C178.43 395.9 178.51 395.931 178.594 395.946C178.679 395.961 178.765 395.96 178.848 395.941C178.932 395.923 179.011 395.889 179.081 395.84C179.152 395.791 179.212 395.729 179.258 395.657C179.304 395.585 179.335 395.504 179.351 395.42C179.366 395.336 179.364 395.25 179.346 395.166C179.328 395.083 179.293 395.004 179.244 394.933C175.326 389.307 171.943 383.326 169.14 377.07C163.497 364.475 160.328 350.912 159.807 337.121C159.543 330.034 159.967 322.939 161.074 315.934C162.181 308.923 164.002 302.043 166.511 295.403Z" fill="url(#paint10_radial_29_359)"/>
<path d="M342.54 249.369C342.667 249.487 342.835 249.549 343.007 249.542C343.179 249.535 343.342 249.46 343.459 249.334C343.577 249.207 343.639 249.039 343.632 248.867C343.625 248.694 343.55 248.531 343.424 248.414C326.599 232.841 305.418 222.781 282.718 219.58C275.073 218.495 267.34 218.157 259.63 218.571C244.636 219.386 229.939 223.081 216.342 229.454C209.598 232.616 203.164 236.403 197.126 240.764C184.839 249.636 174.471 260.9 166.644 273.878C158.817 286.857 153.694 301.283 151.58 316.29C150.495 323.935 150.158 331.668 150.571 339.378C151.386 354.372 155.081 369.069 161.454 382.666C164.616 389.41 168.403 395.844 172.764 401.882C181.634 414.169 192.895 424.537 205.87 432.364C218.846 440.192 233.269 445.318 248.274 447.434C253.82 448.213 259.414 448.601 265.015 448.596C267.138 448.596 269.254 448.539 271.362 448.424C286.356 447.609 301.053 443.914 314.65 437.541C321.394 434.379 327.827 430.592 333.866 426.231C333.935 426.181 333.994 426.118 334.039 426.045C334.084 425.972 334.114 425.891 334.128 425.807C334.141 425.722 334.138 425.636 334.118 425.553C334.099 425.469 334.063 425.391 334.012 425.321C333.962 425.252 333.899 425.193 333.826 425.148C333.753 425.103 333.672 425.073 333.588 425.06C333.503 425.046 333.417 425.049 333.334 425.069C333.251 425.089 333.172 425.125 333.103 425.175C327.131 429.489 320.769 433.235 314.098 436.362C293.637 445.938 270.825 449.331 248.463 446.126C233.631 444.033 219.374 438.967 206.547 431.23C193.72 423.494 182.588 413.246 173.818 401.103C169.504 395.131 165.759 388.767 162.632 382.097C156.329 368.654 152.675 354.122 151.87 339.297C151.46 331.671 151.795 324.023 152.868 316.461C154.961 301.629 160.029 287.373 167.766 274.547C175.503 261.721 185.75 250.59 197.894 241.82C203.868 237.506 210.233 233.76 216.906 230.634C230.349 224.33 244.881 220.676 259.706 219.872C267.333 219.462 274.98 219.796 282.542 220.869C304.979 224.032 325.913 233.976 342.54 249.369Z" fill="url(#paint11_radial_29_359)"/>
<path d="M150.239 293.116C158.06 270.472 172.514 250.705 191.721 236.386C198.039 231.677 204.785 227.57 211.87 224.119C226.164 217.16 241.665 213.023 257.526 211.935C265.691 211.382 273.892 211.626 282.01 212.665C290.137 213.704 298.136 215.572 305.883 218.239C305.964 218.267 306.05 218.279 306.135 218.274C306.221 218.269 306.304 218.247 306.381 218.209C306.458 218.172 306.527 218.119 306.584 218.055C306.64 217.991 306.684 217.917 306.712 217.836C306.768 217.673 306.757 217.494 306.681 217.339C306.605 217.184 306.471 217.065 306.308 217.009C298.477 214.313 290.39 212.425 282.174 211.377C273.972 210.325 265.688 210.078 257.438 210.638C241.41 211.738 225.745 215.919 211.302 222.954C204.144 226.439 197.328 230.589 190.945 235.348C177.944 245.032 167.031 257.24 158.857 271.239C150.683 285.239 145.417 300.744 143.373 316.826C142.323 325.027 142.076 333.312 142.636 341.562C143.736 357.589 147.918 373.254 154.952 387.698C158.438 394.856 162.587 401.672 167.346 408.055C177.031 421.055 189.239 431.969 203.239 440.143C217.239 448.317 232.744 453.583 248.826 455.626C254.187 456.311 259.587 456.655 264.992 456.656C267.857 456.656 270.715 456.559 273.564 456.363C289.591 455.263 305.256 451.082 319.7 444.047C319.855 443.972 319.974 443.838 320.03 443.675C320.086 443.512 320.076 443.334 320.001 443.178C319.963 443.101 319.911 443.033 319.847 442.976C319.783 442.919 319.709 442.875 319.628 442.847C319.547 442.819 319.461 442.808 319.376 442.813C319.291 442.818 319.207 442.84 319.13 442.877C304.837 449.837 289.335 453.975 273.474 455.065C265.308 455.618 257.108 455.373 248.99 454.334C233.083 452.309 217.747 447.098 203.899 439.013C190.05 430.928 177.973 420.135 168.39 407.279C163.68 400.96 159.573 394.215 156.122 387.13C145.541 365.369 141.558 340.987 144.666 316.99C145.704 308.863 147.571 300.863 150.239 293.116Z" fill="url(#paint12_radial_29_359)"/>
<path d="M330.986 219.398C315.81 210.687 299.016 205.164 281.632 203.168C272.872 202.15 264.033 201.993 255.243 202.699C238.182 204.084 221.549 208.753 206.259 216.447C198.686 220.258 191.489 224.771 184.761 229.927C171.047 240.426 159.589 253.579 151.068 268.602C142.548 283.625 137.14 300.21 135.168 317.368C134.151 326.128 133.995 334.966 134.701 343.757C136.086 360.818 140.754 377.451 148.449 392.741C152.26 400.313 156.772 407.51 161.927 414.239C172.427 427.951 185.58 439.409 200.603 447.928C215.626 456.448 232.21 461.855 249.368 463.827C254.547 464.427 259.757 464.728 264.971 464.728C268.581 464.728 272.182 464.583 275.756 464.294C292.817 462.909 309.45 458.24 324.74 450.546C332.312 446.735 339.509 442.222 346.237 437.066C346.374 436.961 346.463 436.806 346.486 436.635C346.508 436.464 346.462 436.292 346.358 436.155C346.306 436.087 346.241 436.03 346.167 435.987C346.093 435.944 346.011 435.916 345.927 435.904C345.842 435.893 345.756 435.899 345.673 435.921C345.59 435.943 345.513 435.981 345.445 436.033C338.782 441.138 331.654 445.605 324.155 449.377C309.017 457 292.548 461.625 275.655 463C266.949 463.7 258.196 463.545 249.521 462.538C232.537 460.581 216.12 455.226 201.249 446.792C186.378 438.358 173.357 427.017 162.961 413.445C157.856 406.781 153.389 399.653 149.616 392.155C141.996 377.015 137.372 360.545 135.998 343.651C135.299 334.946 135.454 326.193 136.46 317.517C138.416 300.534 143.771 284.119 152.204 269.249C160.637 254.378 171.977 241.358 185.549 230.962C192.212 225.857 199.339 221.389 206.838 217.618C221.98 209.996 238.452 205.372 255.348 204.001C264.054 203.301 272.807 203.456 281.482 204.463C298.69 206.438 315.313 211.904 330.335 220.526C330.484 220.612 330.662 220.635 330.828 220.59C330.995 220.545 331.137 220.436 331.223 220.286C331.309 220.137 331.333 219.96 331.288 219.793C331.244 219.626 331.135 219.484 330.986 219.398Z" fill="url(#paint13_radial_29_359)"/>
<path d="M354.999 228.099C355.13 228.212 355.3 228.268 355.473 228.254C355.645 228.241 355.804 228.16 355.917 228.029C355.973 227.964 356.015 227.889 356.041 227.808C356.068 227.727 356.078 227.641 356.071 227.556C356.065 227.47 356.041 227.387 356.002 227.311C355.964 227.235 355.91 227.167 355.845 227.112C334.769 209.053 308.694 197.839 281.089 194.961C271.771 193.979 262.38 193.913 253.05 194.766C234.952 196.435 217.347 201.59 201.207 209.946C193.222 214.079 185.643 218.954 178.57 224.506C164.145 235.821 152.142 249.922 143.276 265.969C134.41 282.016 128.862 299.683 126.961 317.918C125.979 327.235 125.914 336.627 126.766 345.957C128.435 364.056 133.59 381.66 141.946 397.801C146.08 405.786 150.956 413.365 156.51 420.437C167.676 434.661 181.547 446.535 197.324 455.372C197.475 455.456 197.653 455.477 197.819 455.43C197.985 455.383 198.125 455.272 198.21 455.122C198.251 455.047 198.278 454.965 198.288 454.88C198.298 454.795 198.292 454.709 198.268 454.626C198.245 454.544 198.206 454.467 198.153 454.4C198.099 454.332 198.034 454.276 197.959 454.235C182.331 445.481 168.592 433.719 157.533 419.629C152.031 412.621 147.2 405.111 143.103 397.198C130.506 372.839 125.344 345.315 128.257 318.046C130.144 299.987 135.642 282.492 144.423 266.6C153.205 250.708 165.09 236.742 179.374 225.533C186.382 220.031 193.892 215.199 201.804 211.103C217.796 202.822 235.239 197.715 253.171 196.063C262.416 195.219 271.721 195.284 280.953 196.257C308.297 199.104 334.124 210.211 354.999 228.099Z" fill="url(#paint14_radial_29_359)"/>
<path d="M395.127 404.373C395.209 404.222 395.228 404.044 395.18 403.879C395.131 403.714 395.019 403.574 394.868 403.491C394.717 403.408 394.539 403.389 394.373 403.437C394.207 403.485 394.068 403.597 393.984 403.749C384.883 420.373 372.587 435.035 357.801 446.894C350.448 452.792 342.555 457.985 334.229 462.406C317.388 471.345 298.975 476.937 280.008 478.873C270.223 479.863 260.365 479.888 250.575 478.948C231.441 477.126 212.867 471.484 195.953 462.355C179.039 453.226 164.128 440.796 152.104 425.801C146.206 418.447 141.013 410.555 136.594 402.229C127.654 385.388 122.062 366.975 120.126 348.008C119.136 338.221 119.111 328.36 120.052 318.568C121.874 299.437 127.517 280.865 136.646 263.954C145.775 247.042 158.204 232.134 173.198 220.112C173.333 220.004 173.419 219.847 173.438 219.676C173.457 219.504 173.407 219.332 173.299 219.198C173.246 219.131 173.18 219.075 173.105 219.034C173.03 218.992 172.947 218.966 172.862 218.957C172.777 218.948 172.691 218.955 172.609 218.979C172.526 219.003 172.45 219.043 172.383 219.097C157.248 231.224 144.703 246.267 135.491 263.334C126.279 280.401 120.589 299.144 118.756 318.451C117.808 328.326 117.833 338.27 118.831 348.139C120.783 367.275 126.424 385.85 135.443 402.839C139.901 411.238 145.139 419.199 151.089 426.616C163.217 441.752 178.262 454.298 195.33 463.51C212.398 472.722 231.143 478.412 250.452 480.243C255.272 480.706 260.113 480.937 264.935 480.937C289.305 480.952 313.305 474.984 334.829 463.556C343.229 459.099 351.19 453.86 358.607 447.911C373.527 435.945 385.935 421.15 395.119 404.373H395.127Z" fill="url(#paint15_radial_29_359)"/>
<path d="M400.916 259.737C400.998 259.889 401.137 260.002 401.302 260.051C401.468 260.1 401.646 260.081 401.798 259.999C401.949 259.917 402.062 259.778 402.111 259.612C402.16 259.447 402.142 259.269 402.06 259.117C397.278 250.305 391.677 241.962 385.33 234.2C372.388 218.352 356.399 205.261 338.308 195.701C320.217 186.141 300.393 180.307 280.008 178.544C269.576 177.63 259.079 177.747 248.67 178.892C228.498 181.128 208.952 187.257 191.116 196.94C182.303 201.721 173.961 207.322 166.199 213.669C150.351 226.611 137.26 242.601 127.7 260.692C118.14 278.782 112.306 298.607 110.543 318.992C109.629 329.424 109.745 339.921 110.891 350.33C113.127 370.502 119.257 390.047 128.94 407.884C133.721 416.697 139.323 425.039 145.67 432.801C158.612 448.649 174.601 461.74 192.692 471.3C210.782 480.86 230.607 486.694 250.992 488.457C255.632 488.862 260.289 489.064 264.937 489.064C291.113 489.083 316.877 482.552 339.882 470.066C348.696 465.285 357.039 459.683 364.801 453.336C364.867 453.282 364.922 453.216 364.963 453.14C365.003 453.065 365.028 452.983 365.037 452.897C365.046 452.812 365.037 452.726 365.013 452.645C364.988 452.563 364.948 452.486 364.894 452.42C364.839 452.354 364.773 452.299 364.697 452.259C364.622 452.218 364.539 452.193 364.454 452.185C364.369 452.176 364.283 452.185 364.202 452.209C364.12 452.234 364.044 452.275 363.977 452.329C356.279 458.626 348.004 464.184 339.262 468.928C321.575 478.532 302.191 484.611 282.187 486.829C271.863 487.966 261.451 488.082 251.104 487.174C230.895 485.423 211.241 479.638 193.305 470.163C175.368 460.687 159.513 447.713 146.675 432.006C140.38 424.297 134.825 416.012 130.084 407.26C120.484 389.573 114.407 370.19 112.191 350.187C111.055 339.862 110.939 329.451 111.846 319.104C113.6 298.894 119.387 279.241 128.863 261.305C138.34 243.369 151.315 227.514 167.023 214.677C174.721 208.38 182.996 202.822 191.737 198.078C209.426 188.479 228.81 182.405 248.813 180.191C259.137 179.054 269.549 178.939 279.896 179.846C290.251 180.751 300.488 182.708 310.446 185.687C339.44 194.401 365.169 211.582 384.329 235.022C390.626 242.721 396.184 250.996 400.929 259.737H400.916Z" fill="url(#paint16_radial_29_359)"/>
<path d="M393.185 436.269C393.294 436.135 393.345 435.963 393.327 435.792C393.31 435.621 393.225 435.463 393.091 435.354C392.957 435.246 392.785 435.195 392.614 435.213C392.442 435.231 392.285 435.316 392.177 435.45C385.579 443.581 378.204 451.048 370.155 457.745C362.111 464.436 353.454 470.354 344.299 475.42C325.761 485.679 305.407 492.241 284.368 494.74C273.505 496.021 262.541 496.227 251.638 495.354C240.725 494.483 229.928 492.504 219.416 489.447C188.836 480.509 161.62 462.649 141.25 438.153C134.559 430.112 128.641 421.458 123.575 412.306C113.314 393.765 106.752 373.409 104.255 352.366C102.974 341.503 102.768 330.54 103.641 319.636C104.511 308.723 106.49 297.927 109.548 287.414C118.488 256.835 136.349 229.619 160.847 209.25C168.89 202.559 177.547 196.641 186.702 191.575C205.24 181.315 225.594 174.754 246.634 172.255C257.497 170.974 268.46 170.768 279.364 171.641C290.277 172.512 301.073 174.491 311.586 177.549C342.166 186.486 369.383 204.348 389.752 228.847C389.862 228.979 390.021 229.063 390.192 229.079C390.364 229.094 390.535 229.041 390.668 228.931C390.801 228.821 390.884 228.663 390.9 228.491C390.916 228.319 390.863 228.148 390.753 228.015C376.996 211.456 360.061 197.822 340.947 187.917C321.833 178.011 300.929 172.036 279.468 170.344C268.479 169.463 257.429 169.67 246.481 170.963C225.274 173.481 204.758 180.094 186.073 190.436C176.846 195.541 168.121 201.505 160.013 208.249C143.454 222.005 129.819 238.94 119.913 258.053C110.008 277.167 104.032 298.071 102.339 319.532C101.458 330.521 101.665 341.571 102.958 352.519C105.476 373.726 112.089 394.242 122.431 412.927C127.54 422.157 133.509 430.885 140.257 438.995C154.014 455.553 170.949 469.187 190.062 479.092C209.175 488.997 230.08 494.972 251.54 496.664C256.001 497.021 260.468 497.199 264.94 497.198C303.699 497.181 341.226 483.579 370.995 458.759C379.106 452.002 386.538 444.47 393.185 436.269Z" fill="url(#paint17_radial_29_359)"/>
<path d="M101.41 286.278C110.572 254.111 129.115 225.404 154.669 203.824C163.059 196.737 172.098 190.456 181.667 185.067C191.272 179.663 201.373 175.192 211.831 171.714C211.912 171.687 211.987 171.645 212.051 171.589C212.116 171.533 212.169 171.464 212.207 171.388C212.245 171.311 212.268 171.228 212.274 171.143C212.28 171.058 212.269 170.972 212.242 170.891C212.216 170.81 212.173 170.735 212.117 170.67C212.061 170.605 211.993 170.552 211.916 170.514C211.84 170.475 211.757 170.452 211.671 170.446C211.586 170.44 211.5 170.451 211.419 170.478C200.883 173.983 190.706 178.488 181.028 183.933C171.387 189.362 162.281 195.689 153.829 202.83C136.561 217.402 122.383 235.282 112.132 255.417C101.88 275.553 95.7619 297.536 94.1372 320.073C93.2918 331.619 93.59 343.221 95.0274 354.71C97.828 376.952 104.928 398.438 115.931 417.971C121.361 427.614 127.688 436.724 134.83 445.179C149.401 462.448 167.281 476.625 187.417 486.877C207.552 497.128 229.536 503.246 252.072 504.869C256.354 505.184 260.639 505.341 264.929 505.34C272.209 505.341 279.483 504.887 286.706 503.981C308.949 501.179 330.435 494.08 349.967 483.077C350.118 482.993 350.228 482.852 350.275 482.686C350.322 482.52 350.3 482.342 350.216 482.192C350.174 482.117 350.118 482.051 350.051 481.999C349.984 481.946 349.907 481.906 349.824 481.883C349.742 481.86 349.656 481.854 349.571 481.864C349.486 481.874 349.404 481.901 349.329 481.943C329.943 492.863 308.619 499.909 286.544 502.69C275.141 504.117 263.625 504.413 252.164 503.574C240.694 502.737 229.339 500.735 218.275 497.6C186.107 488.434 157.402 469.888 135.824 444.331C128.736 435.942 122.455 426.903 117.067 417.333C106.145 397.948 99.0974 376.623 96.3179 354.547C94.89 343.144 94.594 331.628 95.4342 320.167C96.2715 308.697 98.2737 297.343 101.41 286.278Z" fill="url(#paint18_radial_29_359)"/>
<path d="M407.274 443.639C407.207 443.586 407.13 443.547 407.047 443.524C406.965 443.501 406.879 443.494 406.794 443.504C406.709 443.514 406.627 443.541 406.552 443.583C406.478 443.625 406.412 443.681 406.359 443.748C399.234 452.788 391.245 461.113 382.507 468.605C373.773 476.089 364.351 482.732 354.368 488.444C334.134 500.025 311.839 507.556 288.727 510.619C276.785 512.191 264.716 512.577 252.697 511.771C240.671 510.967 228.758 508.943 217.141 505.73C183.388 496.341 153.193 477.118 130.402 450.51C122.916 441.774 116.272 432.352 110.557 422.368C98.9761 402.134 91.4445 379.839 88.3828 356.727C86.8099 344.785 86.4239 332.716 87.2306 320.697C88.0332 308.671 90.0572 296.757 93.2714 285.141C102.659 251.387 121.882 221.191 148.492 198.402C157.226 190.916 166.648 184.272 176.631 178.557C196.865 166.976 219.16 159.445 242.272 156.383C254.214 154.81 266.283 154.424 278.301 155.231C290.328 156.034 302.242 158.058 313.859 161.271C347.612 170.66 377.807 189.883 400.598 216.491C400.711 216.622 400.87 216.703 401.043 216.717C401.215 216.73 401.385 216.674 401.516 216.561C401.647 216.449 401.728 216.289 401.741 216.117C401.754 215.945 401.698 215.775 401.586 215.644C386.201 197.665 367.377 182.943 346.22 172.346C325.063 161.748 302 155.487 278.389 153.932C266.283 153.119 254.127 153.508 242.098 155.092C218.82 158.177 196.365 165.764 175.984 177.428C165.93 183.181 156.442 189.871 147.645 197.409C129.666 212.794 114.944 231.619 104.345 252.777C93.7473 273.935 87.4867 296.998 85.932 320.611C85.1188 332.716 85.5075 344.873 87.0923 356.901C90.1776 380.18 97.7638 402.635 109.428 423.015C115.181 433.072 121.871 442.564 129.409 451.363C144.795 469.341 163.62 484.061 184.778 494.658C205.936 505.255 228.999 511.514 252.611 513.068C256.715 513.341 260.823 513.478 264.934 513.479C272.948 513.481 280.953 512.956 288.898 511.907C312.178 508.823 334.634 501.236 355.015 489.572C365.069 483.817 374.558 477.127 383.355 469.589C392.158 462.042 400.205 453.657 407.383 444.55C407.489 444.415 407.537 444.243 407.516 444.072C407.496 443.901 407.409 443.746 407.274 443.639Z" fill="url(#paint19_radial_29_359)"/>
<path d="M450.586 268.317C442.135 244.368 429.305 222.485 412.434 203.277C395.675 184.192 375.341 168.574 352.579 157.305C329.033 145.658 303.714 139.002 277.311 137.521C250.909 136.04 225.014 139.704 200.317 148.413C176.369 156.858 154.485 169.694 135.277 186.565C116.193 203.324 100.575 223.659 89.3055 246.42C77.6584 269.962 71.0024 295.286 69.5215 321.688C68.0406 348.091 71.7038 373.984 80.4135 398.683C88.858 422.631 101.688 444.514 118.566 463.73C135.325 482.815 155.659 498.433 178.421 509.702C201.962 521.34 227.286 527.997 253.685 529.476C257.49 529.693 261.282 529.802 265.062 529.802C287.412 529.822 309.603 526.03 330.678 518.589C354.628 510.145 376.511 497.308 395.718 480.437C395.782 480.381 395.835 480.312 395.873 480.235C395.91 480.159 395.933 480.075 395.938 479.99C395.944 479.904 395.933 479.819 395.905 479.738C395.878 479.657 395.834 479.582 395.778 479.518C395.664 479.388 395.503 479.309 395.331 479.298C395.159 479.287 394.99 479.345 394.86 479.459C375.779 496.221 354.039 508.973 330.253 517.362C305.721 526.013 279.987 529.654 253.767 528.183C227.546 526.711 202.385 520.098 179.002 508.53C156.379 497.359 136.177 481.843 119.549 462.866C102.787 443.784 90.0346 422.044 81.6455 398.251C72.9943 373.719 69.3539 347.983 70.825 321.765C72.2962 295.546 78.905 270.38 90.4724 246.996C101.644 224.374 117.16 204.172 136.137 187.544C155.219 170.782 176.958 158.029 200.743 149.64C225.278 140.989 251.011 137.35 277.23 138.82C303.449 140.289 328.611 146.905 351.995 158.472C374.617 169.644 394.819 185.16 411.446 204.136C428.208 223.219 440.962 244.959 449.351 268.751C449.409 268.914 449.528 269.047 449.684 269.122C449.84 269.196 450.018 269.206 450.181 269.148C450.344 269.091 450.477 268.971 450.551 268.815C450.626 268.66 450.635 268.481 450.578 268.318L450.586 268.317Z" fill="url(#paint20_radial_29_359)"/>
<path d="M447.59 223.815C440.543 212.104 432.401 201.087 423.276 190.912C404.921 170.438 382.741 153.749 357.984 141.783C332.362 129.415 304.858 122.455 276.234 121.116C247.61 119.776 219.59 124.008 192.912 133.708C180.006 138.409 167.581 144.338 155.808 151.416C144.1 158.461 133.085 166.601 122.912 175.724C102.438 194.079 85.7493 216.259 73.7836 241.016C61.4155 266.637 54.4553 294.142 53.1159 322.764C51.7766 351.386 56.0078 379.41 65.7086 406.086C70.4089 418.992 76.3387 431.417 83.416 443.19C90.4634 454.9 98.6041 465.917 107.729 476.092C126.084 496.563 148.262 513.251 173.016 525.216C198.638 537.584 226.142 544.544 254.764 545.884C258.22 546.046 261.664 546.127 265.096 546.126C289.988 546.151 314.691 541.807 338.081 533.291C350.988 528.591 363.413 522.661 375.185 515.584C386.896 508.536 397.912 500.395 408.087 491.269C428.561 472.914 445.251 450.734 457.216 425.977C469.584 400.356 476.545 372.851 477.884 344.229C479.223 315.607 474.992 287.583 465.291 260.907C460.592 248.005 454.665 235.583 447.59 223.815ZM476.589 344.174C475.252 372.62 468.339 399.955 456.043 425.417C444.176 450.036 427.588 472.084 407.222 490.307C386.741 508.677 363.33 522.729 337.64 532.074C311.13 541.716 283.269 545.928 254.829 544.59C226.389 543.252 199.048 536.339 173.586 524.043C148.963 512.177 126.912 495.588 108.686 475.218C90.3226 454.738 76.2702 431.326 66.9258 405.633C57.2836 379.123 53.072 351.263 54.4097 322.822C55.7474 294.382 62.6605 267.043 74.9569 241.579C86.8229 216.96 103.411 194.912 123.778 176.689C144.262 158.322 167.673 144.277 193.363 134.926C216.61 126.46 241.163 122.143 265.904 122.169C269.318 122.169 272.741 122.249 276.174 122.409C304.62 123.747 331.954 130.66 357.417 142.957C382.037 154.823 404.084 171.411 422.307 191.778C440.671 212.262 454.73 235.673 464.074 261.363C473.716 287.873 477.926 315.734 476.589 344.174Z" fill="url(#paint21_radial_29_359)"/>
<path d="M460.6 213.731C452.905 201.192 444.039 189.411 434.121 178.546C414.167 156.685 390.141 138.926 363.388 126.263C349.792 119.838 335.59 114.783 320.992 111.173C305.975 107.472 290.621 105.303 275.167 104.699C244.331 103.488 214.172 108.297 185.526 118.992C171.67 124.169 158.346 130.669 145.736 138.4C133.196 146.094 121.413 154.96 110.546 164.879C88.6848 184.833 70.9256 208.859 58.2633 235.612C51.8383 249.208 46.7831 263.41 43.1727 278.008C39.4715 293.027 37.3025 308.383 36.699 323.84C35.4882 354.674 40.2971 384.834 50.9922 413.481C56.1695 427.336 62.6688 440.66 70.4003 453.27C78.0948 465.808 86.9608 477.589 96.8793 488.454C116.833 510.315 140.859 528.074 167.612 540.736C181.207 547.161 195.409 552.216 210.006 555.827C225.026 559.528 240.382 561.697 255.84 562.301C258.945 562.423 262.042 562.484 265.131 562.483C292.566 562.512 319.782 557.606 345.481 547.999C359.335 542.823 372.66 536.323 385.268 528.591C397.808 520.897 409.589 512.031 420.454 502.112C442.312 482.161 460.069 458.138 472.73 431.388C479.155 417.792 484.21 403.59 487.821 388.992C491.522 373.973 493.691 358.617 494.294 343.16C495.505 312.326 490.696 282.166 480.001 253.519C474.826 239.665 468.328 226.341 460.6 213.731ZM493.001 343.108C491.796 373.776 484.582 403.29 471.558 430.832C458.995 457.448 441.334 481.341 419.575 501.16C397.695 521.14 372.614 536.491 345.025 546.79C316.546 557.424 286.552 562.206 255.892 561.002C225.232 559.798 195.71 552.585 168.168 539.566C141.553 527.002 117.659 509.341 97.8411 487.581C77.8618 465.697 62.5108 440.622 52.216 413.025C41.5827 384.546 36.8015 354.552 38.0041 323.892C39.2067 293.232 46.4225 263.71 59.4448 236.168C72.0073 209.553 89.6672 185.66 111.425 165.841C133.303 145.863 158.386 130.511 185.975 120.211C214.454 109.578 244.448 104.797 275.108 105.999C305.768 107.202 335.29 114.418 362.832 127.44C389.447 140.005 413.34 157.668 433.159 179.428C453.136 201.306 468.489 226.389 478.789 253.978C489.422 282.459 494.211 312.448 493.001 343.108Z" fill="url(#paint22_radial_29_359)"/>
<path d="M473.61 203.648C465.27 190.281 455.68 177.736 444.969 166.181C423.419 142.932 397.547 124.102 368.799 110.743C354.183 103.963 338.928 98.6534 323.26 94.8924C307.133 91.038 290.657 88.8276 274.084 88.295C241.031 87.2177 208.744 92.5994 178.121 104.287C163.318 109.943 149.094 117.012 135.647 125.396C122.28 133.737 109.735 143.329 98.1812 154.041C74.9329 175.588 56.1031 201.457 42.743 230.202C35.9621 244.819 30.6524 260.073 26.8924 275.741C23.0361 291.868 20.8229 308.343 20.2869 324.916C19.2128 357.971 24.5929 390.256 36.2807 420.879C41.9368 435.682 49.0057 449.906 57.3894 463.353C65.7299 476.72 75.3202 489.264 86.0312 500.819C107.581 524.068 133.452 542.898 162.201 556.257C176.819 563.04 192.075 568.351 207.744 572.114C223.87 575.97 240.344 578.183 256.916 578.718C259.67 578.809 262.42 578.854 265.166 578.853C295.341 578.853 324.81 573.439 352.882 562.726C367.685 557.07 381.909 550.001 395.356 541.617C408.724 533.277 421.269 523.687 432.823 512.975C456.072 491.428 474.902 465.559 488.262 436.814C495.042 422.197 500.351 406.943 504.112 391.275C507.968 375.15 510.18 358.675 510.716 342.104C511.792 309.049 506.412 276.763 494.724 246.141C489.068 231.331 481.997 217.101 473.61 203.648ZM509.413 342.042C508.342 374.93 500.828 406.624 487.077 436.246C473.758 464.938 455.206 490.428 431.935 512.01C408.663 533.592 381.903 550.253 352.416 561.503C324.56 572.147 294.986 577.584 265.166 577.545C262.439 577.545 259.698 577.501 256.959 577.411C224.067 576.345 192.375 568.827 162.754 555.075C134.062 541.757 108.572 523.205 86.9914 499.933C65.4108 476.662 48.7481 449.901 37.4964 420.415C25.8704 389.955 20.5196 357.839 21.5888 324.958C22.658 292.077 30.1732 260.375 43.9245 230.754C57.243 202.062 75.7951 176.572 99.0665 154.991C122.338 133.411 149.099 116.748 178.585 105.496C206.504 94.8403 235.817 89.4553 265.834 89.4553C268.564 89.4553 271.3 89.4998 274.042 89.5888C306.93 90.6596 338.624 98.1732 368.246 111.925C396.938 125.236 422.428 143.789 444.008 167.06C465.589 190.332 482.252 217.092 493.503 246.579C505.128 277.045 510.485 309.161 509.411 342.042H509.413Z" fill="url(#paint23_radial_29_359)"/>
<path d="M486.62 193.565C477.63 179.369 467.312 166.06 455.805 153.816C432.656 129.184 404.939 109.286 374.197 95.2306C358.562 88.0919 342.256 82.5249 325.519 78.6118C308.288 74.6014 290.696 72.3447 273.01 71.8761C237.737 70.9355 203.32 76.8884 170.723 89.5689C154.972 95.7034 139.85 103.342 125.565 112.38C111.37 121.368 98.0603 131.685 85.8164 143.191C61.1802 166.339 41.2797 194.056 27.2228 224.799C20.0857 240.435 14.5214 256.743 10.6121 273.48C6.60315 290.711 4.3486 308.304 3.88293 325.989C2.94231 361.266 8.89525 395.68 21.5758 428.276C27.7097 444.027 35.3482 459.15 44.3851 473.434C53.374 487.63 63.6913 500.939 75.1978 513.183C98.3461 537.816 126.063 557.714 156.806 571.769C172.44 578.907 188.744 584.474 205.479 588.387C222.711 592.398 240.304 594.654 257.99 595.123C260.398 595.187 262.803 595.219 265.204 595.219C297.956 595.219 329.907 589.245 360.277 577.43C376.028 571.296 391.15 563.658 405.435 554.621C419.63 545.633 432.939 535.315 445.182 523.808C469.819 500.661 489.72 472.944 503.777 442.2C510.913 426.564 516.478 410.256 520.388 393.519C524.398 376.288 526.655 358.695 527.123 341.01C528.064 305.733 522.111 271.319 509.431 238.723C503.296 222.972 495.657 207.849 486.62 193.565ZM525.822 340.976C524.886 376.083 517.07 409.959 502.592 441.658C488.576 472.349 468.961 499.669 444.292 522.864C419.622 546.059 391.19 564.013 359.805 576.221C329.584 587.979 297.802 593.922 265.202 593.922C262.815 593.922 260.423 593.89 258.024 593.826C222.916 592.89 189.041 585.074 157.341 570.597C126.651 556.576 99.3302 536.962 76.1384 512.291C52.9467 487.62 34.9902 459.19 22.7817 427.804C10.1646 395.371 4.24258 361.126 5.18484 326.023C6.12709 290.921 13.9369 257.041 28.414 225.341C42.4241 194.65 62.0388 167.33 86.7164 144.14C111.394 120.95 139.81 102.992 171.195 90.783C201.415 79.0252 233.198 73.082 265.798 73.082C268.183 73.082 270.581 73.1145 272.976 73.178C308.083 74.1137 341.957 81.93 373.659 96.4072C404.349 110.424 431.668 130.039 454.865 154.708C478.061 179.377 496.001 207.809 508.217 239.195C520.835 271.63 526.759 305.875 525.822 340.976Z" fill="url(#paint24_radial_29_359)"/>
<path d="M499.631 183.482C489.995 168.459 478.953 154.386 466.653 141.453C441.91 115.428 412.347 94.4569 379.607 79.704C362.951 72.2112 345.591 66.3919 327.785 62.3318C309.447 58.1663 290.736 55.866 271.936 55.4659C253.142 55.0573 234.354 56.5332 215.854 59.8712C180.136 66.3457 146.036 79.7621 115.482 99.3611C100.459 108.999 86.3859 120.044 73.4533 132.346C47.4284 157.09 26.457 186.653 11.7041 219.393C4.21173 236.048 -1.60812 253.406 -5.66977 271.212C-9.83411 289.55 -12.1339 308.263 -12.534 327.064C-12.9426 345.858 -11.4667 364.646 -8.12873 383.146C-1.65226 418.864 11.7665 452.965 31.3677 483.518C41.0045 498.54 52.047 512.613 64.3465 525.547C89.0903 551.571 118.653 572.543 151.393 587.296C168.049 594.786 185.409 600.603 203.215 604.661C221.552 608.827 240.264 611.127 259.064 611.527C261.087 611.572 263.11 611.594 265.134 611.592C281.904 611.597 298.641 610.101 315.145 607.122C350.862 600.646 384.963 587.227 415.516 567.626C430.54 557.989 444.613 546.947 457.547 534.647C483.571 509.903 504.543 480.34 519.296 447.6C526.788 430.944 532.608 413.585 536.668 395.778C540.833 377.441 543.134 358.73 543.534 339.93C543.941 321.137 542.465 302.351 539.127 283.853C532.651 248.135 519.233 214.035 499.631 183.482ZM542.232 339.908C541.43 377.237 533.314 413.292 518.109 447.073C503.396 479.76 482.717 508.913 456.65 533.709C430.583 558.506 400.475 577.766 367.195 590.931C334.678 603.787 300.41 610.297 265.243 610.297C263.196 610.297 261.145 610.275 259.091 610.23C221.763 609.428 185.708 601.312 151.927 586.108C119.24 571.395 90.0867 550.715 65.2903 524.648C40.494 498.581 21.234 468.478 8.06854 435.193C-5.54121 400.784 -12.0344 364.413 -11.2321 327.09C-10.4298 289.766 -2.31412 253.706 12.8905 219.925C27.6036 187.239 48.281 158.09 74.3483 133.29C100.416 108.491 130.52 89.2339 163.805 76.0684C198.214 62.4587 234.585 55.9655 271.912 56.7678C309.239 57.5701 345.295 65.6858 379.075 80.8904C411.764 95.6035 440.915 116.283 465.713 142.35C490.511 168.417 509.769 198.52 522.935 231.805C536.541 266.214 543.033 302.585 542.232 339.908Z" fill="url(#paint25_radial_29_359)"/>
<path d="M512.641 173.407C502.36 157.553 490.592 142.714 477.498 129.09C464.397 115.468 450.018 103.135 434.56 92.2611C403.106 70.1247 367.59 54.4183 330.05 46.0436C310.607 41.7234 290.778 39.3789 270.864 39.0459C250.954 38.7039 231.06 40.3607 211.481 43.9915C173.689 51.0352 137.647 65.4298 105.4 86.3586C89.5475 96.6427 74.71 108.413 61.0885 121.51C47.4679 134.609 35.1356 148.985 24.2609 164.44C2.12455 195.894 -13.5818 231.41 -21.9566 268.95C-26.276 288.393 -28.6205 308.222 -28.9543 328.136C-29.295 348.046 -27.6376 367.939 -24.007 387.518C-16.9663 425.309 -2.57562 461.351 18.3487 493.6C28.6335 509.452 40.4036 524.288 53.5 537.91C66.6015 551.532 80.9802 563.865 96.4383 574.739C127.892 596.875 163.409 612.582 200.948 620.956C220.391 625.277 240.22 627.621 260.134 627.954C261.818 627.984 263.5 627.998 265.179 627.998C283.404 628.003 301.59 626.332 319.509 623.009C357.301 615.968 393.343 601.577 425.591 580.653C441.443 570.368 456.28 558.598 469.902 545.502C497.315 519.161 519.357 487.752 534.808 453.016C542.656 435.34 548.73 416.929 552.942 398.053C557.262 378.611 559.607 358.781 559.939 338.867C560.282 318.958 558.625 299.064 554.994 279.486C547.955 241.695 533.565 205.654 512.641 173.407ZM558.642 338.841C557.975 378.386 549.557 416.63 533.626 452.484C518.215 487.172 496.475 518.15 469.008 544.559C441.541 570.968 409.772 591.525 374.586 605.645C339.775 619.616 303.03 626.687 265.282 626.687C263.577 626.687 261.87 626.672 260.159 626.644C220.614 625.975 182.37 617.559 146.514 601.627C111.828 586.215 80.8497 564.475 54.4406 537.008C28.0316 509.541 7.47455 477.772 -6.64456 442.586C-21.247 406.203 -28.3115 367.703 -27.6377 328.159C-26.964 288.615 -18.5586 250.382 -2.62657 214.516C12.7847 179.829 34.5248 148.85 61.9917 122.441C89.4585 96.0317 121.228 75.4747 156.414 61.3556C192.797 46.7531 231.297 39.6903 270.841 40.3624C310.385 41.0345 348.63 49.448 384.484 65.3801C419.171 80.7913 450.15 102.531 476.559 129.998C502.968 157.465 523.525 189.235 537.644 224.42C552.247 260.797 559.306 299.297 558.642 338.841Z" fill="url(#paint26_radial_29_359)"/>
<path d="M525.654 163.317C514.724 146.638 502.231 131.037 488.343 116.725C474.448 102.416 459.213 89.4714 442.848 78.0687C409.54 54.8539 371.977 38.4407 332.314 29.7698C311.767 25.2961 290.822 22.9085 269.796 22.6435C248.77 22.3689 227.769 24.2073 207.11 28.131C167.245 35.7365 129.262 51.099 95.3187 73.346C78.6386 84.276 63.0371 96.7693 48.7253 110.657C34.4151 124.554 21.4698 139.79 10.067 156.157C-13.1492 189.465 -29.5625 227.028 -38.2319 266.693C-42.7061 287.241 -45.0936 308.189 -45.3582 329.217C-45.6323 350.241 -43.7939 371.24 -39.8707 391.897C-36.0457 411.947 -30.2496 431.571 -22.5668 450.482C-14.9988 469.078 -5.65166 486.9 5.34431 503.698C16.2757 520.372 28.7695 535.968 42.6568 550.275C56.5519 564.583 71.7859 577.528 88.1501 588.931C121.458 612.145 159.018 628.558 198.68 637.23C219.229 641.704 240.177 644.092 261.205 644.357C262.55 644.373 263.894 644.381 265.24 644.383C284.918 644.388 304.553 642.542 323.885 638.869C363.75 631.264 401.733 615.901 435.676 593.654C452.356 582.724 467.957 570.231 482.268 556.343C496.578 542.448 509.523 527.213 520.926 510.848C544.144 477.54 560.56 439.978 569.233 400.314C573.708 379.765 576.095 358.818 576.36 337.79C576.631 316.768 574.792 295.772 570.869 275.118C563.265 235.249 547.902 197.263 525.654 163.317ZM575.055 337.772C574.519 379.542 565.801 419.954 549.143 457.895C533.032 494.581 510.231 527.384 481.367 555.407C452.502 583.431 419.059 605.282 381.976 620.358C344.893 635.434 305.652 643.079 265.324 643.079C263.96 643.079 262.595 643.07 261.226 643.053C219.457 642.518 179.044 633.8 141.103 617.142C104.417 601.031 71.6143 578.231 43.5909 549.365C15.5675 520.499 -6.28328 487.058 -21.3593 449.976C-36.9528 411.617 -44.5901 370.991 -44.0547 329.225C-43.5193 287.458 -34.8014 247.042 -18.1436 209.102C-2.03257 172.416 20.767 139.613 49.6334 111.589C78.4998 83.5659 111.941 61.7168 149.022 46.6343C187.381 31.0407 228.01 23.4051 269.773 23.9389C311.537 24.4727 351.956 33.1921 389.897 49.85C426.581 65.961 459.386 88.7605 487.409 117.627C515.432 146.493 537.283 179.941 552.359 217.021C567.953 255.381 575.588 296.007 575.055 337.772Z" fill="url(#paint27_radial_29_359)"/>
<path d="M538.665 153.237C515.469 118.131 485.757 87.7994 451.138 63.8842C433.738 51.8759 415.214 41.5839 395.827 33.1528C376.111 24.5928 355.594 18.0087 334.579 13.4974C291.16 4.23582 246.321 3.81794 202.737 12.2687C181.645 16.3761 161.012 22.5576 141.136 30.7231C121.592 38.7708 102.872 48.6897 85.2371 60.3414C50.1296 83.5326 19.795 113.241 -4.12377 147.857C-16.1301 165.258 -26.4199 183.783 -34.8486 203.171C-43.4082 222.888 -49.9922 243.404 -54.5041 264.419C-63.7656 307.838 -64.1835 352.679 -55.7327 396.263C-51.6259 417.357 -45.4438 437.994 -37.2767 457.872C-29.2286 477.416 -19.3097 496.136 -7.65843 513.771C15.5362 548.879 45.2484 579.214 79.8684 603.132C115.03 627.428 154.638 644.55 196.426 653.518C218.08 658.147 240.147 660.578 262.289 660.775C263.296 660.785 264.303 660.789 265.311 660.788C286.442 660.794 307.525 658.771 328.269 654.747C349.361 650.637 369.995 644.453 389.871 636.284C409.414 628.236 428.134 618.318 445.769 606.666C480.878 583.472 511.213 553.759 535.13 519.139C559.423 483.977 576.542 444.368 585.507 402.58C594.769 359.161 595.187 314.321 586.736 270.737C578.565 228.799 562.231 188.877 538.662 153.24L538.665 153.237ZM591.465 336.706C591.063 380.695 582.046 423.29 564.66 463.316C547.855 501.992 523.992 536.637 493.723 566.255C463.454 595.873 428.345 619.038 389.364 635.069C349.971 651.269 308.274 659.479 265.358 659.479C264.336 659.479 263.308 659.479 262.284 659.465C218.295 659.065 175.708 650.046 135.674 632.66C96.9916 615.856 62.3546 591.989 32.7249 561.726C3.09527 531.464 -20.0395 496.35 -36.0724 457.367C-52.6603 417.035 -60.8671 374.282 -60.4652 330.294C-60.0632 286.306 -51.0459 243.717 -33.6607 203.684C-16.8564 165.001 7.00912 130.364 37.2734 100.734C67.5378 71.1049 102.65 47.9522 141.631 31.9209C181.026 15.7187 222.724 7.51023 265.637 7.51023C266.659 7.51023 267.687 7.51025 268.711 7.5249C312.7 7.92523 355.295 16.9441 395.321 34.3294C434.003 51.1337 468.64 75.0008 498.268 105.263C527.896 135.526 551.041 170.65 567.072 209.632C583.658 249.963 591.865 292.718 591.465 336.706Z" fill="url(#paint28_radial_29_359)"/>
<path d="M551.676 143.157C527.183 106.389 495.868 74.6586 459.426 49.6838C441.111 37.1415 421.622 26.4048 401.234 17.6245C380.498 8.70945 358.929 1.87091 336.844 -2.79094C291.207 -12.3626 244.11 -12.6393 198.364 -3.60463C176.231 0.787793 154.587 7.35856 133.748 16.0117C113.254 24.5344 93.6344 35.0208 75.162 47.3241C38.3915 71.8148 6.65897 103.13 -18.3161 139.574C-30.8584 157.889 -41.5951 177.377 -50.3754 197.765C-59.2912 218.501 -66.1303 240.069 -70.7925 262.154C-80.3641 307.791 -80.6409 354.888 -71.6062 400.634C-67.2127 422.77 -60.6403 444.417 -51.9849 465.259C-43.4622 485.752 -32.9759 505.372 -20.6726 523.844C3.82146 560.612 35.1383 592.342 71.5818 617.316C89.8968 629.858 109.385 640.594 129.772 649.375C150.508 658.291 172.077 665.13 194.162 669.792C216.922 674.575 240.107 677.05 263.363 677.179C264.036 677.179 264.707 677.179 265.376 677.179C287.959 677.185 310.488 674.983 332.642 670.604C354.778 666.211 376.425 659.638 397.267 650.983C417.76 642.46 437.38 631.974 455.853 619.671C492.616 595.179 524.343 563.866 549.314 527.426C574.691 490.411 592.523 448.757 601.791 404.846C611.362 359.209 611.639 312.112 602.604 266.366C598.212 244.23 591.641 222.583 582.988 201.741C574.465 181.249 563.979 161.629 551.676 143.157ZM607.875 335.637C607.609 381.854 598.289 426.623 580.178 468.72C562.675 509.405 537.747 545.869 506.085 577.103C474.422 608.338 437.641 632.797 396.759 649.782C354.447 667.358 309.573 676.146 263.363 675.872C217.154 675.599 172.377 666.287 130.28 648.174C89.5952 630.672 53.1306 605.744 21.8963 574.083C-9.33789 542.422 -33.7974 505.637 -50.7839 464.756C-68.3596 422.444 -77.1474 377.568 -76.8724 331.36C-76.5973 285.152 -67.2871 240.373 -49.1744 198.276C-31.672 157.592 -6.74386 121.127 24.9167 89.893C56.5774 58.6588 93.3593 34.1993 134.236 17.2144C175.918 -0.105783 220.096 -8.88222 265.585 -8.88222C266.267 -8.88222 266.949 -8.88222 267.632 -8.88222C313.849 -8.61533 358.618 0.703036 400.715 18.8157C441.4 36.3182 477.864 61.2463 509.099 92.9069C540.333 124.568 564.791 161.354 581.777 202.234C599.366 244.547 608.142 289.429 607.875 335.637Z" fill="url(#paint29_radial_29_359)"/>
<path d="M597.699 194.344C588.698 172.904 577.642 152.385 564.687 133.075C538.896 94.6496 505.979 61.5244 467.716 35.4928C448.485 22.4166 428.031 11.2357 406.642 2.1072C384.885 -7.16525 362.262 -14.2594 339.106 -19.0715C291.253 -28.9585 241.898 -29.0974 193.99 -19.4799C170.809 -14.803 148.149 -7.84238 126.34 1.30003C104.9 10.3008 84.3816 21.3562 65.0723 34.3114C26.6483 60.1032 -6.4757 93.0212 -32.5068 131.283C-45.583 150.515 -56.7644 170.968 -65.8941 192.357C-75.1655 214.115 -82.2591 236.737 -87.0711 259.893C-96.9581 307.747 -97.097 357.102 -87.4796 405.01C-82.8025 428.19 -75.8424 450.851 -66.7013 472.66C-57.6993 494.1 -46.6435 514.619 -33.6883 533.929C-7.89741 572.354 25.02 605.48 63.2822 631.513C82.5147 644.586 102.969 655.765 124.358 664.894C146.115 674.165 168.738 681.259 191.894 686.071C215.757 691.008 240.057 693.526 264.426 693.589H265.432C289.465 693.595 313.441 691.214 337.004 686.479C360.184 681.802 382.845 674.841 404.654 665.699C426.094 656.698 446.613 645.642 465.923 632.688C504.348 606.896 537.473 573.978 563.505 535.716C576.584 516.485 587.767 496.031 596.899 474.642C606.171 452.885 613.266 430.262 618.077 407.106C627.962 359.252 628.101 309.898 618.486 261.989C613.807 238.81 606.844 216.151 597.699 194.344ZM595.695 474.133C577.496 516.812 551.505 555.108 518.445 587.956C485.384 620.805 446.931 646.558 404.151 664.5C360.181 682.938 313.525 692.289 265.456 692.287H264.426C215.995 692.152 169.039 682.533 124.862 663.696C82.1825 645.495 43.8871 619.504 11.0385 586.444C-21.8101 553.384 -47.5633 514.931 -65.5051 472.152C-84.0768 427.87 -93.426 380.856 -93.2926 332.43C-93.1591 284.005 -83.5381 237.043 -64.7012 192.867C-46.4958 150.187 -20.5049 111.892 12.5552 79.043C45.6154 46.1945 84.0686 20.4412 126.847 2.4994C170.819 -15.942 217.474 -25.288 265.544 -25.288H266.569C315 -25.153 361.956 -15.5336 406.131 3.30332C448.812 21.5039 487.108 47.4947 519.956 80.5549C552.805 113.615 578.558 152.068 596.5 194.847C615.072 239.13 624.421 286.143 624.286 334.569C624.151 382.995 614.533 429.956 595.695 474.133Z" fill="url(#paint30_radial_29_359)"/>
<path d="M634.35 257.623C629.388 233.399 622.04 209.726 612.413 186.95C602.933 164.56 591.308 143.142 577.699 122.994C550.611 82.9082 516.09 48.387 476.004 21.2989C455.857 7.68957 434.438 -3.93591 412.048 -13.4146C389.272 -23.0416 365.599 -30.3904 341.375 -35.3533C291.304 -45.5515 239.691 -45.5515 189.62 -35.3533C165.397 -30.3903 141.724 -23.0422 118.948 -13.4163C96.5587 -3.93727 75.1401 7.68821 54.9923 21.2973C14.9069 48.3854 -19.6143 82.9066 -46.7024 122.992C-60.3118 143.14 -71.9373 164.558 -81.416 186.948C-91.042 209.725 -98.3896 233.399 -103.351 257.623C-113.55 307.694 -113.55 359.306 -103.351 409.376C-98.3883 433.601 -91.0396 457.274 -81.4127 480.051C-71.9338 502.441 -60.3083 523.859 -46.6992 544.007C-19.6111 584.093 14.9101 618.614 54.9956 645.702C75.1437 659.31 96.5623 670.936 118.951 680.416C141.728 690.042 165.401 697.391 189.625 702.354C239.696 712.552 291.309 712.552 341.38 702.354C365.604 697.391 389.277 690.043 412.053 680.416C434.443 670.936 455.861 659.311 476.009 645.702C516.095 618.614 550.616 584.093 577.704 544.007C591.312 523.859 602.938 502.441 612.417 480.051C622.043 457.275 629.389 433.601 634.35 409.376C644.55 359.306 644.55 307.693 634.35 257.623ZM633.075 409.116C628.132 433.255 620.812 456.846 611.22 479.544C601.773 501.855 590.188 523.199 576.627 543.277C549.63 583.223 515.228 617.624 475.282 644.62C455.202 658.182 433.855 669.767 411.541 679.213C388.844 688.807 365.253 696.13 341.113 701.075C291.214 711.239 239.779 711.239 189.881 701.075C165.742 696.13 142.152 688.807 119.456 679.213C97.1446 669.766 75.8007 658.181 55.723 644.62C15.7774 617.624 -18.6242 583.222 -45.6202 543.277C-59.1818 523.199 -70.7669 501.855 -80.2134 479.544C-89.8074 456.847 -97.1305 433.256 -102.076 409.116C-112.239 359.217 -112.239 307.782 -102.076 257.884C-97.1305 233.744 -89.8074 210.153 -80.2134 187.456C-70.7669 165.144 -59.1818 143.8 -45.6202 123.723C-18.6235 83.7795 15.778 49.3801 55.723 22.386C75.8004 8.82224 97.1444 -2.76507 119.456 -12.2136C142.155 -21.8081 165.749 -29.1312 189.892 -34.0758C239.79 -44.2393 291.226 -44.2393 341.124 -34.0758C365.26 -29.13 388.847 -21.8069 411.541 -12.2136C433.853 -2.7656 455.198 8.82173 475.275 22.386C515.221 49.3795 549.623 83.7789 576.62 123.723C590.184 143.8 601.771 165.144 611.22 187.456C620.812 210.153 628.132 233.744 633.075 257.884C643.239 307.782 643.239 359.217 633.075 409.116Z" fill="url(#paint31_radial_29_359)"/>
</g>
</g>
<rect x="242" y="309" width="48" height="48" rx="24" fill="white"/>
<path d="M262.994 338.396C262.994 337.589 262.706 336.96 262.129 336.509C261.563 336.059 260.563 335.592 259.127 335.11C257.691 334.628 256.517 334.162 255.605 333.711C252.639 332.254 251.156 330.252 251.156 327.705C251.156 326.437 251.523 325.321 252.256 324.357C253.001 323.382 254.049 322.627 255.401 322.093C256.753 321.548 258.272 321.275 259.96 321.275C261.605 321.275 263.078 321.569 264.378 322.156C265.016 322.442 265.585 322.788 266.084 323.193C266.419 322.96 266.779 322.75 267.165 322.565C268.517 321.915 270.116 321.59 271.96 321.59C274.748 321.59 276.944 322.313 278.548 323.759C280.151 325.206 280.969 327.187 281 329.702L281 344.794L275.45 344.794L275.45 329.592C275.388 327.087 274.224 325.835 271.96 325.835C270.818 325.835 269.953 326.149 269.366 326.778C268.779 327.407 268.486 328.429 268.486 329.843L268.486 333.622C267.573 332.521 266.322 331.6 264.804 330.855C264.263 330.587 263.65 330.32 262.968 330.053V329.812C262.968 329.316 262.999 328.839 263.06 328.381H263.01C263.01 327.449 262.722 326.725 262.145 326.212C261.579 325.698 260.809 325.442 259.834 325.442C258.849 325.442 258.068 325.662 257.492 326.102C256.926 326.532 256.643 327.082 256.643 327.753C256.643 328.339 256.957 328.874 257.586 329.356C258.215 329.828 259.321 330.32 260.903 330.834C262.486 331.337 263.785 331.882 264.802 332.469C267.275 333.894 268.512 335.859 268.512 338.364C268.512 340.366 267.758 341.938 266.248 343.081C264.739 344.223 262.669 344.794 260.038 344.794L260.038 340.644C260.95 340.644 261.668 340.45 262.192 340.062C262.727 339.664 262.994 339.108 262.994 338.396Z" fill="#307EF3"/>
<defs>
<radialGradient id="paint0_radial_29_359" cx="0" cy="0" r="1" gradientUnits="userSpaceOnUse" gradientTransform="translate(270.688 331.117) scale(485.305 485.305)">
<stop stop-color="white"/>
<stop offset="0.1" stop-color="white" stop-opacity="0.82"/>
<stop offset="0.23" stop-color="white" stop-opacity="0.61"/>
<stop offset="0.37" stop-color="white" stop-opacity="0.42"/>
<stop offset="0.5" stop-color="white" stop-opacity="0.27"/>
<stop offset="0.63" stop-color="white" stop-opacity="0.15"/>
<stop offset="0.76" stop-color="white" stop-opacity="0.07"/>
<stop offset="0.88" stop-color="white" stop-opacity="0.02"/>
<stop offset="1" stop-color="white" stop-opacity="0"/>
</radialGradient>
<radialGradient id="paint1_radial_29_359" cx="0" cy="0" r="1" gradientUnits="userSpaceOnUse" gradientTransform="translate(270.688 331.118) scale(485.305 485.305)">
<stop stop-color="white"/>
<stop offset="0.1" stop-color="white" stop-opacity="0.82"/>
<stop offset="0.23" stop-color="white" stop-opacity="0.61"/>
<stop offset="0.37" stop-color="white" stop-opacity="0.42"/>
<stop offset="0.5" stop-color="white" stop-opacity="0.27"/>
<stop offset="0.63" stop-color="white" stop-opacity="0.15"/>
<stop offset="0.76" stop-color="white" stop-opacity="0.07"/>
<stop offset="0.88" stop-color="white" stop-opacity="0.02"/>
<stop offset="1" stop-color="white" stop-opacity="0"/>
</radialGradient>
<radialGradient id="paint2_radial_29_359" cx="0" cy="0" r="1" gradientUnits="userSpaceOnUse" gradientTransform="translate(270.688 331.118) scale(485.305 485.305)">
<stop stop-color="white"/>
<stop offset="0.1" stop-color="white" stop-opacity="0.82"/>
<stop offset="0.23" stop-color="white" stop-opacity="0.61"/>
<stop offset="0.37" stop-color="white" stop-opacity="0.42"/>
<stop offset="0.5" stop-color="white" stop-opacity="0.27"/>
<stop offset="0.63" stop-color="white" stop-opacity="0.15"/>
<stop offset="0.76" stop-color="white" stop-opacity="0.07"/>
<stop offset="0.88" stop-color="white" stop-opacity="0.02"/>
<stop offset="1" stop-color="white" stop-opacity="0"/>
</radialGradient>
<radialGradient id="paint3_radial_29_359" cx="0" cy="0" r="1" gradientUnits="userSpaceOnUse" gradientTransform="translate(270.688 331.117) scale(485.305 485.305)">
<stop stop-color="white"/>
<stop offset="0.1" stop-color="white" stop-opacity="0.82"/>
<stop offset="0.23" stop-color="white" stop-opacity="0.61"/>
<stop offset="0.37" stop-color="white" stop-opacity="0.42"/>
<stop offset="0.5" stop-color="white" stop-opacity="0.27"/>
<stop offset="0.63" stop-color="white" stop-opacity="0.15"/>
<stop offset="0.76" stop-color="white" stop-opacity="0.07"/>
<stop offset="0.88" stop-color="white" stop-opacity="0.02"/>
<stop offset="1" stop-color="white" stop-opacity="0"/>
</radialGradient>
<radialGradient id="paint4_radial_29_359" cx="0" cy="0" r="1" gradientUnits="userSpaceOnUse" gradientTransform="translate(270.688 331.117) scale(485.305 485.305)">
<stop stop-color="white"/>
<stop offset="0.1" stop-color="white" stop-opacity="0.82"/>
<stop offset="0.23" stop-color="white" stop-opacity="0.61"/>
<stop offset="0.37" stop-color="white" stop-opacity="0.42"/>
<stop offset="0.5" stop-color="white" stop-opacity="0.27"/>
<stop offset="0.63" stop-color="white" stop-opacity="0.15"/>
<stop offset="0.76" stop-color="white" stop-opacity="0.07"/>
<stop offset="0.88" stop-color="white" stop-opacity="0.02"/>
<stop offset="1" stop-color="white" stop-opacity="0"/>
</radialGradient>
<radialGradient id="paint5_radial_29_359" cx="0" cy="0" r="1" gradientUnits="userSpaceOnUse" gradientTransform="translate(270.688 331.117) scale(485.305 485.305)">
<stop stop-color="white"/>
<stop offset="0.1" stop-color="white" stop-opacity="0.82"/>
<stop offset="0.23" stop-color="white" stop-opacity="0.61"/>
<stop offset="0.37" stop-color="white" stop-opacity="0.42"/>
<stop offset="0.5" stop-color="white" stop-opacity="0.27"/>
<stop offset="0.63" stop-color="white" stop-opacity="0.15"/>
<stop offset="0.76" stop-color="white" stop-opacity="0.07"/>
<stop offset="0.88" stop-color="white" stop-opacity="0.02"/>
<stop offset="1" stop-color="white" stop-opacity="0"/>
</radialGradient>
<radialGradient id="paint6_radial_29_359" cx="0" cy="0" r="1" gradientUnits="userSpaceOnUse" gradientTransform="translate(270.688 331.117) scale(485.305 485.305)">
<stop stop-color="white"/>
<stop offset="0.1" stop-color="white" stop-opacity="0.82"/>
<stop offset="0.23" stop-color="white" stop-opacity="0.61"/>
<stop offset="0.37" stop-color="white" stop-opacity="0.42"/>
<stop offset="0.5" stop-color="white" stop-opacity="0.27"/>
<stop offset="0.63" stop-color="white" stop-opacity="0.15"/>
<stop offset="0.76" stop-color="white" stop-opacity="0.07"/>
<stop offset="0.88" stop-color="white" stop-opacity="0.02"/>
<stop offset="1" stop-color="white" stop-opacity="0"/>
</radialGradient>
<radialGradient id="paint7_radial_29_359" cx="0" cy="0" r="1" gradientUnits="userSpaceOnUse" gradientTransform="translate(270.688 331.117) scale(485.305 485.305)">
<stop stop-color="white"/>
<stop offset="0.1" stop-color="white" stop-opacity="0.82"/>
<stop offset="0.23" stop-color="white" stop-opacity="0.61"/>
<stop offset="0.37" stop-color="white" stop-opacity="0.42"/>
<stop offset="0.5" stop-color="white" stop-opacity="0.27"/>
<stop offset="0.63" stop-color="white" stop-opacity="0.15"/>
<stop offset="0.76" stop-color="white" stop-opacity="0.07"/>
<stop offset="0.88" stop-color="white" stop-opacity="0.02"/>
<stop offset="1" stop-color="white" stop-opacity="0"/>
</radialGradient>
<radialGradient id="paint8_radial_29_359" cx="0" cy="0" r="1" gradientUnits="userSpaceOnUse" gradientTransform="translate(270.688 331.117) scale(485.305 485.305)">
<stop stop-color="white"/>
<stop offset="0.1" stop-color="white" stop-opacity="0.82"/>
<stop offset="0.23" stop-color="white" stop-opacity="0.61"/>
<stop offset="0.37" stop-color="white" stop-opacity="0.42"/>
<stop offset="0.5" stop-color="white" stop-opacity="0.27"/>
<stop offset="0.63" stop-color="white" stop-opacity="0.15"/>
<stop offset="0.76" stop-color="white" stop-opacity="0.07"/>
<stop offset="0.88" stop-color="white" stop-opacity="0.02"/>
<stop offset="1" stop-color="white" stop-opacity="0"/>
</radialGradient>
<radialGradient id="paint9_radial_29_359" cx="0" cy="0" r="1" gradientUnits="userSpaceOnUse" gradientTransform="translate(270.688 331.118) scale(485.305 485.305)">
<stop stop-color="white"/>
<stop offset="0.1" stop-color="white" stop-opacity="0.82"/>
<stop offset="0.23" stop-color="white" stop-opacity="0.61"/>
<stop offset="0.37" stop-color="white" stop-opacity="0.42"/>
<stop offset="0.5" stop-color="white" stop-opacity="0.27"/>
<stop offset="0.63" stop-color="white" stop-opacity="0.15"/>
<stop offset="0.76" stop-color="white" stop-opacity="0.07"/>
<stop offset="0.88" stop-color="white" stop-opacity="0.02"/>
<stop offset="1" stop-color="white" stop-opacity="0"/>
</radialGradient>
<radialGradient id="paint10_radial_29_359" cx="0" cy="0" r="1" gradientUnits="userSpaceOnUse" gradientTransform="translate(270.688 331.117) scale(485.305 485.305)">
<stop stop-color="white"/>
<stop offset="0.1" stop-color="white" stop-opacity="0.82"/>
<stop offset="0.23" stop-color="white" stop-opacity="0.61"/>
<stop offset="0.37" stop-color="white" stop-opacity="0.42"/>
<stop offset="0.5" stop-color="white" stop-opacity="0.27"/>
<stop offset="0.63" stop-color="white" stop-opacity="0.15"/>
<stop offset="0.76" stop-color="white" stop-opacity="0.07"/>
<stop offset="0.88" stop-color="white" stop-opacity="0.02"/>
<stop offset="1" stop-color="white" stop-opacity="0"/>
</radialGradient>
<radialGradient id="paint11_radial_29_359" cx="0" cy="0" r="1" gradientUnits="userSpaceOnUse" gradientTransform="translate(270.688 331.117) scale(485.305 485.305)">
<stop stop-color="white"/>
<stop offset="0.1" stop-color="white" stop-opacity="0.82"/>
<stop offset="0.23" stop-color="white" stop-opacity="0.61"/>
<stop offset="0.37" stop-color="white" stop-opacity="0.42"/>
<stop offset="0.5" stop-color="white" stop-opacity="0.27"/>
<stop offset="0.63" stop-color="white" stop-opacity="0.15"/>
<stop offset="0.76" stop-color="white" stop-opacity="0.07"/>
<stop offset="0.88" stop-color="white" stop-opacity="0.02"/>
<stop offset="1" stop-color="white" stop-opacity="0"/>
</radialGradient>
<radialGradient id="paint12_radial_29_359" cx="0" cy="0" r="1" gradientUnits="userSpaceOnUse" gradientTransform="translate(270.688 331.117) scale(485.305 485.305)">
<stop stop-color="white"/>
<stop offset="0.1" stop-color="white" stop-opacity="0.82"/>
<stop offset="0.23" stop-color="white" stop-opacity="0.61"/>
<stop offset="0.37" stop-color="white" stop-opacity="0.42"/>
<stop offset="0.5" stop-color="white" stop-opacity="0.27"/>
<stop offset="0.63" stop-color="white" stop-opacity="0.15"/>
<stop offset="0.76" stop-color="white" stop-opacity="0.07"/>
<stop offset="0.88" stop-color="white" stop-opacity="0.02"/>
<stop offset="1" stop-color="white" stop-opacity="0"/>
</radialGradient>
<radialGradient id="paint13_radial_29_359" cx="0" cy="0" r="1" gradientUnits="userSpaceOnUse" gradientTransform="translate(270.688 331.117) scale(485.305 485.305)">
<stop stop-color="white"/>
<stop offset="0.1" stop-color="white" stop-opacity="0.82"/>
<stop offset="0.23" stop-color="white" stop-opacity="0.61"/>
<stop offset="0.37" stop-color="white" stop-opacity="0.42"/>
<stop offset="0.5" stop-color="white" stop-opacity="0.27"/>
<stop offset="0.63" stop-color="white" stop-opacity="0.15"/>
<stop offset="0.76" stop-color="white" stop-opacity="0.07"/>
<stop offset="0.88" stop-color="white" stop-opacity="0.02"/>
<stop offset="1" stop-color="white" stop-opacity="0"/>
</radialGradient>
<radialGradient id="paint14_radial_29_359" cx="0" cy="0" r="1" gradientUnits="userSpaceOnUse" gradientTransform="translate(270.688 331.117) scale(485.305 485.305)">
<stop stop-color="white"/>
<stop offset="0.1" stop-color="white" stop-opacity="0.82"/>
<stop offset="0.23" stop-color="white" stop-opacity="0.61"/>
<stop offset="0.37" stop-color="white" stop-opacity="0.42"/>
<stop offset="0.5" stop-color="white" stop-opacity="0.27"/>
<stop offset="0.63" stop-color="white" stop-opacity="0.15"/>
<stop offset="0.76" stop-color="white" stop-opacity="0.07"/>
<stop offset="0.88" stop-color="white" stop-opacity="0.02"/>
<stop offset="1" stop-color="white" stop-opacity="0"/>
</radialGradient>
<radialGradient id="paint15_radial_29_359" cx="0" cy="0" r="1" gradientUnits="userSpaceOnUse" gradientTransform="translate(270.688 331.117) scale(485.305 485.305)">
<stop stop-color="white"/>
<stop offset="0.1" stop-color="white" stop-opacity="0.82"/>
<stop offset="0.23" stop-color="white" stop-opacity="0.61"/>
<stop offset="0.37" stop-color="white" stop-opacity="0.42"/>
<stop offset="0.5" stop-color="white" stop-opacity="0.27"/>
<stop offset="0.63" stop-color="white" stop-opacity="0.15"/>
<stop offset="0.76" stop-color="white" stop-opacity="0.07"/>
<stop offset="0.88" stop-color="white" stop-opacity="0.02"/>
<stop offset="1" stop-color="white" stop-opacity="0"/>
</radialGradient>
<radialGradient id="paint16_radial_29_359" cx="0" cy="0" r="1" gradientUnits="userSpaceOnUse" gradientTransform="translate(270.688 331.117) scale(485.305 485.305)">
<stop stop-color="white"/>
<stop offset="0.1" stop-color="white" stop-opacity="0.82"/>
<stop offset="0.23" stop-color="white" stop-opacity="0.61"/>
<stop offset="0.37" stop-color="white" stop-opacity="0.42"/>
<stop offset="0.5" stop-color="white" stop-opacity="0.27"/>
<stop offset="0.63" stop-color="white" stop-opacity="0.15"/>
<stop offset="0.76" stop-color="white" stop-opacity="0.07"/>
<stop offset="0.88" stop-color="white" stop-opacity="0.02"/>
<stop offset="1" stop-color="white" stop-opacity="0"/>
</radialGradient>
<radialGradient id="paint17_radial_29_359" cx="0" cy="0" r="1" gradientUnits="userSpaceOnUse" gradientTransform="translate(270.688 331.118) scale(485.305 485.305)">
<stop stop-color="white"/>
<stop offset="0.1" stop-color="white" stop-opacity="0.82"/>
<stop offset="0.23" stop-color="white" stop-opacity="0.61"/>
<stop offset="0.37" stop-color="white" stop-opacity="0.42"/>
<stop offset="0.5" stop-color="white" stop-opacity="0.27"/>
<stop offset="0.63" stop-color="white" stop-opacity="0.15"/>
<stop offset="0.76" stop-color="white" stop-opacity="0.07"/>
<stop offset="0.88" stop-color="white" stop-opacity="0.02"/>
<stop offset="1" stop-color="white" stop-opacity="0"/>
</radialGradient>
<radialGradient id="paint18_radial_29_359" cx="0" cy="0" r="1" gradientUnits="userSpaceOnUse" gradientTransform="translate(270.688 331.118) scale(485.305 485.305)">
<stop stop-color="white"/>
<stop offset="0.1" stop-color="white" stop-opacity="0.82"/>
<stop offset="0.23" stop-color="white" stop-opacity="0.61"/>
<stop offset="0.37" stop-color="white" stop-opacity="0.42"/>
<stop offset="0.5" stop-color="white" stop-opacity="0.27"/>
<stop offset="0.63" stop-color="white" stop-opacity="0.15"/>
<stop offset="0.76" stop-color="white" stop-opacity="0.07"/>
<stop offset="0.88" stop-color="white" stop-opacity="0.02"/>
<stop offset="1" stop-color="white" stop-opacity="0"/>
</radialGradient>
<radialGradient id="paint19_radial_29_359" cx="0" cy="0" r="1" gradientUnits="userSpaceOnUse" gradientTransform="translate(270.688 331.117) scale(485.305 485.305)">
<stop stop-color="white"/>
<stop offset="0.1" stop-color="white" stop-opacity="0.82"/>
<stop offset="0.23" stop-color="white" stop-opacity="0.61"/>
<stop offset="0.37" stop-color="white" stop-opacity="0.42"/>
<stop offset="0.5" stop-color="white" stop-opacity="0.27"/>
<stop offset="0.63" stop-color="white" stop-opacity="0.15"/>
<stop offset="0.76" stop-color="white" stop-opacity="0.07"/>
<stop offset="0.88" stop-color="white" stop-opacity="0.02"/>
<stop offset="1" stop-color="white" stop-opacity="0"/>
</radialGradient>
<radialGradient id="paint20_radial_29_359" cx="0" cy="0" r="1" gradientUnits="userSpaceOnUse" gradientTransform="translate(270.688 331.117) scale(485.305 485.305)">
<stop stop-color="white"/>
<stop offset="0.1" stop-color="white" stop-opacity="0.82"/>
<stop offset="0.23" stop-color="white" stop-opacity="0.61"/>
<stop offset="0.37" stop-color="white" stop-opacity="0.42"/>
<stop offset="0.5" stop-color="white" stop-opacity="0.27"/>
<stop offset="0.63" stop-color="white" stop-opacity="0.15"/>
<stop offset="0.76" stop-color="white" stop-opacity="0.07"/>
<stop offset="0.88" stop-color="white" stop-opacity="0.02"/>
<stop offset="1" stop-color="white" stop-opacity="0"/>
</radialGradient>
<radialGradient id="paint21_radial_29_359" cx="0" cy="0" r="1" gradientUnits="userSpaceOnUse" gradientTransform="translate(270.688 331.117) scale(485.305 485.305)">
<stop stop-color="white"/>
<stop offset="0.1" stop-color="white" stop-opacity="0.82"/>
<stop offset="0.23" stop-color="white" stop-opacity="0.61"/>
<stop offset="0.37" stop-color="white" stop-opacity="0.42"/>
<stop offset="0.5" stop-color="white" stop-opacity="0.27"/>
<stop offset="0.63" stop-color="white" stop-opacity="0.15"/>
<stop offset="0.76" stop-color="white" stop-opacity="0.07"/>
<stop offset="0.88" stop-color="white" stop-opacity="0.02"/>
<stop offset="1" stop-color="white" stop-opacity="0"/>
</radialGradient>
<radialGradient id="paint22_radial_29_359" cx="0" cy="0" r="1" gradientUnits="userSpaceOnUse" gradientTransform="translate(270.688 331.117) scale(485.305 485.305)">
<stop stop-color="white"/>
<stop offset="0.1" stop-color="white" stop-opacity="0.82"/>
<stop offset="0.23" stop-color="white" stop-opacity="0.61"/>
<stop offset="0.37" stop-color="white" stop-opacity="0.42"/>
<stop offset="0.5" stop-color="white" stop-opacity="0.27"/>
<stop offset="0.63" stop-color="white" stop-opacity="0.15"/>
<stop offset="0.76" stop-color="white" stop-opacity="0.07"/>
<stop offset="0.88" stop-color="white" stop-opacity="0.02"/>
<stop offset="1" stop-color="white" stop-opacity="0"/>
</radialGradient>
<radialGradient id="paint23_radial_29_359" cx="0" cy="0" r="1" gradientUnits="userSpaceOnUse" gradientTransform="translate(270.688 331.117) scale(485.305 485.305)">
<stop stop-color="white"/>
<stop offset="0.1" stop-color="white" stop-opacity="0.82"/>
<stop offset="0.23" stop-color="white" stop-opacity="0.61"/>
<stop offset="0.37" stop-color="white" stop-opacity="0.42"/>
<stop offset="0.5" stop-color="white" stop-opacity="0.27"/>
<stop offset="0.63" stop-color="white" stop-opacity="0.15"/>
<stop offset="0.76" stop-color="white" stop-opacity="0.07"/>
<stop offset="0.88" stop-color="white" stop-opacity="0.02"/>
<stop offset="1" stop-color="white" stop-opacity="0"/>
</radialGradient>
<radialGradient id="paint24_radial_29_359" cx="0" cy="0" r="1" gradientUnits="userSpaceOnUse" gradientTransform="translate(270.688 331.117) scale(485.305 485.305)">
<stop stop-color="white"/>
<stop offset="0.1" stop-color="white" stop-opacity="0.82"/>
<stop offset="0.23" stop-color="white" stop-opacity="0.61"/>
<stop offset="0.37" stop-color="white" stop-opacity="0.42"/>
<stop offset="0.5" stop-color="white" stop-opacity="0.27"/>
<stop offset="0.63" stop-color="white" stop-opacity="0.15"/>
<stop offset="0.76" stop-color="white" stop-opacity="0.07"/>
<stop offset="0.88" stop-color="white" stop-opacity="0.02"/>
<stop offset="1" stop-color="white" stop-opacity="0"/>
</radialGradient>
<radialGradient id="paint25_radial_29_359" cx="0" cy="0" r="1" gradientUnits="userSpaceOnUse" gradientTransform="translate(270.688 331.117) scale(485.305 485.305)">
<stop stop-color="white"/>
<stop offset="0.1" stop-color="white" stop-opacity="0.82"/>
<stop offset="0.23" stop-color="white" stop-opacity="0.61"/>
<stop offset="0.37" stop-color="white" stop-opacity="0.42"/>
<stop offset="0.5" stop-color="white" stop-opacity="0.27"/>
<stop offset="0.63" stop-color="white" stop-opacity="0.15"/>
<stop offset="0.76" stop-color="white" stop-opacity="0.07"/>
<stop offset="0.88" stop-color="white" stop-opacity="0.02"/>
<stop offset="1" stop-color="white" stop-opacity="0"/>
</radialGradient>
<radialGradient id="paint26_radial_29_359" cx="0" cy="0" r="1" gradientUnits="userSpaceOnUse" gradientTransform="translate(270.688 331.118) scale(485.305 485.305)">
<stop stop-color="white"/>
<stop offset="0.1" stop-color="white" stop-opacity="0.82"/>
<stop offset="0.23" stop-color="white" stop-opacity="0.61"/>
<stop offset="0.37" stop-color="white" stop-opacity="0.42"/>
<stop offset="0.5" stop-color="white" stop-opacity="0.27"/>
<stop offset="0.63" stop-color="white" stop-opacity="0.15"/>
<stop offset="0.76" stop-color="white" stop-opacity="0.07"/>
<stop offset="0.88" stop-color="white" stop-opacity="0.02"/>
<stop offset="1" stop-color="white" stop-opacity="0"/>
</radialGradient>
<radialGradient id="paint27_radial_29_359" cx="0" cy="0" r="1" gradientUnits="userSpaceOnUse" gradientTransform="translate(270.688 331.118) scale(485.305 485.305)">
<stop stop-color="white"/>
<stop offset="0.1" stop-color="white" stop-opacity="0.82"/>
<stop offset="0.23" stop-color="white" stop-opacity="0.61"/>
<stop offset="0.37" stop-color="white" stop-opacity="0.42"/>
<stop offset="0.5" stop-color="white" stop-opacity="0.27"/>
<stop offset="0.63" stop-color="white" stop-opacity="0.15"/>
<stop offset="0.76" stop-color="white" stop-opacity="0.07"/>
<stop offset="0.88" stop-color="white" stop-opacity="0.02"/>
<stop offset="1" stop-color="white" stop-opacity="0"/>
</radialGradient>
<radialGradient id="paint28_radial_29_359" cx="0" cy="0" r="1" gradientUnits="userSpaceOnUse" gradientTransform="translate(270.688 331.117) scale(485.305 485.305)">
<stop stop-color="white"/>
<stop offset="0.1" stop-color="white" stop-opacity="0.82"/>
<stop offset="0.23" stop-color="white" stop-opacity="0.61"/>
<stop offset="0.37" stop-color="white" stop-opacity="0.42"/>
<stop offset="0.5" stop-color="white" stop-opacity="0.27"/>
<stop offset="0.63" stop-color="white" stop-opacity="0.15"/>
<stop offset="0.76" stop-color="white" stop-opacity="0.07"/>
<stop offset="0.88" stop-color="white" stop-opacity="0.02"/>
<stop offset="1" stop-color="white" stop-opacity="0"/>
</radialGradient>
<radialGradient id="paint29_radial_29_359" cx="0" cy="0" r="1" gradientUnits="userSpaceOnUse" gradientTransform="translate(270.688 331.117) scale(485.305 485.305)">
<stop stop-color="white"/>
<stop offset="0.1" stop-color="white" stop-opacity="0.82"/>
<stop offset="0.23" stop-color="white" stop-opacity="0.61"/>
<stop offset="0.37" stop-color="white" stop-opacity="0.42"/>
<stop offset="0.5" stop-color="white" stop-opacity="0.27"/>
<stop offset="0.63" stop-color="white" stop-opacity="0.15"/>
<stop offset="0.76" stop-color="white" stop-opacity="0.07"/>
<stop offset="0.88" stop-color="white" stop-opacity="0.02"/>
<stop offset="1" stop-color="white" stop-opacity="0"/>
</radialGradient>
<radialGradient id="paint30_radial_29_359" cx="0" cy="0" r="1" gradientUnits="userSpaceOnUse" gradientTransform="translate(270.688 331.117) scale(485.305 485.305)">
<stop stop-color="white"/>
<stop offset="0.1" stop-color="white" stop-opacity="0.82"/>
<stop offset="0.23" stop-color="white" stop-opacity="0.61"/>
<stop offset="0.37" stop-color="white" stop-opacity="0.42"/>
<stop offset="0.5" stop-color="white" stop-opacity="0.27"/>
<stop offset="0.63" stop-color="white" stop-opacity="0.15"/>
<stop offset="0.76" stop-color="white" stop-opacity="0.07"/>
<stop offset="0.88" stop-color="white" stop-opacity="0.02"/>
<stop offset="1" stop-color="white" stop-opacity="0"/>
</radialGradient>
<radialGradient id="paint31_radial_29_359" cx="0" cy="0" r="1" gradientUnits="userSpaceOnUse" gradientTransform="translate(270.688 331.117) scale(485.305 485.305)">
<stop stop-color="white"/>
<stop offset="0.1" stop-color="white" stop-opacity="0.82"/>
<stop offset="0.23" stop-color="white" stop-opacity="0.61"/>
<stop offset="0.37" stop-color="white" stop-opacity="0.42"/>
<stop offset="0.5" stop-color="white" stop-opacity="0.27"/>
<stop offset="0.63" stop-color="white" stop-opacity="0.15"/>
<stop offset="0.76" stop-color="white" stop-opacity="0.07"/>
<stop offset="0.88" stop-color="white" stop-opacity="0.02"/>
<stop offset="1" stop-color="white" stop-opacity="0"/>
</radialGradient>
</defs>
</svg>
