<svg width="1786" height="1786" viewBox="0 0 1786 1786" fill="none" xmlns="http://www.w3.org/2000/svg">
<mask id="mask0_220_1882" style="mask-type:alpha" maskUnits="userSpaceOnUse" x="0" y="0" width="1786" height="1786">
<circle cx="893" cy="893" r="893" fill="url(#paint0_radial_220_1882)"/>
</mask>
<g mask="url(#mask0_220_1882)">
<circle cx="891.538" cy="893" r="57.9615" stroke="white"/>
<circle cx="891.538" cy="893" r="145.654" stroke="white"/>
<circle cx="891.539" cy="893" r="233.346" stroke="white"/>
<circle cx="891.538" cy="893" r="321.038" stroke="white"/>
<circle cx="891.538" cy="893" r="408.731" stroke="white"/>
<circle cx="891.538" cy="893" r="496.423" stroke="white"/>
<circle cx="891.539" cy="893" r="584.115" stroke="white"/>
<circle cx="891.538" cy="893" r="671.808" stroke="white"/>
<circle cx="891.538" cy="893" r="759.5" stroke="white"/>
<circle cx="891.539" cy="893" r="817.962" stroke="white"/>
<circle cx="893" cy="893" r="892.5" stroke="white"/>
</g>
<path opacity="0.4" d="M893 937L893 1211" stroke="white" stroke-linecap="round"/>
<rect x="869" y="869" width="48" height="48" rx="24" fill="white"/>
<path d="M889.994 898.396C889.994 897.589 889.706 896.96 889.129 896.509C888.563 896.058 887.563 895.592 886.127 895.11C884.691 894.628 883.517 894.161 882.605 893.711C879.639 892.254 878.156 890.252 878.156 887.705C878.156 886.437 878.523 885.321 879.256 884.356C880.001 883.382 881.049 882.627 882.401 882.093C883.753 881.548 885.272 881.275 886.96 881.275C888.605 881.275 890.078 881.569 891.378 882.156C892.016 882.442 892.585 882.787 893.084 883.193C893.419 882.959 893.779 882.75 894.165 882.564C895.517 881.915 897.116 881.59 898.96 881.59C901.748 881.59 903.944 882.313 905.548 883.759C907.151 885.205 907.969 887.186 908 889.702L908 904.794L902.45 904.794L902.45 889.592C902.388 887.087 901.224 885.834 898.96 885.834C897.818 885.834 896.953 886.149 896.366 886.778C895.779 887.406 895.486 888.428 895.486 889.843L895.486 893.622C894.573 892.521 893.322 891.6 891.804 890.854C891.263 890.587 890.65 890.32 889.968 890.053V889.812C889.968 889.316 889.999 888.839 890.06 888.381H890.01C890.01 887.448 889.722 886.725 889.145 886.212C888.579 885.698 887.809 885.441 886.834 885.441C885.849 885.441 885.068 885.661 884.492 886.102C883.926 886.531 883.643 887.082 883.643 887.752C883.643 888.339 883.957 888.874 884.586 889.356C885.215 889.827 886.321 890.32 887.903 890.834C889.486 891.337 890.785 891.882 891.802 892.469C894.275 893.894 895.512 895.859 895.512 898.364C895.512 900.366 894.758 901.938 893.248 903.08C891.739 904.223 889.669 904.794 887.038 904.794L887.038 900.644C887.95 900.644 888.668 900.45 889.192 900.062C889.727 899.664 889.994 899.108 889.994 898.396Z" fill="#307EF3"/>
<defs>
<radialGradient id="paint0_radial_220_1882" cx="0" cy="0" r="1" gradientUnits="userSpaceOnUse" gradientTransform="translate(893 893) rotate(90) scale(893)">
<stop stop-color="white" stop-opacity="0.3"/>
<stop offset="1" stop-color="white" stop-opacity="0.02"/>
</radialGradient>
</defs>
</svg>
