<svg width="628" height="628" viewBox="0 0 628 628" fill="none" xmlns="http://www.w3.org/2000/svg">
<mask id="mask0_264_204" style="mask-type:alpha" maskUnits="userSpaceOnUse" x="0" y="0" width="628" height="628">
<circle cx="314" cy="314" r="314" fill="url(#paint0_radial_264_204)"/>
</mask>
<g mask="url(#mask0_264_204)">
<path d="M333.543 314C333.543 325.077 324.563 334.057 313.486 334.057C302.409 334.057 293.43 325.077 293.43 314C293.43 302.923 302.409 293.944 313.486 293.944C324.563 293.944 333.543 302.923 333.543 314Z" stroke="white"/>
<path d="M364.377 314C364.377 342.106 341.593 364.891 313.486 364.891C285.38 364.891 262.595 342.106 262.595 314C262.595 285.894 285.38 263.109 313.486 263.109C341.593 263.109 364.377 285.894 364.377 314Z" stroke="white"/>
<path d="M395.212 314C395.212 359.136 358.622 395.726 313.486 395.726C268.35 395.726 231.76 359.136 231.76 314C231.76 268.864 268.35 232.274 313.486 232.274C358.622 232.274 395.212 268.864 395.212 314Z" stroke="white"/>
<path d="M426.047 314C426.047 376.165 375.652 426.561 313.486 426.561C251.321 426.561 200.926 376.165 200.926 314C200.926 251.835 251.321 201.439 313.486 201.439C375.652 201.439 426.047 251.835 426.047 314Z" stroke="white"/>
<circle cx="313.486" cy="314" r="143.395" stroke="white"/>
<path d="M487.716 314C487.716 410.225 409.711 488.23 313.486 488.23C217.262 488.23 139.256 410.225 139.256 314C139.256 217.775 217.262 139.77 313.486 139.77C409.711 139.77 487.716 217.775 487.716 314Z" stroke="white"/>
<path d="M518.551 314C518.551 427.254 426.74 519.065 313.486 519.065C200.232 519.065 108.422 427.254 108.422 314C108.422 200.746 200.232 108.935 313.486 108.935C426.74 108.935 518.551 200.746 518.551 314Z" stroke="white"/>
<circle cx="313.486" cy="314" r="235.899" stroke="white"/>
<circle cx="313.486" cy="314" r="266.734" stroke="white"/>
<circle cx="313.486" cy="314" r="287.291" stroke="white"/>
<circle cx="314" cy="314" r="313.5" stroke="white"/>
</g>
<defs>
<radialGradient id="paint0_radial_264_204" cx="0" cy="0" r="1" gradientUnits="userSpaceOnUse" gradientTransform="translate(314 314) rotate(90) scale(314)">
<stop stop-color="white" stop-opacity="0.3"/>
<stop offset="1" stop-color="white" stop-opacity="0.02"/>
</radialGradient>
</defs>
</svg>
