<svg width="44" height="42" viewBox="0 0 44 42" fill="none" xmlns="http://www.w3.org/2000/svg">
<path d="M18.37 41.7799C7.91998 39.9099 0 30.8899 0 19.9999C0 7.89998 9.89998 -2 21.9999 -2C34.0999 -2 43.9999 7.89998 43.9999 19.9999C43.9999 30.8899 36.0799 39.9099 25.6299 41.7799L24.4199 40.7899H19.58L18.37 41.7799Z" fill="url(#paint0_linear_172_1340)"/>
<path d="M30.5799 26.16L31.5699 20H25.7399V15.7101C25.7399 13.9501 26.3999 12.6301 29.0399 12.6301H31.8999V7.02008C30.3599 6.80008 28.5999 6.58008 27.0599 6.58008C22 6.58008 18.48 9.66007 18.48 15.1601V20H12.98V26.16H18.48V41.67C19.69 41.89 20.9 42 22.11 42C23.32 42 24.53 41.89 25.7399 41.67V26.16H30.5799Z" fill="white"/>
<defs>
<linearGradient id="paint0_linear_172_1340" x1="22.001" y1="40.4697" x2="22.001" y2="-2.0081" gradientUnits="userSpaceOnUse">
<stop stop-color="#0062E0"/>
<stop offset="1" stop-color="#19AFFF"/>
</linearGradient>
</defs>
</svg>
