<svg width="183" height="164" viewBox="0 0 183 164" fill="none" xmlns="http://www.w3.org/2000/svg">
<g filter="url(#filter0_d_278_1614)">
<path d="M181.55 60.9402L163.718 12.8119C160.889 5.17644 149.041 -1.07809 141.302 0.984759L13.5587 35.0422C10.8344 35.7681 8.38851 37.59 6.48625 39.9778C5.48135 41.2427 1.99135 47.1123 1.32611 48.7552C-0.122949 52.3329 -0.4827 56.3026 0.75533 59.6543L28.1689 133.649C30.9976 141.284 42.8403 147.54 50.578 145.478L156.373 117.27C161.991 115.77 165.189 113.239 167.172 109.878C167.569 109.204 170.134 104.993 170.775 103.378C172.608 98.7844 179.726 80.9247 181.709 76.6871C183.691 72.4494 183.193 65.3779 181.55 60.9402Z" fill="#C6C6C6"/>
<path d="M181.55 60.9402L163.718 12.8119C160.889 5.17644 149.041 -1.07809 141.302 0.984759L13.5587 35.0422C5.82097 37.104 0.327207 47.9832 3.15599 55.6196L30.5695 129.614C33.3983 137.25 45.241 143.505 52.9787 141.443L158.773 113.236C165.691 111.392 168.945 107.981 170.773 103.381C172.602 98.7814 179.725 80.9277 181.708 76.6901C183.69 72.4524 183.193 65.3779 181.55 60.9402Z" fill="white"/>
<path d="M124.059 91.038L104.544 38.362C102.541 32.9624 96.3039 29.7906 90.6262 31.3045L25.6798 48.6152C20.0052 50.1281 17.0187 55.7547 19.0214 61.1593L38.5425 113.836C40.5432 119.236 46.7826 122.403 52.4623 120.89L117.406 103.575C123.077 102.06 126.061 96.4376 124.059 91.038Z" fill="#27425B"/>
<path d="M78.894 60.5824L85.7002 49.4262L104.793 44.3356L102.755 38.836C101.118 34.4173 95.9732 31.8425 91.2924 33.0904L59.585 41.5418L67.7407 63.5541L78.894 60.5824Z" fill="#FFB931"/>
<path d="M80.6074 61.5642L84.3597 71.6914L112.177 64.275L105.453 46.1263L87.0257 51.04L80.6074 61.5642Z" fill="#FFB931"/>
<path d="M56.2778 68.5798L64.0919 89.6702L86.8086 83.6136L78.9945 62.5222L56.2778 68.5798Z" fill="#FFB931"/>
<path d="M55.0408 66.9399L65.949 64.0311L57.7942 42.0217L26.347 50.4061C21.6612 51.655 19.1821 56.2637 20.8201 60.6813L22.857 66.1809L41.6978 61.1573L55.0408 66.9399Z" fill="#FFB931"/>
<path d="M88.777 83.6176L101.138 89.1342L119.567 84.2206L112.84 66.0659L85.0227 73.4824L88.777 83.6176Z" fill="#FFB931"/>
<path d="M122.268 91.5109L120.23 86.0114L101.137 91.101L88.0315 85.2534L76.8772 88.2272L85.0309 110.236L116.736 101.782C121.421 100.537 123.904 95.9256 122.268 91.5109Z" fill="#FFB931"/>
<path d="M64.1812 91.614L57.1329 102.837L38.2961 107.857L40.3341 113.356C41.969 117.77 47.1101 120.347 51.7899 119.097L83.2381 110.713L75.0843 88.7042L64.1812 91.614Z" fill="#FFB931"/>
<path d="M54.3063 68.5807L41.7089 63.1221L23.5193 67.9717L30.243 86.1203L58.0575 78.7049L54.3063 68.5807Z" fill="#FFB931"/>
<path d="M62.474 90.626L58.7207 80.4948L30.9062 87.9112L37.633 106.067L55.8226 101.217L62.474 90.626Z" fill="#FFB931"/>
</g>
<defs>
<filter id="filter0_d_278_1614" x="0.00317383" y="0.58667" width="182.997" height="163.289" filterUnits="userSpaceOnUse" color-interpolation-filters="sRGB">
<feFlood flood-opacity="0" result="BackgroundImageFix"/>
<feColorMatrix in="SourceAlpha" type="matrix" values="0 0 0 0 0 0 0 0 0 0 0 0 0 0 0 0 0 0 127 0" result="hardAlpha"/>
<feOffset dy="18"/>
<feComposite in2="hardAlpha" operator="out"/>
<feColorMatrix type="matrix" values="0 0 0 0 0 0 0 0 0 0 0 0 0 0 0 0 0 0 0.05 0"/>
<feBlend mode="normal" in2="BackgroundImageFix" result="effect1_dropShadow_278_1614"/>
<feBlend mode="normal" in="SourceGraphic" in2="effect1_dropShadow_278_1614" result="shape"/>
</filter>
</defs>
</svg>
