<svg width="237" height="237" viewBox="0 0 237 237" fill="none" xmlns="http://www.w3.org/2000/svg">
<path d="M177.544 177.13C210.153 144.521 210.153 91.6521 177.544 59.0434C144.935 26.4346 92.0658 26.4346 59.457 59.0434C26.8482 91.6522 26.8482 144.521 59.457 177.13C92.0658 209.739 144.935 209.739 177.544 177.13Z" fill="#27425B"/>
<path d="M128.664 159.87C128.372 160.225 128.512 160.414 128.22 160.808C128.009 161.092 127.898 161.046 127.627 161.401C127.453 161.628 127.416 161.756 127.282 161.993C127.094 162.324 126.91 162.526 126.541 162.931C126.196 163.309 125.882 163.578 125.257 164.116C124.986 164.348 124.849 164.466 124.764 164.51C124.206 164.802 123.861 164.555 123.333 164.757C122.836 164.947 122.572 165.381 122.444 165.596C122.169 166.053 122.14 166.468 122.098 167.274C122.05 168.168 122.175 168.233 122.098 168.953C122.054 169.378 122.001 169.87 121.753 170.434C121.354 171.34 120.88 171.448 120.864 172.112C120.86 172.301 120.896 172.389 120.915 173.001C120.928 173.231 120.928 173.462 120.915 173.692C120.873 174.171 120.771 174.257 120.816 174.531C120.861 174.805 121.01 174.995 121.112 175.123C121.44 175.536 121.873 175.688 122.099 175.765C122.416 175.872 123.254 176.155 123.874 175.765C124.212 175.553 124.179 175.335 124.763 174.087C125.169 173.211 125.196 173.299 125.553 172.507C126.036 171.437 125.949 171.369 126.293 170.681C126.586 170.094 126.666 170.111 127.527 168.805C128.26 167.695 128.626 167.134 128.663 166.831C128.78 165.844 128.153 165.281 128.561 164.559C128.682 164.348 128.92 164.073 129.105 164.116C129.289 164.158 129.314 164.506 129.45 164.51C129.632 164.516 129.786 163.907 129.795 163.869C129.91 163.405 129.897 163.037 129.846 162.388C129.748 161.15 129.728 161.592 129.6 160.364C129.543 159.824 129.527 159.543 129.353 159.475C129.141 159.392 128.82 159.681 128.664 159.87Z" fill="white"/>
<path d="M81.701 83.3697C81.6265 83.3902 81.5576 83.4276 81.4998 83.4789C81.442 83.5303 81.3969 83.5943 81.3678 83.6659C81.2557 83.986 81.6214 84.3593 81.8486 84.5915C82.121 84.8695 82.3756 85.0029 82.756 85.2002C83.1541 85.4091 83.3575 85.5121 83.5705 85.4594C83.9073 85.3757 84.0813 85.0135 84.1071 84.9598C84.2593 84.6473 84.0995 84.5591 84.2552 84.2563C84.3739 84.0255 84.5088 83.992 84.661 83.6639C84.733 83.5117 84.7817 83.4022 84.735 83.3307C84.6493 83.1993 84.3024 83.2835 84.0316 83.3489C83.5005 83.4783 83.4894 83.5944 83.1617 83.6269C82.796 83.6629 82.4517 83.5538 82.3284 83.5158C82.0246 83.4214 81.8973 83.3139 81.701 83.3697Z" fill="white"/>
<path d="M79.4237 76.7919C79.2604 76.694 78.8369 77.0328 78.6091 77.3843C78.4542 77.6282 78.369 77.9099 78.3626 78.1988C78.3576 78.3003 78.3347 78.7811 78.5107 78.8404C78.5924 78.8683 78.7136 78.7608 78.955 78.5442C79.2051 78.319 79.3304 78.2065 79.3993 78.0507C79.4531 77.9285 79.4607 77.7703 79.4734 77.4583C79.4901 77.044 79.4982 76.835 79.4237 76.7919Z" fill="white"/>
<path d="M77.7953 79.3588C77.5985 79.5795 77.9272 79.9005 77.7446 80.3225C77.6583 80.5223 77.5706 80.4823 77.2759 80.8408C77.0223 81.1492 76.8747 81.3288 76.856 81.5814C76.8306 81.9283 77.0543 82.3508 77.35 82.3959C77.5376 82.4243 77.6944 82.2945 77.8927 82.1241C78.1794 81.8781 78.4 81.5642 78.5343 81.2111C78.7047 80.7627 78.5439 80.7815 78.7321 80.1495C78.8163 79.866 78.9035 79.6784 78.8061 79.5079C78.7245 79.3654 78.5601 79.3162 78.4607 79.2858C78.442 79.2782 77.9855 79.1463 77.7953 79.3588Z" fill="white"/>
<path d="M90.7282 82.9873C90.5811 82.9989 90.4574 83.1633 90.4812 83.3205C90.5091 83.5031 90.7287 83.6157 90.8763 83.5548C90.9169 83.5353 90.9518 83.5058 90.9777 83.4691C91.0036 83.4323 91.0197 83.3895 91.0244 83.3448C91.0457 83.1749 90.9012 82.972 90.7282 82.9873Z" fill="white"/>
<path d="M90.8885 83.9621C90.868 84.0019 90.863 84.0479 90.8744 84.0912C90.8858 84.1344 90.9129 84.1719 90.9503 84.1964C90.9903 84.2156 91.0358 84.22 91.0788 84.2088C91.1217 84.1975 91.1592 84.1714 91.1847 84.1351C91.2082 84.1057 91.2221 84.0696 91.2242 84.032C91.2264 83.9944 91.2168 83.957 91.1968 83.9251C91.1299 83.8404 90.9468 83.8546 90.8885 83.9621Z" fill="white"/>
<path d="M91.95 83.4438C91.9029 83.4696 91.6655 83.6076 91.666 83.7892C91.666 83.953 91.8603 83.989 91.9003 84.1949C91.944 84.4206 91.7421 84.5175 91.8019 84.7021C91.8501 84.8507 92.0261 84.9202 92.2214 84.9983C92.5196 85.1165 92.5764 85.0425 92.7286 85.1216C93.1151 85.3245 92.9594 85.9331 93.284 86.0594C93.461 86.1273 93.711 86.0239 93.7775 85.8742C93.818 85.7835 93.7856 85.6861 93.7156 85.5289C93.4458 84.9202 93.2226 84.7792 93.284 84.6032C93.3393 84.4435 93.5944 84.3532 93.7775 84.3811C93.994 84.414 94.1112 84.6124 94.1599 84.5784C94.2086 84.5444 94.1498 84.3714 94.0585 84.2233C93.9383 84.0205 93.747 83.8566 93.355 83.6801C92.8463 83.4478 92.3482 83.2257 91.95 83.4438Z" fill="white"/>
<path d="M94.3627 86.9424C94.4012 86.8947 94.5772 86.9703 94.8993 87.1088C95.1022 87.197 95.2208 87.2609 95.2878 87.2939C95.6616 87.4739 95.9304 87.3446 96.4543 87.3497C97.0564 87.3583 97.6767 87.5475 97.6757 87.6829C97.6757 87.7985 97.2227 87.8822 97.102 87.9051C96.8784 87.9466 96.6359 87.9608 96.1023 87.9051C95.4937 87.8412 95.1929 87.8092 94.9733 87.6829C94.5579 87.4435 94.3008 87.0185 94.3627 86.9424Z" fill="white"/>
<path d="M171.563 128.031C171.472 128.037 171.408 128.175 171.094 129.487C170.894 130.324 170.794 130.746 170.797 130.944C170.812 131.679 171.077 131.73 171.094 132.622C171.097 132.802 171.089 132.949 171.195 133.041C171.428 133.249 172.037 133.014 172.404 132.696C172.983 132.195 173.019 131.442 173.022 131.388C173.04 130.83 172.777 130.689 172.256 129.511C171.812 128.518 171.737 128.018 171.563 128.031Z" fill="white"/>
<path d="M187.826 134.448C187.568 134.27 187.43 134.347 187.11 134.226C186.586 134.023 186.484 133.632 186.271 133.683C186.038 133.738 185.974 134.249 185.949 134.448C185.938 134.54 185.78 135.959 186.567 136.497C186.755 136.626 186.968 136.684 187.06 136.916C187.12 137.068 187.078 137.161 187.06 137.484C187.045 137.775 187.032 137.999 187.085 138.224C187.158 138.538 187.292 138.579 187.554 139.064C187.668 139.274 187.787 139.494 187.85 139.73C188.012 140.339 187.686 140.627 187.653 141.285C187.622 141.882 187.88 141.848 188.048 142.741C188.208 143.597 188.107 144.356 188.023 144.987C187.914 145.804 187.793 145.915 187.85 146.419C187.922 147.05 188.144 147.148 188.097 147.653C188.042 148.244 187.716 148.332 187.752 148.862C187.771 149.155 187.87 149.129 188.072 149.775C188.268 150.402 188.229 150.601 188.393 150.688C188.723 150.865 189.343 150.302 189.408 150.244C189.961 149.731 189.947 149.293 190.493 147.85C190.874 146.844 191.191 146.24 190.987 146.075C190.805 145.925 190.372 146.263 190.222 146.1C190.121 145.992 190.262 145.791 190.395 145.285C190.528 144.779 190.634 144.377 190.446 144.075C190.32 143.876 190.186 143.918 190.076 143.705C189.918 143.401 190.046 143.043 190.1 142.891C190.331 142.244 190.784 142.186 190.767 141.83C190.752 141.517 190.402 141.557 190.174 141.064C190.042 140.777 190.022 140.445 189.977 139.781C189.962 139.557 189.962 139.426 189.878 139.263C189.739 138.993 189.574 139.029 189.384 138.769C189.238 138.57 189.196 138.332 189.113 137.856C189.049 137.491 189.079 137.482 189.039 137.289C188.876 136.51 188.349 136.477 188.249 135.832C188.186 135.427 188.37 135.263 188.198 134.895C188.116 134.716 187.987 134.562 187.826 134.448Z" fill="white"/>
<path d="M186.295 140.224C186.004 140.376 186.064 141.203 186.346 141.31C186.533 141.381 186.862 141.149 186.963 140.865C186.999 140.78 187.007 140.685 186.988 140.594C186.913 140.305 186.496 140.118 186.295 140.224Z" fill="white"/>
<path d="M186.74 143.778C186.845 143.768 186.952 144.031 186.986 144.198C187.007 144.299 187.05 144.511 186.935 144.592C186.849 144.655 186.697 144.621 186.614 144.541C186.404 144.343 186.591 143.791 186.74 143.778Z" fill="white"/>
<path d="M186.789 142.247C186.642 142.247 186.467 142.469 186.517 142.643C186.58 142.859 186.964 142.904 187.06 142.791C187.168 142.663 186.99 142.248 186.789 142.247Z" fill="white"/>
<path d="M185.9 137.78C185.782 137.811 185.721 138.044 185.752 138.224C185.819 138.603 186.318 138.863 186.443 138.767C186.552 138.684 186.406 138.314 186.27 138.101C186.214 138.013 186.042 137.743 185.9 137.78Z" fill="white"/>
<path d="M186.937 146.493C186.785 146.52 186.781 147.648 186.937 147.677C187.018 147.693 187.162 147.414 187.183 147.159C187.214 146.814 187.024 146.477 186.937 146.493Z" fill="white"/>
<path d="M188.714 151.577C188.42 151.609 188.171 151.953 188.196 152.219C188.209 152.375 188.306 152.385 188.368 152.589C188.467 152.914 188.267 153.039 188.344 153.28C188.445 153.608 188.963 153.843 189.356 153.774C189.57 153.736 189.628 153.629 189.75 153.675C189.96 153.755 189.864 154.097 190.145 154.391C190.293 154.543 190.473 154.611 190.615 154.663C190.978 154.795 191.19 154.718 191.305 154.885C191.389 155.005 191.324 155.112 191.429 155.205C191.521 155.287 191.671 155.292 191.775 155.256C192 155.174 192.154 154.84 192.071 154.614C191.969 154.334 191.577 154.432 191.208 154.021C191.07 153.869 190.938 153.721 190.961 153.553C191.012 153.194 191.706 153.198 191.899 152.664C191.926 152.591 191.974 152.456 191.924 152.319C191.779 151.924 190.896 151.732 190.369 152.047C190.017 152.257 189.936 152.627 189.752 152.59C189.614 152.563 189.631 152.349 189.406 152.047C189.285 151.885 189.032 151.545 188.714 151.577Z" fill="white"/>
<path d="M199.08 131.758C199.043 131.758 198.997 131.792 198.611 132.918C198.155 134.254 198.186 134.296 198.019 134.497C197.727 134.852 197.397 135.005 197.353 135.41C197.331 135.602 197.394 135.669 197.353 135.854C197.271 136.22 196.929 136.401 196.735 136.545C196.33 136.847 196.419 137.1 195.674 138.989C195.315 139.899 195.145 140.219 195.008 140.198C194.805 140.168 194.841 139.431 194.662 139.409C194.465 139.383 194.168 140.252 193.971 141.062C193.648 142.393 193.864 142.451 193.576 143.827C193.385 144.74 193.166 145.308 193.28 146.073C193.333 146.374 193.407 146.671 193.502 146.961C193.667 147.503 193.756 147.776 193.922 147.85C194.232 147.985 194.724 147.606 195.008 147.282C195.674 146.521 195.297 145.937 195.87 144.691C196.31 143.736 196.606 143.918 196.808 143.16C197.035 142.309 196.757 141.724 197.227 141.112C197.449 140.824 197.559 140.889 197.795 140.643C198.541 139.864 197.784 138.852 198.165 136.792C198.284 136.064 198.509 135.358 198.832 134.694C199.022 134.311 199.098 134.249 199.202 133.954C199.574 132.902 199.284 131.769 199.08 131.758Z" fill="white"/>
<path d="M196.168 110.655C195.882 110.652 195.673 111.275 195.625 111.42C195.607 111.471 195.257 112.557 195.798 112.975C195.812 112.986 196.084 113.191 196.34 113.098C196.734 112.957 196.756 112.241 196.76 112.084C196.779 111.434 196.485 110.659 196.168 110.655Z" fill="white"/>
<path d="M117.359 48.038C117.327 47.8788 117.402 47.7946 117.903 47.0236C118.691 45.8129 118.634 45.8216 118.765 45.7156C119.403 45.2003 119.803 45.7364 121.11 45.3205C121.895 45.0704 122.171 44.7428 123.01 44.7032C123.377 44.6865 123.877 44.723 123.899 44.8518C123.924 45.004 123.281 45.2307 122.541 45.4934C121.78 45.7638 121.624 45.7643 121.011 46.0118C120.278 46.307 119.996 46.5088 119.802 46.6782C119.516 46.9262 119.174 47.2235 119.209 47.5912C119.243 47.9503 119.62 48.1998 119.777 48.3068C120.167 48.5675 120.52 48.5716 120.517 48.6527C120.514 48.7339 120.17 48.8049 119.777 48.8252C118.912 48.8693 117.485 48.6568 117.359 48.038Z" fill="white"/>
<path d="M115.78 49.345C115.894 49.0326 116.669 48.9053 116.94 49.2466C116.998 49.3233 117.034 49.4148 117.043 49.5107C117.052 49.6066 117.034 49.7031 116.991 49.7893C116.848 50.0541 116.452 50.1109 116.176 49.9866C115.907 49.8669 115.704 49.553 115.78 49.345Z" fill="white"/>
<path d="M130.589 42.4599C130.382 42.5963 130.19 42.856 130.243 43.0523C130.313 43.3059 130.801 43.3743 131.773 43.4966C132.686 43.6112 133.22 43.5955 133.921 43.5706C134.544 43.5483 134.631 43.5103 134.636 43.4717C134.65 43.3764 134.166 43.2582 133.328 43.0031C131.531 42.4548 131.034 42.1667 130.589 42.4599Z" fill="white"/>
<path d="M135.328 43.9409C135.46 44.2208 136.208 44.2335 136.364 43.9409C136.384 43.8982 136.393 43.8519 136.393 43.8052C136.393 43.7584 136.384 43.7122 136.364 43.6695C136.244 43.3961 135.74 43.2638 135.476 43.4966C135.358 43.5995 135.261 43.7988 135.328 43.9409Z" fill="white"/>
<path d="M112.67 43.3236C112.794 43.7335 114.475 43.5772 115.064 43.5215C116.282 43.4073 116.217 43.2318 116.992 43.2496C117.95 43.2724 118.228 43.5473 119.263 43.4966C119.787 43.4707 120.539 43.3597 120.546 43.2004C120.553 43.0411 119.785 42.8454 119.164 42.781C118.459 42.7049 118.2 42.8159 116.819 42.9291C115.84 43.0087 115.351 43.0487 115.067 43.0031C114.154 42.856 113.73 42.4655 113.19 42.7069C112.898 42.8367 112.613 43.1329 112.67 43.3236Z" fill="white"/>
<path d="M70.0225 68.3014C70.0899 68.448 70.7559 68.1736 73.1818 67.5117C74.1454 67.249 74.5223 67.1602 75.0077 66.8209C75.5032 66.474 75.5199 66.2792 76.1428 65.8826C76.8021 65.4637 77.1638 65.4398 77.2287 65.1421C77.3017 64.8094 76.8736 64.713 76.686 64.1059C76.6089 63.8604 76.6353 63.7412 76.7844 62.3779C76.8792 61.5065 76.8711 61.5289 76.8858 61.4893C77.2084 60.4643 78.2801 60.1097 78.1695 59.811C78.0716 59.5483 77.2119 59.7471 77.0831 59.4164C76.9928 59.1836 77.3413 58.8884 77.2809 58.824C77.1617 58.6972 75.8156 59.8318 75.701 59.7126C75.633 59.6411 76.0642 59.1917 75.9972 59.1202C75.9008 59.0188 74.9047 59.8348 74.4178 60.2553C73.6697 60.9015 73.6306 61.0349 73.6276 61.1439C73.6149 61.6572 74.4041 61.7749 74.6643 62.6249C74.7094 62.771 74.8672 63.2883 74.6136 63.6119C74.4163 63.8655 74.1571 63.756 73.5277 64.1059C73.2269 64.2723 73.0408 64.3788 72.9353 64.5994C72.7745 64.9357 72.9906 65.1396 72.8338 65.3399C72.631 65.6057 72.1831 65.3288 71.6495 65.6361C71.5709 65.6808 71.2326 65.8755 71.2544 66.0799C71.292 66.435 72.3804 66.47 72.3895 66.722C72.3966 66.9148 71.7621 66.9726 70.9582 67.4625C70.5712 67.6984 69.9514 68.1518 70.0225 68.3014Z" fill="white"/>
<path d="M68.6626 66.4507C68.5317 66.3736 68.589 66.0196 68.6626 65.8086C68.8031 65.4064 69.189 64.992 69.677 64.8708C69.888 64.8201 70.0198 64.8449 70.0721 64.7475C70.1781 64.5497 69.7277 64.2764 69.8007 63.9822C69.8448 63.8042 70.1269 63.6966 70.6893 63.4887C71.159 63.3152 71.2904 63.3152 71.6271 63.1433C71.7524 63.0789 71.8848 62.9911 72.1455 62.8222C72.8971 62.3303 73.0463 62.169 73.2314 62.2298C73.4059 62.2871 73.5524 62.5225 73.5276 62.7233C73.4799 63.1088 72.8449 63.0302 72.4909 63.6119C72.3271 63.8818 72.3829 64.0309 72.1206 64.4265C72.0196 64.5774 71.9039 64.7179 71.7752 64.8459C71.6738 64.9474 71.3695 65.2314 70.6645 65.5372C70.0112 65.8192 69.994 65.695 69.5537 65.9324C69.0171 66.2199 68.8021 66.5324 68.6626 66.4507Z" fill="white"/>
<path d="M73.6974 53.5669C73.596 53.9443 73.346 54.032 73.3769 54.1588C73.4337 54.3941 74.37 54.4433 75.3514 54.2826C76.1254 54.1558 77.3589 53.9361 78.0664 52.9745C78.1648 52.8406 78.53 52.3441 78.3626 52.0616C78.2236 51.8272 77.7824 51.8455 77.3259 51.8643C77.0596 51.8749 76.6711 51.8906 76.2152 52.0864C75.6207 52.34 75.3854 52.6981 75.2282 52.6048C75.042 52.4942 75.3098 51.9591 75.1044 51.8146C74.899 51.67 74.3598 52.0271 74.0677 52.3826C73.9114 52.5585 73.8013 52.7704 73.7471 52.9994C73.6924 53.2535 73.7624 53.328 73.6974 53.5669Z" fill="white"/>
<path d="M150.914 45.397C150.826 45.6441 151.996 46.7005 153.234 46.6062C154.04 46.5453 154.303 46.0402 155.567 45.9032C156.113 45.8439 156.514 45.889 156.518 45.8414C156.524 45.7622 155.438 45.5878 154.518 45.4959C153.951 45.4386 153.999 45.4681 152.223 45.3849C151.113 45.3326 150.944 45.3139 150.914 45.397Z" fill="white"/>
<path d="M74.7592 47.2356C71.4441 49.8223 71.541 49.7478 71.3904 49.8644C68.1443 52.3765 67.6584 52.4004 65.8366 54.0478C64.6624 55.1093 62.8071 56.9585 63.0232 57.2319C63.2864 57.5652 66.2403 55.0662 71.6495 52.6043C72.6163 52.164 72.2333 52.375 76.2031 50.6769C80.246 48.9494 81.1909 48.496 82.3118 47.863C84.8985 46.4013 84.404 46.2506 85.9027 45.642C87.6607 44.9279 89.1691 44.7986 91.1968 43.4575C92.3953 42.6653 92.3634 42.3833 92.3446 42.3097C92.1478 41.481 87.9528 41.8411 87.2356 41.904C86.0863 42.0029 84.649 42.1348 82.8672 42.7185C82.2945 42.908 81.7316 43.1261 81.1808 43.3718C79.6987 44.1137 78.2422 44.8976 76.8113 45.7237C76.0581 46.2243 75.4358 46.7076 74.7592 47.2356Z" fill="white"/>
<path d="M186.615 166.394C186.458 166.555 186.293 166.717 186.122 166.88C184.742 168.189 183.279 169.171 182.568 169.644C180.416 171.077 179.823 171.077 178.521 172.211C177.405 173.183 177.221 173.722 175.756 175.666C175.47 176.046 173.507 178.638 171.511 180.602C168.34 183.723 165.561 184.792 165.686 185.045C165.785 185.245 167.606 184.754 170.197 183.661C176.463 178.715 181.991 172.901 186.615 166.394Z" fill="white"/>
<path d="M198.131 103.942C198.131 103.942 197.871 102.559 197.92 101.721C197.969 100.882 198.611 99.1039 197.377 96.0907C196.143 93.0774 195.415 92.2157 195.266 91.0309C195.118 89.8461 194.712 90.4385 193.416 88.18C192.12 85.9214 192.638 85.9219 192.786 85.0825C192.934 84.2431 192.49 84.7371 192.046 84.342C191.602 83.9469 191.552 83.9966 191.552 84.1939C191.552 84.3912 191.256 84.6382 191.108 84.5393C190.96 84.4404 190.516 83.4042 190.516 83.4042L189.974 82.8143C189.431 82.2219 189.184 82.37 189.48 81.8765C189.777 81.383 189.531 81.5803 189.48 81.0868C189.43 80.5933 189.184 80.0993 189.184 79.655C189.184 79.2107 189.727 80.3463 190.024 80.7409C190.32 81.1355 190.418 81.4814 190.912 82.2711C191.046 82.4847 190.764 80.8398 190.764 80.8398L191.159 80.9879C191.554 81.136 191.504 81.9257 191.899 82.5181C192.294 83.1105 192.344 83.4067 192.739 83.7029C193.134 83.9991 192.985 83.7537 192.985 83.4559C192.985 83.1582 192.985 82.7651 192.591 82.0738C192.196 81.3825 192.097 81.2841 191.406 79.6058C190.715 77.9275 191.307 78.0259 189.431 74.9163C187.556 71.8067 184.592 67.7091 182.62 65.8335C180.647 63.9578 180.794 64.2535 179.756 63.2173C178.719 62.1811 176.745 60.4526 175.462 59.1202C174.179 57.7878 174.277 57.9846 174.919 58.1819C175.56 58.3792 177.041 58.6262 174.03 56.5533C171.019 54.4804 165.223 49.9202 165.056 49.6423C164.89 49.3643 164.52 49.624 164.057 49.2538C163.594 48.8835 162.632 48.5335 161.854 48.3814C161.076 48.2292 159.799 47.5298 159.762 47.4745C159.725 47.4192 158.67 47.3077 156.449 47.4375C154.227 47.5673 156.93 47.7337 157.597 47.9371C158.263 48.1405 157.763 48.4002 157.134 48.4184C156.504 48.4367 155.949 48.0669 155.412 47.9188C154.875 47.7707 153.32 47.5131 153.32 47.5131C153.32 47.5131 151.728 46.9947 151.044 46.7913C150.359 46.5879 150.359 46.7355 150.08 46.8096C149.801 46.8836 150.228 47.0688 150.08 47.1241C149.932 47.1793 149.543 47.0875 149.099 47.0688C148.655 47.05 149.21 46.8096 149.099 46.7726C148.988 46.7355 147.488 46.7543 146.396 46.6985C145.304 46.6427 145.471 46.4764 144.915 46.0899C144.36 45.7034 144.434 46.3115 144.656 46.6077C144.878 46.9039 144.804 46.9967 143.767 47.0135C142.731 47.0302 143.362 46.9212 143.509 46.8106C143.656 46.7 143.767 46.5885 143.897 46.0701C144.027 45.5517 143.583 45.4615 143.453 45.4036C143.323 45.3458 143.12 45.2373 142.472 45.1632C141.759 45.0803 141.042 45.0369 140.325 45.0334C139.584 45.0334 138.566 44.4968 137.752 44.4598C136.937 44.4227 137.53 44.6281 137.53 44.6814C137.53 44.7347 137.493 44.8295 136.216 45.3108C134.939 45.7922 135.716 45.255 135.105 45.3108C134.494 45.3666 133.458 45.6811 133.458 45.6811C133.458 45.6811 133.79 46.2177 134.309 46.5509C134.827 46.8841 134.031 46.6808 133.328 46.6808C132.624 46.6808 132.735 46.699 131.866 46.9663C130.996 47.2336 132.902 47.1986 133.901 47.8651C134.901 48.5315 133.217 48.0319 132.236 47.5136C131.255 46.9952 131.125 47.4025 131.125 47.4025L130.44 47.6617L131.68 48.2541L131.755 48.6426L130.718 48.3094C130.718 48.3094 130.255 48.0872 129.459 47.7007C128.663 47.3143 130.033 48.4042 130.033 48.4042L130.755 49.2558L131.532 49.6813L132.458 49.7554L134.03 50.2367L135.104 51.3104C135.104 51.3104 133.827 50.8844 133.364 50.6252C132.901 50.366 132.734 50.255 132.496 50.2737C132.257 50.2925 132.161 50.3848 132.179 50.6252C132.197 50.8656 132.457 51.0883 132.494 51.4215C132.531 51.7547 131.976 51.8841 131.976 51.8841L130.994 51.9028C130.994 51.9028 130.588 51.5326 130.735 51.3104C130.882 51.0883 131.476 50.9584 131.476 50.9584C131.476 50.9584 131.531 50.7733 131.383 50.1627C131.235 49.552 131.216 50.0146 130.217 49.3481C129.217 48.6816 129.2 48.5335 129.2 48.5335L128.65 47.8118C128.101 47.0901 128.127 47.6637 127.016 47.1636C125.906 46.6635 126.498 47.2194 126.405 47.756C126.312 48.2926 125.924 48.3139 126.331 48.7927C126.738 49.2715 126.405 49.0707 126.609 49.237C126.812 49.4034 127.497 49.552 128.293 49.8112C129.09 50.0703 128.33 50.1997 128.164 50.255C127.997 50.3103 126.257 49.7184 126.257 49.7184C126.257 49.7184 125.128 49.3126 124.11 49.1447C123.092 48.9768 123.851 49.0889 122.869 49.0149C121.888 48.9408 122.425 48.9226 121.703 48.8298C120.981 48.7369 121.832 49.163 122.312 49.2928C122.791 49.4227 123.515 49.5332 123.515 49.5332L123.607 49.939L122.96 50.328C122.312 50.7165 122.534 50.328 122.293 49.7701C122.053 49.2122 121.294 50.2326 121.294 50.2326C121.294 50.2326 121.183 50.2326 120.091 50.3437C118.999 50.4548 119.757 50.3067 119.59 49.8254C119.424 49.344 119.461 49.7701 119.239 49.8994C119.017 50.0288 118.702 50.0293 118.072 50.0663C117.443 50.1033 117.924 50.0845 116.777 50.5841C115.63 51.0837 116.407 51.0655 116.407 51.0655C116.407 51.0655 116.351 51.2323 116.148 51.4915C115.944 51.7507 115.685 51.5838 114.481 51.2694C113.278 50.9549 114.722 50.9732 114.722 50.9732C114.722 50.9732 115.128 50.6952 115.259 50.3645C115.39 50.0338 114.018 50.2164 114.018 50.2164L113.223 50.6425C113.223 50.6425 113.464 51.3642 113.538 51.7162C113.612 52.0682 113.612 52.2741 112.63 51.7532C111.649 51.2323 111.89 51.9383 111.742 52.1047C111.594 52.2711 111.094 52.4379 110.946 52.6788C110.798 52.9198 111.427 53.5304 111.427 53.5304C111.427 53.5304 110.835 53.604 110.353 53.5487C109.872 53.4934 109.854 53.1429 109.132 52.8822C108.409 52.6215 108.65 53.0121 108.798 53.2525C108.946 53.4929 109.465 53.678 109.706 53.8449C109.947 54.0118 109.595 54.0478 108.965 54.0478C108.336 54.0478 108.465 53.9184 108.114 53.7886C107.762 53.6588 107.614 53.5482 107.54 53.3443C107.465 53.1404 107.262 53.1221 107.262 52.7357C107.262 52.3492 107.503 52.6063 107.151 52.162C106.8 51.7177 106.725 51.9211 106.151 51.7563C105.577 51.5914 105.948 51.5341 106.133 51.2932C106.318 51.0523 107.207 51.8673 107.817 52.0337C108.428 52.2001 108.687 52.1818 109.15 52.1818C109.571 52.1879 109.991 52.1695 110.409 52.1265C111.017 52.0707 110.946 52.0337 111.334 51.6822C111.723 51.3307 111.537 51.3672 111.575 51.2765C111.613 51.1857 111.112 50.7185 111.112 50.7185C111.112 50.7185 110.168 50.3128 109.576 50.1632C108.984 50.0135 108.409 49.6266 107.54 49.5708C106.67 49.515 106.874 49.4414 106.318 49.3856C105.763 49.3298 105.966 49.3116 105.596 49.1265C105.226 48.9413 105.615 48.849 105.356 48.7207C105.096 48.5924 104.263 48.9616 104.43 48.5356C104.597 48.1095 104.097 48.6467 103.912 48.6467C103.726 48.6467 103.486 48.3875 102.857 48.3322C102.227 48.2769 102.56 48.4062 102.116 48.4615C101.672 48.5168 101.339 48.5914 101.024 48.7207C100.709 48.85 100.543 48.9236 100.191 48.8876C99.8388 48.8516 99.8393 49.4455 99.4132 49.3872C98.9872 49.3288 99.3392 49.1843 99.043 49.0539C98.7468 48.9236 98.7098 49.0357 98.6372 49.0539C98.5647 49.0722 98.341 49.517 97.9896 49.5723C97.6381 49.6276 97.8973 49.5353 97.5453 49.5723C97.1933 49.6093 97.4524 49.7391 97.2678 49.9055C97.0832 50.0719 96.9158 49.9055 96.8235 49.8315C96.7312 49.7574 96.3975 49.7762 96.2656 49.8315C96.1337 49.8867 95.8025 49.9243 95.5434 49.9983C95.2842 50.0724 95.2101 50.1459 94.0811 50.5902C92.9521 51.0345 94.1922 50.7383 94.5624 50.6272C94.7848 50.5604 95.015 50.5231 95.2472 50.5162C95.2472 50.5162 96.2839 50.22 96.4878 50.22C96.6917 50.22 96.3396 50.4421 95.9877 50.572C95.6357 50.7018 95.8766 50.609 95.4881 50.8311C95.0996 51.0533 95.4881 50.8311 94.9139 51.1086C94.3398 51.386 93.9888 51.6457 93.1925 52.3304C92.3962 53.0151 92.5261 52.6636 92.3409 52.8675C92.1558 53.0714 91.36 53.256 90.3974 53.9037C89.4347 54.5514 90.6565 53.8672 91.1008 53.8672C91.5451 53.8672 90.1199 54.2187 90.268 54.3668C90.4161 54.5149 89.916 54.5889 89.8237 54.1999C89.7314 53.8109 89.5458 54.3298 89.3607 54.1259C89.1755 53.922 88.9164 54.3288 88.9164 54.5149C88.9164 54.701 88.5649 54.4591 88.2316 54.7C87.8984 54.9409 87.8259 54.7923 87.7133 55.0885C87.6007 55.3847 87.1579 54.9592 87.1579 55.3107C87.1579 55.6622 86.4544 55.5328 86.4544 55.5328C86.4544 55.5328 85.9178 55.8478 85.6586 56.0142C85.3995 56.1805 85.4365 56.6989 85.4365 56.6989C85.2982 56.8727 85.1114 57.0015 84.8999 57.0691C84.5479 57.1802 84.8441 57.199 85.0104 57.3283C85.1768 57.4576 85.1403 57.4764 85.1215 57.6062C85.1027 57.7361 84.8623 57.7356 84.5129 57.7726C84.1634 57.8096 84.3835 58.0318 84.735 58.1058C85.0865 58.1799 84.9379 58.1799 84.7721 58.4208C84.6062 58.6617 84.5311 58.4761 84.2725 58.7911C84.0138 59.106 84.7041 59.2227 84.7041 59.2227C84.7041 59.2227 85.0495 59.5189 85.8397 59.5437C86.6299 59.5686 86.5554 59.0746 86.8516 58.754C87.1478 58.4335 87.3451 58.6303 87.6905 58.5319C88.0359 58.4335 87.9623 58.26 88.1845 57.9887C88.4066 57.7173 88.3326 58.2108 88.505 58.4578C88.6775 58.7048 88.5791 58.6303 88.431 58.9265C88.2829 59.2227 88.2829 59.2967 88.2829 59.5681C88.2829 59.8394 88.3843 59.988 88.4558 60.4567C88.5273 60.9253 88.5791 60.8766 88.5573 61.1231C88.5354 61.3696 88.3594 61.2469 88.0881 61.2712C87.8167 61.2956 88.0881 61.6171 88.0881 62.2349C88.0881 62.8527 88.4092 62.2349 88.9767 62.2106C89.5443 62.1862 89.2729 62.2106 89.4951 61.9884C89.7172 61.7663 89.4951 61.8555 89.5935 61.4609C89.6918 61.0663 90.3096 61.501 90.3096 61.501H91.4447C92.0371 61.501 91.9519 60.7823 91.9382 60.4866C91.9245 60.1909 92.2222 60.0342 92.3333 59.6396C92.4444 59.245 92.4566 59.4813 92.7157 59.1359C92.9749 58.7905 92.839 59.0568 93.0246 59.0071C93.2103 58.9574 93.5491 58.5912 93.6972 58.4999C93.8453 58.4086 93.8453 58.4061 94.1597 58.3478C94.4742 58.2894 94.1597 58.014 94.1597 58.014C94.1597 58.014 94.2896 57.9024 94.4189 57.8112C94.5482 57.7199 94.604 57.6443 94.6781 57.4592C94.7521 57.274 94.493 57.0889 94.493 57.0889L93.9746 56.7187L94.1227 56.0152C94.1227 56.0152 94.6781 55.2934 94.8074 55.2376C94.9368 55.1819 95.0483 55.1083 95.659 54.664C96.2697 54.2197 96.2514 54.3678 96.6587 54.2583C97.066 54.1487 97.5661 53.8697 97.5661 53.8697C97.5661 53.8697 98.2137 53.6841 98.3618 53.5735C98.5099 53.463 98.2878 53.2215 98.2508 53.0552C98.2137 52.8888 98.5099 52.8523 98.6393 52.759C98.7686 52.6657 98.8614 52.8122 99.1206 52.5343C99.3798 52.2564 99.4909 52.9401 99.4909 52.9401H100.546L101.009 52.9791C101.009 52.9791 101.083 53.2672 100.953 53.36C100.823 53.4528 99.6947 53.7536 99.6947 53.7536C99.6947 53.7536 98.7503 54.5337 98.1767 54.6635C97.6031 54.7933 97.6401 54.9237 97.3809 55.1646C97.1217 55.4055 97.3809 55.896 97.3809 55.896C97.3809 55.896 97.1588 56.2622 96.9549 56.6507C96.751 57.0392 97.2592 57.2411 97.4301 57.3273C97.601 57.4135 98.689 57.4871 98.689 57.4871C98.689 57.4871 99.1206 57.4617 99.75 57.4495C100.379 57.4374 100.034 57.3988 100.651 57.202C101.268 57.0052 102.28 56.8515 102.28 56.8515C102.28 56.8515 103.033 57.0488 103.49 57.308C103.947 57.5672 102.81 57.6042 102.65 57.6042C102.49 57.6042 101.885 57.9126 101.885 57.9126C101.885 57.9126 101.539 57.9253 101.169 57.9126C100.799 57.8999 100.602 57.8015 100.009 57.8015C99.4168 57.8015 99.3428 57.9004 98.9482 58.0115C98.5536 58.1226 98.4917 58.2336 98.2817 58.505C98.0717 58.7763 98.4729 59.1593 98.7691 59.3444C99.0653 59.5295 98.7691 59.4925 98.6763 59.6589C98.5835 59.8252 98.6022 59.8993 98.1579 60.3441C97.7136 60.7889 97.9551 60.3066 97.6584 60.1032C97.3617 59.8998 97.1588 59.6589 96.7145 59.6589C96.2702 59.6589 95.8629 60.5475 95.7508 60.6225C95.6387 60.6976 95.6027 61.0283 95.6027 61.0283C95.6027 61.0283 95.2507 61.4909 95.2507 61.8611C95.2507 62.2314 95.2943 62.3546 95.2943 62.3546C95.2557 62.4188 95.2015 62.4722 95.1368 62.51C95.0721 62.5478 94.999 62.5686 94.9241 62.5707C94.7398 62.5865 94.5577 62.6217 94.3809 62.6757C94.3809 62.6757 94.1836 63.0459 94.1587 63.1448C94.1339 63.2437 94.0355 63.1692 93.7393 63.1955C93.4431 63.2219 93.048 63.1448 92.9739 63.0966C92.8999 63.0484 93.0972 62.6523 92.4804 62.5783C91.8637 62.5042 91.4929 63.0966 90.7529 63.2447C90.0129 63.3928 88.9199 63.7519 88.7906 63.7519C88.6612 63.7519 88.6237 63.5856 88.4386 63.2706C88.2534 62.9556 88.1241 63.0302 88.0683 63.0484C88.0125 63.0667 87.8467 63.0484 87.4206 63.1595C86.9946 63.2706 87.2725 63.2153 86.6431 63.511C86.0137 63.8067 86.4027 63.5668 86.2373 63.5668C86.072 63.5668 86.108 63.5668 85.6449 63.3447C85.1819 63.1225 85.5156 63.2523 85.4045 63.0855C85.3191 62.9628 85.2262 62.8454 85.1266 62.734C85.1266 62.734 84.7011 62.7152 84.5342 62.734C84.3673 62.7528 84.4601 62.8633 84.4048 63.1225C84.3496 63.3817 84.202 63.3817 83.8469 63.6409C83.4919 63.9 83.4954 63.789 82.829 63.9923C82.1625 64.1957 82.3106 64.3256 82.3106 64.3256C82.3106 64.3256 82.1996 64.2333 81.8476 64.1404C81.4956 64.0476 81.4773 64.1592 81.1446 64.2333C80.8119 64.3073 80.5867 64.4361 80.1079 64.7328C79.6291 65.0296 80.0338 64.8997 79.7929 65.344C79.552 65.7883 79.3486 65.6402 78.7932 65.9526C78.2379 66.2651 77.6089 66.7855 77.1829 66.8413C76.7569 66.897 76.7771 66.9336 76.3313 66.9706C75.8855 67.0076 75.7947 67.7314 75.7947 67.7314C75.7947 67.7314 75.5726 68.1016 75.3316 68.3238C75.0907 68.5459 74.8508 68.2868 74.6657 68.3238C74.4806 68.3608 74.2767 68.4531 74.2026 68.62C74.1286 68.7869 74.2026 68.7863 74.0175 69.1754C73.8324 69.5644 73.9064 69.1566 73.6843 69.1196C73.4621 69.0825 73.1847 69.1013 73.1264 68.9532C73.068 68.8051 73.1821 68.8051 73.2004 68.62C73.2187 68.4349 73.0153 68.583 72.6821 68.7123C72.3488 68.8416 72.5527 69.1754 72.4599 69.5502C72.3671 69.925 72.2875 69.9341 71.621 69.959C70.9545 69.9838 71.2999 69.8849 71.2999 69.6871C71.2999 69.4893 71.1275 69.5639 70.9297 69.5639C70.7319 69.5639 70.1892 69.786 69.966 69.8352C69.7429 69.8844 69.3985 70.4276 69.3985 70.4276C69.3985 70.4276 69.892 70.699 70.2379 70.699C70.5838 70.699 70.5584 71.0941 70.6081 71.193C70.6578 71.2919 70.6589 71.7113 70.6589 71.7113C70.6589 71.7113 70.5356 72.1308 70.634 72.3778C70.7324 72.6248 71.1524 72.8216 70.881 73.0442C70.6097 73.2669 70.8303 73.2907 70.8303 73.7102C70.8303 74.1296 70.6325 73.3399 70.4103 73.5621C70.1882 73.7842 70.386 73.8091 70.2871 74.3523C70.1882 74.8955 70.1856 74.7728 70.1141 75.3403C70.0426 75.9079 68.979 76.7229 68.979 76.7229H68.3496C68.2015 76.7229 67.7942 76.4942 67.1648 76.4186C66.5354 76.343 67.1648 76.3131 65.8689 76.128C64.573 75.9429 64.1292 76.1219 64.1292 76.1219L63.2406 76.7305C63.2406 76.7305 62.6112 77.571 62.2769 77.8672C61.9427 78.1634 62.0178 78.6391 61.8326 79.3056C61.6475 79.972 61.4994 79.9695 61.2773 80.5228C61.0551 81.0762 61.0921 81.0026 60.0554 82.1134C59.0187 83.2242 60.0925 83.0771 59.4975 83.6674C58.9026 84.2578 59.8308 84.6666 60.6083 84.7036C61.3858 84.7407 61.0896 85.185 61.2007 85.8514C61.3118 86.5179 61.719 86.1106 62.1644 85.8144C62.6097 85.5182 62.4976 85.6293 62.7197 85.6293C62.9419 85.6293 63.164 85.8139 63.6083 85.9255C64.0526 86.0371 64.2378 85.9255 64.3488 85.5552C64.4599 85.185 64.8302 85.4812 64.8302 85.4812C64.8302 85.4812 65.4596 85.4071 65.5331 84.9233C65.6067 84.4394 65.7183 84.6641 65.7923 84.553C65.8664 84.4419 66.829 84.2938 66.829 84.2938C66.829 84.2938 67.1993 83.9976 67.1993 83.5533C67.1993 83.109 67.4214 83.2941 67.9028 82.9954C68.3841 82.6967 67.8657 82.0698 67.9028 81.6995C67.9398 81.3293 68.0879 81.6255 68.3841 81.5144C68.6803 81.4033 68.4952 81.4383 68.4952 81.4383L68.5322 81.4728H69.3838C70.1613 81.4728 69.68 80.4016 69.68 80.4016C69.6829 80.2207 69.7077 80.0409 69.754 79.866C69.8281 79.6068 70.2353 79.6718 70.3464 79.5982C70.4575 79.5247 70.6056 79.5013 71.0499 79.5013C71.4942 79.5013 71.6423 79.1752 71.6423 79.1752C71.6423 79.1752 71.901 78.7527 72.012 78.6046C72.1231 78.4565 72.6045 78.3003 72.6045 78.3003C72.6797 78.1093 72.7662 77.923 72.8636 77.7424C72.9747 77.5573 72.9007 77.4442 72.9747 77.0004C73.0488 76.5566 73.0117 76.7402 73.2339 76.5946C73.456 76.449 73.456 76.483 73.9003 76.1498C74.3446 75.8166 73.9003 76.1498 74.3061 76.1123C74.7118 76.0747 74.9725 76.4085 74.9725 76.4085C74.9725 76.4085 75.3428 76.5195 76.0093 76.7047C76.6757 76.8898 76.4536 76.8898 76.7127 76.6306C76.9719 76.3714 77.3214 76.2249 77.5085 76.0012C77.6957 75.7775 77.6566 75.9459 78.0664 75.6867C78.4762 75.4276 78.1958 75.6309 78.3997 75.3718C78.6036 75.1126 78.5107 75.2237 79.1214 75.1689C79.7321 75.1141 79.6955 74.8539 79.8989 75.1131C80.1023 75.3723 80.2509 75.4651 80.6212 75.5391C80.9914 75.6132 80.6765 75.8724 80.6765 76.1686C80.6765 76.4648 80.7135 76.6124 80.9169 77.1495C81.1203 77.6866 81.3059 77.7581 81.7684 77.964C82.231 78.17 82.0276 78.2044 82.4166 78.8897C82.8057 79.5749 82.9162 79.1301 83.5832 79.1859C84.2502 79.2417 83.9352 79.8518 84.3607 79.9629C84.7863 80.074 84.6757 80.1298 84.6757 80.4072C84.6757 80.6846 84.6757 80.8703 85.2123 80.813C85.7489 80.7556 85.7702 81.7665 85.7702 81.8684C85.7702 81.9704 85.9274 82.4771 85.6033 82.6733C85.2793 82.8696 85.2519 82.8955 85.1317 83.1364C85.0115 83.3773 84.9374 83.2749 84.8907 83.4407C84.8441 83.6066 85.0206 83.6811 85.1951 83.6436C85.3695 83.6061 85.4994 83.3844 85.8245 83.2642C85.9155 83.234 85.9978 83.1819 86.064 83.1124C86.1302 83.043 86.1784 82.9584 86.2044 82.8661C86.2044 82.8661 86.3307 82.6632 86.849 82.4405C87.3674 82.2179 87.1204 82.1692 87.1204 82.1692L86.8982 81.453C86.8982 81.453 86.6761 81.1325 86.4788 80.8855C86.2815 80.6385 86.7501 80.3428 86.7501 80.3428L87.6631 80.4168C87.8083 80.5914 87.9649 80.7562 88.1317 80.9103C88.3787 81.1325 88.4776 81.2065 88.6257 81.2065C88.7738 81.2065 88.996 80.9352 88.996 80.9352C88.996 80.9352 88.996 80.7622 88.1337 79.8488C87.2715 78.9353 87.7392 79.5774 87.344 79.3553C86.9489 79.1331 86.4554 78.8618 86.4554 78.8618C86.4244 78.6739 86.4244 78.4821 86.4554 78.2942C86.5062 77.9483 85.9127 78.3186 85.9127 78.3186C85.9127 78.3186 85.5668 78.2942 85.3695 78.1953C85.1722 78.0964 84.9009 77.8002 84.9009 77.8002C84.7252 77.6131 84.5352 77.4398 84.3328 77.2819C83.9874 77.0105 84.3328 77.0846 84.3328 76.9116C84.3328 76.7387 84.3577 76.69 84.3577 76.3441C84.3577 75.9981 84.1847 76.0479 83.7901 75.8257C83.3955 75.6035 83.148 75.2333 83.3088 74.8113C83.4696 74.3893 83.7146 74.4411 83.3088 73.9724C82.903 73.5038 83.6912 73.7503 84.555 73.7995C85.4187 73.8487 84.6057 74.2686 84.876 74.6389C85.1464 75.0091 85.1225 74.367 85.6165 74.1205C86.1105 73.874 85.863 73.9724 85.9371 74.367C86.0111 74.7616 86.0608 74.8854 86.1349 75.4778C86.2089 76.0702 86.4803 75.9961 87.2451 76.1442C88.01 76.2923 87.6894 76.4404 88.0845 76.8599C88.4797 77.2793 88.7262 77.1561 89.0224 77.4523C89.3186 77.7485 89.2694 77.6501 89.8618 78.0198C90.4542 78.3896 90.1083 78.3657 90.3304 78.563C90.5526 78.7603 90.3061 78.8592 90.1083 79.1306C89.9104 79.4019 90.1823 79.4024 89.664 79.6738C89.1456 79.9451 89.4418 80.4143 89.5656 80.2413C89.6893 80.0684 90.0591 80.1181 89.8618 80.3646C89.6645 80.6111 90.0099 80.6364 90.2812 81.0067C90.5526 81.3769 90.3061 81.204 90.5774 81.5494C90.8488 81.8948 90.7504 81.8456 90.8244 82.0926C90.8985 82.3396 90.9228 82.3391 91.219 82.7834C91.5152 83.2277 91.6882 83.0304 91.8363 83.0553C91.9844 83.0801 92.1568 83.0553 92.5271 82.9812C92.8973 82.9072 93.2432 83.1293 93.2432 83.1293C93.2432 83.1293 93.8108 83.1537 93.9589 83.2774C94.107 83.4012 94.5264 84.1655 94.5264 84.1655C94.5264 84.1655 94.8967 84.3136 94.8967 83.9931C94.8967 83.6725 94.8226 83.6969 94.9215 83.4747C95.0204 83.2526 95.2669 83.3266 95.2421 83.0796C95.2172 82.8326 94.9707 82.5121 94.9707 82.5121C94.757 82.2186 94.5592 81.9139 94.3783 81.5991C94.1313 81.1548 93.6378 81.0559 93.5161 80.4883C93.3944 79.9208 93.9847 80.044 93.9355 80.2165C93.8863 80.3889 94.1577 80.7597 94.6512 80.6364C95.1447 80.5132 94.9474 80.3894 94.775 80.044C94.6025 79.6986 95.1452 80.1181 95.3917 79.8219C95.6382 79.5257 95.6636 79.7205 95.9593 79.797C96.255 79.8736 96.2555 79.6489 96.4533 79.5282C96.6511 79.4075 97.1441 79.7478 97.1441 79.7478C97.3815 79.8292 97.6126 79.9282 97.8354 80.044C98.1559 80.2165 98.1559 80.1921 98.4521 80.1673C98.7483 80.1424 98.9461 80.0658 99.5137 79.6981C100.081 79.3304 99.6618 79.6738 100.303 79.6981C100.945 79.7225 100.945 79.6981 101.685 79.6981C102.426 79.6981 102.105 79.97 102.007 80.0192C101.908 80.0684 101.834 79.9943 101.389 80.0192C100.945 80.044 101.315 80.6709 101.291 80.9149C101.267 81.1589 100.378 81.4728 100.378 81.4728H98.9223C98.0601 81.4728 98.4531 80.8951 98.2066 80.994C97.9601 81.0929 97.8612 80.9392 97.4413 81.3835C97.0213 81.8279 97.5153 81.5661 98.0088 81.591C98.5023 81.6158 98.3299 81.5961 98.305 81.8446C98.2802 82.0931 98.2807 82.0571 98.5028 82.2544C98.725 82.4517 98.6012 82.4101 98.5272 82.6566C98.4531 82.9031 97.8364 82.8209 97.8364 82.8209C97.8364 82.8209 97.3429 83.039 97.5153 83.3104C97.6878 83.5817 98.1077 83.3575 98.7742 83.5056C99.4406 83.6537 98.9345 84.3496 98.8792 84.6646C98.8239 84.9796 99.0085 85.0526 99.6567 85.0526C100.305 85.0526 100.138 85.1449 100.36 85.4583C100.582 85.7718 100.638 85.3838 101.026 85.5689C101.415 85.754 101.026 86.1268 101.452 86.1268C101.878 86.1268 102.061 86.1456 102.674 86.2196C103.287 86.2937 102.877 86.0345 102.951 85.5532C103.026 85.0719 103.452 85.1272 104.192 85.5344C104.932 85.9417 105.136 86.2952 105.339 86.349C105.543 86.4027 106.265 86.3302 106.506 86.3302C106.747 86.3302 107.45 85.8306 108.171 85.4604C108.893 85.0901 108.561 85.4604 109.19 85.6633C109.819 85.8661 109.449 85.4411 109.856 85.2742C110.264 85.1074 109.856 85.7373 109.893 86.1071C109.93 86.4768 109.856 86.385 109.745 86.7182C109.634 87.0514 109.615 87.124 109.93 87.1625C110.245 87.2011 109.728 87.6621 109.93 88.1992C110.133 88.7364 109.801 88.6618 109.653 89.0691C109.504 89.4763 108.912 90.4573 108.892 91.2165C108.871 91.9758 108.392 92.9562 108.095 93.2341C107.799 93.5121 107.633 93.3635 106.559 93.4746C105.485 93.5856 105.522 93.4193 105.245 93.4933C104.968 93.5674 104.819 93.4375 104.819 93.0876C104.819 92.7376 104.393 93.1986 103.93 92.9765C103.467 92.7543 103.635 93.0505 103.023 93.0505C102.412 93.0505 102.968 93.328 102.618 93.328C102.267 93.328 102.451 93.328 101.785 93.7723C101.118 94.2166 101.452 93.8093 100.045 93.6242C98.6378 93.4391 99.5264 93.6982 98.2695 93.2539C97.0127 92.8096 97.3814 92.9577 96.1226 92.9577C94.8637 92.9577 95.9374 92.9207 95.8264 92.2913C95.7153 91.6618 95.8264 92.2913 95.2685 92.0696C94.7105 91.848 94.602 92.1067 93.4542 91.9956C92.3064 91.8845 93.2691 91.8475 93.195 91.6253C93.121 91.4032 93.084 91.3291 92.6767 91.107C92.2694 90.8848 92.1583 91.107 91.2697 91.107C90.3811 91.107 90.5668 91.2551 89.7522 91.6253C88.9377 91.9956 89.0117 92.5139 89.0858 92.9577C89.1598 93.4015 89.2339 93.7353 89.1968 94.2166C89.1598 94.6979 88.049 95.1422 86.8272 94.5128C85.6054 93.8834 85.4943 93.5491 84.8649 93.5491C84.2354 93.5491 83.4954 92.8456 83.3103 92.3648C83.1252 91.884 82.7524 91.6984 82.7179 91.5503C82.6834 91.4022 80.9427 91.217 80.9427 91.217L79.0545 90.8838C79.0545 90.8838 78.7212 90.7727 78.2399 90.5876C77.7586 90.4025 77.682 90.2174 77.1667 89.2917C76.6514 88.3661 77.7961 88.3661 77.7961 88.3661C77.7961 88.3661 77.9437 88.1069 78.8323 87.2924C79.7209 86.4778 78.6101 86.811 78.3139 86.1816C78.0177 85.5522 78.6842 85.7378 79.2026 85.2565C79.7209 84.7752 78.9434 84.8862 78.4626 85.1084C77.9817 85.3305 78.1664 85.3057 77.9807 84.8244C77.7951 84.343 76.9815 85.2808 76.9815 85.2808H75.7227C75.0549 85.1774 74.3715 85.2762 73.7603 85.5644C72.7607 86.0457 72.9088 85.5583 72.4645 85.2991C72.0202 85.0399 71.095 85.5735 68.9846 85.6105C66.8742 85.6475 65.8004 87.2842 65.0356 87.5064C64.2707 87.7286 64.0481 87.6398 63.8016 87.3436C63.5551 87.0474 62.6416 87.4349 62.6416 87.4349C62.6416 87.4349 61.678 87.481 61.6541 86.6168C61.6303 85.7525 60.7163 86.8126 60.4942 88.0466C60.272 89.2806 58.8133 89.8496 57.5808 90.4446C56.3484 91.0395 55.4151 93.9782 55.1372 95.1803C54.8592 96.3823 53.362 97.8826 52.5454 97.9937C51.7288 98.1047 51.1202 99.1227 50.898 99.8449C50.6759 100.567 50.3614 100.419 49.9171 101.159C49.4728 101.9 48.8616 103.306 48.5477 103.658C48.2337 104.01 48.2703 103.935 48.1774 104.324C48.0846 104.713 47.8442 105.565 47.1778 107.009C46.5113 108.453 46.6411 109.248 46.6964 109.73C46.7517 110.211 47.0667 110.989 46.6594 111.063C46.2521 111.137 46.6041 111.599 46.7335 112.747C46.8628 113.895 46.6782 116.06 46.6041 116.431C46.5301 116.801 46.493 117.449 46.4743 117.986C46.4555 118.523 45.4934 118.985 45.8819 119.707C46.2704 120.429 46.5671 120.91 46.3079 121.299C46.0487 121.688 46.3079 122.558 46.3079 122.558C46.3079 122.558 46.419 122.947 46.5108 123.409C46.6026 123.872 46.881 124.094 47.1032 123.946C47.3254 123.798 47.3624 124.057 47.2883 124.372C47.2143 124.686 47.2143 124.816 47.4182 125.186C47.6221 125.557 47.6956 125.316 47.8807 125.52C48.0659 125.724 47.8995 125.871 48.2697 126.297C48.64 126.723 48.6212 127.093 48.9732 127.278C49.3252 127.463 49.343 128.056 49.5063 128.445C49.6696 128.834 49.5839 128.722 49.5281 129.148C49.4723 129.573 49.5281 129.407 49.6392 129.833C49.7503 130.259 49.8984 130.332 50.2316 130.629C50.5648 130.925 50.1205 131.092 50.6759 131.332C51.2313 131.573 50.9538 131.498 51.176 131.924C51.3981 132.351 51.4534 132.258 52.1011 132.739C52.7488 133.22 52.7863 133.461 53.2119 134.368C53.6374 135.276 54.7669 135.535 55.2295 135.812C55.692 136.089 55.5815 135.609 55.6555 135.46C55.7296 135.312 56.0998 135.146 56.0998 135.146C56.0998 135.146 56.2849 134.74 56.6182 134.701C56.9514 134.663 57.1365 134.572 57.63 134.448C58.1235 134.324 58.4689 134.499 59.111 134.62C59.7531 134.742 59.5056 134.645 59.8267 134.671C60.1477 134.697 60.024 134.695 60.5672 134.967C61.1104 135.239 60.8137 135.041 61.1347 135.018C61.4558 134.995 61.3569 134.821 61.505 134.549C61.6531 134.277 61.7763 134.45 62.0974 134.277C62.4185 134.104 62.3688 134.105 62.7882 133.809C63.2077 133.513 63.4055 133.611 63.7265 133.624C64.0476 133.636 64.2449 133.562 64.2941 133.241C64.3433 132.92 64.5593 133.056 64.6887 132.907C64.818 132.759 64.9113 132.796 65.2258 132.815C65.3998 132.831 65.5745 132.792 65.7254 132.704C65.8972 132.681 66.0703 132.669 66.2437 132.667C66.5029 132.667 66.725 132.87 66.725 132.519C66.725 132.168 67.0953 132.334 66.966 132.519C66.8366 132.704 67.2804 132.519 67.4843 132.519C67.6882 132.519 67.7065 132.519 68.4099 133.093C69.1134 133.666 68.8355 133.685 68.9466 133.853C69.0576 134.022 69.1494 134.205 69.3909 134.056C69.6323 133.908 69.3168 134.426 69.3909 134.741C69.4649 135.055 69.3909 134.89 69.539 135.167C69.6871 135.444 69.8164 135.463 70.1126 135.741C70.4088 136.018 70.4458 135.982 70.6867 135.889C70.9277 135.796 71.0753 135.889 71.3344 135.815C71.5936 135.741 71.5008 135.556 71.76 135.815C72.0192 136.074 71.8959 135.586 72.0192 135.463C72.1424 135.34 72.1673 135.586 72.7105 135.562C73.2537 135.537 72.9818 135.34 72.9818 135.093C72.9818 134.846 73.278 135.488 73.5991 135.586C73.9201 135.685 73.9693 135.957 73.8953 136.179C73.8212 136.401 74.3147 136.475 74.7575 136.475C75.2003 136.475 75.0045 136.993 75.3007 137.216C75.5969 137.438 75.498 137.364 75.424 137.734C75.3499 138.104 75.498 138.795 75.2758 139.165C75.0537 139.535 75.3266 139.461 75.2251 139.98C75.1237 140.498 75.2759 140.671 75.2992 141.56C75.3225 142.448 74.9228 143.775 74.6637 144.146C74.4045 144.518 75.0522 144.349 75.3114 144.609C75.5705 144.87 75.6628 144.887 76.1259 145.386C76.589 145.886 76.4962 146.497 76.8476 146.516C77.1991 146.535 77.4781 146.641 77.4781 147.031C77.4781 147.421 77.8301 147.419 78.4595 148.049C78.969 148.545 79.4278 149.091 79.8289 149.678C80.2732 150.307 79.866 150.196 80.4584 150.9C81.0508 151.603 81.5691 152.787 82.0505 153.528C82.5318 154.268 83.0872 154.713 82.5318 155.303C81.9764 155.894 82.6058 155.747 83.4985 156.562C84.3912 157.377 84.8268 159.301 84.4566 159.931C84.0863 160.561 83.5685 160.819 83.5086 161.893C83.4488 162.967 83.6796 164.041 83.5315 164.632C83.3834 165.223 84.0128 166.149 84.0128 166.149C84.0128 166.149 84.1604 166.779 84.7898 167.816C85.4192 168.852 87.8259 171.185 88.8256 172.036C89.8252 172.887 89.5661 173.963 90.3066 175.109C91.0471 176.255 92.0092 177.552 92.7868 178.515C93.5643 179.478 93.6754 179.144 94.2678 179.737C94.8602 180.329 97.0817 182.81 97.3409 183.217C97.6 183.624 96.8966 183.587 97.3409 184.069C97.7852 184.55 97.8962 184.883 98.3045 184.772C98.7128 184.661 98.5267 184.846 99.045 185.109C99.5634 185.373 99.4153 185.179 99.8596 184.92C100.304 184.661 100.193 184.883 100.823 185.068C101.454 185.253 100.971 184.772 101.342 184.512C101.712 184.253 101.675 184.512 101.971 184.587C102.267 184.661 102.341 184.661 102.563 184.744C102.786 184.828 102.749 184.735 103.341 184.698C103.933 184.661 103.341 184.698 103.711 184.735C104.081 184.772 103.933 184.698 104.007 184.512C104.082 184.327 104.525 184.327 104.525 184.327L105.636 183.922C105.895 183.619 106.131 183.297 106.34 182.958C106.71 182.366 106.587 182.205 107.202 182.081C107.817 181.958 107.313 181.76 107.486 181.428C107.659 181.095 107.77 180.897 108.029 180.317C108.288 179.737 108.337 179.626 108.819 179.589C109.3 179.552 108.985 179.329 108.916 179.015C108.846 178.701 109.059 178.515 109.429 177.941C109.8 177.368 109.361 177.565 109.411 176.898C109.461 176.232 109.411 176.898 109.041 176.503C108.671 176.108 109.238 175.911 109.238 175.911L109.88 175.417L111.312 175.146L111.731 174.875C111.731 174.875 111.879 174.406 111.805 174.183C111.731 173.961 111.704 173.542 111.704 173.542C111.704 173.542 111.852 173.048 111.852 172.826C111.852 172.604 111.801 172.505 111.605 172.234C111.409 171.962 111.605 172.036 111.679 171.567C111.753 171.099 111.185 170.432 111.037 169.913C110.889 169.395 111.037 169.667 111.432 169.321C111.827 168.975 111.63 169 111.901 168.729C112.173 168.458 112.395 168.26 112.962 167.915C113.53 167.569 112.444 168.038 113.222 167.297C113.999 166.557 113.407 167.001 114.443 166.409C115.48 165.816 115.776 165.927 115.776 165.927L116.627 165.261L117.442 164.632L117.701 163.706L118.259 163.225C118.259 163.225 118.296 162.929 118.11 162.299C117.925 161.67 117.777 161.3 117.851 158.856C117.925 156.412 117.851 158.264 117.628 157.301C117.404 156.339 117.628 157.301 116.959 156.783C116.29 156.265 117.028 155.819 116.954 155.154C116.88 154.489 116.427 153.525 116.427 153.525C116.427 153.525 116.253 152.858 116.549 152.414C116.846 151.97 115.247 152.118 115.247 152.118V149.453L116.546 148.495C116.546 148.495 117.286 147.536 117.36 147.018C117.434 146.5 117.595 146.657 118.262 145.991C118.928 145.325 118.294 146.009 118.442 145.565C118.59 145.121 119.473 145.159 119.473 145.159C119.473 145.159 120.241 144.938 120.685 143.679C120.685 143.679 122.067 141.751 123.4 140.569C124.732 139.386 125.921 138.865 129.77 134.423C133.619 129.982 133.498 125.81 133.449 124.576C133.399 123.342 132.364 124.626 131.919 124.97C131.475 125.314 130.34 125.021 129.057 125.217C127.774 125.414 126.441 125.711 126.441 125.711C126.441 125.711 124.861 125.958 123.923 125.958C122.985 125.958 122.492 125.267 122.492 123.588C122.492 121.91 119.826 120.331 119.826 120.331L116.42 118.06C116.42 118.06 115.976 116.677 115.63 115.246C115.285 113.815 115.235 113.815 113.902 112.827C112.569 111.84 112.619 111.1 112.668 109.52C112.717 107.94 112.113 107.656 111.669 107.288C111.224 106.92 110.225 105.993 110.114 105.513C110.003 105.033 110.04 105.107 110.336 104.624C110.632 104.141 109.596 103.217 109.596 103.217C109.154 102.586 108.794 101.902 108.522 101.181C108.078 99.9961 108.116 100.403 107.337 98.4785C106.558 96.5537 105.93 96.5162 105.486 95.6646C105.042 94.813 108.115 98.8858 108.115 98.1453C108.115 97.4048 108.596 96.6643 109.04 95.8868C109.485 95.1092 108.892 97.0346 108.635 97.9232C108.377 98.8118 109.449 98.8488 109.449 98.8488L111.559 100.922C111.559 100.922 111.707 102.255 113.225 104.106C114.743 105.957 114.336 105.402 115.039 106.734C115.743 108.067 115.113 107.919 115.965 109.326C116.817 110.733 117.557 110.585 118.408 112.065C119.26 113.545 119.63 114.434 120.445 115.508C121.259 116.582 121.003 116.767 121.003 117.322C121.003 117.878 121.114 119.395 121.336 119.914C121.558 120.432 122.299 122.542 123.594 122.728C124.889 122.913 124.593 121.691 125.63 121.58C126.667 121.469 126.63 121.58 127.557 121.061C128.485 120.543 128.372 120.58 129.001 120.617C129.631 120.654 129.705 120.432 130.852 119.248C132 118.063 131.556 118.766 133.74 118.619C135.925 118.471 134.789 117.323 134.789 117.323C134.789 117.323 135.184 116.483 136.764 115.694C138.343 114.904 137.603 115.694 138.539 115.052C139.475 114.411 138.589 114.262 139.18 114.114C139.771 113.967 140.069 114.114 140.513 113.127C140.958 112.139 141.205 112.683 142.241 112.584C143.277 112.485 142.19 112.189 142.043 110.905C141.897 109.622 142.043 109.918 142.981 110.313C143.919 110.708 143.129 109.671 143.673 108.289C144.216 106.907 144.265 106.413 143.969 106.019C143.673 105.624 142.34 105.081 142.34 105.081C141.605 104.615 140.847 104.186 140.069 103.797C138.785 103.155 139.674 103.402 139.328 102.81C138.983 102.218 139.032 102.218 138.835 101.132C138.638 100.046 138.49 101.379 137.946 101.822C137.403 102.266 137.354 102.415 136.959 103.007C136.564 103.6 136.959 103.6 136.268 104.093C135.577 104.587 135.577 104.389 134.837 104.241C134.097 104.093 133.997 104.488 133.306 104.537C132.615 104.587 132.763 104.093 132.418 103.353C132.073 102.613 130.443 101.773 130.443 101.773L130.369 100.465L129.283 99.5523C128.197 98.6393 128.542 98.1697 128.542 98.1697L127.234 97.4779C127.234 97.4779 126.493 97.1816 125.136 96.3671C123.779 95.5525 125.136 95.7747 125.58 95.4034C126.025 95.0322 126.099 95.3527 127.136 95.4541C128.172 95.5556 127.777 95.2817 127.876 94.6152C127.975 93.9488 128.32 95.1336 129.455 94.9363C130.591 94.739 129.604 95.0839 130.146 95.8741C130.689 96.6643 131.479 98.1448 132.834 98.5891C134.19 99.0334 134.044 99.5269 134.044 99.5269C134.044 99.5269 134.365 99.8723 135.401 100.119C136.438 100.366 136.314 100.243 138.089 99.8972C139.865 99.5518 139.299 100.07 140.237 101.427C141.175 102.785 140.755 101.674 143.865 102.266C144.432 102.374 144.812 102.436 145.061 102.469C145.039 102.504 145.061 102.563 145.173 102.661C145.839 103.254 146.187 102.439 146.187 102.439C146.187 102.439 146.434 102.686 146.607 102.686C146.78 102.686 147.866 102.143 148.878 102.094C149.89 102.045 151.198 101.575 151.938 102.094C152.679 102.612 152.506 103.032 153.123 102.859C153.74 102.686 153.617 103.5 154.061 104.537C154.505 105.574 155.27 104.759 155.27 104.759C155.27 104.759 155.344 105.327 155.591 105.599C155.838 105.87 156.628 106.265 157.468 106.166C158.308 106.067 157.986 106.268 157.764 106.462C157.542 106.657 157.172 107.08 156.506 106.882C155.84 106.684 156.629 107.82 158.036 109.103C159.443 110.386 159.294 109.399 160.282 109.227C161.269 109.054 160.529 107.943 160.701 107.104C160.874 106.264 161.244 108.118 161.071 109.152C160.898 110.187 161.467 110.436 161.812 111.374C162.157 112.312 161.837 113.027 163.022 116.434C164.206 119.84 166.623 127.466 167.464 128.873C168.306 130.28 168.377 129.762 168.895 129.046C169.414 128.331 169.957 128.404 169.957 128.404C169.957 128.404 169.957 127.861 170.08 127.542C170.203 127.222 170.228 127.023 170.92 126.481C171.611 125.938 171.018 126.086 171.018 126.086C171.018 126.086 170.994 125.839 170.92 124.901C170.846 123.963 171.142 123.914 171.142 123.914L171.364 122.729C171.325 121.93 171.358 121.129 171.462 120.335C171.635 119.002 171.29 118.509 171.314 117.891C171.339 117.274 171.438 117.472 171.882 117.472C172.326 117.472 172.252 116.978 172.4 116.633C172.548 116.287 172.672 116.756 172.869 116.633C173.067 116.509 173.437 116.262 173.487 115.794C173.536 115.325 174.029 114.85 174.029 114.85C174.029 114.85 174.399 113.769 174.646 113.301C174.893 112.832 175.041 112.733 175.411 112.388C175.782 112.043 176.177 111.894 176.152 111.401C176.127 110.907 176.152 111.203 176.423 111.203C176.695 111.203 176.818 111.228 176.966 111.152C177.115 111.077 177.682 110.239 177.682 110.239C177.733 109.913 177.757 109.583 177.756 109.252C177.756 108.685 177.83 108.981 178.027 108.561C178.225 108.141 178.176 108.265 178.348 107.699C178.521 107.133 178.842 108.118 178.842 108.118L179.434 108.266L179.536 108.621L179.758 109.075H180.573L180.943 108.226C180.943 108.226 180.844 107.481 180.745 107.212C180.646 106.943 181.313 106.333 181.313 106.333L181.831 106.869C181.831 106.869 182.251 107.766 182.226 108.68C182.201 109.593 182.769 108.781 182.769 108.781C182.812 108.982 182.812 109.189 182.769 109.39C182.695 109.686 183.559 110.125 183.559 110.125L184.003 110.715L184.448 111.257C184.448 111.257 184.448 111.602 184.324 112.293C184.201 112.984 184.349 113.033 184.596 112.712C184.843 112.391 184.966 112.194 184.966 112.49C184.966 112.786 185.558 114.514 185.558 114.514C185.558 114.514 185.533 115.945 185.508 116.735C185.482 117.525 185.656 117.229 185.829 117.327C186.002 117.426 186.396 117.747 186.495 117.722C186.594 117.697 186.668 117.179 187.112 116.538C187.557 115.896 187.606 116.093 187.704 115.402C187.803 114.711 188.371 115.871 188.668 116.661C188.965 117.451 189.273 118.623 189.53 120.326C189.787 122.029 189.863 122.585 189.678 124.251C189.493 125.917 189.159 127.916 189.085 129.36C189.011 130.804 189.937 131.84 190.049 132.321C190.161 132.802 190.086 133.802 190.049 134.432C190.012 135.061 190.271 136.542 190.271 136.542C190.271 136.542 190.16 137.911 190.16 138.469C190.16 139.027 190.53 139.506 190.827 140.061C191.123 140.616 191.419 140.431 191.678 140.135C191.937 139.839 191.863 139.654 191.53 138.247C191.197 136.84 191.456 137.618 191.9 135.952C192.345 134.285 191.875 133.323 191.555 132.655C191.234 131.987 191.036 131.865 190.617 131.717C190.198 131.569 190.37 130.952 190.493 130.014C190.617 129.076 190.296 129.175 190.493 128.212C190.691 127.25 190.37 128.015 190.123 128.263C189.876 128.511 189.975 128.314 189.802 127.597C189.63 126.879 189.877 126.633 189.926 126.066C189.975 125.5 190.074 125.4 190.592 123.672C191.111 121.945 190.592 123.228 190.617 122.709C190.651 122.238 190.795 121.781 191.036 121.376C191.209 121.105 191.234 121.648 191.234 122.042C191.234 122.437 191.209 122.561 191.407 122.783C191.604 123.005 192.295 122.906 192.443 123.202C192.592 123.498 192.863 124.313 192.863 124.313C192.95 124.704 193.016 125.1 193.06 125.498C193.134 126.164 193.282 126.238 193.677 126.633C194.073 127.029 193.801 127.423 193.801 127.423L193.529 128.285C193.529 128.285 193.603 128.927 193.875 128.804C194.146 128.68 194.072 128.557 194.714 127.669C195.356 126.781 194.765 126.756 194.936 126.114C195.108 125.471 195.405 126.212 195.874 125.422C196.343 124.633 196.392 123.744 196.541 123.102C196.689 122.461 196.639 122.016 196.639 121.621C196.639 121.226 196.541 120.239 196.392 119.45C196.244 118.66 196.195 118.906 195.751 117.327C195.307 115.748 194.368 113.797 194.097 113.279C193.826 112.761 193.949 112.02 194.023 111.156C194.097 110.293 194.381 109.811 194.455 109.256C194.529 108.701 194.603 108.256 195.266 108.256C195.93 108.256 195.341 108.814 195.97 109.996C196.599 111.179 196.562 108.886 196.636 107.553C196.71 106.22 197.427 106.418 198.131 105.625C198.835 104.833 198.131 103.942 198.131 103.942ZM110.988 159.636C110.766 160.154 110.182 159.562 110.7 160.376C111.218 161.191 111.555 161.08 111.555 161.598C111.555 162.116 111.372 163.264 110.854 162.227C110.336 161.191 110.811 161.931 110.352 160.598C109.892 159.265 109.856 160.302 109.856 158.671C109.856 157.04 109.893 157.376 109.634 156.82C109.375 156.265 109.359 156.262 109.359 156.262C110.173 156.225 110.49 156.82 110.49 156.82V158.486C110.49 158.486 111.21 159.117 110.988 159.636ZM106.45 142.669L107.438 141.829C107.438 141.829 108.499 141.854 108.894 142.101C108.894 142.101 109.264 142.792 110.103 142.767C110.942 142.742 109.412 143.138 109.241 144.174C109.069 145.211 108.994 144.372 108.648 144.742C108.302 145.112 108.574 145.087 108.722 145.408C108.87 145.729 108.722 145.754 108.525 146.1C108.328 146.445 108.204 146.248 107.266 146.198C106.391 146.152 106.505 146.471 106.523 146.514L105.859 145.087L105.637 143.804L106.45 142.669ZM104.523 154.195C104.264 153.751 104.005 152.936 104.005 152.936L103.193 151.528L102.823 150.269L102.526 148.9C102.526 148.9 102.675 148.307 102.526 147.419C102.526 147.419 103.045 148.011 103.193 148.53C103.341 149.048 103.267 149.974 103.267 150.677C103.267 151.38 103.193 151.528 104.157 151.748C105.12 151.968 104.526 152.044 104.822 152.97C105.119 153.895 105.267 153.488 105.415 154.932C105.563 156.376 104.784 154.639 104.525 154.193L104.523 154.195ZM115.728 78.7187C115.383 79.0149 114.174 79.5581 113.828 79.3111C113.482 79.0641 112.446 79.7057 112.322 79.6073C112.199 79.509 110.866 79.5333 110.792 79.1879C110.718 78.8425 109.805 79.0149 109.78 78.6939C109.756 78.3728 108.398 78.7679 108.299 78.2252C108.2 77.6825 105.905 78.1745 104.967 78.8668C104.029 79.5592 102.647 79.5333 102.08 79.3355C101.512 79.1377 99.7597 77.8301 100.031 77.6577C100.302 77.4852 100.031 76.7447 100.426 76.621C100.591 76.5677 100.731 76.4547 100.817 76.3042C100.904 76.1536 100.932 75.9762 100.895 75.8064C100.821 75.5346 100.895 75.4362 101.265 75.2384C101.635 75.0406 101.265 74.7449 101.413 74.4269C101.561 74.1088 101.882 74.5501 102.08 74.3254C102.277 74.1007 102.253 74.2022 102.524 74.0784C102.795 73.9547 102.524 73.659 102.524 73.2162C102.524 72.7734 102.641 72.4163 103.091 72.6978C103.684 73.0681 103.659 72.4265 104.202 72.2292C104.745 72.0319 104.597 72.2292 104.869 72.5254C105.14 72.8216 105.239 72.8708 105.883 72.8459C106.527 72.8211 107.956 72.7952 108.499 72.5005C109.042 72.2059 108.919 72.2535 109.906 71.9573C110.894 71.6611 110.87 71.8092 111.681 71.5379C112.493 71.2665 113.088 71.5886 112.767 71.7352C112.447 71.8818 111.212 72.4016 111.483 72.6988C111.755 72.9961 111.508 72.8003 111.163 73.0691C110.818 73.3379 110.571 73.7604 108.966 73.7356C107.362 73.7107 108.423 73.5626 107.191 73.168C105.959 72.7734 106.006 73.2664 105.982 73.8588C105.958 74.4512 106.228 75.2658 107.265 74.9452C108.302 74.6247 108.03 74.8215 108.327 74.2788C108.623 73.7361 109.215 74.4269 110.177 74.2047C111.14 73.9826 110.326 74.5501 111.831 75.0928C113.337 75.6355 112.694 75.6609 113.806 76.5495C114.918 77.4381 114.843 76.7716 115.733 77.364C116.624 77.9564 116.076 78.421 115.73 78.7172L115.728 78.7187ZM132.531 85.1297C132.442 85.3407 132.05 85.4213 131.272 85.574C130.054 85.8129 129.653 85.7059 129.476 85.648C129.253 85.5731 129.041 85.4673 128.847 85.3336C128.42 85.0409 128.43 84.8543 128.162 84.6484C127.471 84.1188 126.558 84.7026 126.144 84.1858C126.037 84.0403 125.956 83.8775 125.904 83.7045C125.846 83.5198 125.853 83.4235 125.829 83.2044C125.754 82.508 125.561 82.3183 125.7 82.1311C125.81 81.9825 125.974 82.0449 126.07 81.872C126.132 81.7604 126.097 81.6752 126.07 81.4089C126.054 81.2539 126.048 81.0981 126.05 80.9423C126.029 80.9425 126.009 80.9381 125.99 80.9293C125.971 80.9206 125.954 80.9077 125.941 80.8916C125.897 80.817 125.994 80.6628 126.033 80.6694C126.062 80.6745 126.053 80.7709 126.05 80.9433C126.375 80.9859 127.256 80.6603 127.236 80.5031C127.222 80.3945 126.792 80.4645 126.181 80.1511C126.021 80.0718 125.871 79.9723 125.737 79.8549C125.498 79.6423 125.414 79.4587 125.292 79.2812C125.07 78.9556 124.979 79.0276 124.293 78.4484C123.894 78.1096 124.017 78.1634 123.405 77.6151C123.194 77.4376 123.001 77.2391 122.83 77.0227C122.687 76.8365 122.615 76.7437 122.571 76.6342C122.368 76.1189 122.723 75.6705 122.534 75.5052C122.43 75.4149 122.317 75.5473 122.072 75.4864C121.738 75.4037 121.44 75.0335 121.461 74.7089C121.471 74.5466 121.551 74.5526 121.775 74.1352C121.991 73.7335 121.954 73.658 122.109 73.5058C122.232 73.3841 122.376 73.3257 122.667 73.2096C123.008 73.0711 123.063 73.1082 123.275 72.9874C123.465 72.8819 123.413 72.8591 123.72 72.636C124.102 72.3575 124.184 72.3915 124.349 72.1916C124.434 72.0902 124.47 72.0096 124.589 71.9325C124.696 71.8668 124.817 71.8286 124.941 71.8214C125.465 71.772 125.992 71.7781 126.514 71.8397C126.767 71.8752 126.891 71.8904 127.014 71.9325C127.233 72.0025 127.735 72.1627 127.902 72.5614C128.021 72.8454 127.851 72.9672 127.995 73.2466C128.053 73.3547 128.132 73.4498 128.228 73.5262C128.324 73.6025 128.434 73.6584 128.553 73.6904C128.925 73.7919 129.111 73.5479 129.33 73.6716C129.592 73.8238 129.667 74.3706 129.478 74.5232C129.268 74.6936 128.73 74.3711 128.33 74.1347C127.652 73.729 127.418 73.3739 127.109 73.4683C126.996 73.5022 127.019 73.553 126.738 73.8197C126.337 74.2022 126.187 74.1956 125.978 74.4492C125.902 74.5415 125.631 74.8727 125.663 75.21C125.703 75.6284 126.182 75.7172 127.07 76.3572C127.983 77.0201 128.533 77.4173 128.642 78.0234C128.667 78.1629 128.693 78.4449 128.901 78.7086C129.074 78.9267 129.35 79.1062 129.438 79.0413C129.486 79.0063 129.455 78.916 129.438 78.7639C129.408 78.4986 129.413 77.996 129.605 77.894C129.796 77.7921 130.128 78.0842 130.253 78.1902C130.604 78.491 130.539 78.6675 130.845 78.8567C131.103 79.016 131.242 78.9465 131.4 79.1341C131.534 79.2934 131.603 79.5455 131.511 79.6525C131.453 79.7189 131.347 79.7123 131.271 79.7078C130.667 79.6748 130.321 79.6571 130.049 79.7636C129.855 79.8452 129.692 79.9876 129.586 80.1693C129.448 80.4163 129.401 80.7856 129.549 80.8911C129.674 80.9798 129.82 80.7987 130.178 80.7987C130.444 80.7987 130.787 80.9002 130.826 81.0762C130.852 81.1857 130.761 81.3105 130.623 81.5022C130.494 81.6813 130.43 81.7051 130.438 81.7614C130.462 81.9136 130.968 81.7979 131.326 82.0206C131.783 82.3036 131.54 82.8539 131.975 83.8713C132.302 84.6306 132.656 84.8345 132.533 85.1282L132.531 85.1297ZM134.4 75.1709C134.349 75.2002 134.292 75.2156 134.233 75.2156C134.175 75.2156 134.117 75.2002 134.067 75.1709C133.877 75.0537 133.961 74.7844 133.882 74.0972C133.828 73.6356 133.767 73.5484 133.845 73.3749C133.994 73.0427 134.431 72.8967 134.492 72.9692C134.554 73.0417 134.126 73.3197 134.159 73.73C134.182 74.016 134.408 74.0378 134.511 74.4335C134.572 74.6541 134.602 75.0431 134.402 75.1694L134.4 75.1709ZM136.418 75.1709C136.378 75.3713 136.135 75.5102 135.936 75.5224C135.646 75.5407 135.366 75.2926 135.344 75.0598C135.322 74.827 135.579 74.7702 135.585 74.5227C135.594 74.157 135.04 74.0186 135.067 73.6711C135.081 73.487 135.253 73.3161 135.344 73.3379C135.435 73.3597 135.428 73.5753 135.474 73.7822C135.649 74.5714 136.5 74.7621 136.42 75.1694L136.418 75.1709ZM136.288 72.8754C136.221 72.8804 136.049 72.888 135.622 72.7643C135.194 72.6405 134.983 72.5791 134.974 72.4681C134.963 72.3418 135.215 72.2018 135.418 72.1536C135.707 72.0851 135.949 72.1896 136.251 72.32C136.467 72.4133 136.809 72.5599 136.788 72.6902C136.769 72.8348 136.313 72.8723 136.29 72.8738L136.288 72.8754ZM154.318 72.2261C154.286 72.4762 153.811 72.5812 153.67 72.6147C153.24 72.7115 152.978 72.6192 152.023 72.4295C151.177 72.2616 150.948 72.2474 150.708 72.3742C150.651 72.4042 150.343 72.567 150.245 72.8921C150.055 73.5286 150.864 74.1474 150.671 74.3919C150.563 74.5288 150.238 74.4253 150.19 74.4101C149.593 74.2209 149.476 73.415 149.468 73.3552C149.437 73.0908 149.475 72.8229 149.579 72.5776C149.622 72.4762 149.806 72.037 150.19 71.8559C150.583 71.6708 150.802 71.9345 151.949 72.1704C152.764 72.3382 153.177 72.4174 153.521 72.1891C153.731 72.0501 153.867 71.8341 154.058 71.8741C154.21 71.9061 154.339 72.0821 154.318 72.2261ZM169.436 65.734C169.11 65.872 168.618 65.7741 168.448 65.4875C168.175 65.0275 168.993 64.5274 168.892 63.7124C168.77 62.7117 167.402 62.3267 167.56 61.785C167.633 61.534 167.993 61.399 168.251 61.3904C169.065 61.3625 169.796 62.5605 169.978 63.5622C170.108 64.2622 170.078 65.4632 169.438 65.7346L169.436 65.734Z" fill="white"/>
<g style="mix-blend-mode:multiply" opacity="0.31">
<path d="M170.503 52.7554C181.875 67.0218 188.672 85.0962 188.672 104.759C188.672 150.874 151.288 188.259 105.172 188.259C85.5097 188.259 67.4368 181.462 53.1689 170.09C68.4675 189.284 92.047 201.587 118.5 201.587C164.616 201.587 202 164.203 202 118.087C202 91.6329 189.698 68.054 170.503 52.7554Z" fill="#27425B" fill-opacity="0.2"/>
</g>
<g style="mix-blend-mode:overlay" opacity="0.21">
<path d="M42.2585 125.345C42.2585 79.2294 79.6428 41.8451 125.758 41.8451C146.969 41.8451 166.329 49.7574 181.057 62.7872C165.759 45.4918 143.405 34.5872 118.5 34.5872C72.3843 34.5872 35 71.971 35 118.087C35 142.99 45.9047 165.346 63.2 180.645C50.1717 165.916 42.2585 146.556 42.2585 125.345Z" fill="white" fill-opacity="0.4"/>
</g>
<path d="M198.957 102.535C198.771 102.549 198.631 103.591 198.735 104.559C198.872 105.845 199.442 107.05 199.648 107.002C199.88 106.948 199.671 105.298 199.549 104.559C199.517 104.368 199.205 102.516 198.957 102.535Z" fill="white"/>
<path d="M201.548 123.07C201.375 123.074 201.214 122.466 201.178 122.329C201.158 122.255 201.095 122.004 201.08 121.515C201.062 120.976 201.125 120.876 201.104 120.551C201.071 120.04 200.877 119.702 200.783 119.49C200.364 118.539 200.94 117.77 200.981 116.306C201.028 114.632 200.343 113.25 200.24 113.27C200.189 113.28 200.252 113.653 200.291 114.578C200.311 115.075 200.302 115.217 200.291 116.75C200.273 119.095 200.3 117.827 200.291 119.341C200.285 120.261 200.275 120.609 200.389 121.144C200.555 121.919 200.716 121.857 200.858 122.501C200.983 123.066 200.892 123.268 200.685 125.536C200.635 126.066 200.613 126.333 200.611 126.475C200.598 127.591 200.857 127.844 200.735 128.548C200.609 129.271 200.32 129.105 200.216 129.831C200.131 130.436 200.318 130.67 200.216 131.683C200.201 131.841 200.186 131.943 200.216 131.954C200.318 131.989 200.766 131.01 201.134 130.152C201.52 127.483 201.778 124.775 201.908 122.029C201.792 122.624 201.695 123.066 201.548 123.07Z" fill="white"/>
<path fill-rule="evenodd" clip-rule="evenodd" d="M84.8892 14.2623C87.6189 13.1561 90.5446 12.5867 93.4993 12.5867C96.4539 12.5867 99.3797 13.1561 102.109 14.2623C104.839 15.3686 107.319 16.9901 109.409 19.0342C111.498 21.0783 113.155 23.505 114.286 26.1758C115.417 28.8465 115.999 31.709 115.999 34.5998C115.999 46.7574 93.4993 73.5867 93.4993 73.5867C93.4993 73.5867 71 46.7574 71 34.5998C71 31.709 71.582 28.8465 72.7127 26.1758C73.8434 23.505 75.5006 21.0783 77.5899 19.0342C79.6791 16.9901 82.1595 15.3686 84.8892 14.2623ZM93.5 48.5867C100.956 48.5867 107 42.5425 107 35.0867C107 27.6308 100.956 21.5867 93.5 21.5867C86.0442 21.5867 80 27.6308 80 35.0867C80 42.5425 86.0442 48.5867 93.5 48.5867Z" fill="#F13224"/>
</svg>
