<svg width="513" height="382" viewBox="0 0 513 382" fill="none" xmlns="http://www.w3.org/2000/svg">
<path d="M216.823 49.9008C232.632 35.9677 264.097 126.174 263.92 132.984C263.21 160.268 258.36 188.523 244.588 196.541C231.913 196.727 215.767 193.803 203.937 189.925C203.304 179.33 198.868 141.586 199.045 125.414C199.239 110.509 213.764 52.6047 216.823 49.9008Z" fill="#FCC6AE"/>
<path d="M166.616 316.794C178.682 270.398 195.057 218.197 204.478 187.179C221.58 182.109 231.187 185.726 245.703 192.57C241.698 229.367 233.308 309.172 228.263 357.435C205.332 347.903 184.414 334.113 166.616 316.794Z" fill="#FCC6AE"/>
<path d="M232.837 169.766L289.612 163.358C295.344 162.711 299.465 157.54 298.818 151.809L283.189 13.3399C282.542 7.60848 277.371 3.48669 271.64 4.13362L214.865 10.5421C209.134 11.189 205.012 16.3597 205.659 22.0911L221.288 160.56C221.935 166.291 227.106 170.413 232.837 169.766Z" fill="#27425B"/>
<path d="M232.378 165.701L289.159 159.287C291.91 158.978 294.426 157.588 296.153 155.423C297.88 153.259 298.677 150.497 298.368 147.745L282.737 9.27587C282.585 7.91296 282.165 6.59345 281.503 5.39279C280.84 4.19213 279.947 3.13386 278.875 2.2785C277.803 1.42314 276.573 0.787463 275.255 0.407818C273.938 0.0281742 272.558 -0.0879906 271.195 0.0659649L214.415 6.47909C213.052 6.63144 211.732 7.05094 210.532 7.7136C209.331 8.37627 208.273 9.26909 207.417 10.341C206.562 11.413 205.926 12.643 205.547 13.9608C205.167 15.2786 205.051 16.6583 205.205 18.021L220.853 156.499C221.163 159.247 222.551 161.759 224.712 163.484C226.873 165.21 229.63 166.007 232.378 165.701Z" fill="#39648C"/>
<path d="M234.744 162L286.032 156.212C291.212 155.629 294.904 150.711 294.287 145.228L279.323 12.6134C278.707 7.12971 274.009 3.15002 268.829 3.74148L217.541 9.52936C212.362 10.1124 208.669 15.0299 209.286 20.5136L224.233 153.128C224.867 158.611 229.565 162.591 234.744 162Z" fill="white"/>
<path d="M235.733 12.2924L245.526 11.1939C245.867 11.1536 246.178 10.98 246.392 10.7109C246.606 10.4418 246.704 10.0991 246.666 9.75752C246.626 9.41625 246.452 9.10476 246.183 8.89105C245.914 8.67735 245.571 8.57877 245.23 8.61684L235.445 9.71527C235.104 9.75555 234.793 9.9292 234.579 10.1983C234.365 10.4674 234.267 10.8101 234.305 11.1517C234.323 11.3207 234.374 11.4846 234.455 11.6337C234.537 11.7828 234.648 11.9143 234.78 12.0204C234.913 12.1265 235.066 12.2052 235.229 12.2519C235.393 12.2985 235.564 12.3123 235.733 12.2924Z" fill="#27425B"/>
<path d="M250.274 9.35192C250.304 9.60548 250.409 9.8445 250.574 10.0388C250.74 10.2332 250.959 10.3741 251.205 10.4439C251.45 10.5137 251.711 10.5091 251.954 10.4309C252.197 10.3527 252.412 10.2042 252.57 10.0043C252.729 9.80433 252.825 9.56184 252.846 9.30739C252.868 9.05295 252.813 8.79793 252.689 8.57452C252.566 8.35111 252.379 8.16929 252.152 8.05201C251.925 7.93473 251.669 7.88724 251.415 7.91552C251.245 7.9344 251.081 7.9866 250.932 8.06913C250.783 8.15165 250.652 8.26287 250.546 8.39638C250.44 8.52989 250.361 8.68304 250.315 8.84704C250.268 9.01103 250.254 9.18261 250.274 9.35192Z" fill="#27425B"/>
<path d="M232.589 187.348C237.431 188.066 251.246 165.27 242.179 138.84C254.532 128.193 260.768 98.2824 251.034 94.2858C244.275 91.5397 209.336 147.179 209.632 152.832C210.105 163.191 232.75 180.639 232.589 187.348Z" fill="#FCC6AE"/>
<path d="M242.112 138.992C243.864 143.206 245.106 147.614 245.813 152.122C246.576 156.707 246.544 161.389 245.72 165.962C244.844 170.584 242.941 174.95 240.152 178.738C237.393 182.425 233.951 185.546 230.012 187.931C233.121 184.744 235.886 181.238 238.259 177.471C240.47 173.748 242.014 169.667 242.822 165.413C243.594 161.107 243.829 156.723 243.523 152.359C243.303 147.94 242.678 143.504 242.112 138.992Z" fill="#F2AF91"/>
<path d="M292.572 181.602C279.56 168.159 266.218 155.029 262.289 158.84C257.042 163.909 270.105 201.982 292.758 217.521C301.309 223.385 320.404 184.027 292.572 181.602Z" fill="#FCC6AE"/>
<path d="M292.504 93.8126C275.116 143.884 289.742 210.018 293.349 212.578C307.714 222.836 343.345 227.153 346.86 222.134C359.669 203.824 365.711 172.173 354.65 154.336C350.941 148.345 315.859 140.977 308.085 142.507C304.765 128.574 305.922 106.96 307.528 97.9613C311.059 77.9952 297.354 79.8626 292.504 93.8126Z" fill="#FCC6AE"/>
<path d="M253.721 207.568C237.566 197.023 204.9 187.145 190.503 194.733C189.658 196.338 190.224 202.709 191.17 204.179L249.902 220.166C251.634 217.09 254.017 211.767 253.721 207.568Z" fill="#27425B"/>
<path d="M230.055 394.216C236.299 332.028 247.553 262.565 249.902 220.157C231.93 209.249 214.693 204.103 191.17 204.171C175.885 249.866 144.056 345.074 127.453 405.268C163.709 407.71 198.58 403.924 230.055 394.216Z" fill="#307EF3"/>
<path opacity="0.1" d="M249.902 220.166C247.697 218.831 245.508 217.58 243.312 216.414C236.051 254.374 225.303 291.582 211.204 327.567C200.921 354.08 188.903 379.887 175.226 404.82C193.818 403.216 212.189 399.662 230.038 394.216C236.299 332.003 247.553 262.565 249.902 220.166Z" fill="black"/>
<path d="M290.206 204.931C290.206 204.931 302.179 257.876 302.221 265.919C314.135 268.598 334.515 259.236 339.399 259.616C339.399 259.616 347.003 215.992 351.144 203.115L290.206 204.931Z" fill="#FCC6AE"/>
<path d="M348.085 231.725C330.485 225.81 298.191 224.914 287.384 235.949C287.088 237.707 289.429 243.664 290.696 244.821H348.262C348.955 241.416 349.563 235.679 348.085 231.725Z" fill="#27425B"/>
<path d="M380.396 416.607C368.152 355.433 358.334 285.995 348.288 244.787C328.947 239.033 311.955 238.636 290.722 244.787C290.071 292.535 288.736 391.994 291.06 453.97C324.435 446.839 354.802 434.114 380.396 416.607Z" fill="#307EF3"/>
<path opacity="0.1" d="M348.262 244.787C345.897 244.078 343.556 243.452 341.241 242.912C345.593 281.018 346.589 319.433 344.215 357.714C342.589 385.684 339.182 413.523 334.017 441.06C350.341 434.661 365.9 426.46 380.404 416.607C368.152 355.433 358.334 285.995 348.262 244.787Z" fill="black"/>
<path d="M470.619 163.504C456.525 147.83 408.253 205.371 408.541 212.172C409.495 234.918 425.38 252.586 436.855 263.647C449.157 266.857 465.777 265.514 478.19 264.559C484.687 231.792 493.998 189.528 470.619 163.504Z" fill="#FFB27D"/>
<path d="M386.893 192.95C396.255 195.527 404.51 198.62 411.532 205.557C416.686 210.626 431.329 191.429 423.615 188.421C413.428 184.45 403.047 180.995 392.512 178.07C384.282 175.781 379.221 179.101 378.233 182.98C377.362 186.435 379.872 191.007 386.893 192.95Z" fill="#FFB27D"/>
<path d="M386.369 218.324C397.269 220.352 406.006 222.439 414.134 234.141C418.688 240.698 436.855 219.49 428.084 216.144C416.711 211.801 404.907 207.88 392.791 204.458C383.454 201.813 377.582 205.117 377.235 209.359C376.965 212.958 379.086 217.386 386.369 218.324Z" fill="#FFB27D"/>
<path d="M389.842 169.249C399.137 172.004 407.341 175.257 414.227 182.329C419.297 187.525 430.923 180.994 434.193 177.572C437.446 174.15 434.286 168.59 426.631 165.43C416.53 161.266 406.226 157.614 395.757 154.488C387.569 152.038 380.142 152.215 378.765 158.045C377.743 162.481 382.888 167.171 389.842 169.249Z" fill="#FFB27D"/>
<path d="M457.598 152.19C451.075 146.123 423.8 122.11 415.351 121.907C410.56 121.797 407.611 125.143 408.473 129.444C409.242 133.288 412.368 136.677 415.038 139.811C420.243 145.954 427.78 151.117 432.571 156.71C435.106 159.727 440.927 168.083 444.518 170.069C450.146 173.153 464.425 158.552 457.598 152.19Z" fill="#FFB27D"/>
<path d="M447.459 440.35C455.19 393.033 474.286 296.861 478.215 264.677C464.62 253.144 452.748 262.895 436.711 263.283C425.49 298.551 401.224 370.591 386.336 416.793C386.336 416.793 424.781 448.884 447.459 440.35Z" fill="#FFB27D"/>
<path d="M449.36 238.467L395.757 218.721C394.47 218.248 393.289 217.526 392.281 216.597C391.273 215.667 390.458 214.548 389.883 213.304C389.308 212.059 388.984 210.714 388.929 209.344C388.874 207.974 389.089 206.607 389.563 205.32L437.725 74.5479C438.687 71.961 440.634 69.8601 443.14 68.7043C445.647 67.5485 448.508 67.4318 451.101 68.3798L504.755 88.1008C506.041 88.5736 507.223 89.2954 508.23 90.2249C509.238 91.1543 510.053 92.2733 510.628 93.5178C511.203 94.7623 511.528 96.108 511.582 97.4779C511.637 98.8478 511.422 100.215 510.948 101.502L462.769 232.299C461.806 234.893 459.853 236.998 457.339 238.155C454.826 239.311 451.956 239.423 449.36 238.467Z" fill="#27425B"/>
<path d="M450.771 234.631L397.151 214.885C394.555 213.926 392.445 211.977 391.284 209.465C390.123 206.953 390.005 204.083 390.957 201.484L439.119 70.7118C439.593 69.4246 440.316 68.2433 441.246 67.2354C442.176 66.2275 443.296 65.4128 444.541 64.8376C445.786 64.2625 447.132 63.9383 448.503 63.8835C449.873 63.8287 451.241 64.0445 452.528 64.5184L506.149 84.2647C507.437 84.7359 508.62 85.4565 509.63 86.3852C510.639 87.314 511.456 88.4327 512.033 89.6774C512.609 90.9221 512.935 92.2683 512.991 93.639C513.047 95.0097 512.832 96.378 512.359 97.6656L464.197 228.438C463.724 229.727 463 230.91 462.069 231.919C461.137 232.929 460.016 233.744 458.769 234.319C457.522 234.895 456.173 235.218 454.801 235.272C453.429 235.325 452.059 235.108 450.771 234.631Z" fill="#39648C"/>
<path d="M449.639 231.454L400.1 213.212C398.896 212.74 397.796 212.036 396.864 211.14C395.932 210.244 395.186 209.173 394.668 207.988C394.15 206.803 393.871 205.528 393.846 204.235C393.821 202.942 394.051 201.657 394.523 200.453L440.877 74.5563C441.29 73.3263 441.942 72.1901 442.797 71.2131C443.651 70.2361 444.689 69.4377 445.853 68.8637C447.017 68.2896 448.283 67.9514 449.578 67.8683C450.873 67.7853 452.171 67.9591 453.399 68.3798L502.938 86.6137C505.369 87.5692 507.321 89.4502 508.367 91.8438C509.412 94.2374 509.466 96.9481 508.515 99.3808L462.161 225.278C461.746 226.506 461.092 227.641 460.238 228.617C459.383 229.593 458.345 230.39 457.181 230.964C456.018 231.538 454.753 231.876 453.459 231.96C452.165 232.045 450.866 231.872 449.639 231.454Z" fill="white"/>
<path d="M484.037 84.8393L474.793 81.4595C474.63 81.4003 474.481 81.3094 474.355 81.192C474.228 81.0746 474.126 80.9332 474.054 80.7758C473.982 80.6185 473.943 80.4485 473.938 80.2758C473.933 80.103 473.962 79.9309 474.024 79.7696C474.084 79.6079 474.176 79.4597 474.293 79.3335C474.411 79.2072 474.552 79.1055 474.709 79.034C474.866 78.9626 475.036 78.9228 475.208 78.9171C475.381 78.9114 475.552 78.9398 475.714 79.0007L484.958 82.3805C485.121 82.4377 485.272 82.5275 485.4 82.6445C485.528 82.7615 485.631 82.9032 485.703 83.0611C485.775 83.2191 485.814 83.3899 485.818 83.5634C485.822 83.7368 485.791 83.9093 485.726 84.0704C485.667 84.2328 485.576 84.3818 485.459 84.5086C485.342 84.6355 485.2 84.7377 485.043 84.8093C484.885 84.8809 484.715 84.9204 484.543 84.9255C484.37 84.9307 484.198 84.9014 484.037 84.8393Z" fill="#27425B"/>
<path d="M470.619 78.5191C470.526 78.7555 470.366 78.9594 470.158 79.1052C469.95 79.251 469.704 79.3324 469.45 79.3391C469.196 79.3458 468.946 79.2776 468.73 79.143C468.515 79.0084 468.344 78.8134 468.239 78.5822C468.134 78.351 468.099 78.094 468.139 77.8432C468.179 77.5924 468.292 77.359 468.464 77.172C468.636 76.985 468.859 76.8528 469.105 76.7918C469.352 76.7309 469.611 76.7439 469.85 76.8292C470.014 76.8864 470.164 76.9762 470.292 77.0932C470.421 77.2102 470.524 77.3519 470.596 77.5099C470.667 77.6678 470.707 77.8386 470.711 78.0121C470.715 78.1856 470.683 78.358 470.619 78.5191Z" fill="#27425B"/>
<path d="M445.414 255.603C440.547 255.155 432.554 229.722 447.645 206.207C435.604 202.827 420.75 193.727 427.366 188.016C431.92 184.095 455.976 189.173 462.212 192.435C469.106 199.65 477.97 213.896 479.955 219.194C479.964 219.194 446.859 249.046 445.414 255.603Z" fill="#FFB27D"/>
<path d="M447.679 206.376C446.056 210.601 444.4 214.775 443.099 219.008C441.758 223.172 440.941 227.486 440.666 231.851C440.434 236.18 440.963 240.515 442.229 244.661C443.646 248.892 445.507 252.962 447.78 256.803C444.521 253.546 441.92 249.694 440.116 245.455C438.312 241.112 437.504 236.421 437.751 231.725C438.038 227.084 439.124 222.527 440.961 218.256C442.719 214.043 444.974 210.055 447.679 206.376Z" fill="#F4A269"/>
<path d="M431.962 274.039C445.38 272.349 470.12 279.532 475.9 282.278C480.167 283.967 477.589 302.016 473.804 304.153L425.33 295.788C424.848 292.29 426.335 279.684 431.962 274.039Z" fill="#27425B"/>
<path d="M365.339 465.005C383.243 405.116 411.329 335.889 425.33 295.788C440.319 294.394 456.846 297.377 473.88 304.153C470.661 352.247 463.935 452.433 456.415 514.435C421.798 502.825 390.864 486.011 365.339 465.005Z" fill="#39648C"/>
<path opacity="0.1" d="M412.656 495.981C395.835 487.353 379.975 476.97 365.339 465.005C383.243 405.116 411.329 335.889 425.33 295.788C428.041 295.544 430.762 295.437 433.483 295.467C414.455 361.736 410.966 455.027 412.656 495.981Z" fill="black"/>
<path d="M111.686 215.02C98.7587 198.375 29.2873 226.317 32.4559 232.341C47.7747 261.416 58.1929 270.592 78.0829 277.554C90.512 274.91 106.549 270.026 116.105 258.23C115.421 251.403 116.503 221.222 111.686 215.02Z" fill="#CB7D45"/>
<path d="M54.399 175.468C46.7353 170.939 14.9232 153.314 6.6934 154.911C1.9955 155.815 -0.167558 159.718 1.62373 163.74C3.19532 167.323 6.97223 169.968 10.2422 172.469C16.6468 177.352 25.1132 180.783 30.994 185.244C34.1541 187.635 41.5812 194.539 45.5102 195.738C51.6107 197.555 62.426 180.225 54.399 175.468Z" fill="#CB7D45"/>
<path d="M202.078 397.283C179.983 354.748 132.134 282.717 116.004 254.58C98.2093 253.473 80.7358 263.292 78.108 277.554C90.2076 312.535 134.914 390.093 150.587 436.032C171.213 421.22 189.016 417.688 202.078 397.283Z" fill="#CB7D45"/>
<path d="M98.3361 254.361L41.5558 260.765C38.8077 261.072 36.0503 260.275 33.8894 258.549C31.7285 256.824 30.3406 254.312 30.0308 251.564L14.3993 113.094C14.0882 110.342 14.8827 107.58 16.6083 105.414C18.3338 103.248 20.849 101.856 23.6007 101.544L80.381 95.1392C81.7431 94.9852 83.1222 95.101 84.4395 95.4801C85.7568 95.8593 86.9865 96.4942 88.0583 97.3487C89.1302 98.2032 90.0231 99.2605 90.6862 100.46C91.3494 101.66 91.7696 102.978 91.923 104.341L107.554 242.81C107.708 244.174 107.592 245.555 107.212 246.874C106.832 248.192 106.196 249.423 105.339 250.496C104.483 251.569 103.424 252.462 102.222 253.125C101.021 253.789 99.7001 254.208 98.3361 254.361Z" fill="#27425B"/>
<path d="M97.8967 250.296L41.1164 256.71C38.365 257.018 35.6035 256.223 33.438 254.498C31.2725 252.773 29.8799 250.259 29.566 247.508L13.9345 109.03C13.7805 107.668 13.8963 106.289 14.2754 104.972C14.6546 103.654 15.2895 102.425 16.144 101.353C16.9985 100.281 18.0558 99.388 19.2555 98.7248C20.4552 98.0617 21.7738 97.6415 23.1359 97.4881L79.9162 91.075C81.2783 90.921 82.6574 91.0368 83.9747 91.416C85.292 91.7951 86.5217 92.43 87.5935 93.2845C88.6654 94.139 89.5583 95.1963 90.2215 96.396C90.8846 97.5957 91.3048 98.9143 91.4582 100.276L107.09 238.754C107.401 241.504 106.607 244.265 104.883 246.429C103.159 248.593 100.646 249.985 97.8967 250.296Z" fill="#39648C"/>
<path d="M94.9562 246.925L43.2456 252.764C40.6737 252.989 38.1175 252.185 36.1376 250.528C34.1576 248.871 32.9156 246.497 32.6838 243.926L17.7621 111.827C17.4109 109.266 18.0912 106.67 19.6535 104.61C21.2158 102.55 23.5321 101.195 26.0932 100.843L77.7954 95.0125C79.0706 94.8988 80.3558 95.0378 81.5772 95.4215C82.7986 95.8052 83.9324 96.4261 84.9135 97.2487C85.8946 98.0712 86.7038 99.0793 87.2947 100.215C87.8856 101.351 88.2467 102.592 88.3572 103.867L103.27 235.966C103.617 238.521 102.936 241.11 101.378 243.164C99.8195 245.218 97.5102 246.571 94.9562 246.925Z" fill="white"/>
<path d="M60.4318 101.502L50.6473 102.608C50.3058 102.647 49.9631 102.548 49.694 102.334C49.4249 102.121 49.2512 101.809 49.2109 101.468C49.191 101.298 49.2046 101.127 49.2512 100.963C49.2978 100.799 49.3764 100.646 49.4824 100.512C49.5884 100.379 49.7198 100.268 49.869 100.185C50.0182 100.102 50.1822 100.05 50.3516 100.031L60.1445 98.9245C60.4851 98.8865 60.8269 98.9854 61.0946 99.1992C61.3624 99.4131 61.5343 99.7246 61.5725 100.065C61.5925 100.234 61.5788 100.406 61.5322 100.57C61.4856 100.734 61.407 100.887 61.301 101.021C61.195 101.154 61.0636 101.265 60.9145 101.348C60.7653 101.431 60.6012 101.483 60.4318 101.502Z" fill="#27425B"/>
<path d="M45.6029 101.873C45.6314 102.128 45.5839 102.384 45.4664 102.612C45.3489 102.839 45.1667 103.026 44.9428 103.149C44.7189 103.273 44.4634 103.327 44.2086 103.306C43.9537 103.284 43.7111 103.187 43.5113 103.028C43.3115 102.868 43.1635 102.653 43.0861 102.409C43.0087 102.165 43.0052 101.904 43.0763 101.658C43.1473 101.413 43.2896 101.194 43.4852 101.029C43.6807 100.864 43.9208 100.761 44.1749 100.733C44.3437 100.713 44.5149 100.727 44.6783 100.773C44.8418 100.82 44.9944 100.899 45.1272 101.005C45.26 101.111 45.3705 101.242 45.4521 101.391C45.5338 101.54 45.585 101.704 45.6029 101.873Z" fill="#27425B"/>
<path d="M83.8705 261.796C79.2571 259.836 83.1016 237.293 103.482 215.324C100.305 204.492 99.1217 174.851 110.52 174.395C115.995 174.175 123.6 215.89 123.6 215.89C121.945 230.128 119.46 244.257 116.156 258.205C116.156 258.205 86.87 254.851 83.8705 261.796Z" fill="#CB7D45"/>
<path d="M103.718 215.569C100.74 218.634 97.9469 221.873 95.3535 225.269C92.8486 228.628 90.6647 232.215 88.8305 235.983C87.0237 239.766 85.5562 243.702 84.4453 247.745C83.3215 251.817 82.5272 256 81.7499 260.284C81.2274 255.937 81.327 251.539 82.0456 247.221C82.7417 242.846 84.0739 238.596 85.9999 234.606C87.9312 230.615 90.4521 226.938 93.4777 223.698C96.4497 220.474 99.9045 217.732 103.718 215.569Z" fill="#B56F40"/>
<path d="M242.163 422.412C202.636 368.335 161.893 304.888 133.435 269.384C111.297 273.549 93.8916 281.804 75.1338 298.661C95.6491 346.054 138.395 444.761 168.23 504.659C198.884 480.713 224.013 452.703 242.163 422.412Z" fill="#919BC0"/>
<path opacity="0.1" d="M133.435 269.409C130.723 269.924 128.078 270.491 125.493 271.099C145.509 304.052 163.929 341.694 179.409 382.75C190.189 411.243 199.083 440.414 206.033 470.075C219.715 455.498 231.824 439.523 242.163 422.412C202.636 368.335 161.91 304.914 133.435 269.409Z" fill="black"/>
<path d="M31.3234 224.948C28.3408 224.449 25.5102 224.872 24.0738 226.579C21.4629 229.68 22.5191 236.253 25.958 238.729C27.3826 239.682 29.0309 240.247 30.7404 240.368C34.0357 240.782 37.9478 240.512 40.3052 237.631C45.6621 231.057 35.582 225.649 31.3234 224.948Z" fill="#CB7D45"/>
<path d="M37.7366 220.123C43.8624 212.62 32.3627 206.444 27.4958 205.641C24.1161 205.083 20.863 205.565 19.2238 207.508C16.2412 211.049 17.441 218.56 21.37 221.382C22.9996 222.463 24.8786 223.109 26.8283 223.258C30.5883 223.723 35.0496 223.419 37.7366 220.123Z" fill="#CB7D45"/>
<path d="M20.9898 202.464C22.5855 203.518 24.4232 204.149 26.3299 204.298C30.0139 204.754 34.3822 204.45 37.0184 201.23C43.0091 193.879 31.7544 187.838 26.989 187.052C23.6092 186.503 20.4998 186.976 18.8944 188.877C15.9709 192.35 17.1453 199.693 20.9898 202.464Z" fill="#CB7D45"/>
</svg>
