<svg width="649" height="372" viewBox="0 0 649 372" fill="none" xmlns="http://www.w3.org/2000/svg">
<g opacity="0.15">
<path fill-rule="evenodd" clip-rule="evenodd" d="M515.648 107.791H181.496C185.378 69.3712 194.991 44 218.281 44H466.046C485.647 45.5417 502.181 66.8054 515.648 107.791Z" fill="#71778A"/>
<path fill-rule="evenodd" clip-rule="evenodd" d="M167.225 383.124C198.311 257.59 150.707 44 218.281 44H461.338C365.635 44 500.882 472.171 316.809 472.171C279.347 472.171 259.839 438.987 243.057 383.124H167.225Z" fill="#919BC0"/>
<path fill-rule="evenodd" clip-rule="evenodd" d="M308.484 471.593C475.444 454.018 347.961 44 441.633 44H461.338C365.635 44 500.882 472.171 316.809 472.171C314.024 472.173 311.242 471.979 308.484 471.593Z" fill="#27425B"/>
<path fill-rule="evenodd" clip-rule="evenodd" d="M166.333 383.124C197.419 257.59 149.815 44 217.389 44H233.18C165.573 44 213.21 257.673 182.124 383.124H166.333Z" fill="#27425B"/>
<path fill-rule="evenodd" clip-rule="evenodd" d="M499.23 107.791C486.952 70.2521 472.053 49.2636 454.533 44.8259C456.759 44.2752 459.045 43.9978 461.338 44H466.046C485.647 45.5417 502.164 66.8054 515.599 107.791H499.23Z" fill="#27425B"/>
<path fill-rule="evenodd" clip-rule="evenodd" d="M380.6 68.0167H231.115C229.638 68.0167 228.222 68.5998 227.173 69.6392C226.124 70.6786 225.529 72.0902 225.515 73.5667C225.524 75.046 226.118 76.4618 227.167 77.5048C228.216 78.5477 229.636 79.1331 231.115 79.1331H380.6C382.07 79.1244 383.478 78.5341 384.515 77.4911C385.551 76.4481 386.133 75.0373 386.133 73.5667C386.129 72.0989 385.545 70.6923 384.509 69.6529C383.472 68.6135 382.067 68.0254 380.6 68.0167ZM369.913 210.828H220.973C219.5 210.833 218.088 211.421 217.048 212.465C216.007 213.508 215.423 214.921 215.423 216.395C215.421 217.126 215.563 217.85 215.841 218.526C216.118 219.203 216.526 219.817 217.042 220.336C217.557 220.854 218.17 221.266 218.844 221.548C219.519 221.83 220.242 221.976 220.973 221.978H369.913C370.644 221.976 371.367 221.83 372.042 221.548C372.716 221.266 373.329 220.854 373.844 220.336C374.359 219.817 374.768 219.203 375.045 218.526C375.323 217.85 375.465 217.126 375.463 216.395C375.463 214.921 374.879 213.508 373.838 212.465C372.798 211.421 371.386 210.833 369.913 210.828ZM369.913 188.761H220.973C219.502 188.765 218.093 189.351 217.054 190.391C216.014 191.431 215.427 192.84 215.423 194.311C215.427 195.783 216.013 197.194 217.052 198.236C218.092 199.279 219.501 199.869 220.973 199.877H369.913C371.385 199.869 372.794 199.279 373.833 198.236C374.873 197.194 375.458 195.783 375.463 194.311C375.458 192.84 374.872 191.431 373.832 190.391C372.793 189.351 371.383 188.765 369.913 188.761ZM369.913 151.15H275.101C273.625 151.15 272.209 151.737 271.165 152.78C270.121 153.824 269.535 155.24 269.535 156.717C269.539 158.19 270.128 159.602 271.171 160.642C272.215 161.682 273.628 162.267 275.101 162.266H369.913C371.383 162.262 372.793 161.676 373.832 160.636C374.872 159.596 375.458 158.187 375.463 156.717C375.463 155.243 374.879 153.83 373.838 152.786C372.798 151.743 371.386 151.154 369.913 151.15ZM371.565 130.354H222.08C220.605 130.359 219.191 130.947 218.148 131.99C217.106 133.033 216.518 134.446 216.513 135.921C216.522 137.393 217.112 138.802 218.154 139.841C219.197 140.881 220.608 141.466 222.08 141.471H371.565C373.038 141.471 374.451 140.887 375.495 139.846C376.538 138.806 377.127 137.394 377.131 135.921C377.127 134.446 376.539 133.033 375.496 131.99C374.453 130.947 373.04 130.359 371.565 130.354ZM373.216 109.559H223.732C222.254 109.567 220.84 110.162 219.799 111.211C218.759 112.261 218.177 113.68 218.182 115.158C218.186 116.636 218.773 118.053 219.815 119.101C220.857 120.149 222.27 120.745 223.748 120.758H373.233C374.711 120.745 376.124 120.149 377.166 119.101C378.208 118.053 378.795 116.636 378.799 115.158C378.795 113.683 378.207 112.27 377.164 111.227C376.121 110.184 374.708 109.596 373.233 109.592L373.216 109.559ZM376.916 88.7299H227.465C225.982 88.7299 224.561 89.3175 223.511 90.3641C222.461 91.4106 221.869 92.8306 221.865 94.3128C221.867 95.046 222.014 95.7716 222.296 96.4481C222.579 97.1246 222.992 97.7389 223.512 98.2557C224.032 98.7726 224.649 99.1821 225.327 99.4606C226.005 99.7392 226.731 99.8815 227.465 99.8793H376.916C378.391 99.8749 379.805 99.2871 380.848 98.2441C381.891 97.2011 382.478 95.7878 382.483 94.3128C382.478 92.8363 381.891 91.4213 380.849 90.3757C379.806 89.3301 378.393 88.7386 376.916 88.7299Z" fill="white"/>
</g>
<path d="M117.016 226.826L43.7339 235.092C40.187 235.487 36.6283 234.458 33.8394 232.232C31.0504 230.005 29.2593 226.762 28.8594 223.216L8.68499 44.5039C8.28344 40.9524 9.30894 37.3867 11.536 34.5912C13.763 31.7957 17.0092 29.9991 20.5606 29.5967L93.8426 21.3306C95.6006 21.1319 97.3805 21.2814 99.0806 21.7707C100.781 22.26 102.368 23.0795 103.751 24.1823C105.134 25.2851 106.287 26.6497 107.143 28.198C107.999 29.7464 108.541 31.4482 108.739 33.2062L128.913 211.918C129.112 213.679 128.962 215.461 128.471 217.163C127.981 218.865 127.16 220.454 126.055 221.838C124.95 223.223 123.583 224.376 122.032 225.232C120.481 226.087 118.776 226.629 117.016 226.826Z" fill="#2459A9"/>
<path d="M116.449 221.58L43.1669 229.857C39.6159 230.256 36.0518 229.229 33.257 227.003C30.4621 224.776 28.6649 221.532 28.2596 217.982L8.08527 39.2585C7.88651 37.5006 8.03604 35.7207 8.52534 34.0206C9.01463 32.3205 9.8341 30.7334 10.9369 29.35C12.0398 27.9667 13.4043 26.8142 14.9527 25.9584C16.501 25.1025 18.2029 24.5602 19.9609 24.3622L93.2429 16.0853C95.0009 15.8865 96.7807 16.036 98.4809 16.5253C100.181 17.0146 101.768 17.8341 103.151 18.9369C104.535 20.0398 105.687 21.4043 106.543 22.9527C107.399 24.501 107.941 26.2029 108.139 27.9609L128.314 206.684C128.715 210.233 127.691 213.796 125.466 216.589C123.241 219.383 119.997 221.178 116.449 221.58Z" fill="#307EF3"/>
<path d="M112.654 217.229L45.9148 224.765C42.5955 225.055 39.2964 224.018 36.741 221.879C34.1857 219.741 32.5826 216.677 32.2835 213.358L13.0252 42.8681C12.5719 39.5625 13.4499 36.2121 15.4663 33.5537C17.4826 30.8953 20.4721 29.1464 23.7776 28.6916L90.5057 21.1671C92.1515 21.0203 93.8101 21.1997 95.3865 21.695C96.963 22.1902 98.4262 22.9916 99.6924 24.0532C100.959 25.1148 102.003 26.4158 102.766 27.8816C103.528 29.3475 103.994 30.9494 104.137 32.5956L123.384 203.085C123.832 206.383 122.953 209.724 120.942 212.375C118.931 215.026 115.95 216.772 112.654 217.229Z" fill="#27425B"/>
<path d="M67.096 30.542L54.4679 31.9706C54.0271 32.0197 53.5848 31.8925 53.2375 31.6167C52.8902 31.3409 52.666 30.9389 52.6141 30.4984C52.5882 30.2799 52.6059 30.0585 52.6661 29.8468C52.7262 29.6352 52.8276 29.4375 52.9644 29.2652C53.1012 29.0929 53.2708 28.9493 53.4633 28.8428C53.6559 28.7363 53.8676 28.6689 54.0862 28.6446L66.7252 27.216C67.1648 27.167 67.6059 27.2945 67.9514 27.5706C68.297 27.8467 68.5188 28.2486 68.5682 28.6882C68.594 28.9067 68.5763 29.1282 68.5162 29.3398C68.456 29.5515 68.3546 29.7491 68.2178 29.9214C68.081 30.0937 67.9114 30.2373 67.7189 30.3438C67.5264 30.4503 67.3147 30.5177 67.096 30.542Z" fill="white"/>
<path d="M47.9572 31.022C47.994 31.35 47.9327 31.6815 47.781 31.9746C47.6294 32.2678 47.3942 32.5094 47.1052 32.6688C46.8163 32.8283 46.4865 32.8985 46.1576 32.8705C45.8288 32.8425 45.5156 32.7176 45.2577 32.5116C44.9999 32.3056 44.8089 32.0278 44.709 31.7133C44.609 31.3987 44.6046 31.0616 44.6963 30.7445C44.788 30.4275 44.9716 30.1447 45.224 29.9321C45.4764 29.7194 45.7862 29.5864 46.1142 29.5498C46.3321 29.5241 46.553 29.5418 46.7639 29.6021C46.9749 29.6624 47.1718 29.7639 47.3433 29.9008C47.5147 30.0378 47.6573 30.2074 47.7626 30.3999C47.868 30.5923 47.9341 30.8038 47.9572 31.022Z" fill="white"/>
<path d="M582.462 235.933L509.538 224.951C506.009 224.414 502.838 222.5 500.72 219.627C498.603 216.755 497.712 213.159 498.244 209.63L525.011 31.7856C525.542 28.2512 527.455 25.0725 530.33 22.9486C533.205 20.8247 536.805 19.9296 540.34 20.46L613.264 31.4424C615.014 31.7054 616.694 32.3105 618.21 33.2232C619.726 34.1358 621.046 35.3381 622.097 36.7614C623.148 38.1847 623.908 39.8011 624.334 41.5182C624.76 43.2353 624.843 45.0195 624.579 46.7688L597.812 224.613C597.549 226.365 596.942 228.047 596.028 229.564C595.114 231.081 593.909 232.404 592.484 233.455C591.058 234.506 589.439 235.266 587.719 235.691C586 236.117 584.213 236.199 582.462 235.933Z" fill="#2459A9"/>
<path d="M583.272 230.72L510.345 219.748C506.812 219.214 503.635 217.3 501.511 214.426C499.388 211.552 498.492 207.953 499.019 204.419L525.789 26.5638C526.052 24.8144 526.657 23.1338 527.57 21.6183C528.483 20.1027 529.685 18.7818 531.108 17.731C532.531 16.6803 534.148 15.9202 535.865 15.4943C537.582 15.0684 539.366 14.9849 541.116 15.2487L614.043 26.2206C615.792 26.4836 617.473 27.0887 618.988 28.0014C620.504 28.914 621.825 30.1163 622.876 31.5396C623.926 32.9629 624.686 34.5793 625.112 36.2964C625.538 38.0135 625.622 39.7977 625.358 41.547L598.588 219.402C598.057 222.934 596.146 226.11 593.274 228.232C590.401 230.355 586.804 231.249 583.272 230.72Z" fill="#307EF3"/>
<path d="M580.732 225.535L514.317 215.54C511.036 214.962 508.117 213.105 506.203 210.379C504.288 207.652 503.532 204.277 504.102 200.994L529.626 31.329C530.044 28.0186 531.759 25.0097 534.395 22.9637C537.031 20.9177 540.371 20.0022 543.681 20.4184L610.083 30.4208C611.711 30.705 613.267 31.3076 614.661 32.194C616.056 33.0803 617.262 34.2331 618.21 35.5863C619.158 36.9394 619.83 38.4664 620.188 40.0797C620.545 41.6929 620.581 43.3609 620.292 44.9879L594.758 214.65C594.336 217.951 592.623 220.95 589.994 222.991C587.365 225.031 584.035 225.946 580.732 225.535Z" fill="#27425B"/>
<path d="M585.045 33.4174L572.477 31.5289C572.039 31.4623 571.645 31.2249 571.381 30.8686C571.116 30.5123 571.004 30.066 571.068 29.6271C571.099 29.4094 571.174 29.2 571.287 29.0111C571.4 28.8223 571.549 28.6576 571.725 28.5266C571.902 28.3955 572.103 28.3008 572.317 28.2477C572.53 28.1947 572.752 28.1844 572.97 28.2174L585.548 30.1088C585.985 30.1752 586.378 30.4125 586.64 30.7686C586.903 31.1247 587.013 31.5704 586.947 32.0078C586.915 32.2255 586.841 32.4348 586.728 32.6237C586.615 32.8126 586.466 32.9773 586.289 33.1083C586.112 33.2393 585.912 33.3341 585.698 33.3872C585.484 33.4402 585.263 33.4505 585.045 33.4174Z" fill="white"/>
<path d="M566.434 28.9275C566.385 29.2539 566.24 29.5582 566.017 29.8021C565.795 30.046 565.505 30.2185 565.185 30.2978C564.865 30.377 564.528 30.3594 564.218 30.2473C563.907 30.1351 563.637 29.9335 563.441 29.6678C563.245 29.402 563.133 29.0842 563.118 28.7545C563.103 28.4249 563.186 28.0981 563.356 27.8156C563.527 27.533 563.777 27.3075 564.076 27.1674C564.375 27.0273 564.709 26.979 565.035 27.0285C565.252 27.0601 565.461 27.1344 565.649 27.2472C565.837 27.36 566.001 27.5091 566.131 27.6857C566.262 27.8624 566.355 28.0631 566.407 28.2763C566.459 28.4894 566.468 28.7108 566.434 28.9275Z" fill="white"/>
<path fill-rule="evenodd" clip-rule="evenodd" d="M315.072 151.798C311.361 150.108 307.578 148.607 303.879 147.212L302.921 146.845L301.917 147.082C290.829 149.564 278.56 151.81 267.154 151.81C262 151.81 256.078 151.29 251.279 149.257L248.301 148.004L225.287 193.889L228.112 195.509C228.407 195.689 228.681 195.904 228.927 196.147C229.58 196.742 230.267 197.299 230.984 197.814C238.076 204.019 247.532 209.267 257.213 208.452V208.594C256.935 211.08 257.461 213.591 258.714 215.757C259.423 216.984 260.401 218.035 261.575 218.83C262.772 219.64 264.146 220.151 265.582 220.319C267.022 220.455 268.475 220.29 269.849 219.835C270.208 222.752 271.56 225.456 273.678 227.494C274.867 228.468 276.239 229.195 277.712 229.632C279.186 230.068 280.732 230.205 282.26 230.035C282.726 232.597 284.083 234.912 286.09 236.572C288.456 238.216 291.358 238.9 294.21 238.487C294.29 238.89 294.405 239.285 294.553 239.669C295.194 241.345 296.467 242.703 298.099 243.451C299.967 244.231 301.988 244.575 304.009 244.456C310.002 244.29 317.165 241.808 322.708 239.728L323.713 239.338L327.472 243.853C328.214 244.749 329.128 245.488 330.159 246.028C331.189 246.567 332.317 246.897 333.476 246.997C335.82 247.217 338.157 246.504 339.977 245.011C340.877 244.264 341.618 243.345 342.158 242.308C342.698 241.271 343.025 240.137 343.122 238.971C343.122 238.723 343.122 238.451 343.122 238.215C344.589 239.597 346.471 240.457 348.476 240.662C349.62 240.788 350.777 240.686 351.881 240.361C352.985 240.036 354.013 239.496 354.906 238.77L355.095 238.605C356.549 237.336 357.556 235.632 357.968 233.747C359.292 234.759 360.872 235.385 362.53 235.555C363.678 235.685 364.839 235.584 365.948 235.26C367.056 234.935 368.088 234.392 368.984 233.664L369.161 233.546C370.904 232.037 372.014 229.927 372.27 227.636C372.352 226.848 372.328 226.053 372.199 225.272C372.953 225.584 373.75 225.78 374.563 225.851C375.706 225.982 376.864 225.884 377.968 225.561C379.072 225.238 380.101 224.698 380.993 223.972L381.182 223.794C382.883 222.303 383.963 220.228 384.208 217.979C384.335 216.864 384.239 215.736 383.927 214.658C383.614 213.581 383.091 212.576 382.388 211.702L382.211 211.478L379.788 208.676C387.447 209.126 392.423 205.863 399.397 201.643L401.501 201.324L402.092 200.97C402.529 200.686 403.002 200.414 403.44 200.142L406.288 198.393L383.026 148.016L379.965 149.316C375.237 151.313 368.038 151.68 362.991 151.68C351.597 151.68 339.351 149.493 328.24 146.952L327.235 146.715L326.278 147.082C323.382 148.157 320.51 149.316 317.697 150.533L315.072 151.798Z" fill="#F2AF91"/>
<path fill-rule="evenodd" clip-rule="evenodd" d="M337.637 180.284C338.657 183.747 340.204 187.032 342.223 190.024C342.354 190.206 342.447 190.412 342.496 190.629C342.546 190.847 342.552 191.073 342.514 191.293C342.475 191.513 342.393 191.724 342.272 191.912C342.151 192.1 341.994 192.262 341.809 192.388L341.467 192.589C338.766 193.928 335.869 194.83 332.885 195.261C329.816 195.702 326.688 195.08 324.02 193.499C321.287 191.729 319.136 189.193 317.838 186.206C317.27 185.014 316.78 183.786 316.373 182.53C313.973 181.86 311.657 180.921 309.47 179.729C307.553 178.685 305.761 177.428 304.127 175.982C290.731 183.76 280.361 190.458 273.016 196.076C265.924 201.549 261.728 205.851 260.653 208.96C260.43 210.714 260.791 212.492 261.681 214.019C262.132 214.805 262.749 215.482 263.489 216.005C264.225 216.498 265.068 216.81 265.948 216.915C267.384 217.038 268.822 216.72 270.073 216.005C270.285 215.786 270.556 215.634 270.853 215.567L288.844 204.764L300.049 198.05C300.426 197.82 300.879 197.746 301.31 197.846C301.741 197.945 302.116 198.209 302.354 198.582C302.473 198.774 302.553 198.987 302.59 199.209C302.626 199.432 302.619 199.66 302.567 199.879C302.515 200.099 302.421 200.306 302.289 200.489C302.157 200.672 301.99 200.828 301.798 200.946L290.581 207.719L273.064 218.227V218.345C273.454 221.418 274.411 223.617 275.936 224.976C277.461 226.336 279.482 226.832 282.283 226.643H282.39H282.898C289.919 222.565 295.758 219.102 300.368 216.265C304.978 213.428 308.347 211.182 310.451 209.587C310.628 209.452 310.829 209.354 311.044 209.298C311.259 209.242 311.483 209.228 311.703 209.258C311.923 209.288 312.135 209.362 312.327 209.474C312.519 209.586 312.686 209.735 312.821 209.912C312.955 210.089 313.053 210.29 313.109 210.505C313.166 210.72 313.179 210.944 313.149 211.164C313.119 211.384 313.046 211.596 312.933 211.788C312.821 211.979 312.673 212.147 312.496 212.282C310.333 213.925 306.893 216.182 302.141 219.125C297.768 221.828 292.228 225.118 285.522 228.995C285.764 230.913 286.702 232.676 288.158 233.948C289.6 235.059 291.684 235.453 294.411 235.13C299.659 232.328 303.997 230.024 307.413 228.132C310.604 226.395 312.933 225.047 314.41 224.113C314.516 222.965 314.847 221.849 315.385 220.829C315.923 219.809 316.658 218.905 317.547 218.17C318.435 217.435 319.461 216.884 320.564 216.546C321.666 216.209 322.825 216.093 323.973 216.206C325 216.31 326.003 216.586 326.94 217.021C326.904 216.553 326.904 216.083 326.94 215.615C327.2 213.399 328.269 211.358 329.942 209.882L330.202 209.657C331.994 208.224 334.279 207.553 336.561 207.79C337.431 207.892 338.282 208.115 339.091 208.452C339.091 208.192 339.091 207.944 339.091 207.695C339.346 205.441 340.439 203.366 342.152 201.88L342.33 201.738C343.216 201.017 344.236 200.479 345.332 200.154C346.427 199.829 347.576 199.725 348.712 199.847C351.012 200.117 353.124 201.249 354.622 203.015L357.518 206.395V205.828C357.764 203.592 358.845 201.532 360.544 200.06L360.757 199.894C361.643 199.172 362.663 198.633 363.759 198.308C364.855 197.983 366.004 197.88 367.14 198.003C369.434 198.273 371.544 199.395 373.05 201.147L376.218 204.799C385.52 206.714 390.225 203.18 398.132 198.416L400.236 198.074L401.643 197.246L381.312 152.531C376.903 154.422 370.107 155.179 363.015 155.202C353.559 155.202 341.715 153.626 327.483 150.474C324.469 151.597 321.644 152.732 319.068 153.855C321.077 154.855 322.901 155.864 324.54 156.881C329.966 160.143 333.5 163.429 335.107 166.644C335.222 166.865 335.29 167.106 335.308 167.353C335.629 171.759 336.422 176.118 337.672 180.355L337.637 180.284ZM309.032 230.922C311.396 229.598 313.37 228.558 314.824 227.636C315.176 228.644 315.699 229.584 316.373 230.414L321.396 236.442C313.863 239.365 308.039 240.866 303.926 240.945C302.471 241.061 301.01 240.835 299.659 240.283C299.247 240.106 298.873 239.848 298.561 239.526C298.249 239.203 298.003 238.822 297.839 238.404C297.67 237.996 297.563 237.566 297.519 237.127C302.188 234.645 306.042 232.588 309.103 230.886L309.032 230.922ZM330.06 241.56L318.973 228.239C318.058 227.132 317.617 225.71 317.746 224.28C317.874 222.85 318.562 221.529 319.659 220.603C320.776 219.702 322.202 219.278 323.63 219.421C324.34 219.477 325.031 219.676 325.663 220.005C326.294 220.334 326.853 220.786 327.306 221.336L338.405 234.657C339.308 235.773 339.733 237.201 339.587 238.629C339.527 239.341 339.325 240.034 338.994 240.667C338.663 241.301 338.209 241.862 337.659 242.318C337.109 242.775 336.474 243.117 335.79 243.326C335.107 243.535 334.388 243.605 333.677 243.534C332.245 243.396 330.924 242.7 330.001 241.595L330.06 241.56ZM345.025 235.177L331.502 219.669L331.384 219.515C330.967 218.997 330.659 218.401 330.479 217.761C330.298 217.121 330.248 216.452 330.332 215.792C330.484 214.419 331.147 213.154 332.188 212.246L332.365 212.116C332.898 211.667 333.516 211.33 334.182 211.127C334.849 210.924 335.55 210.858 336.242 210.934C337.709 211.093 339.061 211.803 340.025 212.92L349.221 223.44L354.15 229.232C354.667 230.159 354.874 231.228 354.741 232.281C354.578 233.648 353.922 234.909 352.897 235.827L352.731 235.945C352.197 236.391 351.578 236.726 350.912 236.929C350.246 237.132 349.547 237.199 348.854 237.127C347.388 236.953 346.036 236.251 345.048 235.153L345.025 235.177ZM351.431 220.969L343.63 211.785L343.512 211.667C343.087 211.136 342.773 210.526 342.586 209.873C342.399 209.22 342.344 208.536 342.424 207.861C342.585 206.461 343.269 205.173 344.339 204.256L344.445 204.185C344.983 203.736 345.606 203.401 346.276 203.198C346.946 202.995 347.65 202.928 348.346 203.003C349.801 203.167 351.14 203.877 352.093 204.988L367.755 223.215L367.849 223.333C368.702 224.418 369.101 225.791 368.96 227.163C368.791 228.544 368.107 229.81 367.045 230.709L366.951 230.804C365.848 231.697 364.439 232.121 363.027 231.986C361.574 231.823 360.239 231.113 359.291 230L357.01 227.293C356.809 226.998 356.62 226.702 356.396 226.418L356.171 226.17L351.585 220.922L351.431 220.969ZM371.301 220.378L362.246 209.917L362.152 209.776C361.735 209.251 361.427 208.648 361.246 208.003C361.065 207.357 361.016 206.682 361.1 206.017C361.247 204.643 361.911 203.375 362.956 202.471L363.109 202.353C363.646 201.91 364.264 201.577 364.93 201.374C365.595 201.171 366.294 201.102 366.986 201.171C368.451 201.335 369.799 202.049 370.757 203.168L379.811 213.617L379.918 213.735C380.752 214.8 381.138 216.149 380.993 217.494C380.832 218.872 380.156 220.139 379.102 221.04L378.984 221.158C378.444 221.604 377.822 221.938 377.152 222.141C376.482 222.344 375.779 222.411 375.083 222.34C373.622 222.163 372.276 221.457 371.301 220.355V220.378ZM305.628 172.649C305.348 172.379 304.985 172.213 304.598 172.179C304.211 172.144 303.823 172.243 303.501 172.46C289.458 180.56 278.643 187.518 271.054 193.334C265.341 197.684 261.401 201.454 259.234 204.646C249.778 206.537 240.097 201.1 233.23 194.977C232.131 194.339 231.173 193.121 229.991 192.447L250.085 152.389C254.506 154.221 260.227 155.179 267.295 155.202C276.752 155.202 288.591 153.626 302.815 150.474C309.776 152.957 316.501 156.058 322.909 159.741C327.637 162.59 330.639 165.32 332.07 167.897C332.425 172.435 333.253 176.923 334.54 181.289C335.48 184.431 336.798 187.448 338.464 190.272C336.581 191.088 334.591 191.633 332.554 191.892C330.239 192.25 327.871 191.808 325.841 190.639C323.675 189.184 321.979 187.13 320.959 184.729C320.359 183.486 319.857 182.197 319.458 180.875C319.433 180.718 319.381 180.566 319.304 180.426C318.44 177.35 317.835 174.207 317.496 171.029C317.447 170.583 317.223 170.173 316.873 169.892C316.522 169.61 316.075 169.48 315.628 169.528C315.181 169.577 314.772 169.801 314.491 170.151C314.209 170.501 314.078 170.949 314.127 171.396C314.391 173.823 314.786 176.233 315.309 178.618C313.862 178.11 312.458 177.486 311.113 176.75C309.082 175.649 307.216 174.268 305.569 172.649H305.628Z" fill="#FCC6AE"/>
<path fill-rule="evenodd" clip-rule="evenodd" d="M398.251 138.252C404.277 157.977 413.196 176.699 424.716 193.807C420.201 196.301 409.48 200.97 399.894 202.317C388.074 176.112 382.719 163.973 378.984 148.287C385.014 144.238 391.476 140.872 398.251 138.252Z" fill="white"/>
<path fill-rule="evenodd" clip-rule="evenodd" d="M523.5 158C480.203 176.64 442.801 182.518 422.86 191.029C412.917 175.731 405.013 159.201 399.35 141.857C422.99 128.879 505.168 99.2597 542 79C554.056 97.6128 517.018 136.792 523.5 158Z" fill="#27425B"/>
<path fill-rule="evenodd" clip-rule="evenodd" d="M232.45 138.252C226.413 157.973 217.495 176.693 205.985 193.807C210.5 196.301 221.221 200.97 230.807 202.317C242.627 176.112 247.981 163.973 251.717 148.287C245.686 144.238 239.224 140.872 232.45 138.252Z" fill="white"/>
<path fill-rule="evenodd" clip-rule="evenodd" d="M108.5 163.5C149.008 180.793 188.751 182.885 207.84 191.017C217.779 175.717 225.682 159.187 231.351 141.845L90.9998 80.5C78.8926 98.8178 115.111 142.562 108.5 163.5Z" fill="#27425B"/>
<path fill-rule="evenodd" clip-rule="evenodd" d="M391.643 149.268C390.818 149.268 390.011 149.513 389.325 149.972C388.639 150.43 388.104 151.082 387.788 151.844C387.473 152.607 387.39 153.446 387.551 154.255C387.712 155.064 388.109 155.808 388.693 156.391C389.276 156.975 390.02 157.372 390.829 157.533C391.639 157.694 392.478 157.612 393.24 157.296C394.002 156.98 394.654 156.445 395.113 155.759C395.571 155.073 395.816 154.266 395.816 153.441C395.816 152.334 395.376 151.273 394.594 150.491C393.811 149.708 392.75 149.268 391.643 149.268Z" fill="#A1AFD6"/>
<path fill-rule="evenodd" clip-rule="evenodd" d="M239.246 149.15C238.421 149.15 237.615 149.395 236.928 149.853C236.242 150.312 235.707 150.964 235.392 151.726C235.076 152.488 234.993 153.327 235.154 154.137C235.315 154.946 235.713 155.69 236.296 156.273C236.88 156.857 237.623 157.254 238.432 157.415C239.242 157.576 240.081 157.493 240.843 157.178C241.606 156.862 242.257 156.327 242.716 155.641C243.174 154.955 243.419 154.148 243.419 153.323C243.422 152.774 243.316 152.23 243.108 151.722C242.899 151.215 242.592 150.753 242.204 150.365C241.816 149.977 241.355 149.67 240.847 149.461C240.339 149.253 239.795 149.147 239.246 149.15Z" fill="#A1AFD6"/>
<path fill-rule="evenodd" clip-rule="evenodd" d="M421 16L488.708 43.7665L470.095 67.46L421 16Z" fill="#307EF3"/>
<path fill-rule="evenodd" clip-rule="evenodd" d="M498.241 32.584L423.073 16.146L516.621 23.0073L498.241 32.584Z" fill="#307EF3"/>
<path fill-rule="evenodd" clip-rule="evenodd" d="M498.241 32.584L496.475 63.7082L488.708 43.7665L421 16L423.073 16.146L498.241 32.584Z" fill="#408CFF"/>
<path fill-rule="evenodd" clip-rule="evenodd" d="M496.475 63.7083L480.431 54.2484L488.708 43.7666L496.475 63.7083Z" fill="#225AAD"/>
<path fill-rule="evenodd" clip-rule="evenodd" d="M192.38 0L146.793 18.6946L159.325 34.647L192.38 0Z" fill="#307EF3"/>
<path fill-rule="evenodd" clip-rule="evenodd" d="M140.375 11.1657L190.984 0.0982971L128 4.7179L140.375 11.1657Z" fill="#307EF3"/>
<path fill-rule="evenodd" clip-rule="evenodd" d="M140.375 11.1657L141.564 32.121L146.793 18.6946L192.38 0L190.984 0.0982894L140.375 11.1657Z" fill="#408CFF"/>
<path fill-rule="evenodd" clip-rule="evenodd" d="M141.564 32.121L152.366 25.7519L146.793 18.6947L141.564 32.121Z" fill="#225AAD"/>
</svg>
