<svg width="583" height="358" viewBox="0 0 583 358" fill="none" xmlns="http://www.w3.org/2000/svg">
<g filter="url(#filter0_d_217_771)">
<path d="M452.617 191.705C449.763 165.815 444.241 140.154 438.789 114.721C437.505 108.699 436.216 102.676 434.922 96.653C431.897 62.9139 423.578 33.4278 386.734 23.523C366.242 18.0283 343.182 23.3375 325.374 36.5677C316.963 42.7777 309.904 50.6345 304.626 59.6598C298.896 69.9745 295.3 81.337 294.052 93.0707C293.196 99.8784 292.768 106.743 292.268 113.594C291.74 120.73 291.269 127.866 290.841 134.916C289.928 149.188 289.243 163.56 288.644 177.889C288.044 192.218 287.688 206.433 287.516 220.705C287.572 234.41 286.891 248.107 285.476 261.738C284.976 265.891 284.334 270.044 283.549 274.154C297.619 273.797 311.689 273.655 325.759 273.555C354.555 273.374 383.347 273.236 412.134 273.141L449.235 273.027V272.456C449.235 272.313 449.235 272.17 449.235 272.028C449.787 271.925 450.297 271.662 450.701 271.271C451.105 270.88 451.384 270.379 451.504 269.83C455.059 243.931 455.433 217.694 452.617 191.705ZM437.305 135.373C437.305 135.245 437.305 135.116 437.305 134.988C438.105 139.583 438.904 144.179 439.746 148.76C442.086 161.362 444.397 173.993 445.953 186.724C447.505 199.482 448.296 212.321 448.322 225.173C448.322 232.466 448.122 239.773 447.651 247.052C446.937 237.918 446.129 228.798 445.225 219.692C442.471 191.605 439.189 163.617 437.305 135.373Z" fill="#0F1B27"/>
<path d="M401.217 183.998C400.125 191.619 396.342 198.598 390.553 203.674C384.764 208.749 377.351 211.586 369.653 211.671C355.911 211.671 340.414 202.452 329.041 177.732C334.878 171.353 338.06 158.451 337.774 147.262C337.774 145.221 337.774 146.263 337.674 141.81C336.561 140.283 335.634 138.641 337.403 135.344C337.215 134.219 337.465 133.065 338.103 132.119C338.455 131.734 338.883 131.425 339.36 131.21C339.836 130.996 340.351 130.882 340.874 130.874C341.396 130.866 341.915 130.965 342.397 131.164C342.88 131.363 343.317 131.659 343.682 132.033C343.783 132.144 343.873 132.264 343.953 132.39C344.253 132.763 344.454 133.204 344.538 133.675C356.525 136.358 373.477 139.555 388.246 145.677C388.477 145.793 388.701 145.921 388.917 146.063C389.743 146.596 390.504 147.224 391.186 147.932C397.25 154.811 390.387 169.026 395.467 178.417C396.781 180.794 398.766 182.73 401.175 183.984L401.217 183.998Z" fill="#FCC6AE"/>
<path d="M395.509 178.417C375.717 179.202 353.271 172.138 346.008 156.852C345.223 155.168 344.438 153.498 343.725 151.843C343.896 148.503 343.867 145.135 343.725 141.853C342.971 140.95 342.537 139.824 342.49 138.649C342.444 137.475 342.788 136.318 343.468 135.359C343.468 135.088 343.468 134.788 343.468 134.517C343.413 133.783 343.587 133.049 343.967 132.419C344.267 132.791 344.468 133.233 344.552 133.703C356.539 136.386 373.491 139.583 388.26 145.706C388.491 145.821 388.715 145.95 388.931 146.091C389.757 146.625 390.518 147.252 391.2 147.961C397.279 154.812 390.415 169.026 395.509 178.417Z" fill="#F2AF91"/>
<path d="M427.688 142.024C427.666 140.952 427.392 139.901 426.889 138.955C426.601 138.432 426.24 137.951 425.818 137.528L425.661 137.357C425.254 136.996 424.82 136.667 424.363 136.372C423.354 135.768 422.199 135.452 421.024 135.459C419.839 135.469 418.676 135.779 417.642 136.358C417.114 136.644 416.632 137.01 416.215 137.442V137.514C415.387 137.99 414.702 138.68 414.231 139.512C413.704 140.479 413.433 141.565 413.447 142.666C413.481 143.668 413.755 144.647 414.246 145.52C414.303 145.638 414.375 145.748 414.46 145.849C414.821 146.432 415.252 146.969 415.744 147.447C416.185 147.848 416.662 148.207 417.171 148.518C417.679 148.792 418.215 149.012 418.769 149.174C418.87 149.211 418.976 149.235 419.083 149.245C419.629 149.356 420.182 149.423 420.738 149.445C421.367 149.443 421.993 149.347 422.593 149.16C423.182 148.975 423.748 148.721 424.277 148.403C424.804 148.052 425.283 147.635 425.704 147.162C426.136 146.695 426.51 146.177 426.817 145.62C427.123 145.053 427.353 144.449 427.502 143.822C427.639 143.233 427.701 142.629 427.688 142.024Z" fill="#F3F8FF"/>
<path d="M427.459 108.798C427.359 110.326 427.231 111.924 427.103 113.58C427.031 114.493 426.96 115.421 426.86 116.434C426.425 121.668 425.657 126.868 424.563 132.005C424.344 133.013 424.101 134.012 423.835 135.002C420.638 147.219 414.345 158.494 401.217 163.189C379.556 170.967 347.121 164.902 337.489 144.179C333.698 136.091 330.567 127.71 328.128 119.117C327.286 116.006 326.544 112.98 325.93 109.955C314.629 54.0224 359.379 36.8674 394.082 40.9207C413.561 43.1471 430.898 60.1023 427.459 108.798Z" fill="#FCC6AE"/>
<path d="M368.112 128.565C367.084 133.56 360.549 136.401 353.528 134.916C346.507 133.432 341.627 128.194 342.654 123.199C343.682 118.204 350.217 115.378 357.238 116.848C364.259 118.318 369.139 123.656 368.112 128.565Z" fill="#F2AF91"/>
<path d="M426.86 116.391C426.425 121.625 425.657 126.826 424.563 131.962C424.344 132.971 424.101 133.97 423.835 134.959C417.471 135.316 412.077 132.219 411.406 127.609C410.664 122.571 415.815 117.619 422.922 116.548C424.224 116.341 425.546 116.289 426.86 116.391Z" fill="#F2AF91"/>
<path d="M365.186 108.556C364.929 112.623 366.742 116.163 369.225 116.448C371.708 116.734 373.919 113.594 374.176 109.583C374.433 105.573 372.621 101.962 370.138 101.691C367.655 101.42 365.443 104.474 365.186 108.556Z" fill="#0F1B27"/>
<path d="M404.77 107.671C404.457 111.738 406.197 115.292 408.695 115.62C411.192 115.949 413.432 112.895 413.746 108.813C414.06 104.731 412.319 101.191 409.822 100.877C407.325 100.563 405.084 103.589 404.77 107.671Z" fill="#0F1B27"/>
<path d="M406.74 121.686C405.727 118.404 403.6 115.578 402.33 112.395C401.12 109.137 400.138 105.799 399.391 102.405C398.463 98.6082 397.678 94.7262 396.922 90.9013C396.779 90.1164 395.567 90.3304 395.595 91.1011C395.661 95.1616 395.943 99.2158 396.437 103.247C397.006 107.285 398.11 111.231 399.719 114.978C400.49 116.777 401.46 118.461 402.345 120.188C403.229 121.914 404.1 123.798 403.558 125.711C402.559 129.265 397.85 130.135 394.796 130.877C394.558 130.958 394.356 131.12 394.226 131.334C394.095 131.549 394.044 131.802 394.081 132.05C394.119 132.299 394.242 132.526 394.43 132.693C394.618 132.859 394.859 132.954 395.11 132.961C398.463 132.961 401.731 132.618 404.385 130.363C405.599 129.318 406.473 127.932 406.892 126.386C407.312 124.839 407.259 123.202 406.74 121.686Z" fill="#F2AF91"/>
<path d="M329.954 107.642C326.23 104.674 321.393 102.205 316.569 102.633C310.433 103.147 306.095 108.099 304.426 113.266C303.283 117.092 303.136 121.147 304 125.047C304.864 128.946 306.71 132.559 309.363 135.544C315.385 142.552 329.498 149.188 339.03 144.75C348.562 140.311 343.725 129.307 340.814 122.086C338.482 116.425 334.745 111.454 329.954 107.642Z" fill="#FCC6AE"/>
<path d="M425.233 77.4571C424.696 75.2837 423.445 73.3537 421.68 71.9766C419.942 70.5213 417.723 69.768 415.458 69.8644C413.329 70.0537 411.322 70.9418 409.751 72.3905C408.381 73.7871 406.923 75.0934 405.384 76.3011C404.938 76.5789 404.458 76.7995 403.957 76.9576C403.671 77.003 403.397 77.1061 403.151 77.2606C402.906 77.4152 402.695 77.618 402.53 77.8567C402.366 78.1776 402.322 78.5466 402.405 78.8972C402.489 79.2479 402.695 79.5571 402.987 79.7692C403.04 79.8729 403.107 79.969 403.186 80.0546C406.04 82.7235 409.736 80.9823 412.576 79.2126C414.088 78.0005 415.896 77.2124 417.813 76.929C419.833 77.1205 421.784 77.7644 423.521 78.8129C423.726 78.9065 423.954 78.9416 424.178 78.9143C424.402 78.887 424.614 78.7984 424.791 78.6583C424.968 78.5181 425.103 78.3318 425.181 78.1199C425.259 77.9079 425.277 77.6786 425.233 77.4571Z" fill="#0F1B27"/>
<path d="M379.827 52.9805V53.3516C379.428 56.2355 378.866 59.0945 378.143 61.9148C377.801 63.3135 377.444 64.7121 377.073 66.1108C377.073 66.3391 376.945 66.5818 376.888 66.8244C378.315 66.5532 379.827 66.5818 381.168 66.4248C383.181 66.1964 385.178 66.0537 387.205 65.911C389.231 65.7683 390.943 65.6398 392.798 65.4828C393.141 65.0927 393.469 64.7074 393.783 64.3268C396.768 60.6258 399.077 56.4274 400.604 51.9244C400.604 52.7379 400.49 53.5514 400.39 54.3506C400.08 57.0963 399.423 59.7915 398.435 62.3715C398.092 63.2706 397.693 64.1841 397.25 65.0832L399.063 64.9119C400.375 64.7978 401.674 64.655 402.987 64.5266C404.468 61.7806 405.508 58.8186 406.069 55.7493C406.6 52.9802 406.83 50.1616 406.754 47.3431C407.564 49.5046 408.045 51.7753 408.181 54.0795C408.381 57.4619 408.181 60.9158 405.67 63.4705C405.368 63.7838 405.049 64.0793 404.714 64.3553L410.992 63.7274H411.206C412.631 60.5973 413.188 57.1418 412.819 53.7227C412.519 49.1556 412.005 44.1033 409.437 40.1785C407.975 37.8985 405.917 36.0623 403.486 34.8693C403.315 34.5839 403.187 34.2842 403.001 34.013C403.001 34.013 384.736 29.032 377.316 29.1748C369.726 29.1788 362.339 31.6313 356.254 36.1681C353.058 38.7152 350.004 41.4357 347.107 44.3174C344.015 47.286 340.937 50.2879 337.874 53.323C334.949 56.1775 331.909 59.0319 329.141 62.1574C326.417 65.32 324.255 68.9259 322.748 72.8186C318.916 81.6252 317.36 91.2547 318.225 100.82C318.26 101.054 318.352 101.276 318.494 101.465C318.636 101.655 318.823 101.806 319.038 101.905C319.146 102.196 319.36 102.436 319.637 102.576C323.362 104.417 326.045 108.527 327.814 112.495C328.827 114.778 329.655 117.176 330.497 119.545C331.153 121.358 331.752 124.241 333.807 124.626C335.862 125.011 337.261 122.514 337.946 120.673C338.645 118.659 339.039 116.552 339.116 114.422C339.43 109.07 339.43 103.675 339.658 98.3228C339.658 97.3237 339.729 96.339 339.772 95.3399C342.646 94.5649 345.371 93.3156 347.834 91.6435C350.052 90.1728 352.191 88.5864 354.242 86.8909C356.382 85.1497 358.522 83.4799 360.634 81.653C368.454 74.7597 375.589 66.2678 379.085 55.6494C379.356 54.7217 379.599 53.8511 379.827 52.9805Z" fill="#0F1B27"/>
<path d="M361.69 61.4866C359.722 65.0937 357.11 68.3103 353.985 70.9775C350.935 73.6571 347.488 75.8477 343.767 77.4713C343.168 77.7425 343.596 78.6559 344.181 78.5132C348.358 77.5128 352.216 75.4758 355.397 72.5903C356.975 71.1936 358.378 69.6123 359.578 67.8805C360.798 66.0425 361.831 64.087 362.661 62.0432C362.875 61.3867 362.018 60.8587 361.69 61.4866Z" fill="#27425B"/>
<path d="M372.378 38.1376C369.624 43.7576 365.872 48.8304 361.305 53.109C356.723 57.4273 351.701 61.254 346.322 64.5266C343.282 66.4391 340.186 68.2516 337.004 69.9215C336.048 70.4067 336.861 71.7483 337.803 71.3487C349.49 66.2678 360.763 58.9891 368.183 48.2993C370.233 45.28 371.964 42.0563 373.349 38.68C373.634 38.0235 372.678 37.4669 372.378 38.1376Z" fill="#27425B"/>
<path d="M332.908 81.3248C332.794 80.8395 331.981 80.9252 332.038 81.439C332.283 84.2153 332.321 87.0061 332.152 89.7881C332.023 92.6425 331.924 95.4969 331.538 98.2229C331.41 99.2219 332.823 99.6501 333.094 98.6368C333.87 95.8052 334.259 92.8813 334.25 89.9451C334.11 87.0322 333.66 84.1424 332.908 81.3248Z" fill="#27425B"/>
<path d="M328.627 91.3865C328.601 91.2803 328.553 91.1804 328.488 91.0927C328.422 91.0049 328.34 90.931 328.246 90.8753C328.152 90.8195 328.047 90.783 327.939 90.7679C327.83 90.7528 327.72 90.7593 327.614 90.7871C327.401 90.8473 327.219 90.9881 327.107 91.1798C326.995 91.3715 326.962 91.5991 327.015 91.8147C327.015 91.8147 327.015 92.143 327.015 91.9574C327.015 91.9574 327.015 92.0859 327.015 92.1572C327.015 92.2286 327.015 92.4998 327.015 92.6568C327.015 92.8137 327.015 93.3275 327.015 93.6558C327.015 93.7272 327.015 93.7985 327.015 93.8699V94.0126C327 94.1812 326.972 94.3483 326.929 94.5121C326.929 94.8404 326.801 95.1544 326.744 95.4826C326.714 95.601 326.723 95.7259 326.769 95.8389C326.815 95.9519 326.896 96.0472 327.001 96.1106C327.106 96.1719 327.229 96.1968 327.35 96.1813C327.472 96.1658 327.584 96.1109 327.671 96.025C328.147 95.3623 328.479 94.6068 328.643 93.8076C328.808 93.0084 328.803 92.1835 328.627 91.3865Z" fill="#27425B"/>
<path d="M321.35 149.588C321.335 149.525 321.3 149.469 321.249 149.428C321.199 149.388 321.136 149.366 321.071 149.366C321.007 149.366 320.944 149.388 320.893 149.428C320.843 149.469 320.808 149.525 320.793 149.588C320.536 151.319 320.096 153.017 319.48 154.655C318.934 156.27 318.232 157.828 317.383 159.307C315.956 161.691 314.272 164.417 311.675 165.501C310.619 165.944 311.375 167.556 312.403 167.314C315.842 166.529 317.896 163.646 319.295 160.577C320.094 158.869 320.706 157.08 321.121 155.24C321.483 153.378 321.559 151.473 321.35 149.588Z" fill="#27425B"/>
<path d="M329.541 130.021C329.025 128.31 328.224 126.698 327.172 125.254C326.185 123.878 325.013 122.643 323.69 121.586C322.948 121.015 322.263 120.473 321.407 119.973C320.629 119.526 319.812 119.149 318.967 118.846C317.283 118.175 315.842 120.801 317.197 121.957C318.553 123.113 319.195 123.57 320.337 124.655C320.836 125.14 321.321 125.639 321.764 126.153C322.006 126.424 322.249 126.71 322.463 126.995L322.534 127.095L322.862 127.58C323.255 128.185 323.598 128.819 323.89 129.479C323.89 129.479 323.961 129.636 324.004 129.721C324.047 129.807 324.118 130.049 324.132 130.092C324.247 130.435 324.346 130.777 324.432 131.12C324.518 131.462 324.575 131.819 324.646 132.162V132.747C324.512 133.787 324.686 134.844 325.146 135.787C325.337 136.117 325.601 136.4 325.918 136.613C326.235 136.826 326.597 136.964 326.975 137.016C327.354 137.069 327.739 137.034 328.102 136.915C328.465 136.796 328.796 136.596 329.07 136.329C330.725 134.845 330.054 131.919 329.541 130.021Z" fill="#F2AF91"/>
<path d="M387.789 133.96C386.332 133.441 384.771 133.279 383.237 133.489C381.712 133.7 380.27 134.311 379.056 135.259C378.7 135.545 378.457 135.948 378.371 136.397C378.285 136.846 378.361 137.31 378.585 137.708C378.81 138.106 379.169 138.411 379.597 138.569C380.026 138.727 380.497 138.727 380.926 138.57L381.34 138.427H381.425C381.675 138.371 381.927 138.328 382.181 138.299L382.966 138.185H383.394H384.208C384.471 138.186 384.732 138.235 384.978 138.327L384.707 138.256L384.964 138.342L385.292 138.456C385.535 138.541 385.792 138.641 386.034 138.755L386.305 138.884L386.734 139.169C387.133 139.455 387.533 139.74 387.904 140.054C388.603 140.682 389.331 141.296 389.973 141.938C390.259 142.159 390.605 142.29 390.966 142.313C391.327 142.336 391.687 142.25 391.999 142.067C392.312 141.88 392.564 141.607 392.726 141.28C392.888 140.954 392.953 140.588 392.912 140.225C392.758 138.797 392.192 137.444 391.282 136.331C390.373 135.219 389.159 134.395 387.789 133.96Z" fill="#F2AF91"/>
<path d="M453.744 281.276C453.373 270.957 450.277 260.924 447.366 251.033C443.941 239.416 440.459 227.784 436.792 216.21C435.779 212.97 434.737 209.759 433.724 206.519C433.724 206.333 433.724 206.148 433.724 205.962C433.824 204.264 434.052 202.551 434.166 200.81C434.244 199.756 434.244 198.696 434.166 197.642C433.638 191.933 428.358 189.806 423.021 188.222C411.506 184.826 399.22 184.269 387.204 184.112C375.189 183.955 363.231 183.727 351.33 185.011C339.488 186.076 327.956 189.389 317.354 194.773C312.103 197.499 307.08 200.61 302.128 203.765C299.847 205.104 297.818 206.833 296.135 208.874C294.836 210.654 293.998 212.728 293.695 214.911C293.624 215.339 293.552 215.753 293.495 216.181C292.069 227.905 291.411 239.709 291.526 251.519C291.44 263.322 291.897 275.125 292.768 286.885C294.494 310.748 297.905 334.496 301.8 358.145C302.752 364.063 303.755 369.977 304.811 375.885C305.325 378.74 305.824 381.694 306.338 384.577C306.69 387.493 307.214 390.386 307.908 393.24C308.735 395.966 310.933 397.265 313.915 397.522C316.898 397.779 320.28 397.779 323.462 397.836C329.778 397.969 336.095 397.94 342.412 397.75C367.512 397.028 392.485 393.893 416.985 388.388C420.125 387.688 423.236 386.96 426.346 386.147C429.157 385.653 431.901 384.834 434.523 383.706C440.045 380.852 438.804 373.916 438.29 369.049C437.049 357.917 433.538 347.056 433.01 335.824C432.679 330.868 433.245 325.893 434.68 321.138C435.4 318.806 436.479 316.601 437.876 314.601C439.594 312.466 441.448 310.445 443.427 308.55C447.157 304.942 450.046 300.556 451.889 295.705C453.395 291.052 454.024 286.159 453.744 281.276Z" fill="#FCC6AE"/>
<path d="M573.01 161.22C569.115 156.524 562.08 154.683 556.386 153.57C543.372 151.001 529.916 153.47 517.515 157.751C507.855 161.12 498.38 165.259 488.42 167.499C485.576 168.164 482.692 168.641 479.786 168.926C476.386 169.298 472.955 169.298 469.555 168.926C466.202 168.513 462.891 167.585 459.566 167.499C453.102 167.342 446.838 166.557 440.359 167.371C437.291 167.742 434.18 168.027 431.141 168.627C427.927 169.306 424.798 170.335 421.809 171.695C421.195 171.952 420.596 172.238 419.996 172.537C419.654 172.709 419.326 172.894 418.997 173.08L417.314 174.022C415.887 174.878 414.46 175.777 413.033 176.662L411.72 177.433C410.466 178.195 409.17 178.886 407.839 179.502C406.874 179.945 405.883 180.327 404.87 180.644C404.596 180.746 404.315 180.827 404.028 180.886C403.297 181.079 402.553 181.222 401.802 181.315C401.177 181.386 400.548 181.415 399.919 181.4C398.648 181.406 397.39 181.148 396.223 180.644C395.702 180.393 395.106 180.349 394.554 180.523C394.003 180.697 393.539 181.075 393.257 181.579C392.975 182.084 392.896 182.677 393.036 183.238C393.176 183.799 393.525 184.285 394.011 184.597L394.396 184.811C394.05 185.447 393.934 186.183 394.068 186.895C396.753 201.96 400.536 216.81 405.384 231.324C409.325 243.224 413.966 254.881 419.283 266.233C419.483 266.704 419.697 267.161 419.911 267.66C421.024 270.001 424.02 269.416 425.248 267.66C426.955 265.244 428.865 262.976 430.955 260.881C432.382 259.454 434.009 258.027 435.636 256.685C439.16 253.83 442.874 251.217 446.752 248.864C448.878 247.537 451.033 246.281 453.145 245.039C464.466 238.341 476.266 232.488 488.448 227.527C494.27 225.23 500.435 223.103 506.671 220.991C535.709 211.129 566.732 201.638 574.88 178.403C576.806 172.737 577.092 166.143 573.01 161.22Z" fill="#FCC6AE"/>
<path d="M399.362 4.32718C399.548 5.02583 399.776 5.71223 400.047 6.38236C399.548 6.48226 399.034 6.56789 398.535 6.71061C398.348 6.75821 398.172 6.84324 398.019 6.96053C397.866 7.07783 397.738 7.22496 397.644 7.39304C397.549 7.56113 397.489 7.74667 397.468 7.93846C397.447 8.13025 397.465 8.3243 397.521 8.50889C398.07 10.0285 398.819 11.4683 399.748 12.7905C400.476 13.7739 401.465 14.5349 402.601 14.9884C404.913 15.9018 407.482 15.3024 409.836 14.9884C412.69 14.546 415.544 14.0893 418.498 13.7753C418.669 13.9323 418.826 14.1035 418.997 14.2748C419.54 14.8314 420.096 15.3737 420.624 15.9446C420.8 16.1082 420.958 16.29 421.095 16.487C420.81 16.487 420.51 16.487 420.21 16.487C418.743 16.802 417.42 17.5891 416.443 18.7277C415.901 19.2985 415.344 19.8409 414.774 20.4118C413.475 20.0407 412.019 19.9836 411.292 21.211C410.768 22.2364 410.55 23.3907 410.664 24.5364C410.036 25.1644 409.394 25.7923 408.766 26.4346C407.239 27.9474 405.598 29.603 404.257 31.0302C403.123 32.0124 402.197 33.2108 401.531 34.5554C401.525 34.6075 401.525 34.6602 401.531 34.7123C401.829 35.5717 402.32 36.3515 402.965 36.9922C403.611 37.6328 404.394 38.1174 405.256 38.4088C405.883 38.6355 406.569 38.6355 407.196 38.4088H407.282C408.177 38.0824 409.018 37.6255 409.779 37.053C411.42 35.9683 413.061 34.8265 414.702 33.7133L415.087 34.2128L415.986 35.326C416.657 36.111 417.413 36.8531 418.056 37.5953C418.155 37.7095 418.298 37.8379 418.412 37.9806L418.926 38.523C417.187 40.0585 415.357 41.4883 413.446 42.8046C413.287 42.9011 413.151 43.0319 413.049 43.1874C412.946 43.3428 412.88 43.5192 412.854 43.7036C412.828 43.888 412.843 44.0759 412.899 44.2537C412.954 44.4314 413.049 44.5946 413.175 44.7313C413.431 44.9877 413.708 45.2217 414.003 45.4306C417.485 48.0995 422.165 46.7009 425.704 44.5458C425.704 44.5458 425.833 44.6742 425.918 44.7313C426.043 44.8185 426.162 44.9139 426.275 45.0168C428.014 46.2355 429.434 47.8561 430.413 49.7408C431.383 51.8102 432.282 53.9225 433.267 56.0348C434.252 58.147 435.151 60.1308 436.121 62.2003C437.091 64.2697 437.762 65.7112 439.831 66.5961C443.58 68.1389 447.451 69.3658 451.404 70.264C459.206 72.2949 467.244 73.2835 475.306 73.204C475.447 73.228 475.592 73.228 475.734 73.204C475.955 73.1274 476.154 72.9976 476.313 72.8258C476.473 72.6541 476.587 72.4458 476.647 72.2193C476.933 72.0586 477.175 71.8301 477.352 71.5538C477.528 71.2775 477.634 70.962 477.66 70.6351C478.031 67.7807 478.388 65.0261 478.759 62.2003C478.979 61.0883 478.91 59.9384 478.559 58.8606C477.959 57.7089 477.146 56.682 476.162 55.835C474.535 54.108 472.937 52.3954 471.339 50.6685C469.141 48.2708 466.963 45.8398 464.803 43.3755C458.125 35.8256 451.646 28.1044 445.068 20.4546C441.729 16.5726 438.376 12.7191 434.922 8.92278C433.367 7.05109 431.642 5.32643 429.771 3.77057C427.944 2.34337 425.661 2.41473 423.464 2.20065C418.512 1.72967 413.546 1.30151 408.595 0.773445C407.168 0.616453 405.898 0.488003 404.556 0.359555C403.47 0.183403 402.374 0.0690462 401.274 0.0170288C398.749 0.0313008 398.891 2.5289 399.362 4.32718ZM422.993 27.7476L426.118 26.1491C426.118 26.1491 433.681 26.8485 434.123 26.8342C434.566 26.8199 426.717 31.2157 426.575 31.3584C426.432 31.5011 426.375 31.2442 426.146 31.0302C425.419 30.3594 424.006 28.8323 423.293 28.1757L422.993 27.7476Z" fill="#FCC6AE"/>
<path d="M462.12 66.2678C457.597 66.6246 453.188 65.5542 450.234 61.8434C447.28 58.1327 446.538 53.2802 445.753 48.6703C445.595 47.6306 445.356 46.6047 445.04 45.6019C444.556 44.4387 443.773 43.4244 442.771 42.6618L439.831 40.1214L438.404 38.8512C438.19 38.6514 437.862 38.2089 437.619 38.109C437.148 37.952 437.063 38.109 436.635 38.3231C434.466 39.5933 432.354 40.9777 430.313 42.4049C428.377 43.9249 426.346 45.3216 424.234 46.5866C420.967 48.2993 414.574 49.0414 413.047 44.5457C413.047 44.4173 413.161 44.3602 413.247 44.4173C414.024 45.0971 414.929 45.6141 415.91 45.9377C416.89 46.2612 417.925 46.3849 418.955 46.3012C421.178 45.856 423.259 44.8764 425.019 43.4468C426.974 42.0196 428.886 40.5924 430.884 39.3079C431.869 38.6514 432.896 38.0377 433.909 37.4525C434.841 36.7869 435.871 36.2716 436.963 35.9254C437.374 35.8932 437.788 35.9533 438.173 36.1015C438.558 36.2497 438.905 36.4821 439.189 36.7817C440.273 37.6238 441.287 38.5515 442.328 39.4363C444.026 40.8635 446.024 42.2907 446.895 44.403C447.502 46.5089 447.862 48.6788 447.965 50.8682C448.27 53.2545 448.954 55.5767 449.991 57.7474C451.093 60.077 452.928 61.9817 455.214 63.1707C457.497 64.1063 459.898 64.7257 462.349 65.0118C463.034 65.1403 462.763 66.2107 462.12 66.2678Z" fill="#F2AF91"/>
<path d="M445.496 30.1595C443.067 29.9913 440.669 29.5116 438.361 28.7323C437.15 28.2769 435.898 27.9376 434.623 27.719C433.497 27.734 432.416 28.1604 431.583 28.9179C429.414 30.4878 427.302 32.1433 425.148 33.7275C424.035 34.5268 422.95 35.3545 421.837 36.1395C420.824 36.9837 419.669 37.6409 418.427 38.0805C418.378 38.0918 418.328 38.089 418.282 38.0724C418.235 38.0559 418.194 38.0262 418.164 37.9871C418.134 37.9479 418.116 37.9009 418.112 37.8516C418.108 37.8024 418.118 37.753 418.141 37.7094C418.918 36.6221 419.885 35.684 420.995 34.9407C422.151 34.0272 423.335 33.1424 424.505 32.2432C426.731 30.5306 428.958 28.7323 431.312 27.1767L431.44 27.1053H429.757C428.18 27.0314 426.6 27.0935 425.033 27.2909C423.62 27.8096 422.335 28.6274 421.266 29.6886C418.74 31.5867 416.243 33.5135 413.689 35.3974C412.55 36.2448 411.348 37.0034 410.093 37.6666C409.505 37.9593 408.894 38.2027 408.266 38.3945C407.644 38.494 407.013 38.537 406.383 38.5229C406.197 38.5229 406.183 38.266 406.383 38.2232C407.012 37.9308 407.627 37.6069 408.224 37.2527C408.884 36.9392 409.527 36.5915 410.15 36.2109C411.458 35.383 412.711 34.4725 413.903 33.4849C416.529 31.4155 419.169 29.3603 421.823 27.2909C422.811 26.3726 424.065 25.7927 425.404 25.6353C426.929 25.5283 428.46 25.5283 429.985 25.6353C431.512 25.7209 433.053 25.8779 434.566 26.0349C435.999 26.0776 437.415 26.3723 438.747 26.9055C438.822 26.94 438.882 27.0019 438.914 27.0787C438.946 27.1555 438.947 27.2415 438.918 27.3194C441.158 27.9616 443.456 28.4469 445.653 29.2461C446.11 29.3746 446.067 30.1738 445.496 30.1595Z" fill="#F2AF91"/>
<path d="M432.511 17.3861C430.898 17.3861 429.329 17.6002 427.716 17.5288H427.388C427.258 17.5713 427.118 17.5713 426.989 17.5288C425.676 17.5288 424.363 17.3861 423.05 17.3433C419.939 17.2577 417.999 19.1416 416.001 21.3109C413.775 23.7372 411.534 26.1634 409.137 28.4469C407.996 29.5316 406.84 30.5877 405.684 31.6581C404.571 32.8446 403.321 33.8939 401.959 34.7837C401.546 34.9978 400.946 34.5268 401.26 34.0844C402.353 32.7963 403.567 31.6158 404.885 30.5592C406.141 29.3889 407.368 28.1758 408.566 26.9484C410.992 24.4793 413.418 22.0388 415.701 19.4698C417.542 17.4289 419.454 15.7448 422.322 15.7163C423.278 15.7163 424.234 15.7163 425.176 15.8304C424.919 15.4736 424.677 15.1026 424.449 14.7743C424.22 14.4461 423.835 13.6896 423.164 13.6183C422.409 13.6447 421.658 13.7499 420.924 13.9323C418.198 14.3319 415.487 14.86 412.776 15.3595C408.309 16.1873 403.272 16.7867 399.634 13.447C399.305 13.1473 399.733 12.5622 400.09 12.8333C404.585 16.2729 410.593 14.075 415.544 13.133C416.971 12.8761 418.27 12.6478 419.64 12.4194C420.883 12.1562 422.141 11.9703 423.407 11.8628C424.548 11.8628 425.105 12.6906 425.747 13.5041C426.442 14.2856 427.054 15.137 427.574 16.0445C429.229 16.2158 430.813 16.5583 432.468 16.7296C432.953 16.701 432.982 17.3861 432.511 17.3861Z" fill="#F2AF91"/>
<path d="M428.116 4.36996C419.653 4.67687 411.213 5.42958 402.83 6.62494C402.33 6.62494 402.088 5.9827 402.616 5.82571C410.881 3.48479 419.49 2.60099 428.059 3.21393C428.198 3.22779 428.328 3.29129 428.425 3.39286C428.521 3.49443 428.578 3.62731 428.585 3.76734C428.592 3.90737 428.549 4.04523 428.462 4.15583C428.376 4.26643 428.253 4.34241 428.116 4.36996Z" fill="#F2AF91"/>
<path d="M575.108 164.559C573.068 158.165 568.815 152.228 565.119 146.662C561.423 141.096 557.642 135.83 553.589 130.663C545.409 120.288 536.597 110.426 527.205 101.134C508.435 82.5988 488.41 65.3793 467.272 49.598C464.675 47.6427 462.035 45.7588 459.424 43.8892C456.812 42.0196 453.915 45.559 456.313 47.5857C457.098 48.2707 457.897 48.9272 458.696 49.598C455.685 52.4524 455.842 57.0908 457.269 61.0156C458.455 63.8111 459.887 66.4954 461.55 69.0365L467.258 78.7415C471.011 85.0783 475.149 91.1867 478.902 97.5521C482.655 103.917 486.165 110.54 489.376 117.262C495.198 129.422 499.108 142.395 504.915 154.583C510.523 166.358 517.33 178.132 525.992 187.908C530.087 192.532 534.739 196.472 540.961 197.685C546.665 198.525 552.488 197.525 557.585 194.83C568.744 189.421 579.346 177.789 575.108 164.559Z" fill="#FCC6AE"/>
<path d="M538.977 184.412C537.321 183.872 535.634 183.434 533.926 183.099C532.353 182.731 530.808 182.254 529.302 181.671C526.117 180.355 523.16 178.544 520.541 176.305C518.029 174.175 515.752 171.782 513.748 169.169C511.594 166.564 509.754 163.714 508.269 160.677C508.026 160.121 507.041 160.506 507.27 161.091C507.755 162.361 508.126 163.646 508.697 164.902C509.267 166.158 509.881 167.428 510.466 168.698C511.74 171.203 513.37 173.51 515.304 175.549C519.213 179.855 524.11 183.146 529.573 185.14C532.427 186.196 535.995 187.223 539.02 186.424C539.287 186.418 539.54 186.307 539.725 186.114C539.91 185.921 540.01 185.663 540.004 185.396C539.999 185.13 539.887 184.876 539.695 184.691C539.502 184.507 539.244 184.406 538.977 184.412Z" fill="#F2AF91"/>
<path d="M453.744 281.276C453.373 270.957 450.277 260.924 447.366 251.034C444.997 242.984 442.599 234.935 440.117 226.9C439.032 223.332 437.919 219.764 436.792 216.21C435.779 212.97 434.737 209.759 433.724 206.519C433.724 206.334 433.724 206.148 433.724 205.962C433.824 204.264 434.052 202.551 434.166 200.81C429.685 201.324 425.219 201.809 420.738 202.237L408.309 203.665C381.368 206.619 354.398 209.445 327.414 211.928C323.348 212.314 319.295 212.685 315.228 213.041L307.665 213.712C302.999 214.126 298.361 214.526 293.695 214.911C293.624 215.339 293.552 215.753 293.495 216.181C292.069 227.905 291.411 239.709 291.526 251.519C291.44 263.322 291.897 275.125 292.768 286.885C293.938 302.998 295.878 319.097 298.204 335.11L298.632 337.965C299.617 344.687 300.687 351.409 301.8 358.131C301.8 358.416 301.886 358.688 301.943 358.973C302.87 364.61 303.841 370.262 304.797 375.871C305.311 378.725 305.81 381.68 306.324 384.563C306.676 387.479 307.2 390.372 307.893 393.226C308.721 395.952 310.919 397.251 313.901 397.507C316.883 397.764 320.265 397.764 323.447 397.821C329.764 397.955 336.081 397.926 342.398 397.736C367.498 397.014 392.471 393.878 416.971 388.373C420.11 387.674 423.221 386.946 426.332 386.133C429.143 385.639 431.887 384.82 434.509 383.692C437.976 381.88 438.789 378.483 438.789 375.029C438.734 373.023 438.567 371.022 438.29 369.035C437.049 357.903 433.538 347.042 433.01 335.809C432.679 330.854 433.245 325.879 434.68 321.123C435.35 319.021 436.311 317.023 437.534 315.186L437.948 314.587C439.665 312.452 441.519 310.431 443.498 308.536C447.228 304.927 450.117 300.542 451.96 295.691C453.441 291.037 454.045 286.15 453.744 281.276Z" fill="#F3F8FF"/>
<path d="M410.236 206.134C409.177 206.687 408.281 207.509 407.639 208.517C405.401 207.126 402.725 206.618 400.133 207.09C397.286 207.443 394.685 208.88 392.87 211.1C388.489 208.018 381.825 208.417 376.859 210.201C375.337 210.751 373.943 211.605 372.764 212.713C370.069 211.169 366.913 210.633 363.859 211.2C360.005 211.584 356.437 213.408 353.871 216.31C352.628 215.368 351.197 214.706 349.675 214.369C348.153 214.031 346.576 214.026 345.052 214.354C344.075 214.609 343.178 215.106 342.445 215.8C341.712 216.493 341.165 217.361 340.857 218.322C340.6 218.122 340.343 217.908 340.086 217.737C338.641 216.778 336.939 216.28 335.206 216.31C334.15 216.31 334.136 218.008 335.206 217.98C337.126 217.968 338.977 218.7 340.371 220.02C340.215 220.867 340.143 221.728 340.157 222.589C340.157 224.017 340 226.357 341.071 227.542C341.296 227.823 341.599 228.031 341.942 228.14C342.285 228.249 342.653 228.255 342.999 228.156C343.345 228.057 343.654 227.857 343.887 227.583C344.121 227.309 344.268 226.972 344.31 226.614C344.513 225.3 344.407 223.957 344 222.691C343.594 221.425 342.899 220.272 341.97 219.321C342.228 218.44 342.722 217.646 343.397 217.023C345.48 215.082 349.104 215.596 351.373 216.866C351.875 217.145 352.352 217.464 352.8 217.823C351.991 219.156 351.484 220.652 351.317 222.203C351.149 223.754 351.324 225.324 351.83 226.8C352.127 227.722 352.671 228.545 353.403 229.179C354.136 229.813 355.028 230.234 355.982 230.396C358.094 230.567 359.307 228.698 359.379 226.757C359.383 224.996 359.017 223.253 358.304 221.643C357.591 220.032 356.547 218.59 355.24 217.409C356.32 215.919 357.758 214.726 359.421 213.941C362.989 212.214 368.283 211.628 371.765 213.798C370.714 215.159 370.097 216.805 369.995 218.522C369.87 220.352 370.43 222.162 371.565 223.603C372.721 225.03 374.69 225.644 375.989 224.045C376.47 223.307 376.794 222.477 376.941 221.608C377.088 220.739 377.056 219.849 376.845 218.993C376.556 217.337 375.854 215.781 374.804 214.469L374.619 214.269C376.369 212.36 378.675 211.052 381.211 210.53C384.144 209.743 387.25 209.903 390.087 210.986C390.822 211.284 391.517 211.672 392.156 212.142C391.786 212.756 391.494 213.412 391.286 214.098C390.72 216.06 390.681 218.137 391.172 220.12C391.528 221.647 392.442 223.874 394.24 224.059C396.038 224.245 396.822 222.133 397.094 220.663C397.359 218.998 397.171 217.292 396.551 215.725C396.142 214.648 395.554 213.649 394.81 212.77L394.896 212.599C395.68 211.455 396.702 210.493 397.891 209.778C399.08 209.064 400.41 208.615 401.788 208.46C403.643 208.166 405.542 208.519 407.168 209.459C406.344 211.166 406.221 213.129 406.825 214.925C406.904 215.284 407.056 215.623 407.272 215.921C407.488 216.218 407.764 216.467 408.081 216.652C408.268 216.723 408.466 216.757 408.665 216.75C408.865 216.744 409.061 216.699 409.243 216.617C409.424 216.534 409.588 216.417 409.724 216.271C409.86 216.125 409.966 215.954 410.036 215.767C410.368 214.979 410.515 214.126 410.465 213.272C410.416 212.419 410.171 211.588 409.751 210.843C409.609 210.588 409.447 210.345 409.266 210.116C409.723 209.201 410.424 208.431 411.292 207.889C411.407 207.82 411.508 207.728 411.587 207.62C411.667 207.512 411.725 207.389 411.758 207.259C411.79 207.128 411.797 206.993 411.777 206.859C411.757 206.726 411.711 206.599 411.641 206.483C411.572 206.368 411.481 206.268 411.373 206.188C411.264 206.108 411.142 206.05 411.011 206.017C410.881 205.985 410.745 205.979 410.612 205.998C410.479 206.018 410.351 206.064 410.236 206.134ZM341.741 221.647C342.486 222.75 342.924 224.031 343.011 225.358C343.069 225.693 343.069 226.036 343.011 226.371C342.826 226.885 342.383 227.014 342.041 226.557C341.698 225.843 341.559 225.047 341.641 224.259C341.575 223.309 341.575 222.355 341.641 221.405C341.67 221.483 341.689 221.565 341.698 221.647H341.741ZM356.396 222.489C356.884 223.678 357.108 224.959 357.053 226.243C357.053 226.586 356.953 227.328 356.61 227.528C356.268 227.727 355.654 227.356 355.369 227.128C353.442 225.558 353.357 222.261 353.942 220.078C354.034 219.772 354.144 219.472 354.27 219.178C355.166 220.142 355.872 221.265 356.353 222.489H356.396ZM375.118 221.291C375.047 221.619 374.818 222.718 374.376 222.718C373.934 222.718 373.62 221.961 373.434 221.633C372.969 220.671 372.752 219.608 372.805 218.541C372.857 217.473 373.177 216.436 373.734 215.525C374.164 216.099 374.505 216.734 374.747 217.409C375.221 218.646 375.335 219.992 375.075 221.291H375.118ZM395.538 216.838C395.902 218.096 395.902 219.433 395.538 220.691C395.41 221.091 395.153 222.118 394.725 222.318C394.297 222.518 393.811 221.305 393.726 220.891C393.156 218.641 393.286 216.272 394.097 214.098C394.725 214.919 395.198 215.847 395.495 216.838H395.538ZM409.066 214.483C409.019 214.589 408.981 214.699 408.952 214.811C408.952 214.511 408.738 214.212 408.681 213.912C408.521 213.054 408.56 212.17 408.795 211.329C408.948 211.644 409.067 211.974 409.151 212.314C409.316 213.034 409.271 213.787 409.023 214.483H409.066Z" fill="black" fill-opacity="0.2"/>
<path d="M311.39 218.893C311.803 214.611 310.876 210.173 311.889 205.891C311.889 205.791 311.975 205.663 312.018 205.534C312.018 205.049 312.16 204.264 312.018 204.535C312.158 203.924 312.389 203.337 312.702 202.794C313.242 201.969 313.907 201.232 314.672 200.611C316.357 199.209 318.218 198.033 320.208 197.114C322.392 196.072 324.66 195.159 326.915 194.259C327.9 193.874 328.913 193.532 329.912 193.161L331.182 192.675L331.538 192.533C333.779 191.505 335.934 190.292 338.103 189.136L338.188 188.522C338.462 185.105 338.414 181.669 338.045 178.261C338.013 177.876 337.902 177.501 337.721 177.16C337.539 176.819 337.291 176.519 336.99 176.277C337.559 175.315 338.036 174.302 338.416 173.251C338.64 172.683 338.628 172.05 338.385 171.491C338.141 170.931 337.686 170.492 337.118 170.268C336.55 170.045 335.917 170.056 335.358 170.3C334.799 170.543 334.359 170.999 334.136 171.567C332.835 174.004 330.954 176.084 328.66 177.622C326.365 179.161 323.727 180.11 320.979 180.387C320.506 180.454 320.029 180.487 319.552 180.487C318.655 180.493 317.759 180.397 316.883 180.201C314.498 179.543 312.206 178.584 310.063 177.347L309.107 176.848C306.212 175.253 303.23 173.823 300.174 172.566C296.625 171.235 292.843 170.637 289.057 170.806C285.27 170.975 281.557 171.909 278.141 173.551C271.6 176.538 265.735 180.826 260.903 186.153C249.559 198.27 246.762 214.611 245.207 230.596C244.565 237.304 243.98 244.012 243.409 250.705C242.457 261.885 241.506 273.055 240.555 284.216C239.799 293.165 237.044 330.129 237.087 339.121C237.087 346.528 237.415 353.949 239.67 361.071C241.649 367.778 245.994 373.539 251.899 377.284C264.885 385.091 274.103 382.993 280.61 375.657C285.419 370.234 288.744 361.899 291.013 352.551C291.054 352.46 291.083 352.364 291.098 352.265C295.878 332.284 299.375 309.235 302.657 285.786C304.669 271.371 306.609 256.8 308.721 242.67C309.149 239.816 308.835 236.134 310.005 233.336C310.163 228.498 310.625 223.674 311.39 218.893Z" fill="#FCC6AE"/>
<path d="M321.15 180.401C321.15 180.401 337.86 221.576 337.146 221.576C336.433 221.576 313.63 223.974 313.559 223.003C313.487 222.033 321.15 180.401 321.15 180.401Z" fill="#F3F8FF"/>
<path d="M320.365 224.359C320.736 222.575 321.093 220.791 321.464 219.007C321.592 215.311 321.621 211.614 321.464 207.904C321.464 207.062 321.364 206.219 321.278 205.392L321.193 204.692C321.193 204.692 321.193 204.093 321.107 204.007C320.907 202.666 320.651 201.324 320.365 199.997C319.761 197.379 318.998 194.801 318.082 192.276C317.197 189.792 316.298 187.323 315.328 184.868C314.529 182.828 313.658 180.815 312.988 178.746L310.134 177.319C306.923 175.533 303.622 173.913 300.245 172.466C296.696 171.135 292.914 170.537 289.128 170.706C285.342 170.875 281.629 171.809 278.212 173.451C271.671 176.438 265.806 180.726 260.975 186.053C249.63 198.17 246.833 214.512 245.278 230.496C244.636 237.204 244.051 243.912 243.48 250.605C250.615 254.801 257.593 259.169 264.585 263.65C274.716 270.101 284.891 276.495 295.55 282.075C297.938 283.331 300.345 284.535 302.771 285.686L303.698 286.129L307.223 287.784H307.323L307.922 288.027C311.447 270.829 314.729 253.603 317.911 236.348C318.767 232.337 319.566 228.355 320.365 224.359Z" fill="#F3F8FF"/>
<path d="M308.236 175.449C305.106 173.169 301.475 171.671 297.648 171.082C293.379 170.099 288.991 169.739 284.62 170.011C277.128 170.825 270.093 175.078 264.642 180.173C253.54 190.634 248.089 205.648 245.663 220.377C244.051 230.168 243.494 240.087 242.381 249.935C242.224 251.362 244.393 251.362 244.564 249.935C245.592 241.528 246.377 233.108 247.718 224.73C248.797 216.918 250.77 209.256 253.597 201.895C258.592 189.707 267.738 177.632 280.881 173.693C285.476 172.266 290.156 172.823 294.837 173.536C298.775 174.136 302.942 174.964 306.167 177.518C306.434 177.784 306.796 177.933 307.173 177.933C307.55 177.933 307.911 177.784 308.179 177.518C308.323 177.389 308.439 177.231 308.52 177.056C308.602 176.88 308.646 176.689 308.652 176.496C308.657 176.302 308.623 176.11 308.551 175.93C308.48 175.75 308.373 175.586 308.236 175.449Z" fill="white"/>
<path d="M307.922 203.265C306.739 196.867 304.517 190.706 301.344 185.025C301.291 184.933 301.203 184.865 301.1 184.837C300.997 184.809 300.887 184.823 300.794 184.876C300.702 184.929 300.634 185.016 300.606 185.119C300.578 185.222 300.592 185.332 300.644 185.425C305.097 196.129 306.552 207.59 306.495 219.136C306.424 231.138 304.94 243.027 303.727 254.958C302.985 262.308 302.3 269.673 301.7 277.052C301.711 277.248 301.791 277.434 301.924 277.578C302.058 277.721 302.237 277.814 302.432 277.839C302.627 277.865 302.824 277.821 302.99 277.717C303.156 277.612 303.281 277.452 303.341 277.266C305.496 264.421 307.323 251.49 308.536 238.503C309.634 226.842 310.234 214.868 307.922 203.265Z" fill="black" fill-opacity="0.2"/>
<path d="M507.798 224.987C506.77 225.686 505.543 226.214 504.53 226.771C502.746 227.713 500.948 228.641 499.15 229.554C495.231 231.524 491.278 233.427 487.292 235.263C474.221 241.386 460.936 247.137 448.336 254.216C445.725 255.643 443.142 257.185 440.602 258.783C440.013 259.119 439.33 259.251 438.659 259.158C437.988 259.065 437.366 258.753 436.892 258.269C436.435 257.684 436.007 257.113 435.579 256.528C429.117 247.926 423.239 238.9 417.984 229.511C415.844 225.786 413.803 222.004 411.805 218.208C411.563 216.01 411.306 213.812 411.163 211.614C410.864 206.833 410.735 202.038 410.407 197.257C409.993 191.277 407.724 179.374 407.724 179.374C409.051 178.76 410.336 178.075 411.606 177.333C413.504 176.22 415.373 175.021 417.314 173.936L418.997 172.994C419.326 172.809 419.654 172.623 419.996 172.452C420.596 172.152 421.195 171.867 421.809 171.61C424.798 170.249 427.927 169.22 431.141 168.541C434.18 167.942 437.291 167.656 440.359 167.285C446.838 166.472 453.102 167.285 459.566 167.414C462.948 167.499 466.259 168.427 469.555 168.841C472.955 169.212 476.386 169.212 479.786 168.841C482.692 168.556 485.576 168.079 488.42 167.414C489.632 171.239 490.974 175.006 492.329 178.76C494.313 184.255 496.339 189.764 498.366 195.258C500.392 200.753 502.332 206.433 504.002 212.142C504.872 215.111 505.714 218.079 506.599 221.048C506.999 222.333 507.384 223.688 507.798 224.987Z" fill="#F3F8FF"/>
<path d="M486.607 166.472C476.832 169.426 466.63 168.57 456.741 167.143C451.739 166.311 446.684 165.834 441.615 165.715C436.719 165.652 431.862 166.595 427.345 168.484C424.831 169.602 422.391 170.88 420.039 172.309C417.456 173.822 414.845 175.292 412.305 176.876C412.195 176.958 412.119 177.077 412.091 177.211C412.063 177.345 412.086 177.485 412.155 177.603C412.224 177.722 412.334 177.811 412.465 177.853C412.595 177.895 412.736 177.888 412.861 177.832C417.528 175.777 422.137 173.551 426.831 171.524C431.288 169.61 436.08 168.601 440.93 168.556C450.919 168.427 460.751 171.21 470.768 171.41C476.356 171.56 481.935 170.847 487.306 169.298C489.076 168.613 488.348 165.887 486.607 166.472Z" fill="white"/>
<path d="M496.653 214.997C495.669 211.115 494.598 207.276 493.457 203.436C492.315 199.597 491.202 195.772 489.932 192.019C488.662 188.265 487.164 184.497 485.865 180.715C485.794 180.501 485.451 180.573 485.523 180.801C486.593 184.654 487.378 188.565 488.377 192.447C489.376 196.329 490.389 200.168 491.345 204.05C492.301 207.932 493.243 211.814 494.199 215.696C495.155 219.578 495.797 223.531 497.524 226.999C497.571 227.189 497.691 227.351 497.859 227.452C498.026 227.552 498.226 227.582 498.415 227.535C498.605 227.487 498.767 227.367 498.868 227.2C498.968 227.032 498.998 226.832 498.951 226.643C498.893 222.704 497.595 218.707 496.653 214.997Z" fill="black" fill-opacity="0.2"/>
<path d="M505.572 221.248L481.727 233.251C477.76 235.249 473.822 237.304 469.883 239.33C466.146 241.189 462.512 243.247 458.995 245.496C455.179 248.006 451.61 250.874 448.336 254.059C447.722 254.659 448.621 255.486 449.263 254.973C455.766 250.036 462.745 245.762 470.097 242.213C477.946 238.35 485.784 234.464 493.614 230.553L507.013 223.831C508.625 222.932 507.184 220.406 505.572 221.248Z" fill="white"/>
<path d="M473.451 222.133C466.397 226.003 459.985 230.943 454.443 236.776C448.893 242.668 444.325 249.414 440.916 256.757C438.923 260.861 437.548 265.238 436.835 269.744C436.779 270.002 436.824 270.272 436.962 270.497C437.1 270.723 437.319 270.887 437.574 270.954C437.83 271.022 438.101 270.989 438.333 270.862C438.564 270.735 438.738 270.524 438.818 270.272C440.245 266.647 441.501 262.951 443.099 259.368C447.748 248.576 454.726 238.946 463.533 231.167C466.82 228.215 470.391 225.595 474.193 223.346C474.312 223.231 474.389 223.078 474.411 222.914C474.432 222.749 474.396 222.582 474.31 222.441C474.223 222.299 474.091 222.191 473.934 222.135C473.778 222.079 473.607 222.078 473.451 222.133Z" fill="black" fill-opacity="0.2"/>
<path d="M378.571 83.3514C378.581 83.1281 378.517 82.9077 378.389 82.7247C378.26 82.5416 378.075 82.4062 377.862 82.3394C377.649 82.2726 377.419 82.2783 377.209 82.3555C377 82.4327 376.821 82.5771 376.702 82.7663C375.389 84.7216 372.15 84.4361 370.167 84.2648C367.62 83.7866 365.007 83.7866 362.461 84.2648C358.18 85.5065 355.797 89.7596 354.727 93.8271C354.683 94.0227 354.703 94.227 354.784 94.4104C354.864 94.5939 355.001 94.7468 355.175 94.8471C355.348 94.9474 355.549 94.9897 355.748 94.9679C355.947 94.9462 356.134 94.8615 356.282 94.7262C358.077 93.0136 360.426 92.0009 362.903 91.8718C365.529 91.8718 368.083 92.6996 370.723 92.5569C371.813 92.5584 372.891 92.3186 373.877 91.8548C374.864 91.3909 375.736 90.7144 376.431 89.8738C377.648 88.0273 378.393 85.9101 378.6 83.7082C378.614 83.5886 378.604 83.4674 378.571 83.3514Z" fill="#0F1B27"/>
<path d="M321.279 301.4C316.505 321.126 310.011 340.395 301.872 358.987C301.872 358.702 301.772 358.431 301.729 358.145C300.454 350.476 299.256 342.798 298.133 335.11C298.504 334.154 298.861 333.198 299.203 332.256C303.762 319.567 307.508 306.601 310.419 293.436C313.317 280.647 315.226 267.655 316.127 254.573C316.728 245.547 316.828 236.494 316.427 227.456C316.218 223.022 315.88 218.593 315.414 214.169C315.414 213.812 315.328 213.427 315.285 213.056C314.629 207.119 313.644 200.639 312.431 194.374C311.347 188.536 310.348 182.685 309.221 176.848L310.177 177.347C312.32 178.584 314.612 179.543 316.998 180.201C317.873 180.397 318.769 180.493 319.666 180.487C320.143 180.487 320.62 180.454 321.093 180.387C322.42 185.097 323.633 189.835 324.618 194.659C325.778 200.368 326.696 206.129 327.372 211.942C327.543 213.37 327.686 214.697 327.828 216.081C327.942 217.08 328.028 218.079 328.114 219.078C330.482 246.638 327.643 274.554 321.279 301.4Z" fill="#27425B"/>
<path d="M435.65 345.229C436.164 356.447 436.949 357.874 438.19 369.006C438.467 370.994 438.634 372.995 438.69 375C438.69 378.454 437.891 381.851 434.409 383.664C431.787 384.791 429.043 385.61 426.232 386.104C423.121 386.903 420.011 387.645 416.871 388.345C392.384 393.838 367.426 396.963 342.341 397.679C336.014 397.86 329.698 397.888 323.39 397.764C320.208 397.764 316.998 397.693 313.844 397.45C310.69 397.208 308.664 395.938 307.836 393.169C307.143 390.315 306.619 387.422 306.267 384.506C305.753 381.651 305.254 378.725 304.74 375.814C303.77 370.205 302.799 364.553 301.886 358.916C301.886 358.63 301.786 358.359 301.743 358.074C300.63 351.352 299.56 344.63 298.575 337.907C300.402 334.496 302.143 331.057 303.713 327.489C307.22 319.453 310.167 311.184 312.531 302.741C314.875 294.245 316.672 285.607 317.911 276.88C319.152 268.246 319.737 259.497 320.608 250.819C320.608 250.705 320.608 250.62 320.537 250.52C320.18 248.022 321.878 244.811 324.589 244.369C335.035 242.941 345.423 241.029 355.811 239.174C372.264 236.248 388.746 233.465 405.284 231.181C407.282 230.896 409.266 230.625 411.263 230.368L417.999 229.497C421.452 229.04 424.934 228.612 428.401 228.198C428.187 227.756 427.959 227.356 427.759 226.914C424.905 221.077 421.823 215.325 418.527 209.787C415.987 205.506 413.285 201.334 410.421 197.271C409.537 196.029 408.652 194.773 407.753 193.546C406.126 191.334 403.9 188.693 402.045 185.725C401.134 184.336 400.387 182.847 399.819 181.286C400.448 181.301 401.077 181.272 401.703 181.201C402.453 181.107 403.197 180.964 403.929 180.772C404.215 180.713 404.497 180.632 404.771 180.53C405.783 180.213 406.775 179.831 407.739 179.388C409.066 178.774 410.35 178.089 411.62 177.347C412.291 178.546 412.933 179.773 413.718 180.929L414.745 182.357L414.816 182.442L415.872 183.869C417.057 185.411 418.227 186.981 419.383 188.551C423.175 193.824 426.672 199.303 429.857 204.963C433.072 210.622 435.932 216.475 438.419 222.49C439.018 223.917 439.574 225.444 440.074 226.942C445.411 244.668 453.045 262.794 453.701 281.319C454.672 307.365 434.223 313.474 435.65 345.229Z" fill="#27425B"/>
<path d="M261.56 598.914L294.908 598.843L347.392 598.757L362.917 530.052V598.743H413.703H460.536C461.207 577.207 455.342 498.611 454.486 479.358C452.916 445.105 451.746 410.623 444.597 377.027C440.687 358.673 434.965 340.662 426.232 324.035C427.245 320.952 425.504 316.742 421.637 317.042C394.282 319.168 367.141 323.707 340.072 328.017L329.74 329.701C327.356 329.928 325.003 330.406 322.72 331.128C321.622 330.884 320.474 331 319.447 331.457C318.419 331.914 317.566 332.69 317.012 333.669C308.578 350.096 300.245 366.494 292.154 383.121C284.248 399.32 276.001 415.405 269.865 432.388C263.829 449.115 259.876 466.47 256.208 483.839C252.47 501.689 249.097 519.619 246.091 537.63C242.714 558.011 239.794 578.467 237.33 599C245.463 598.814 253.54 598.914 261.56 598.914Z" fill="#27425B"/>
<path d="M338.616 143.38V143.237C338.431 142.794 338.245 142.338 338.074 141.881L337.617 141.282C337.367 140.837 337.003 140.467 336.561 140.211C336.353 140.025 336.128 139.858 335.891 139.712L335.734 139.64C335.249 139.426 334.749 139.212 334.307 139.041H334.107H333.922C333.422 138.955 332.88 138.898 332.352 138.841L330.925 139.027C330.796 139.027 329.641 139.555 329.498 139.598L329.384 139.669C329.167 139.815 328.962 139.977 328.77 140.154C328.331 140.406 327.966 140.771 327.714 141.21L327.258 141.81L327.072 142.281C327.016 142.348 326.972 142.426 326.944 142.509C326.756 142.905 326.59 143.309 326.444 143.722V143.865C326.385 144.138 326.347 144.414 326.33 144.693C326.273 144.979 326.244 145.271 326.244 145.563V145.677C326.244 146.106 326.344 146.577 326.416 146.99C326.433 147.087 326.456 147.183 326.487 147.276C326.558 147.504 326.672 147.747 326.758 147.961C326.844 148.175 326.929 148.418 327.029 148.646L327.158 148.874C327.3 149.088 327.486 149.317 327.629 149.502L328.085 150.116C328.143 150.181 328.205 150.243 328.271 150.302C328.67 150.63 329.084 150.958 329.512 151.244L329.755 151.386L330.411 151.657C330.54 151.657 330.854 151.857 331.068 151.929H331.253L332.594 152.1H332.766C333 152.08 333.234 152.047 333.465 152C333.465 152 333.95 152 334.164 151.914H334.293C334.507 151.914 334.92 151.657 334.963 151.643C335.006 151.629 335.42 151.472 335.648 151.358L335.777 151.286L336.918 150.401L337.018 150.302L337.104 150.216V150.145C337.389 149.788 337.746 149.331 338.003 148.946C338.059 148.878 338.102 148.801 338.131 148.717C338.239 148.485 338.334 148.246 338.416 148.004C338.416 147.89 338.631 147.533 338.716 147.29V147.105C338.866 146.421 338.923 145.72 338.887 145.021C338.702 144.45 338.616 143.908 338.616 143.38Z" fill="#FFFFFA"/>
<path d="M422.023 284.516C421.637 280.234 421.152 276.081 420.596 271.871C420.325 269.773 420.053 267.675 419.711 265.591C419.689 264.813 419.432 264.059 418.973 263.43C418.515 262.801 417.876 262.325 417.142 262.066C416.269 261.921 415.376 261.955 414.517 262.166L411.249 262.608L404.899 263.493L392.185 265.22C383.708 266.362 375.218 267.418 366.77 268.702L360.449 269.673C359.536 269.816 359.721 271.4 360.649 271.3C376.816 269.659 392.927 267.446 409.066 265.491L415.045 264.777C415.616 264.706 416.472 264.435 416.843 264.963C417.178 265.73 417.367 266.553 417.399 267.389C417.813 269.758 418.184 272.142 418.512 274.525C401.688 277.38 384.75 279.492 367.812 281.476C363.374 281.99 358.836 282.289 354.456 283.174C354.341 282.518 354.241 281.847 354.142 281.176C353.813 279.178 353.499 277.166 353.157 275.168C352.914 273.74 350.788 274.325 350.974 275.753C353.328 292.879 356.039 310.006 358.679 327.132C358.979 329.044 359.122 331.114 360.492 332.598C361.821 333.774 363.354 334.698 365.015 335.324L376.431 340.947L388.032 346.656C389.75 347.668 391.579 348.478 393.483 349.068C394.324 349.26 395.195 349.273 396.041 349.106C396.887 348.939 397.688 348.595 398.392 348.098C399.871 346.987 401.26 345.761 402.544 344.43C403.971 343.003 405.398 341.661 406.825 340.234C409.679 337.379 412.405 334.525 415.073 331.471C416.4 330.043 417.727 328.474 419.04 326.961C420.377 325.633 421.417 324.038 422.094 322.28C422.536 320.361 422.737 318.396 422.693 316.428C422.793 314.301 422.85 312.146 422.879 310.048C423.037 301.528 422.751 293.006 422.023 284.516ZM420.496 315.629C420.541 317.543 420.383 319.457 420.025 321.338C419.432 323.069 418.457 324.645 417.171 325.947C412.249 331.816 406.954 337.36 401.317 342.546C400.084 343.804 398.758 344.968 397.35 346.028C396.641 346.482 395.816 346.723 394.974 346.723C394.132 346.723 393.308 346.482 392.598 346.028C388.945 344.316 385.364 342.474 381.739 340.705L370.823 335.338L365.457 332.684C364.031 331.97 362.247 331.371 361.719 329.672C361.244 327.716 360.92 325.727 360.748 323.721L359.849 317.698C359.236 313.616 358.608 309.535 357.994 305.453C356.967 298.688 355.921 291.932 354.855 285.186C358.828 285.046 362.791 284.698 366.727 284.145C371.008 283.674 375.289 283.188 379.57 282.646C388.008 281.58 396.423 280.424 404.813 279.178C409.494 278.479 414.189 277.751 418.883 277.123C418.969 277.865 419.083 278.55 419.169 279.321C420.065 287.33 420.541 295.381 420.596 303.44C420.691 307.513 420.657 311.576 420.496 315.629Z" fill="#12283D"/>
<path d="M346.008 249.749C341.113 250.577 336.19 251.262 331.339 252.375C330.283 252.618 330.725 254.202 331.767 254.002C336.633 253.074 341.399 251.704 346.193 250.463C346.664 250.349 346.464 249.678 346.008 249.749Z" fill="#12283D"/>
<path d="M373.977 244.968C370.341 245.051 366.716 245.399 363.132 246.01C359.46 246.517 355.816 247.212 352.215 248.093C351.316 248.322 351.702 249.521 352.572 249.449C356.182 248.964 359.707 248.265 363.36 247.665C367.013 247.066 370.495 246.581 374.076 245.739C374.16 245.707 374.231 245.647 374.277 245.57C374.323 245.493 374.342 245.403 374.33 245.314C374.319 245.225 374.278 245.142 374.213 245.08C374.149 245.017 374.066 244.977 373.977 244.968Z" fill="#12283D"/>
<path d="M386.391 242.627C385.407 242.77 384.422 242.87 383.452 243.056L380.598 243.612C379.913 243.741 380.055 244.897 380.755 244.84C381.782 244.84 382.795 244.64 383.808 244.468C384.777 244.27 385.731 244.003 386.662 243.669C386.785 243.62 386.886 243.528 386.946 243.41C387.006 243.292 387.021 243.156 386.987 243.028C386.954 242.9 386.875 242.789 386.765 242.715C386.655 242.641 386.522 242.61 386.391 242.627Z" fill="#12283D"/>
<path d="M408.723 238.531C404.528 238.881 400.364 239.539 396.266 240.501C395.196 240.743 395.638 242.385 396.708 242.171C400.761 241.343 404.828 240.572 408.88 239.73C409.537 239.587 409.408 238.474 408.723 238.531Z" fill="#12283D"/>
<path d="M428.33 235.677C426.831 235.805 425.333 235.919 423.863 236.176C422.393 236.433 421.009 236.676 419.511 236.961C418.455 237.175 418.669 239.002 419.754 238.874C421.181 238.688 422.736 238.474 424.22 238.246C425.704 238.017 427.074 237.661 428.501 237.332C429.443 237.118 429.286 235.577 428.33 235.677Z" fill="#12283D"/>
<path d="M311.104 335.867C310.89 334.739 309.192 335.196 309.406 336.323C310.462 342.032 311.461 347.812 312.802 353.45C313.031 354.392 314.329 353.978 314.229 353.079C313.373 347.341 312.217 341.604 311.104 335.867Z" fill="#12283D"/>
<path d="M432.554 346.556C428.843 348.497 425.162 350.453 421.309 352.122C417.456 353.792 413.546 355.234 409.608 356.604C401.553 359.326 393.355 361.603 385.05 363.426C368.326 367.222 350.902 369.349 333.679 368.25C324.039 367.452 314.463 366.022 305.011 363.968C304.686 363.917 304.354 363.988 304.078 364.168C303.803 364.348 303.604 364.624 303.52 364.942C303.437 365.26 303.475 365.598 303.626 365.89C303.778 366.183 304.032 366.408 304.34 366.523C312.783 368.776 321.462 370.022 330.197 370.234C338.885 370.612 347.588 370.44 356.254 369.72C373.615 368.23 390.782 364.998 407.496 360.072C412.095 358.75 416.624 357.198 421.067 355.419C425.523 353.683 429.82 351.563 433.909 349.082C434.126 348.851 434.264 348.558 434.305 348.244C434.346 347.93 434.288 347.612 434.138 347.333C433.989 347.054 433.755 346.829 433.471 346.689C433.187 346.55 432.866 346.504 432.554 346.556Z" fill="#12283D"/>
<path d="M267.981 305.01C261.445 295.535 254.204 286.565 246.32 278.179C242.368 274.16 238.21 270.349 233.862 266.761C219.421 254.487 199.201 239.259 190.639 232.88L186.544 229.854C186.544 229.854 165.51 239.259 168.807 245.168C169.962 247.237 171.132 249.264 172.288 251.319C183.704 271.414 195.576 291.195 207.706 310.833C214.341 321.595 221.062 332.327 227.683 343.117C230.937 348.426 234.176 353.735 237.501 359.002C239.566 362.697 241.863 366.258 244.379 369.663C245.246 370.695 246.201 371.65 247.233 372.517C255.795 379.51 267.111 369.834 272.305 362.884C278.298 354.806 280.41 345.215 280.053 335.296C279.796 324.007 274.231 314.173 267.981 305.01Z" fill="#FCC6AE"/>
<path d="M192.466 234.749C191.867 234.121 191.267 233.479 190.639 232.865C183.914 226.242 176.428 220.441 168.336 215.582C163.989 212.78 159.417 210.345 154.665 208.303C152.011 207.204 149.942 207.975 147.402 208.874C144.862 209.773 141.994 210.772 139.311 211.728C136.628 212.685 133.917 213.841 131.22 214.825C128.65 215.636 125.92 215.798 123.272 215.296C123.086 215.296 122.872 215.296 122.687 215.296C122.573 215.29 122.459 215.29 122.344 215.296C121.06 210.158 118.064 204.635 112.627 203.879C112.183 203.809 111.735 203.776 111.285 203.779C111.055 203.793 110.83 203.857 110.627 203.968C110.424 204.079 110.248 204.234 110.112 204.42C109.975 204.607 109.882 204.822 109.838 205.049C109.794 205.276 109.801 205.51 109.858 205.734C110.394 208.674 110.756 211.643 110.943 214.626C110.643 214.626 110.329 214.626 110.015 214.626C109.802 214.604 109.587 214.604 109.373 214.626C108.06 214.626 106.776 214.626 105.478 214.811C104.878 214.811 104.279 214.868 103.68 214.982H102.895C102.395 212.485 101.925 209.987 101.468 207.49C101.284 206.278 100.923 205.1 100.398 203.993C100.023 203.225 99.3847 202.617 98.5997 202.28C97.5473 201.726 96.3796 201.425 95.1902 201.403C94.0008 201.381 92.8227 201.637 91.7502 202.152L91.5647 202.295C91.1224 202.651 90.9511 204.935 90.8655 208.003V208.089C90.7942 210.558 90.7799 213.541 90.7942 216.281C90.7942 217.423 90.7942 218.579 90.7942 219.706C89.6643 220.628 88.8265 221.857 88.3826 223.246C87.9545 225.016 89.3101 226.286 90.7799 227.142H90.8655C90.8655 228.17 90.8655 229.169 90.8655 230.182C90.7158 232.104 91.2185 234.019 92.2925 235.62C92.5208 235.948 92.7776 236.233 93.0202 236.519C92.7206 236.519 92.3924 236.519 92.107 236.519C91.1081 236.519 90.1377 236.519 89.1389 236.519H88.2399C85.9139 233.579 83.7306 230.567 81.5617 227.528C79.7637 225.016 77.98 222.133 75.0832 220.863C73.6567 220.206 72.0744 219.964 70.5169 220.163C68.4781 220.488 66.4975 221.108 64.6378 222.004C64.2148 222.255 63.9064 222.66 63.7784 223.135C63.6504 223.61 63.713 224.116 63.9528 224.545C64.281 225.144 64.6663 225.672 65.0088 226.215C64.1704 226.572 63.3554 226.982 62.5687 227.442C60.5281 228.626 58.1879 230.753 60.4139 233.079C61.4463 234.04 62.5326 234.94 63.6674 235.777L67.6772 239.102C72.5717 243.155 77.4234 247.28 82.3037 251.39C84.4441 253.217 86.4562 255.329 89.3672 255.743C92.4898 256.043 95.634 256.043 98.7567 255.743C105.249 255.458 111.728 255.087 118.149 254.63C130.892 253.76 143.621 252.732 156.363 252.033C161.7 251.733 167.009 251.49 172.346 251.319L177.654 251.205C179.296 251.335 180.947 251.151 182.52 250.663C183.803 250.004 184.891 249.02 185.673 247.808C187.842 244.954 190.04 242.099 192.209 239.245C192.48 238.924 192.667 238.541 192.752 238.129C192.836 237.718 192.817 237.292 192.694 236.89C192.902 236.559 192.992 236.168 192.95 235.78C192.909 235.392 192.738 235.029 192.466 234.749ZM105.321 227.927C106.562 227.927 109.231 227.813 110.458 227.927C110.872 227.927 111.114 227.927 111.114 228.041C111.114 228.156 114.254 239.359 113.883 238.988C113.512 238.617 106.02 232.237 106.02 232.237L104.593 227.956L105.321 227.927Z" fill="#FCC6AE"/>
<path d="M174.329 229.626C170.576 225.187 165.653 222.104 159.688 222.746C153.724 223.389 148.772 227.028 143.906 230.51C142.846 231.306 141.72 232.008 140.538 232.608C139.07 233.222 137.461 233.425 135.886 233.194L130.963 232.794L128.509 232.608C128.032 232.648 127.552 232.624 127.082 232.537C126.526 232.266 126.554 232.066 126.397 231.438C125.584 228.341 124.97 225.173 124.357 222.004C123.933 218.884 123.328 215.791 122.544 212.742C121.117 208.217 116.037 201.709 110.658 204.35C110.501 204.421 110.586 204.635 110.658 204.649C111.981 204.749 113.271 205.117 114.448 205.73C115.626 206.344 116.666 207.19 117.507 208.217C119.119 210.628 120.136 213.387 120.475 216.267C121.017 219.293 121.431 222.333 122.059 225.358C122.359 226.785 122.73 228.312 123.129 229.783C123.381 231.23 123.863 232.627 124.556 233.921C124.891 234.33 125.314 234.658 125.794 234.88C126.273 235.103 126.796 235.214 127.325 235.206C129.037 235.42 130.778 235.534 132.505 235.677C135.358 235.919 138.341 236.519 141.066 235.377C143.792 234.235 145.604 232.18 147.802 230.539C150.202 228.69 152.886 227.244 155.75 226.257C158.827 225.164 162.18 225.124 165.282 226.143C168.154 227.38 170.846 228.998 173.287 230.953C174.129 231.481 174.886 230.296 174.329 229.626Z" fill="#F2AF91"/>
<path d="M127.068 246.395C124.75 244.321 122.18 242.547 119.419 241.115C117.914 240.418 116.48 239.577 115.138 238.603C114.138 237.565 113.546 236.202 113.469 234.763C112.926 231.367 112.513 227.956 112.042 224.559C111.771 222.832 111.528 221.091 111.228 219.364C111.065 217.683 110.616 216.042 109.901 214.511C109.873 214.454 109.829 214.406 109.775 214.373C109.721 214.339 109.658 214.321 109.594 214.321C109.531 214.321 109.468 214.339 109.414 214.373C109.36 214.406 109.316 214.454 109.288 214.511C109.038 216.219 109.081 217.957 109.416 219.649C109.644 221.519 109.916 223.389 110.172 225.258C110.658 228.841 111.057 232.48 111.771 236.019V236.219C111.271 235.705 110.772 235.206 110.344 234.678C108.859 233.307 107.494 231.813 106.262 230.211C105.235 228.669 105.264 226.372 105.007 224.602C104.436 220.591 103.908 216.581 103.252 212.585C102.998 210.785 102.597 209.01 102.053 207.276C101.8 206.468 101.465 205.689 101.054 204.949C100.593 204.281 100.062 203.664 99.4701 203.108C99.3274 202.937 99.0848 203.108 99.1704 203.336C99.4836 204.173 99.7504 205.026 99.9695 205.891C100.283 206.762 100.54 207.675 100.769 208.574C101.203 210.508 101.517 212.467 101.71 214.44C102.224 218.722 102.766 223.003 103.309 227.285C103.386 229.017 104 230.683 105.064 232.052C106.313 233.572 107.667 235.003 109.116 236.333C110.543 237.661 112.07 238.917 113.583 240.158C114.908 241.423 116.444 242.446 118.121 243.184C118.168 243.205 118.22 243.216 118.272 243.216C118.324 243.217 118.375 243.207 118.423 243.187C118.471 243.167 118.515 243.137 118.551 243.1C118.587 243.063 118.616 243.018 118.634 242.97C121.231 244.397 123.729 246.095 126.411 247.38C126.925 247.594 127.61 246.838 127.068 246.395Z" fill="#F2AF91"/>
<path d="M104.008 245.953C102.581 244.526 101.354 242.856 99.8411 241.443L99.5271 241.157C99.4437 241.006 99.3135 240.886 99.1561 240.815C97.9146 239.673 96.6589 238.546 95.446 237.39C92.592 234.635 92.5064 231.167 92.592 227.399C92.749 223.118 92.8917 218.964 92.749 214.754C92.749 212.727 92.592 210.715 92.5064 208.703C92.5726 206.618 92.3857 204.534 91.9499 202.494C91.7787 201.924 90.8083 201.795 90.7084 202.494C90.5325 204.658 90.5708 206.833 90.8226 208.988C90.9082 211.186 90.9225 213.384 90.9082 215.582C90.9082 220.006 90.9082 224.416 90.6799 228.841C90.5087 232.366 90.6799 235.606 93.277 238.26C94.1189 239.145 95.0464 239.973 95.974 240.772L94.3615 241.057C93.5338 241.172 92.8489 241.486 92.1782 240.929C91.524 240.215 90.9454 239.436 90.4516 238.603C88.3539 235.748 86.3847 232.823 84.387 229.897C81.1049 225.087 77.1237 219.906 70.8593 219.621C70.3028 219.621 70.1601 220.52 70.7308 220.591C77.8657 221.605 81.2762 229.069 84.9007 234.421C85.8853 235.848 86.8984 237.361 87.9401 238.802C88.8091 240.173 89.7622 241.489 90.7941 242.742C91.7929 243.812 93.0487 243.555 94.3615 243.398C95.6827 243.331 96.9932 243.126 98.2714 242.784C99.9124 244.212 101.653 245.282 103.28 246.638C103.808 246.98 104.436 246.395 104.008 245.953Z" fill="#F2AF91"/>
<path d="M88.4538 253.645C81.1316 245.652 74.2255 237.287 67.7627 228.584C67.6946 228.464 67.5819 228.377 67.4494 228.341C67.317 228.305 67.1756 228.323 67.0564 228.391C66.9371 228.459 66.8499 228.572 66.8137 228.704C66.7776 228.837 66.7956 228.978 66.8637 229.097C72.2216 238.741 79.1907 247.396 87.4692 254.687C87.6129 254.765 87.7781 254.793 87.9394 254.767C88.1006 254.741 88.2488 254.663 88.361 254.544C88.4732 254.425 88.5431 254.273 88.5599 254.11C88.5766 253.948 88.5393 253.784 88.4538 253.645Z" fill="#F2AF91"/>
<path d="M281.823 320.767C279.021 315.281 275.644 310.11 271.748 305.339C267.738 300.229 263.543 295.234 259.219 290.367C256.722 287.513 254.196 284.801 251.571 282.118C250.301 280.819 249.017 279.535 247.689 278.279C246.362 277.023 244.836 275.738 243.409 274.425C243.066 274.111 242.652 274.625 242.938 274.954C245.092 277.38 247.104 279.949 249.216 282.404C251.328 284.858 253.412 287.227 255.495 289.639C259.662 294.454 263.729 299.344 267.696 304.311C274.83 313.388 281.965 323.421 283.549 335.139C284.472 341.314 283.641 347.624 281.152 353.35C281.061 353.539 281.049 353.757 281.119 353.955C281.188 354.153 281.334 354.315 281.523 354.406C281.712 354.497 281.93 354.509 282.128 354.439C282.326 354.37 282.488 354.224 282.579 354.035C288.943 344.002 286.746 330.886 281.823 320.767Z" fill="#F2AF91"/>
<path d="M285.818 262.908C279.639 258.883 273.618 254.616 267.467 250.563C264.514 248.607 261.503 246.738 258.449 244.982C255.436 243.03 252.178 241.485 248.76 240.387C248.49 240.33 248.209 240.37 247.967 240.5C247.724 240.63 247.534 240.841 247.432 241.097C247.33 241.353 247.321 241.637 247.407 241.898C247.494 242.16 247.669 242.383 247.904 242.527C250.857 244.554 254.182 246.024 257.293 247.794C260.404 249.564 263.286 251.305 266.297 253.032C272.619 256.657 279.054 260.082 285.347 263.736C285.932 264.035 286.375 263.236 285.818 262.908Z" fill="black" fill-opacity="0.2"/>
<path d="M1.99997 51.1476C1.99997 40.7106 13.7999 29 24.3191 29H198.094C208.618 29 220.417 40.7106 220.417 51.1476V116.94C220.417 123.003 217.788 131.964 213.39 136.584C208.992 141.205 191.989 161.054 187.613 166.161C183.238 171.267 177.642 174.442 168.238 174.442H24.3191C13.7999 174.442 1.99997 162.73 1.99997 152.296V51.1476Z" fill="#C6C6C6"/>
<path d="M0.476166 46.5383C0.476166 36.1026 12.2761 24.3921 22.7953 24.3921H196.57C207.094 24.3921 218.893 36.1026 218.893 46.5383V112.331C218.893 118.394 216.264 127.356 211.866 131.976C207.469 136.597 190.465 156.446 186.096 161.554C181.727 166.661 176.125 169.834 166.72 169.834H22.7953C12.2761 169.834 0.476166 158.124 0.476166 147.687V46.5383Z" fill="white"/>
<path d="M23.2162 57.9632C23.2162 52.165 28.1539 47.4574 34.2469 47.4574H110.505C116.591 47.4574 121.532 52.165 121.532 57.9632V120.114C121.532 125.925 116.597 130.618 110.505 130.618H34.2469C28.1604 130.618 23.2162 125.925 23.2162 120.114V57.9632Z" fill="#FFB931"/>
<path d="M122.585 120.114V57.9632C122.585 51.5873 117.165 46.3993 110.505 46.3993H34.2468C27.5841 46.3993 22.1646 51.5925 22.1646 57.9632V120.114C22.1646 126.487 27.5841 131.668 34.2468 131.668H110.505C117.165 131.675 122.585 126.487 122.585 120.114ZM110.505 129.563H73.2778V103.597H86.374L98.0626 113.629H120.48V120.12C120.48 125.325 116.003 129.563 110.505 129.563ZM24.2702 111.516V90.0946H56.9298V102.048L45.6285 111.515L24.2702 111.516ZM120.48 66.5683V87.9758H87.8114V76.0315L98.8344 66.5683H120.48ZM87.8114 102.052V90.0933H120.475V111.515H98.8396L87.8114 102.052ZM59.0368 76.5976H85.7136V101.478H59.0368V76.5976ZM56.9298 76.0315V87.9758H24.2702V66.5657H45.6285L56.9298 76.0315ZM120.48 57.9606V64.4521H98.0626L86.374 74.484H73.2778V48.5077H110.505C116.003 48.5077 120.48 52.7506 120.48 57.9632V57.9606ZM34.2468 48.5077H71.1734V74.4853H58.3647L46.3912 64.4534H24.2702V57.9619C24.2702 52.7506 28.7444 48.5077 34.2468 48.5077ZM24.2754 120.11V113.618H46.3912L58.3647 103.586H71.1734V129.552H34.2468C28.7444 129.563 24.2702 125.325 24.2702 120.114L24.2754 120.11Z" fill="#27425B"/>
</g>
<defs>
<filter id="filter0_d_217_771" x="0.476166" y="0.0170288" width="581.762" height="604.983" filterUnits="userSpaceOnUse" color-interpolation-filters="sRGB">
<feFlood flood-opacity="0" result="BackgroundImageFix"/>
<feColorMatrix in="SourceAlpha" type="matrix" values="0 0 0 0 0 0 0 0 0 0 0 0 0 0 0 0 0 0 127 0" result="hardAlpha"/>
<feOffset dx="6" dy="6"/>
<feComposite in2="hardAlpha" operator="out"/>
<feColorMatrix type="matrix" values="0 0 0 0 0 0 0 0 0 0 0 0 0 0 0 0 0 0 0.05 0"/>
<feBlend mode="normal" in2="BackgroundImageFix" result="effect1_dropShadow_217_771"/>
<feBlend mode="normal" in="SourceGraphic" in2="effect1_dropShadow_217_771" result="shape"/>
</filter>
</defs>
</svg>
