<svg width="1440" height="2099" viewBox="0 0 1440 2099" fill="none" xmlns="http://www.w3.org/2000/svg">
<path d="M1292.63 1195.25C1290.04 1347.27 1247.82 1494.41 1163.08 1612.43C975.126 1874.24 556.272 1963.11 282.413 1725.99C26.5573 1504.49 -32.0027 1090.99 197.155 863.722C322.58 739.335 447.202 624.675 405.554 418.391C397.056 376.319 382.571 335.071 376.826 292.701C345.274 60.625 652.008 242.98 741.623 294.951C945.01 412.906 1120.8 594.394 1216.44 814.602C1268.87 935.279 1294.85 1067 1292.63 1195.25Z" fill="white"/>
<path d="M344.697 819.15C303.202 863.152 217.425 960.965 191.806 1113.24C160.268 1300.84 243.889 1443.47 267.597 1482.86C280.585 1504.42 400.328 1703.27 511.341 1684.18C547.594 1677.94 598.815 1645.71 619.722 1666.3C628.86 1675.29 630.627 1691.32 650.328 1711.3C655.655 1716.57 661.669 1721.11 668.207 1724.77C803.826 1803.47 1131.15 1623.06 1161.85 1416.39C1174.26 1332.93 1133.55 1277.84 1166.66 1146.28C1180.75 1090.38 1191.28 1048.59 1226.22 1006.75C1267.1 957.795 1306.54 950.474 1313.72 907.525C1320.31 867.967 1291.05 850.164 1301.98 807.9C1311.35 771.668 1335.61 759.114 1342.59 743.58C1388.8 640.591 727.346 161.004 601.857 283.125C536.814 346.419 679.293 509.526 586.01 652.435C529.117 739.498 451.584 705.778 344.697 819.15Z" fill="#307EF3"/>
</svg>
