<svg width="1328" height="1744" viewBox="0 0 1328 1744" fill="none" xmlns="http://www.w3.org/2000/svg">
<path d="M204.135 337.284C302.253 207.982 490.954 95.4836 600.793 135.171C674.081 161.656 654.776 235.195 764.48 324.76C874.758 414.802 945.829 382.59 1001.61 441.029C1137.85 583.75 795.69 861.559 917.665 1065.26C1008.26 1216.54 1262.33 1172.4 1318.44 1326.4C1367.78 1461.84 1210.68 1603.92 1198.83 1614.38C1039.42 1754.87 756.61 1777.19 560.876 1700.23C264.441 1583.68 207.947 1255.24 143.271 879.233C81.6092 520.746 164.625 389.303 204.135 337.284Z" fill="white"/>
<path d="M64.355 200.671C140.513 77.221 286.961 -30.1856 372.177 7.73735C429.062 32.9943 414.071 103.205 499.216 188.716C584.807 274.678 639.93 243.92 683.26 299.709C789.001 435.984 523.44 701.236 618.114 895.692C688.427 1040.11 741.471 1014.23 785.024 1161.27C823.298 1290.54 627.316 1365.31 618.114 1375.29C494.392 1509.43 493.148 1575.39 341.23 1501.87C111.161 1390.63 67.3213 1077.04 17.126 718.091C-30.7329 375.839 33.7196 250.332 64.355 200.671Z" fill="#307EF3"/>
</svg>
