<svg  viewBox="0 0 1407 515" fill="none" xmlns="http://www.w3.org/2000/svg">
<path d="M1229.5 332.115C1321.25 332.115 1395.64 257.768 1395.64 166.057C1395.64 74.3464 1321.25 0 1229.5 0C1137.75 0 1063.36 74.3464 1063.36 166.057C1063.36 257.768 1137.75 332.115 1229.5 332.115Z" fill="white"/>
<path d="M185.507 515C296.244 515 386.015 417.422 386.015 297.053C386.015 176.685 296.244 79.1066 185.507 79.1066C74.7702 79.1066 -15 176.685 -15 297.053C-15 417.422 74.7702 515 185.507 515Z" fill="white"/>
<path d="M1269.82 305.716C1345.58 305.716 1407 244.324 1407 168.594C1407 92.8645 1345.58 31.4733 1269.82 31.4733C1194.05 31.4733 1132.63 92.8645 1132.63 168.594C1132.63 244.324 1194.05 305.716 1269.82 305.716Z" fill="#307EF3"/>
</svg>
