<svg width="1440" height="1034" viewBox="0 0 1440 1034" fill="none" xmlns="http://www.w3.org/2000/svg">
<path d="M1480.5 756C1581.84 756 1664 681.903 1664 590.5C1664 499.097 1581.84 425 1480.5 425C1379.16 425 1297 499.097 1297 590.5C1297 681.903 1379.16 756 1480.5 756Z" fill="white"/>
<path d="M354.714 -115.657C255.976 -47.3711 178.149 44.3211 138.44 150.665C50.3529 386.558 179.034 695.526 457.167 768.171C716.996 836.054 1014.87 692.614 1061.86 445.293C1087.57 309.929 1107.26 179.346 1261.41 115.803C1292.85 102.846 1326.43 94.1095 1356.83 79.2471C1523.43 -2.10649 1266.6 -119.943 1192.42 -154.942C1024.07 -234.373 826.292 -268.172 638.871 -233.338C536.158 -214.254 437.997 -173.284 354.714 -115.657Z" fill="white"/>
<path d="M1376 407C1390.36 407 1402 396.255 1402 383C1402 369.745 1390.36 359 1376 359C1361.64 359 1350 369.745 1350 383C1350 396.255 1361.64 407 1376 407Z" fill="#307EF3"/>
<path d="M-13.5 339C16.0472 339 40 317.51 40 291C40 264.49 16.0472 243 -13.5 243C-43.0472 243 -67 264.49 -67 291C-67 317.51 -43.0472 339 -13.5 339Z" fill="white"/>
<path d="M1156 807C1206.81 807 1248 770.063 1248 724.5C1248 678.937 1206.81 642 1156 642C1105.19 642 1064 678.937 1064 724.5C1064 770.063 1105.19 807 1156 807Z" fill="white"/>
<path d="M1438 316C1438 319.889 1434.42 323 1430 323C1425.57 323 1422 319.889 1422 316C1422 312.111 1425.58 309 1430 309C1434.41 309 1438 312.134 1438 316Z" fill="#307EF3"/>
<path d="M1485 1034C1568.39 1034 1636 972.663 1636 897C1636 821.337 1568.39 760 1485 760C1401.61 760 1334 821.337 1334 897C1334 972.663 1401.61 1034 1485 1034Z" fill="#307EF3"/>
<path d="M-206 10.5C-271.76 36.5869 69.6815 -138.805 -23.4998 -9C-51.0182 29.3214 106 296 395 204.5C623.166 132.26 639.706 452.035 722.128 597.891C756.459 658.666 758.515 695.757 790.915 726.93C912.356 843.928 1170.95 840.853 1292.8 663.321C1342.02 591.638 1318.79 527.918 1411.81 419.453C1451.35 373.373 1480.92 338.926 1538.32 312.617C1605.46 281.832 1653.48 288.399 1679.7 251.773C1703.84 218.034 1678 192.044 1708.2 157.297C1735.17 126.299 1807.16 109.838 1814.65 90.251C1839.39 25.6006 1662.22 -68.6724 1601.87 -101.501C1427.14 -196.549 1176.87 -231.381 957.88 -224.057C837.954 -219.935 -98.4034 -31.949 -206 10.5Z" fill="#307EF3"/>
</svg>
