<svg width="1440" height="1511" viewBox="0 0 1440 1511" fill="none" xmlns="http://www.w3.org/2000/svg">
<path d="M1051.45 1228.99C934.839 1274.26 935.955 1381.58 845.608 1401.38C791.402 1413.27 782.333 1376.51 663.497 1350.01C522.879 1318.63 490.453 1359.99 423.262 1327.03C330.743 1281.69 361.58 1188.27 270.107 1040.97C161.608 866.277 46.4158 882.056 29.0629 779.331C4.30422 632.784 212.891 447.974 418.391 379.122C592.62 320.746 633.073 389.804 868.949 327.034C1081.98 270.347 1134.56 191.241 1230 221.888C1372.77 267.74 1407.92 493.91 1419.56 568.808C1462.55 845.426 1351.86 1171.43 1178.26 1213C1130.24 1224.5 1108.84 1206.71 1051.45 1228.99Z" fill="white"/>
<path d="M818.765 1060.33C740.501 1090.71 741.25 1162.74 680.613 1176.03C644.232 1184.01 638.145 1159.34 558.388 1141.55C464.011 1120.49 442.247 1148.25 397.151 1126.13C335.056 1095.7 355.753 1033 294.36 934.138C221.54 816.888 144.228 827.478 132.581 758.533C115.964 660.177 255.959 536.14 393.883 489.93C510.818 450.75 537.968 497.099 696.279 454.97C839.253 416.924 874.545 363.831 938.598 384.4C1034.42 415.174 1058.01 566.971 1065.82 617.239C1094.68 802.893 1020.39 1021.69 903.873 1049.6C871.645 1057.32 857.281 1045.38 818.765 1060.33Z" fill="#307EF3"/>
</svg>
