<svg width="2031" height="1281" viewBox="0 0 1438 1034" fill="none" xmlns="http://www.w3.org/2000/svg">
<path d="M1199.81 809.603C1271.54 809.603 1329.7 749.793 1329.7 676.014C1329.7 602.235 1271.54 542.426 1199.81 542.426C1128.07 542.426 1069.91 602.235 1069.91 676.014C1069.91 749.793 1128.07 809.603 1199.81 809.603Z" fill="white"/>
<path d="M402.906 106.017C333.013 161.137 277.923 235.149 249.814 320.988C187.461 511.396 278.549 760.79 475.429 819.427C659.351 874.221 870.202 758.439 903.465 558.806C921.668 449.543 935.6 344.139 1044.72 292.848C1066.98 282.389 1090.74 275.337 1112.27 263.341C1230.19 197.674 1048.39 102.558 995.884 74.3074C876.714 10.1925 736.717 -17.09 604.05 11.0277C531.343 26.4319 461.859 59.502 402.906 106.017Z" fill="white"/>
<path d="M1125.83 527.897C1136 527.897 1144.24 519.223 1144.24 508.524C1144.24 497.825 1136 489.152 1125.83 489.152C1115.67 489.152 1107.43 497.825 1107.43 508.524C1107.43 519.223 1115.67 527.897 1125.83 527.897Z" fill="#307EF3"/>
<path d="M142.262 473.009C163.178 473.009 180.133 455.662 180.133 434.264C180.133 412.866 163.178 395.519 142.262 395.519C121.347 395.519 104.392 412.866 104.392 434.264C104.392 455.662 121.347 473.009 142.262 473.009Z" fill="white"/>
<path d="M970.105 850.77C1006.07 850.77 1035.23 820.955 1035.23 784.177C1035.23 747.399 1006.07 717.585 970.105 717.585C934.138 717.585 904.981 747.399 904.981 784.177C904.981 820.955 934.138 850.77 970.105 850.77Z" fill="white"/>
<path d="M1169.72 454.443C1169.72 457.582 1167.18 460.094 1164.06 460.094C1160.93 460.094 1158.4 457.582 1158.4 454.443C1158.4 451.304 1160.93 448.793 1164.06 448.793C1167.18 448.793 1169.72 451.323 1169.72 454.443Z" fill="#307EF3"/>
<path d="M1202.99 1034C1262.02 1034 1309.88 984.49 1309.88 923.416C1309.88 862.343 1262.02 812.833 1202.99 812.833C1143.96 812.833 1096.1 862.343 1096.1 923.416C1096.1 984.49 1143.96 1034 1202.99 1034Z" fill="#307EF3"/>
<path d="M5.99915 207.849C-40.5497 228.905 201.143 87.3327 135.184 192.109C115.705 223.041 226.851 438.299 431.423 364.442C592.933 306.131 604.641 564.248 662.984 681.98C687.285 731.037 688.741 760.976 711.676 786.138C797.639 880.577 980.686 878.095 1066.94 734.794C1101.78 676.933 1085.34 625.499 1151.18 537.949C1179.17 500.753 1200.11 472.948 1240.73 451.712C1288.26 426.863 1322.25 432.164 1340.81 402.6C1357.9 375.366 1339.61 354.387 1360.99 326.34C1380.08 301.319 1431.03 288.032 1436.33 272.222C1453.85 220.038 1328.43 143.942 1285.72 117.443C1162.04 40.7222 984.88 12.607 829.864 18.5182C744.972 21.8456 82.1627 173.585 5.99915 207.849Z" fill="#307EF3"/>
</svg>
