<svg  viewBox="0 0 1440 1034" fill="none" xmlns="http://www.w3.org/2000/svg">
<path d="M1480.5 756C1581.84 756 1664 681.903 1664 590.5C1664 499.097 1581.84 425 1480.5 425C1379.16 425 1297 499.097 1297 590.5C1297 681.903 1379.16 756 1480.5 756Z" fill="white"/>
<path d="M354.714 -115.657C255.976 -47.3711 178.149 44.3211 138.44 150.665C50.3529 386.558 179.034 695.526 457.167 768.171C716.996 836.054 1014.87 692.614 1061.86 445.293C1087.57 309.929 1107.26 179.346 1261.41 115.803C1292.85 102.846 1326.43 94.1095 1356.83 79.2471C1523.43 -2.10649 1266.6 -119.943 1192.42 -154.942C1024.07 -234.373 826.292 -268.172 638.871 -233.338C536.158 -214.254 437.997 -173.284 354.714 -115.657Z" fill="white"/>
<path d="M1376 407C1390.36 407 1402 396.255 1402 383C1402 369.745 1390.36 359 1376 359C1361.64 359 1350 369.745 1350 383C1350 396.255 1361.64 407 1376 407Z" fill="#307EF3"/>
<path d="M-13.5 339C16.0472 339 40 317.51 40 291C40 264.49 16.0472 243 -13.5 243C-43.0472 243 -67 264.49 -67 291C-67 317.51 -43.0472 339 -13.5 339Z" fill="white"/>
<path d="M1156 807C1206.81 807 1248 770.063 1248 724.5C1248 678.937 1206.81 642 1156 642C1105.19 642 1064 678.937 1064 724.5C1064 770.063 1105.19 807 1156 807Z" fill="white"/>
<path d="M1438 316C1438 319.889 1434.42 323 1430 323C1425.57 323 1422 319.889 1422 316C1422 312.111 1425.58 309 1430 309C1434.41 309 1438 312.134 1438 316Z" fill="#307EF3"/>
<path d="M1485 1034C1568.39 1034 1636 972.663 1636 897C1636 821.337 1568.39 760 1485 760C1401.61 760 1334 821.337 1334 897C1334 972.663 1401.61 1034 1485 1034Z" fill="#307EF3"/>
<path d="M-206 10.5C-271.76 36.5868 69.6815 -138.805 -23.4998 -9C-51.0182 29.3214 106 296 395 204.5C623.166 132.26 639.706 452.035 722.128 597.891C756.459 658.666 758.515 695.757 790.915 726.93C912.356 843.928 1170.95 840.853 1292.8 663.321C1342.02 591.638 1318.79 527.918 1411.81 419.453C1451.35 373.373 1480.92 338.926 1538.32 312.617C1605.46 281.832 1653.48 288.399 1679.7 251.773C1703.84 218.034 1678 192.044 1708.2 157.297C1735.17 126.299 1807.16 109.838 1814.65 90.251C1839.39 25.6006 1662.22 -68.6724 1601.87 -101.501C1427.14 -196.549 1176.87 -231.381 957.88 -224.057C837.954 -219.935 -98.4034 -31.949 -206 10.5Z" fill="#307EF3"/>
<g clip-path="url(#clip0_153_11331)">
<path d="M1100.72 276.08C1097.15 260.283 1085.26 249.466 1074.1 251.955L1068.27 252.86C1067.55 252.899 1066.84 253.005 1066.14 253.177C1054.98 255.666 1048.79 270.512 1052.31 286.309C1055.84 302.105 1067.77 312.923 1078.94 310.433L1084.77 309.528C1085.48 309.489 1086.19 309.383 1086.89 309.211C1098.06 306.676 1104.25 291.876 1100.72 276.08Z" fill="white"/>
<path d="M1247.26 678.773C1247.26 678.773 1247.98 683.979 1248.57 690.904C1249.66 702.672 1251.83 711.381 1248.57 715.5C1243.51 722.018 1202.65 768.256 1135.16 788.307C1067.68 808.358 958.884 810.259 946.319 800.754C933.753 791.249 924.532 765.631 924.532 765.631C924.532 765.631 837.568 769.795 808.142 729.693C778.717 689.591 772.299 597.076 818.9 512.029C865.501 426.982 918.34 412.453 918.34 412.453C917.3 411.322 906.226 398.241 918.34 374.614C934.296 343.474 983.79 324.283 983.79 324.283L1071.16 319.078C1095.89 322.237 1118.63 334.304 1135.12 353.024C1157.72 378.824 1153.65 395.208 1151.48 400.187C1151.29 400.745 1151.03 401.276 1150.71 401.771C1150.71 401.771 1337.8 463.282 1349.19 565.257C1360.58 667.232 1247.26 678.773 1247.26 678.773Z" fill="#B2C3FF"/>
<path d="M1151.53 400.187C1124.39 416.855 1094.57 428.664 1063.39 435.084C986.773 452.012 918.34 412.453 918.34 412.453C917.3 411.322 906.226 398.241 918.34 374.614C934.296 343.474 983.789 324.283 983.789 324.283L1071.16 319.078C1095.89 322.237 1118.63 334.304 1135.12 353.024C1157.72 378.824 1153.7 395.208 1151.53 400.187Z" fill="#B2C3FF"/>
<path d="M996.491 381.72C996.491 381.72 961.822 363.616 963.902 353.024C965.981 342.433 999.61 335.327 1021.12 339.446C1042.64 343.565 1093.44 343.972 1093.44 362.71C1093.44 379.095 1070.08 394.891 1070.08 394.891L1021.03 380.679L996.491 381.72Z" fill="#534579"/>
<path d="M995.271 327.452L996.491 381.766C996.491 381.766 1006.57 397.11 1038.35 399.011C1061.99 400.414 1069.99 394.892 1069.99 394.892L1066.1 367.463L1062.26 340.759L1004.9 329.307L995.271 327.452Z" fill="#F28D95"/>
<path d="M1004.9 329.307C1005.19 331.122 1005.77 332.879 1006.62 334.512C1019.32 361.352 1052.63 366.467 1066.28 367.372L1062.44 340.668L1004.9 329.307Z" fill="#2D2D2C"/>
<path d="M1071.84 216.741C1071.84 216.741 1101.76 284.136 1091.41 322.201C1081.06 360.266 1046.44 354.473 1025.69 347.276C1013.97 343.527 1003.47 336.678 995.316 327.452C989.435 329.229 983.143 329.1 977.34 327.084C971.536 325.068 966.517 321.268 962.998 316.227C949.98 298.348 957.8 277.664 968.783 272.821C979.767 267.978 992.92 275.898 992.92 275.898L982.524 256.345C982.524 256.345 1025.06 156.226 1071.84 216.741Z" fill="#F28D95"/>
<path d="M1069.22 302.829H1068.54C1067.95 302.632 1067.47 302.215 1067.18 301.667C1066.89 301.119 1066.83 300.481 1067 299.887C1070.8 287.576 1061.58 274.178 1061.49 274.042C1061.21 273.538 1061.13 272.95 1061.26 272.39C1061.39 271.83 1061.72 271.336 1062.19 271.002C1062.65 270.668 1063.23 270.517 1063.8 270.577C1064.37 270.636 1064.9 270.903 1065.29 271.327C1065.74 271.96 1075.95 286.761 1071.48 301.29C1071.3 301.747 1070.99 302.139 1070.59 302.414C1070.18 302.689 1069.71 302.834 1069.22 302.829Z" fill="#2D2D2C"/>
<path d="M990.027 307.808C989.383 307.799 988.767 307.539 988.31 307.084L970.23 287.621C970.01 287.406 969.835 287.149 969.715 286.866C969.596 286.582 969.534 286.277 969.534 285.969C969.534 285.661 969.596 285.357 969.715 285.073C969.835 284.789 970.01 284.532 970.23 284.317C970.675 283.894 971.265 283.658 971.879 283.658C972.493 283.658 973.084 283.894 973.529 284.317L991.609 303.78C991.829 303.995 992.004 304.252 992.124 304.535C992.243 304.819 992.304 305.124 992.304 305.432C992.304 305.74 992.243 306.044 992.124 306.328C992.004 306.612 991.829 306.869 991.609 307.084C991.189 307.512 990.625 307.769 990.027 307.808Z" fill="black"/>
<path d="M970.591 302.603C970.087 302.501 969.63 302.236 969.291 301.849C968.952 301.462 968.749 300.974 968.713 300.46C968.677 299.947 968.81 299.435 969.092 299.005C969.375 298.574 969.79 298.248 970.275 298.077L982.931 296.176C983.234 296.124 983.544 296.134 983.844 296.204C984.143 296.275 984.425 296.405 984.674 296.586C984.922 296.767 985.132 296.997 985.291 297.26C985.449 297.524 985.554 297.817 985.598 298.122C985.689 298.733 985.536 299.356 985.173 299.856C984.809 300.356 984.263 300.692 983.654 300.792L970.953 302.693L970.591 302.603Z" fill="black"/>
<path d="M992.875 275.899C993.866 276.536 994.981 276.957 996.146 277.133C997.311 277.309 998.5 277.237 999.636 276.921C1000.77 276.604 1001.83 276.052 1002.73 275.298C1003.64 274.545 1004.38 273.608 1004.9 272.549C1009.96 264.628 998.886 241.183 998.886 241.183C998.886 241.183 1019.81 245.935 1032.74 239.01C1045.67 232.085 1052 213.03 1052 213.03C1052 213.03 1061.49 232.9 1090.01 224.164C1118.53 215.429 1124 176.549 1093.54 168.628C1063.07 160.707 1046.44 174.15 1046.44 174.15C1046.44 174.15 1042.59 145.952 1004.9 159.893C970.591 172.566 964.805 215.61 964.805 215.61C958.669 216.14 952.895 218.745 948.434 222.998C943.973 227.252 941.091 232.899 940.262 239.01C936.284 261.641 962.5 277.709 962.5 277.709C967.128 275.215 972.242 273.761 977.488 273.449C982.734 273.136 987.985 273.972 992.875 275.899Z" fill="#2D2D2C"/>
<path d="M1038.66 277.618C1038.1 277.622 1037.55 277.417 1037.12 277.041C1036.7 276.665 1036.42 276.146 1036.36 275.582L1034.73 262.999C1034.69 262.692 1034.7 262.379 1034.78 262.079C1034.86 261.78 1035 261.499 1035.19 261.254C1035.38 261.009 1035.62 260.804 1035.89 260.653C1036.16 260.502 1036.46 260.407 1036.76 260.374C1037.07 260.329 1037.38 260.348 1037.67 260.427C1037.97 260.507 1038.25 260.646 1038.49 260.837C1038.73 261.028 1038.93 261.265 1039.08 261.536C1039.22 261.807 1039.31 262.104 1039.34 262.41L1040.97 274.993C1041.03 275.609 1040.86 276.226 1040.48 276.716C1040.1 277.205 1039.55 277.528 1038.93 277.618H1038.66Z" fill="#2D2D2C"/>
<path d="M1076 274.631C1075.44 274.627 1074.9 274.424 1074.48 274.06C1074.06 273.695 1073.78 273.191 1073.69 272.639L1071.84 260.057C1071.88 259.53 1072.11 259.034 1072.47 258.649C1072.83 258.264 1073.31 258.012 1073.83 257.934C1074.35 257.855 1074.89 257.955 1075.35 258.217C1075.8 258.479 1076.16 258.888 1076.36 259.378L1078.21 271.961C1078.29 272.572 1078.13 273.189 1077.75 273.68C1077.38 274.171 1076.83 274.496 1076.22 274.586L1076 274.631Z" fill="#2D2D2C"/>
<path d="M1026.91 253.494C1026.55 253.496 1026.19 253.403 1025.87 253.222C1025.6 253.088 1025.35 252.9 1025.15 252.668C1024.95 252.436 1024.8 252.166 1024.71 251.874C1024.61 251.582 1024.58 251.274 1024.61 250.969C1024.64 250.664 1024.73 250.368 1024.88 250.099C1029.4 241.047 1040.88 243.401 1041.37 243.491C1041.72 243.505 1042.05 243.594 1042.36 243.752C1042.66 243.91 1042.93 244.133 1043.14 244.406C1043.35 244.678 1043.5 244.993 1043.57 245.329C1043.65 245.664 1043.65 246.013 1043.57 246.349C1043.5 246.684 1043.35 247 1043.15 247.273C1042.94 247.546 1042.67 247.77 1042.37 247.93C1042.06 248.089 1041.73 248.179 1041.38 248.194C1041.04 248.209 1040.7 248.149 1040.38 248.017C1040.06 248.017 1031.97 246.343 1028.99 252.181C1028.79 252.568 1028.5 252.894 1028.13 253.125C1027.76 253.356 1027.34 253.484 1026.91 253.494Z" fill="#2D2D2C"/>
<path d="M1063.39 245.709C1062.92 245.707 1062.46 245.565 1062.08 245.302C1061.82 245.129 1061.6 244.907 1061.43 244.649C1061.26 244.39 1061.15 244.1 1061.09 243.796C1061.04 243.493 1061.05 243.181 1061.11 242.88C1061.18 242.578 1061.31 242.294 1061.49 242.043C1062.27 240.759 1063.33 239.667 1064.59 238.845C1065.85 238.023 1067.28 237.492 1068.77 237.29C1073.1 237.253 1077.29 238.871 1080.47 241.816C1080.9 242.262 1081.13 242.854 1081.13 243.468C1081.13 244.083 1080.9 244.675 1080.47 245.12C1080.06 245.586 1079.49 245.871 1078.87 245.913C1078.25 245.955 1077.64 245.752 1077.17 245.347C1074.95 243.331 1072.08 242.189 1069.08 242.133C1068.26 242.284 1067.48 242.609 1066.8 243.085C1066.11 243.561 1065.53 244.178 1065.1 244.894C1064.89 245.142 1064.63 245.343 1064.33 245.483C1064.04 245.623 1063.71 245.7 1063.39 245.709Z" fill="#2D2D2C"/>
<path d="M1284.28 581.732C1284.28 581.732 1310.77 567.158 1314.92 603.639C1319.08 640.12 1305.88 671.124 1273.48 678.366C1254.04 682.892 1251.69 671.124 1251.69 671.124L1284.28 581.732Z" fill="#B2C3FF"/>
<path d="M1297.84 663.746C1297.27 663.734 1296.72 663.508 1296.3 663.113L1276.37 645.008C1275.94 644.568 1275.69 643.974 1275.69 643.356C1275.69 642.738 1275.94 642.144 1276.37 641.704C1276.81 641.28 1277.4 641.044 1278.02 641.044C1278.63 641.044 1279.22 641.28 1279.67 641.704L1299.56 659.809C1299.78 660.024 1299.95 660.281 1300.07 660.564C1300.19 660.848 1300.25 661.153 1300.25 661.461C1300.25 661.769 1300.19 662.073 1300.07 662.357C1299.95 662.641 1299.78 662.898 1299.56 663.113C1299.33 663.328 1299.06 663.495 1298.76 663.604C1298.47 663.713 1298.15 663.761 1297.84 663.746Z" fill="#8493C7"/>
<path d="M1239.98 550.275H1239.62C1239.22 550.252 1238.83 550.127 1238.49 549.911C1238.16 549.695 1237.88 549.395 1237.69 549.041C1237.5 548.687 1237.4 548.291 1237.41 547.889C1237.41 547.486 1237.52 547.093 1237.72 546.745C1238.99 544.572 1268.82 494.196 1291.01 504.335C1292.98 504.925 1294.64 506.253 1295.65 508.041C1296.66 509.829 1296.94 511.939 1296.44 513.93C1292.91 528.459 1251.42 550.275 1239.98 550.275ZM1284.73 507.639C1271.17 507.639 1253.09 531.22 1244.28 544.935C1258.33 541.268 1289.48 522.937 1291.92 512.844C1292.23 511.531 1292.14 509.947 1289.07 508.589C1287.71 507.96 1286.23 507.636 1284.73 507.639Z" fill="#8493C7"/>
<path d="M1226.74 544.346C1226.18 544.351 1225.64 544.152 1225.21 543.785C1224.79 543.419 1224.51 542.91 1224.43 542.354C1219.19 503.972 1184.21 462.92 1183.75 462.513C1183.55 462.283 1183.39 462.014 1183.29 461.722C1183.19 461.43 1183.15 461.121 1183.17 460.813C1183.19 460.505 1183.27 460.204 1183.41 459.928C1183.55 459.653 1183.75 459.408 1183.98 459.209C1184.45 458.803 1185.06 458.6 1185.68 458.642C1186.29 458.685 1186.87 458.969 1187.28 459.435C1188.73 461.155 1223.44 501.981 1228.91 541.721C1228.99 542.332 1228.82 542.949 1228.45 543.44C1228.08 543.931 1227.53 544.256 1226.92 544.346H1226.74Z" fill="#8493C7"/>
<path d="M1288.8 556.34C1288.8 556.34 1308.69 567.067 1289.07 593.229C1269.45 619.39 1267.01 574.762 1267.01 574.762L1288.8 556.34Z" fill="#F28D95"/>
<path d="M1220.73 633.149C1220.73 633.149 1210.6 677.959 1247.31 678.728C1284.01 679.498 1289.07 627.356 1289.07 627.356L1220.73 633.149Z" fill="#F28D95"/>
<path d="M1314.92 623.509L1283.51 621.427C1283.21 621.41 1282.91 621.332 1282.64 621.2C1282.37 621.068 1282.12 620.883 1281.92 620.656C1281.72 620.429 1281.56 620.164 1281.46 619.877C1281.36 619.59 1281.32 619.286 1281.34 618.983C1281.36 618.673 1281.44 618.371 1281.57 618.092C1281.71 617.813 1281.89 617.563 1282.12 617.357C1282.36 617.151 1282.62 616.993 1282.92 616.891C1283.21 616.789 1283.52 616.747 1283.83 616.765L1315.11 618.847C1315.41 618.864 1315.7 618.941 1315.98 619.074C1316.25 619.206 1316.5 619.391 1316.7 619.618C1316.9 619.845 1317.05 620.11 1317.15 620.397C1317.25 620.684 1317.29 620.988 1317.28 621.291C1317.24 621.891 1316.98 622.456 1316.54 622.868C1316.1 623.281 1315.53 623.51 1314.92 623.509Z" fill="#8493C7"/>
<path d="M1073.69 606.219C1073.69 606.219 1126.8 546.79 1148.41 542.626C1170.01 538.462 1217.56 556.748 1216.61 562.632C1215.67 568.516 1168.84 568.063 1168.84 568.063C1168.84 568.063 1186.92 617.218 1185.65 627.356C1184.39 637.495 1156.32 662.932 1150.76 665.014C1145.2 667.096 1135.21 648.584 1135.21 648.584C1124.41 657.465 1111.39 663.21 1097.56 665.195C1076.81 667.096 1059.14 633.15 1059.14 633.15L1073.69 606.219Z" fill="#F28D95"/>
<path d="M1282.35 534.796L1232.64 511.963C1227.35 509.534 1221.1 511.858 1218.68 517.152L1171.57 620.003C1169.14 625.297 1171.46 631.557 1176.75 633.985L1226.46 656.818C1231.75 659.247 1238 656.923 1240.42 651.629L1287.54 548.778C1289.96 543.484 1287.64 537.224 1282.35 534.796Z" fill="white"/>
<path d="M1289.93 538.264L1240.22 515.43C1234.93 513.002 1228.68 515.325 1226.26 520.619L1179.15 623.471C1176.72 628.765 1179.04 635.025 1184.33 637.453L1234.04 660.286C1239.33 662.714 1245.58 660.391 1248 655.097L1295.12 552.246C1297.54 546.952 1295.22 540.692 1289.93 538.264Z" fill="#2D2D2C"/>
<path d="M1280.39 611.605C1280.39 611.605 1312.76 612.465 1305.03 596.397C1297.3 580.329 1240.71 565.166 1232.12 581.551C1223.53 597.936 1280.39 611.605 1280.39 611.605Z" fill="#F28D95"/>
<path d="M1273.21 637.449C1273.21 637.449 1305.57 638.264 1297.84 622.241C1290.11 606.219 1233.52 591.011 1224.98 607.35C1216.43 623.69 1273.21 637.449 1273.21 637.449Z" fill="#F28D95"/>
<path d="M1251.69 656.867C1258.16 660.235 1265.42 661.799 1272.71 661.393C1279.17 660.895 1285.14 658.541 1282.97 650.937C1278.45 635.775 1231.58 614.004 1221.63 626.994C1214.22 636.544 1238.76 650.666 1251.69 656.867Z" fill="#F28D95"/>
<path d="M1288.8 609.116H1288.3L1244.68 599.611C1244.08 599.47 1243.56 599.097 1243.23 598.571C1242.9 598.046 1242.79 597.411 1242.92 596.804C1242.99 596.507 1243.11 596.225 1243.28 595.974C1243.45 595.724 1243.68 595.511 1243.93 595.347C1244.19 595.183 1244.48 595.071 1244.77 595.018C1245.07 594.966 1245.38 594.973 1245.68 595.039L1289.3 604.59C1289.6 604.649 1289.88 604.767 1290.14 604.939C1290.39 605.111 1290.61 605.332 1290.78 605.589C1290.95 605.846 1291.06 606.134 1291.12 606.437C1291.18 606.739 1291.17 607.05 1291.1 607.35C1290.97 607.857 1290.67 608.303 1290.25 608.622C1289.83 608.941 1289.32 609.115 1288.8 609.116Z" fill="#2D2D2C"/>
<path d="M1277.82 635.503H1277.32L1233.7 625.998C1233.4 625.934 1233.11 625.81 1232.85 625.634C1232.6 625.458 1232.38 625.233 1232.21 624.972C1232.05 624.711 1231.93 624.419 1231.88 624.114C1231.82 623.808 1231.83 623.495 1231.89 623.192C1232.03 622.587 1232.41 622.062 1232.93 621.732C1233.46 621.401 1234.09 621.291 1234.69 621.427L1278.31 630.977C1278.61 631.041 1278.89 631.164 1279.14 631.338C1279.39 631.512 1279.6 631.733 1279.77 631.99C1279.93 632.247 1280.04 632.533 1280.1 632.833C1280.15 633.133 1280.14 633.441 1280.08 633.738C1279.95 634.244 1279.66 634.695 1279.25 635.015C1278.84 635.336 1278.34 635.508 1277.82 635.503Z" fill="#2D2D2C"/>
<path d="M1054.03 581.732C1054.03 581.732 1079.75 578.337 1084.09 584.403C1088.43 590.468 1106.1 674.111 1093.13 678.366C1080.16 682.621 1067.32 686.875 1067.32 686.875C1067.32 686.875 1035.41 656.686 1054.03 581.732Z" fill="#B2C3FF"/>
<path d="M1248.57 715C1243.51 721.518 1202.65 768.256 1135.16 788.307C1064.85 810.954 954.089 811.47 946.319 800.754C933.753 791.249 924.532 765.631 924.532 765.631C924.532 765.631 986.773 788.262 1084.09 768.075C1144.03 755.103 1200.26 728.721 1248.57 690.904C1249.66 702.672 1251.83 710.881 1248.57 715Z" fill="#B2C3FF"/>
<path d="M1033.92 443.412C962.094 439.429 934.476 422.909 933.075 422.23C932.773 422.091 932.504 421.89 932.285 421.639C932.066 421.388 931.903 421.094 931.806 420.775C931.71 420.457 931.681 420.121 931.724 419.791C931.766 419.461 931.878 419.143 932.052 418.859C932.226 418.576 932.458 418.332 932.732 418.145C933.007 417.957 933.319 417.831 933.646 417.773C933.974 417.715 934.31 417.727 934.632 417.809C934.954 417.891 935.256 418.04 935.516 418.247C935.787 418.247 963.766 434.813 1034.05 438.75C1034.67 438.797 1035.24 439.084 1035.65 439.55C1036.05 440.016 1036.26 440.623 1036.22 441.24C1036.19 441.828 1035.93 442.381 1035.5 442.785C1035.07 443.189 1034.5 443.413 1033.92 443.412Z" fill="#8493C7"/>
<path d="M1035.68 525.245C1035.37 525.239 1035.07 525.173 1034.78 525.049C1034.5 524.925 1034.24 524.747 1034.03 524.524C1033.82 524.301 1033.65 524.039 1033.54 523.751C1033.42 523.463 1033.37 523.156 1033.37 522.847L1035.32 464.595C1035.36 463.978 1035.64 463.402 1036.09 462.982C1036.55 462.562 1037.14 462.33 1037.76 462.332C1038.06 462.343 1038.36 462.414 1038.63 462.541C1038.91 462.668 1039.16 462.848 1039.36 463.071C1039.57 463.294 1039.73 463.555 1039.83 463.84C1039.94 464.125 1039.99 464.427 1039.97 464.73L1038.03 522.982C1038.01 523.591 1037.75 524.166 1037.31 524.588C1036.87 525.01 1036.29 525.246 1035.68 525.245Z" fill="#8493C7"/>
<path d="M1130.6 507.639C1130.19 507.639 1129.79 507.535 1129.44 507.337C1129.08 507.139 1128.78 506.853 1128.57 506.507L1099.59 457.398C1099.43 457.135 1099.32 456.842 1099.28 456.536C1099.23 456.231 1099.24 455.919 1099.32 455.619C1099.4 455.319 1099.53 455.038 1099.72 454.791C1099.9 454.545 1100.14 454.339 1100.41 454.185C1100.94 453.869 1101.58 453.777 1102.18 453.93C1102.78 454.083 1103.3 454.467 1103.61 454.999L1132.59 504.108C1132.75 504.371 1132.86 504.665 1132.9 504.97C1132.95 505.276 1132.94 505.588 1132.86 505.888C1132.78 506.187 1132.65 506.469 1132.46 506.715C1132.28 506.962 1132.04 507.168 1131.77 507.322C1131.42 507.538 1131.01 507.647 1130.6 507.639Z" fill="#8493C7"/>
<path d="M1130.6 414.716C1130 414.86 1129.37 414.76 1128.84 414.437C1128.32 414.115 1127.94 413.596 1127.8 412.996C1127.65 412.396 1127.75 411.763 1128.08 411.237C1128.4 410.711 1128.92 410.334 1129.51 410.19L1149.58 399.599C1149.85 399.45 1150.14 399.356 1150.44 399.324C1150.75 399.291 1151.05 399.32 1151.34 399.409C1151.64 399.497 1151.91 399.644 1152.14 399.84C1152.37 400.036 1152.56 400.277 1152.7 400.549C1152.85 400.819 1152.95 401.115 1152.98 401.422C1153.01 401.729 1152.98 402.039 1152.9 402.334C1152.81 402.629 1152.66 402.904 1152.46 403.142C1152.27 403.379 1152.03 403.575 1151.75 403.718L1131.68 414.309C1131.36 414.531 1130.99 414.671 1130.6 414.716Z" fill="#8493C7"/>
<path d="M1052.81 583.09H1052.13C1051.45 582.864 984.332 563.175 886.338 571.684C885.722 571.734 885.11 571.539 884.636 571.141C884.163 570.743 883.865 570.173 883.807 569.557C883.769 568.942 883.968 568.336 884.363 567.864C884.759 567.392 885.32 567.09 885.932 567.022C984.874 558.422 1052.81 578.428 1053.49 578.609C1053.78 578.697 1054.05 578.842 1054.29 579.035C1054.52 579.229 1054.72 579.467 1054.86 579.737C1055 580.006 1055.09 580.301 1055.12 580.605C1055.15 580.908 1055.12 581.215 1055.02 581.506C1054.88 581.975 1054.58 582.383 1054.18 582.669C1053.78 582.955 1053.3 583.103 1052.81 583.09Z" fill="#8493C7"/>
<path d="M933.527 569.466C933.184 569.456 932.847 569.379 932.533 569.24C928.51 567.294 893.254 550.185 891.853 535.565C891.725 533.789 892.077 532.011 892.872 530.418C893.668 528.825 894.877 527.476 896.373 526.513C897.863 525.269 899.641 524.418 901.543 524.039C903.446 523.659 905.414 523.763 907.266 524.34C922.679 528.867 935.471 565.076 936.013 566.524C936.136 566.879 936.172 567.257 936.119 567.628C936.066 567.998 935.925 568.351 935.708 568.657C935.492 568.962 935.205 569.211 934.873 569.384C934.541 569.556 934.173 569.647 933.798 569.648L933.527 569.466ZM903.56 528.459C901.903 528.511 900.312 529.116 899.04 530.179C898.183 530.694 897.485 531.435 897.022 532.322C896.56 533.208 896.351 534.205 896.418 535.203C897.367 543.939 917.165 556.114 929.278 562.36C924.487 550.592 914.95 531.447 905.729 528.686C905.023 528.491 904.29 528.415 903.56 528.459Z" fill="#8493C7"/>
<path d="M1152.39 650.937H1135.12C1134.62 650.94 1134.14 650.783 1133.74 650.489C1133.34 650.196 1133.05 649.782 1132.9 649.308C1132.75 648.84 1132.74 648.335 1132.89 647.864C1133.03 647.393 1133.32 646.98 1133.72 646.683L1149.13 635.548C1149.64 635.274 1150.22 635.193 1150.78 635.322C1151.34 635.451 1151.83 635.78 1152.17 636.248C1152.5 636.715 1152.65 637.289 1152.59 637.861C1152.53 638.432 1152.27 638.962 1151.84 639.35L1142.4 646.14H1152.39C1152.74 646.04 1153.1 646.022 1153.46 646.089C1153.82 646.156 1154.16 646.304 1154.45 646.524C1154.74 646.743 1154.97 647.027 1155.13 647.353C1155.3 647.679 1155.38 648.039 1155.38 648.403C1155.38 648.767 1155.3 649.126 1155.13 649.452C1154.97 649.779 1154.74 650.062 1154.45 650.282C1154.16 650.501 1153.82 650.65 1153.46 650.717C1153.1 650.783 1152.74 650.766 1152.39 650.666V650.937Z" fill="#2D2D2C"/>
<path d="M983.518 807C983.053 807.006 982.597 806.871 982.209 806.612C981.822 806.354 981.522 805.984 981.349 805.551L970.139 777.399C969.928 776.821 969.946 776.185 970.19 775.62C970.434 775.056 970.885 774.607 971.45 774.366C972.026 774.143 972.666 774.155 973.233 774.401C973.8 774.646 974.247 775.105 974.478 775.679L985.688 803.967C985.899 804.545 985.881 805.181 985.637 805.746C985.393 806.31 984.942 806.759 984.377 807C984.093 807.043 983.803 807.043 983.518 807Z" fill="#8493C7"/>
<path d="M1012.76 807C1012.25 807.007 1011.75 806.841 1011.34 806.53C1010.93 806.218 1010.63 805.778 1010.5 805.28L1003.09 776.992C1002.94 776.391 1003.03 775.756 1003.34 775.222C1003.65 774.688 1004.17 774.3 1004.76 774.14C1005.36 774 1005.99 774.096 1006.52 774.408C1007.05 774.719 1007.44 775.223 1007.61 775.815L1015.02 804.103C1015.17 804.703 1015.08 805.339 1014.77 805.873C1014.46 806.406 1013.95 806.795 1013.35 806.955L1012.76 807Z" fill="#8493C7"/>
<path d="M1233.07 729.763C1232.46 729.752 1231.88 729.506 1231.44 729.077C1231 728.648 1230.75 728.067 1230.72 727.454L1230 697.355C1229.99 697.048 1230.05 696.743 1230.16 696.458C1230.28 696.173 1230.44 695.913 1230.66 695.694C1230.87 695.475 1231.13 695.3 1231.41 695.182C1231.7 695.063 1232 695.002 1232.31 695.002C1232.61 694.99 1232.91 695.039 1233.2 695.147C1233.48 695.256 1233.74 695.42 1233.96 695.632C1234.18 695.843 1234.36 696.097 1234.48 696.377C1234.6 696.658 1234.66 696.96 1234.66 697.265L1235.38 727.364C1235.39 727.981 1235.16 728.577 1234.74 729.026C1234.32 729.475 1233.73 729.739 1233.12 729.763H1233.07Z" fill="#8493C7"/>
<path d="M1209.4 749.037C1209.09 749.037 1208.79 748.976 1208.5 748.857C1208.22 748.738 1207.96 748.564 1207.75 748.345C1207.53 748.126 1207.37 747.866 1207.25 747.581C1207.14 747.295 1207.08 746.99 1207.09 746.683V715C1206.99 714.65 1206.97 714.281 1207.04 713.923C1207.11 713.565 1207.25 713.227 1207.47 712.936C1207.69 712.645 1207.98 712.409 1208.3 712.247C1208.63 712.085 1208.99 712 1209.35 712C1209.71 712 1210.07 712.085 1210.4 712.247C1210.72 712.409 1211.01 712.645 1211.23 712.936C1211.45 713.227 1211.59 713.565 1211.66 713.923C1211.73 714.281 1211.71 714.65 1211.61 715V746.683C1211.61 747.285 1211.38 747.864 1210.97 748.301C1210.56 748.739 1210 749.002 1209.4 749.037Z" fill="#8493C7"/>
<path d="M1057.1 667.865C1056.55 667.863 1056.02 667.667 1055.6 667.311C1055.18 666.955 1054.89 666.463 1054.8 665.919C1054.74 665.618 1054.74 665.308 1054.81 665.009C1054.87 664.709 1055 664.426 1055.18 664.176C1055.35 663.927 1055.58 663.716 1055.84 663.556C1056.1 663.397 1056.39 663.292 1056.7 663.249L1095.12 656.821C1095.42 656.763 1095.73 656.766 1096.03 656.831C1096.34 656.895 1096.62 657.02 1096.88 657.197C1097.13 657.374 1097.34 657.601 1097.51 657.863C1097.67 658.125 1097.78 658.417 1097.83 658.722C1097.92 659.339 1097.77 659.968 1097.41 660.475C1097.04 660.982 1096.5 661.327 1095.89 661.438L1057.47 667.82L1057.1 667.865Z" fill="#8493C7"/>
<path d="M1050.91 642.066C1050.4 641.976 1049.94 641.721 1049.59 641.341C1049.24 640.96 1049.02 640.474 1048.98 639.959C1048.93 639.444 1049.06 638.927 1049.33 638.49C1049.61 638.053 1050.02 637.719 1050.5 637.54L1092.63 630.524C1092.93 630.466 1093.24 630.469 1093.54 630.534C1093.84 630.599 1094.12 630.725 1094.37 630.902C1094.62 631.08 1094.83 631.307 1094.99 631.569C1095.15 631.83 1095.25 632.122 1095.3 632.425C1095.4 633.037 1095.26 633.666 1094.91 634.174C1094.55 634.683 1094.01 635.031 1093.4 635.141L1051.27 642.156L1050.91 642.066Z" fill="#8493C7"/>
<path d="M924.533 767.939C923.994 767.892 923.489 767.656 923.106 767.274C922.723 766.891 922.486 766.386 922.438 765.846C922.389 765.307 922.532 764.767 922.84 764.323C923.149 763.878 923.604 763.556 924.126 763.413C1018.59 746.757 1065.19 686.468 1065.65 685.744C1065.83 685.5 1066.06 685.295 1066.32 685.14C1066.59 684.986 1066.88 684.884 1067.18 684.842C1067.48 684.8 1067.79 684.818 1068.09 684.895C1068.38 684.972 1068.66 685.107 1068.9 685.291C1069.14 685.475 1069.35 685.706 1069.5 685.969C1069.66 686.233 1069.76 686.524 1069.8 686.827C1069.84 687.129 1069.83 687.437 1069.75 687.733C1069.67 688.029 1069.54 688.306 1069.35 688.55C1068.9 689.138 1021.31 751.011 924.939 768.03L924.533 767.939Z" fill="#8493C7"/>
<path d="M1004.71 292.205C1006.51 306.251 999.827 318.674 989.786 319.901C979.746 321.127 970.145 310.84 968.305 296.795C966.465 282.749 973.145 270.326 983.186 269.099C993.226 267.873 1002.87 278.16 1004.71 292.205Z" fill="white"/>
<path d="M997.714 294.206C999.465 308.251 993.004 320.674 983.196 321.901C973.388 323.127 964.086 312.841 962.295 298.795C960.505 284.75 967.044 272.327 976.813 271.101C986.582 269.874 995.923 280.002 997.714 294.206Z" fill="#B2C3FF"/>
<path d="M969.958 197.324C965.129 203.117 961.365 209.722 958.839 216.832C956.398 225.884 970.591 283.819 970.591 283.819L988.671 279.746L969.958 197.324Z" fill="#B2C3FF"/>
<path d="M1053.17 321.884C1049.81 321.727 1046.54 320.74 1043.66 319.01C1040.77 317.281 1038.36 314.863 1036.63 311.972C1036.44 311.707 1036.3 311.406 1036.23 311.086C1036.17 310.767 1036.16 310.436 1036.23 310.116C1036.3 309.796 1036.43 309.494 1036.62 309.227C1036.81 308.961 1037.05 308.737 1037.33 308.57C1037.61 308.403 1037.92 308.296 1038.25 308.256C1038.57 308.216 1038.9 308.245 1039.21 308.339C1039.52 308.433 1039.81 308.592 1040.06 308.804C1040.31 309.017 1040.51 309.279 1040.65 309.573C1042.22 312.276 1044.59 314.422 1047.43 315.712C1050.28 317.002 1053.45 317.372 1056.52 316.77C1056.83 316.651 1057.16 316.598 1057.49 316.615C1057.82 316.633 1058.14 316.72 1058.44 316.871C1058.73 317.023 1058.99 317.235 1059.2 317.494C1059.4 317.753 1059.55 318.052 1059.64 318.373C1059.72 318.694 1059.74 319.029 1059.68 319.356C1059.63 319.683 1059.5 319.995 1059.32 320.271C1059.13 320.547 1058.89 320.781 1058.61 320.958C1058.33 321.134 1058.02 321.25 1057.69 321.296C1056.22 321.682 1054.7 321.88 1053.17 321.884Z" fill="#2D2D2C"/>
</g>
<defs>
<clipPath id="clip0_153_11331">
<rect width="565" height="651" fill="white" transform="translate(785 156)"/>
</clipPath>
</defs>
</svg>
