<svg width="565" height="651" viewBox="0 0 565 651" fill="none" xmlns="http://www.w3.org/2000/svg">
<g clip-path="url(#clip0_184_733)">
<path d="M315.722 120.08C312.151 104.283 300.264 93.4656 289.099 95.955L283.269 96.8603C282.552 96.8992 281.841 97.0052 281.144 97.1771C269.98 99.6665 263.787 114.512 267.313 130.309C270.839 146.105 282.771 156.923 293.936 154.433L299.767 153.528C300.483 153.489 301.194 153.383 301.891 153.211C313.055 150.676 319.248 135.876 315.722 120.08Z" fill="white"/>
<path d="M462.26 522.773C462.26 522.773 462.984 527.979 463.571 534.904C464.656 546.672 466.826 555.381 463.571 559.5C458.509 566.018 417.648 612.256 350.164 632.307C282.681 652.358 173.884 654.259 161.319 644.754C148.753 635.249 139.532 609.631 139.532 609.631C139.532 609.631 52.5676 613.795 23.1424 573.693C-6.28276 533.591 -12.7012 441.076 33.9 356.029C80.5012 270.982 133.34 256.453 133.34 256.453C132.3 255.322 121.226 242.241 133.34 218.614C149.296 187.474 198.79 168.283 198.79 168.283L286.161 163.078C310.891 166.237 333.626 178.304 350.119 197.024C372.719 222.824 368.651 239.208 366.482 244.187C366.29 244.745 366.032 245.276 365.713 245.771C365.713 245.771 552.796 307.282 564.186 409.257C575.577 511.232 462.26 522.773 462.26 522.773Z" fill="#B2C3FF"/>
<path d="M366.527 244.187C339.392 260.855 309.567 272.663 278.387 279.084C201.773 296.012 133.34 256.453 133.34 256.453C132.3 255.322 121.226 242.241 133.34 218.614C149.296 187.474 198.789 168.283 198.789 168.283L286.161 163.078C310.891 166.237 333.626 178.304 350.119 197.024C372.719 222.824 368.696 239.208 366.527 244.187Z" fill="#B2C3FF"/>
<path d="M211.491 225.72C211.491 225.72 176.822 207.616 178.902 197.024C180.981 186.433 214.61 179.327 236.125 183.446C257.64 187.565 308.445 187.972 308.445 206.71C308.445 223.095 285.076 238.891 285.076 238.891L236.034 224.679L211.491 225.72Z" fill="#534579"/>
<path d="M210.271 171.452L211.491 225.766C211.491 225.766 221.571 241.11 253.346 243.011C276.986 244.414 284.986 238.892 284.986 238.892L281.099 211.463L277.257 184.759L219.898 173.307L210.271 171.452Z" fill="#F28D95"/>
<path d="M219.898 173.307C220.192 175.122 220.772 176.879 221.616 178.512C234.317 205.352 267.629 210.467 281.28 211.372L277.438 184.668L219.898 173.307Z" fill="#2D2D2C"/>
<path d="M286.839 60.7413C286.839 60.7413 316.762 128.136 306.411 166.201C296.06 204.266 261.437 198.473 240.69 191.276C228.967 187.527 218.473 180.678 210.316 171.452C204.435 173.229 198.143 173.1 192.34 171.084C186.536 169.068 181.517 165.268 177.998 160.227C164.98 142.348 172.8 121.664 183.783 116.821C194.767 111.978 207.92 119.898 207.92 119.898L197.524 100.345C197.524 100.345 240.057 0.226311 286.839 60.7413Z" fill="#F28D95"/>
<path d="M284.218 146.829H283.54C282.954 146.632 282.467 146.215 282.181 145.667C281.895 145.119 281.831 144.481 282.003 143.887C285.8 131.576 276.579 118.178 276.488 118.042C276.214 117.538 276.134 116.95 276.262 116.39C276.391 115.83 276.72 115.336 277.187 115.002C277.654 114.668 278.227 114.517 278.797 114.577C279.368 114.636 279.897 114.903 280.285 115.327C280.737 115.96 290.952 130.761 286.478 145.29C286.303 145.747 285.992 146.139 285.588 146.414C285.184 146.689 284.706 146.834 284.218 146.829Z" fill="#2D2D2C"/>
<path d="M205.027 151.808C204.383 151.799 203.767 151.539 203.31 151.084L185.23 131.621C185.01 131.406 184.835 131.149 184.715 130.866C184.596 130.582 184.534 130.277 184.534 129.969C184.534 129.661 184.596 129.357 184.715 129.073C184.835 128.789 185.01 128.532 185.23 128.317C185.675 127.894 186.265 127.658 186.879 127.658C187.493 127.658 188.084 127.894 188.529 128.317L206.609 147.78C206.829 147.995 207.004 148.252 207.124 148.535C207.243 148.819 207.304 149.124 207.304 149.432C207.304 149.74 207.243 150.044 207.124 150.328C207.004 150.612 206.829 150.869 206.609 151.084C206.189 151.512 205.625 151.769 205.027 151.808Z" fill="black"/>
<path d="M185.591 146.603C185.087 146.501 184.63 146.236 184.291 145.849C183.952 145.462 183.749 144.974 183.713 144.46C183.677 143.947 183.81 143.435 184.092 143.005C184.375 142.574 184.79 142.248 185.275 142.077L197.931 140.176C198.234 140.124 198.544 140.134 198.844 140.204C199.143 140.275 199.425 140.405 199.674 140.586C199.922 140.767 200.132 140.997 200.291 141.26C200.449 141.524 200.554 141.817 200.598 142.122C200.689 142.733 200.536 143.356 200.173 143.856C199.809 144.356 199.263 144.692 198.654 144.792L185.953 146.693L185.591 146.603Z" fill="black"/>
<path d="M207.875 119.899C208.866 120.536 209.981 120.957 211.146 121.133C212.311 121.309 213.5 121.237 214.636 120.921C215.771 120.604 216.826 120.052 217.733 119.298C218.64 118.545 219.378 117.608 219.898 116.549C224.96 108.628 213.886 85.1828 213.886 85.1828C213.886 85.1828 234.814 89.9353 247.741 83.0102C260.668 76.0852 266.996 57.0299 266.996 57.0299C266.996 57.0299 276.488 76.8999 305.009 68.1644C333.531 59.4288 339 20.549 308.535 12.6282C278.07 4.70735 261.437 18.1501 261.437 18.1501C261.437 18.1501 257.595 -10.0479 219.898 3.89267C185.591 16.566 179.805 59.6099 179.805 59.6099C173.669 60.1397 167.895 62.7454 163.434 66.9985C158.973 71.2516 156.091 76.8985 155.262 83.0102C151.284 105.641 177.5 121.709 177.5 121.709C182.128 119.215 187.242 117.761 192.488 117.449C197.734 117.136 202.985 117.972 207.875 119.899Z" fill="#2D2D2C"/>
<path d="M253.662 121.618C253.095 121.622 252.547 121.417 252.121 121.041C251.696 120.665 251.424 120.146 251.357 119.582L249.73 106.999C249.686 106.692 249.704 106.379 249.783 106.079C249.862 105.78 250 105.499 250.19 105.254C250.38 105.009 250.617 104.804 250.888 104.653C251.158 104.502 251.456 104.407 251.764 104.374C252.068 104.329 252.378 104.348 252.675 104.427C252.971 104.507 253.249 104.646 253.49 104.837C253.731 105.028 253.931 105.265 254.077 105.536C254.223 105.807 254.313 106.104 254.34 106.41L255.968 118.993C256.033 119.609 255.857 120.226 255.478 120.716C255.099 121.205 254.545 121.528 253.934 121.618H253.662Z" fill="#2D2D2C"/>
<path d="M290.998 118.631C290.44 118.627 289.902 118.424 289.479 118.06C289.057 117.695 288.778 117.191 288.692 116.639L286.839 104.057C286.885 103.53 287.107 103.034 287.468 102.649C287.83 102.264 288.31 102.012 288.832 101.934C289.354 101.855 289.887 101.955 290.345 102.217C290.804 102.479 291.161 102.888 291.359 103.378L293.212 115.961C293.29 116.572 293.125 117.189 292.753 117.68C292.381 118.171 291.832 118.496 291.224 118.586L290.998 118.631Z" fill="#2D2D2C"/>
<path d="M241.91 97.4939C241.546 97.4962 241.188 97.4025 240.871 97.2224C240.595 97.0884 240.35 96.8999 240.15 96.6681C239.949 96.4364 239.798 96.1663 239.705 95.8742C239.612 95.5822 239.579 95.2743 239.609 94.9692C239.638 94.6641 239.729 94.3681 239.876 94.0993C244.396 85.047 255.877 87.4005 256.374 87.4911C256.718 87.505 257.054 87.5941 257.359 87.752C257.664 87.91 257.931 88.1331 258.141 88.4055C258.35 88.6779 258.498 88.993 258.573 89.3287C258.648 89.6644 258.649 90.0125 258.575 90.3485C258.501 90.6845 258.355 91.0001 258.146 91.2733C257.937 91.5464 257.671 91.7704 257.366 91.9295C257.062 92.0886 256.726 92.179 256.383 92.1941C256.04 92.2093 255.697 92.1489 255.38 92.0172C255.064 92.0172 246.973 90.3426 243.99 96.1814C243.794 96.5678 243.497 96.8939 243.131 97.125C242.765 97.3561 242.343 97.4836 241.91 97.4939Z" fill="#2D2D2C"/>
<path d="M278.387 89.7089C277.919 89.7067 277.463 89.5649 277.076 89.3015C276.82 89.1292 276.601 88.9071 276.433 88.6486C276.264 88.3901 276.149 88.1004 276.094 87.7965C276.04 87.4926 276.046 87.1808 276.114 86.8796C276.182 86.5784 276.309 86.2938 276.488 86.0427C277.273 84.7594 278.333 83.6671 279.592 82.8451C280.851 82.0231 282.276 81.4919 283.766 81.2902C288.101 81.2528 292.287 82.8713 295.472 85.8164C295.895 86.2622 296.131 86.8536 296.131 87.4684C296.131 88.0833 295.895 88.6746 295.472 89.1205C295.063 89.5859 294.487 89.8707 293.869 89.9131C293.251 89.9555 292.642 89.752 292.173 89.3468C289.953 87.3306 287.078 86.1889 284.082 86.1332C283.261 86.2842 282.482 86.6085 281.796 87.0846C281.11 87.5606 280.534 88.1775 280.104 88.8942C279.891 89.1423 279.627 89.3428 279.331 89.4831C279.036 89.6234 278.714 89.7003 278.387 89.7089Z" fill="#2D2D2C"/>
<path d="M499.279 425.732C499.279 425.732 525.766 411.158 529.925 447.639C534.083 484.12 520.885 515.124 488.476 522.366C469.04 526.892 466.69 515.124 466.69 515.124L499.279 425.732Z" fill="#B2C3FF"/>
<path d="M512.839 507.746C512.266 507.734 511.718 507.508 511.302 507.113L491.369 489.008C490.936 488.568 490.693 487.974 490.693 487.356C490.693 486.738 490.936 486.144 491.369 485.704C491.814 485.28 492.405 485.044 493.019 485.044C493.633 485.044 494.224 485.28 494.669 485.704L514.557 503.809C514.777 504.024 514.952 504.281 515.071 504.564C515.191 504.848 515.252 505.153 515.252 505.461C515.252 505.769 515.191 506.073 515.071 506.357C514.952 506.641 514.777 506.898 514.557 507.113C514.327 507.328 514.057 507.495 513.762 507.604C513.467 507.713 513.153 507.761 512.839 507.746Z" fill="#8493C7"/>
<path d="M454.983 394.275H454.622C454.221 394.252 453.832 394.127 453.494 393.911C453.155 393.695 452.877 393.395 452.687 393.041C452.497 392.687 452.4 392.291 452.406 391.889C452.413 391.486 452.522 391.093 452.723 390.745C453.989 388.572 483.821 338.196 506.014 348.335C507.979 348.925 509.641 350.253 510.652 352.041C511.662 353.829 511.944 355.939 511.438 357.93C507.912 372.459 466.419 394.275 454.983 394.275ZM499.731 351.639C486.171 351.639 468.091 375.22 459.277 388.935C473.334 385.268 504.477 366.937 506.918 356.844C507.234 355.531 507.144 353.947 504.07 352.589C502.71 351.96 501.229 351.636 499.731 351.639Z" fill="#8493C7"/>
<path d="M441.74 388.346C441.179 388.351 440.636 388.152 440.212 387.785C439.788 387.419 439.511 386.91 439.434 386.354C434.191 347.972 399.206 306.92 398.754 306.513C398.548 306.283 398.391 306.014 398.29 305.722C398.19 305.43 398.149 305.121 398.17 304.813C398.191 304.505 398.274 304.204 398.413 303.928C398.552 303.653 398.745 303.408 398.98 303.209C399.449 302.803 400.059 302.6 400.677 302.642C401.295 302.685 401.871 302.969 402.28 303.435C403.726 305.155 438.44 345.981 443.909 385.721C443.987 386.332 443.822 386.949 443.45 387.44C443.078 387.931 442.529 388.256 441.92 388.346H441.74Z" fill="#8493C7"/>
<path d="M503.799 400.34C503.799 400.34 523.687 411.067 504.07 437.229C484.454 463.39 482.013 418.762 482.013 418.762L503.799 400.34Z" fill="#F28D95"/>
<path d="M435.728 477.149C435.728 477.149 425.603 521.959 462.306 522.728C499.008 523.498 504.07 471.356 504.07 471.356L435.728 477.149Z" fill="#F28D95"/>
<path d="M529.925 467.509L498.511 465.427C498.208 465.41 497.911 465.332 497.638 465.2C497.365 465.068 497.121 464.883 496.919 464.656C496.718 464.429 496.563 464.164 496.464 463.877C496.364 463.59 496.323 463.286 496.341 462.983C496.358 462.673 496.436 462.371 496.571 462.092C496.705 461.813 496.893 461.563 497.124 461.357C497.355 461.151 497.625 460.993 497.917 460.891C498.209 460.789 498.518 460.747 498.827 460.765L530.106 462.847C530.408 462.864 530.705 462.941 530.978 463.074C531.251 463.206 531.495 463.391 531.697 463.618C531.899 463.845 532.053 464.11 532.153 464.397C532.252 464.684 532.293 464.988 532.275 465.291C532.24 465.891 531.978 466.456 531.541 466.868C531.103 467.281 530.525 467.51 529.925 467.509Z" fill="#8493C7"/>
<path d="M288.692 450.219C288.692 450.219 341.802 390.79 363.408 386.626C385.014 382.462 432.564 400.748 431.615 406.632C430.666 412.516 383.838 412.063 383.838 412.063C383.838 412.063 401.918 461.218 400.653 471.356C399.387 481.495 371.318 506.932 365.758 509.014C360.199 511.096 350.21 492.584 350.21 492.584C339.412 501.465 326.389 507.21 312.558 509.195C291.811 511.096 274.138 477.15 274.138 477.15L288.692 450.219Z" fill="#F28D95"/>
<path d="M497.353 378.796L447.642 355.963C442.355 353.534 436.103 355.858 433.678 361.152L386.567 464.003C384.142 469.297 386.462 475.557 391.748 477.985L441.46 500.818C446.747 503.247 452.999 500.923 455.424 495.629L502.535 392.778C504.96 387.484 502.64 381.224 497.353 378.796Z" fill="white"/>
<path d="M504.933 382.264L455.221 359.43C449.935 357.002 443.683 359.325 441.258 364.619L394.146 467.471C391.721 472.765 394.041 479.025 399.328 481.453L449.04 504.286C454.327 506.714 460.579 504.391 463.004 499.097L510.115 396.246C512.54 390.952 510.22 384.692 504.933 382.264Z" fill="#2D2D2C"/>
<path d="M495.392 455.605C495.392 455.605 527.755 456.465 520.026 440.397C512.297 424.329 455.706 409.166 447.118 425.551C438.53 441.936 495.392 455.605 495.392 455.605Z" fill="#F28D95"/>
<path d="M488.205 481.449C488.205 481.449 520.568 482.264 512.839 466.241C505.11 450.219 448.52 435.011 439.977 451.35C431.434 467.69 488.205 481.449 488.205 481.449Z" fill="#F28D95"/>
<path d="M466.69 500.867C473.164 504.235 480.423 505.799 487.708 505.393C494.172 504.895 500.138 502.541 497.968 494.937C493.448 479.775 446.576 458.004 436.632 470.994C429.219 480.544 453.763 494.666 466.69 500.867Z" fill="#F28D95"/>
<path d="M503.799 453.116H503.302L459.684 443.611C459.08 443.47 458.556 443.097 458.225 442.571C457.895 442.046 457.786 441.411 457.921 440.804C457.985 440.507 458.108 440.225 458.281 439.974C458.455 439.724 458.676 439.511 458.933 439.347C459.189 439.183 459.475 439.071 459.775 439.018C460.074 438.966 460.381 438.973 460.678 439.039L504.296 448.59C504.598 448.649 504.884 448.767 505.139 448.939C505.394 449.111 505.612 449.332 505.781 449.589C505.949 449.846 506.064 450.134 506.12 450.437C506.176 450.739 506.17 451.05 506.104 451.35C505.966 451.857 505.665 452.303 505.249 452.622C504.833 452.941 504.323 453.115 503.799 453.116Z" fill="#2D2D2C"/>
<path d="M492.816 479.503H492.318L448.7 469.998C448.397 469.934 448.11 469.81 447.854 469.634C447.599 469.458 447.381 469.233 447.213 468.972C447.045 468.711 446.93 468.419 446.875 468.114C446.82 467.808 446.826 467.495 446.892 467.192C447.032 466.587 447.406 466.062 447.931 465.732C448.455 465.401 449.09 465.291 449.695 465.427L493.313 474.977C493.61 475.041 493.892 475.164 494.142 475.338C494.391 475.512 494.604 475.733 494.768 475.99C494.932 476.247 495.044 476.533 495.096 476.833C495.149 477.133 495.142 477.441 495.076 477.738C494.953 478.244 494.663 478.695 494.253 479.015C493.843 479.336 493.336 479.508 492.816 479.503Z" fill="#2D2D2C"/>
<path d="M269.03 425.732C269.03 425.732 294.749 422.337 299.088 428.403C303.428 434.468 321.101 518.111 308.128 522.366C295.156 526.621 282.319 530.875 282.319 530.875C282.319 530.875 250.408 500.686 269.03 425.732Z" fill="#B2C3FF"/>
<path d="M463.571 559C458.509 565.518 417.648 612.256 350.164 632.307C279.846 654.954 169.089 655.47 161.319 644.754C148.753 635.249 139.532 609.631 139.532 609.631C139.532 609.631 201.773 632.262 299.088 612.075C359.027 599.103 415.258 572.721 463.571 534.904C464.656 546.672 466.826 554.881 463.571 559Z" fill="#B2C3FF"/>
<path d="M248.916 287.412C177.094 283.429 149.476 266.909 148.075 266.23C147.773 266.091 147.504 265.89 147.285 265.639C147.066 265.388 146.903 265.094 146.806 264.775C146.71 264.457 146.681 264.121 146.724 263.791C146.766 263.461 146.878 263.143 147.052 262.859C147.226 262.576 147.458 262.332 147.732 262.145C148.007 261.957 148.319 261.831 148.646 261.773C148.974 261.715 149.31 261.727 149.632 261.809C149.954 261.891 150.256 262.04 150.516 262.247C150.787 262.247 178.766 278.813 249.052 282.75C249.668 282.797 250.24 283.084 250.646 283.55C251.052 284.016 251.259 284.623 251.222 285.24C251.187 285.828 250.929 286.381 250.5 286.785C250.072 287.189 249.505 287.413 248.916 287.412Z" fill="#8493C7"/>
<path d="M250.679 369.245C250.371 369.239 250.066 369.173 249.783 369.049C249.5 368.925 249.244 368.747 249.03 368.524C248.816 368.301 248.648 368.039 248.535 367.751C248.423 367.463 248.368 367.156 248.374 366.847L250.318 308.595C250.363 307.978 250.641 307.402 251.093 306.982C251.546 306.562 252.141 306.33 252.758 306.332C253.061 306.343 253.359 306.414 253.634 306.541C253.909 306.668 254.157 306.848 254.362 307.071C254.568 307.294 254.728 307.555 254.833 307.84C254.938 308.125 254.985 308.427 254.973 308.73L253.03 366.982C253.006 367.591 252.748 368.166 252.31 368.588C251.872 369.01 251.287 369.246 250.679 369.245Z" fill="#8493C7"/>
<path d="M345.599 351.639C345.192 351.639 344.792 351.535 344.436 351.337C344.08 351.139 343.78 350.853 343.565 350.507L314.592 301.398C314.43 301.135 314.322 300.842 314.275 300.536C314.229 300.231 314.244 299.919 314.319 299.619C314.395 299.319 314.531 299.038 314.717 298.791C314.904 298.545 315.138 298.339 315.406 298.185C315.94 297.869 316.577 297.777 317.178 297.93C317.779 298.083 318.295 298.467 318.615 298.999L347.588 348.108C347.75 348.371 347.858 348.665 347.905 348.97C347.952 349.276 347.937 349.588 347.861 349.888C347.785 350.187 347.65 350.469 347.463 350.715C347.276 350.962 347.042 351.168 346.775 351.322C346.421 351.538 346.013 351.647 345.599 351.639Z" fill="#8493C7"/>
<path d="M345.599 258.716C345 258.86 344.368 258.76 343.842 258.437C343.317 258.115 342.941 257.596 342.797 256.996C342.653 256.396 342.753 255.763 343.075 255.237C343.397 254.711 343.915 254.334 344.514 254.19L364.583 243.599C364.849 243.45 365.142 243.356 365.445 243.324C365.747 243.291 366.054 243.32 366.345 243.409C366.636 243.497 366.907 243.644 367.14 243.84C367.373 244.036 367.564 244.277 367.702 244.549C367.852 244.819 367.946 245.115 367.979 245.422C368.012 245.729 367.984 246.039 367.895 246.334C367.807 246.629 367.66 246.904 367.464 247.142C367.268 247.379 367.026 247.575 366.753 247.718L346.684 258.309C346.361 258.531 345.989 258.671 345.599 258.716Z" fill="#8493C7"/>
<path d="M267.81 427.09H267.132C266.454 426.864 199.332 407.175 101.338 415.684C100.722 415.734 100.11 415.539 99.6364 415.141C99.1626 414.743 98.8647 414.173 98.8072 413.557C98.7686 412.942 98.9676 412.336 99.3631 411.864C99.7586 411.392 100.32 411.09 100.932 411.022C199.874 402.422 267.81 422.428 268.488 422.609C268.78 422.697 269.051 422.842 269.287 423.035C269.522 423.229 269.717 423.467 269.86 423.737C270.003 424.006 270.091 424.301 270.119 424.605C270.147 424.908 270.115 425.215 270.025 425.506C269.878 425.975 269.582 426.383 269.182 426.669C268.783 426.955 268.301 427.103 267.81 427.09Z" fill="#8493C7"/>
<path d="M148.527 413.466C148.184 413.456 147.847 413.379 147.533 413.24C143.51 411.294 108.254 394.185 106.853 379.565C106.725 377.789 107.077 376.011 107.872 374.418C108.668 372.825 109.877 371.476 111.373 370.513C112.863 369.269 114.641 368.418 116.543 368.039C118.446 367.659 120.414 367.763 122.266 368.34C137.679 372.867 150.471 409.076 151.013 410.524C151.136 410.879 151.172 411.257 151.119 411.628C151.066 411.998 150.925 412.351 150.708 412.657C150.492 412.962 150.205 413.211 149.873 413.384C149.541 413.556 149.173 413.647 148.798 413.648L148.527 413.466ZM118.56 372.459C116.903 372.511 115.312 373.116 114.04 374.179C113.183 374.694 112.485 375.435 112.022 376.322C111.56 377.208 111.351 378.205 111.418 379.203C112.367 387.939 132.165 400.114 144.278 406.36C139.487 394.592 129.95 375.447 120.729 372.686C120.023 372.491 119.29 372.415 118.56 372.459Z" fill="#8493C7"/>
<path d="M367.386 494.937H350.119C349.624 494.94 349.142 494.783 348.743 494.489C348.344 494.196 348.05 493.782 347.904 493.308C347.748 492.84 347.743 492.335 347.889 491.864C348.035 491.393 348.325 490.98 348.718 490.683L364.131 479.548C364.635 479.274 365.222 479.193 365.782 479.322C366.341 479.451 366.834 479.78 367.167 480.248C367.501 480.715 367.652 481.289 367.592 481.861C367.533 482.432 367.266 482.962 366.843 483.35L357.396 490.14H367.386C367.735 490.04 368.104 490.022 368.461 490.089C368.819 490.156 369.156 490.304 369.447 490.524C369.737 490.743 369.973 491.027 370.135 491.353C370.297 491.679 370.382 492.039 370.382 492.403C370.382 492.767 370.297 493.126 370.135 493.452C369.973 493.779 369.737 494.062 369.447 494.282C369.156 494.501 368.819 494.65 368.461 494.717C368.104 494.783 367.735 494.766 367.386 494.666V494.937Z" fill="#2D2D2C"/>
<path d="M198.518 651C198.053 651.006 197.597 650.871 197.209 650.612C196.822 650.354 196.522 649.984 196.349 649.551L185.139 621.399C184.928 620.821 184.946 620.185 185.19 619.62C185.434 619.056 185.885 618.607 186.45 618.366C187.026 618.143 187.666 618.155 188.233 618.401C188.8 618.646 189.247 619.105 189.478 619.679L200.688 647.967C200.899 648.545 200.881 649.181 200.637 649.746C200.393 650.31 199.942 650.759 199.377 651C199.093 651.043 198.803 651.043 198.518 651Z" fill="#8493C7"/>
<path d="M227.763 651C227.248 651.007 226.747 650.841 226.337 650.53C225.927 650.218 225.634 649.778 225.503 649.28L218.09 620.992C217.938 620.391 218.029 619.756 218.342 619.222C218.655 618.688 219.165 618.3 219.762 618.14C220.361 618 220.99 618.096 221.52 618.408C222.05 618.719 222.44 619.223 222.61 619.815L230.023 648.103C230.174 648.703 230.084 649.339 229.771 649.873C229.458 650.406 228.947 650.795 228.35 650.955L227.763 651Z" fill="#8493C7"/>
<path d="M448.074 573.763C447.462 573.752 446.877 573.506 446.44 573.077C446.003 572.648 445.747 572.067 445.724 571.454L445 541.355C444.994 541.048 445.05 540.743 445.163 540.458C445.276 540.173 445.445 539.913 445.659 539.694C445.874 539.475 446.13 539.3 446.413 539.182C446.696 539.063 446.999 539.002 447.306 539.002C447.61 538.99 447.914 539.039 448.198 539.147C448.483 539.256 448.743 539.42 448.962 539.632C449.182 539.843 449.357 540.097 449.476 540.377C449.595 540.658 449.656 540.96 449.656 541.265L450.379 571.364C450.392 571.981 450.162 572.577 449.739 573.026C449.316 573.475 448.735 573.739 448.119 573.763H448.074Z" fill="#8493C7"/>
<path d="M424.396 593.037C424.089 593.037 423.786 592.976 423.503 592.857C423.22 592.738 422.964 592.564 422.749 592.345C422.535 592.126 422.366 591.866 422.253 591.581C422.14 591.295 422.084 590.99 422.09 590.683V559C421.99 558.65 421.973 558.281 422.04 557.923C422.106 557.565 422.255 557.227 422.474 556.936C422.693 556.645 422.977 556.409 423.302 556.247C423.628 556.085 423.987 556 424.35 556C424.714 556 425.073 556.085 425.399 556.247C425.724 556.409 426.008 556.645 426.227 556.936C426.446 557.227 426.595 557.565 426.661 557.923C426.728 558.281 426.71 558.65 426.61 559V590.683C426.611 591.285 426.382 591.864 425.971 592.301C425.559 592.739 424.995 593.002 424.396 593.037Z" fill="#8493C7"/>
<path d="M272.104 511.865C271.553 511.863 271.02 511.667 270.599 511.311C270.177 510.955 269.894 510.463 269.799 509.919C269.741 509.618 269.744 509.308 269.809 509.009C269.874 508.709 269.999 508.426 270.176 508.176C270.354 507.927 270.58 507.716 270.842 507.556C271.103 507.397 271.394 507.292 271.697 507.249L310.117 500.821C310.42 500.763 310.732 500.766 311.034 500.831C311.336 500.895 311.622 501.02 311.875 501.197C312.128 501.374 312.343 501.601 312.507 501.863C312.671 502.125 312.78 502.417 312.829 502.722C312.921 503.339 312.77 503.968 312.407 504.475C312.044 504.982 311.499 505.327 310.886 505.438L272.466 511.82L272.104 511.865Z" fill="#8493C7"/>
<path d="M265.912 486.066C265.403 485.976 264.938 485.721 264.588 485.341C264.238 484.96 264.024 484.474 263.977 483.959C263.931 483.444 264.056 482.927 264.332 482.49C264.608 482.053 265.02 481.719 265.505 481.54L307.631 474.524C307.932 474.466 308.241 474.469 308.54 474.534C308.839 474.599 309.122 474.725 309.371 474.902C309.621 475.08 309.832 475.307 309.991 475.569C310.15 475.83 310.255 476.122 310.298 476.425C310.403 477.037 310.263 477.666 309.907 478.174C309.552 478.683 309.01 479.031 308.4 479.141L266.273 486.156L265.912 486.066Z" fill="#8493C7"/>
<path d="M139.533 611.939C138.994 611.892 138.489 611.656 138.106 611.274C137.723 610.891 137.486 610.386 137.438 609.846C137.389 609.307 137.532 608.767 137.84 608.323C138.149 607.878 138.604 607.556 139.126 607.413C233.594 590.757 280.195 530.468 280.647 529.744C280.831 529.5 281.061 529.295 281.324 529.14C281.587 528.986 281.878 528.884 282.181 528.842C282.483 528.8 282.79 528.818 283.085 528.895C283.381 528.972 283.658 529.107 283.901 529.291C284.145 529.475 284.349 529.706 284.504 529.969C284.658 530.233 284.759 530.524 284.801 530.827C284.843 531.129 284.825 531.437 284.748 531.733C284.672 532.029 284.537 532.306 284.353 532.55C283.901 533.138 236.306 595.011 139.939 612.03L139.533 611.939Z" fill="#8493C7"/>
<path d="M219.707 136.205C221.507 150.251 214.827 162.674 204.786 163.901C194.746 165.127 185.145 154.84 183.305 140.795C181.465 126.749 188.145 114.326 198.186 113.099C208.226 111.873 217.867 122.16 219.707 136.205Z" fill="white"/>
<path d="M212.714 138.206C214.465 152.251 208.004 164.674 198.196 165.901C188.388 167.127 179.086 156.841 177.295 142.795C175.505 128.75 182.044 116.327 191.813 115.101C201.582 113.874 210.923 124.002 212.714 138.206Z" fill="#B2C3FF"/>
<path d="M184.958 41.3242C180.129 47.1174 176.365 53.7223 173.839 60.832C171.398 69.8844 185.591 127.819 185.591 127.819L203.671 123.746L184.958 41.3242Z" fill="#B2C3FF"/>
<path d="M268.172 165.884C264.811 165.727 261.542 164.74 258.656 163.01C255.769 161.281 253.355 158.863 251.628 155.972C251.437 155.707 251.303 155.406 251.234 155.086C251.166 154.767 251.165 154.436 251.231 154.116C251.297 153.796 251.429 153.494 251.618 153.227C251.807 152.961 252.05 152.737 252.33 152.57C252.61 152.403 252.922 152.296 253.246 152.256C253.57 152.216 253.899 152.245 254.211 152.339C254.524 152.433 254.813 152.592 255.061 152.804C255.309 153.017 255.51 153.279 255.651 153.573C257.219 156.276 259.591 158.422 262.434 159.712C265.278 161.002 268.453 161.372 271.516 160.77C271.825 160.651 272.156 160.598 272.487 160.615C272.818 160.633 273.141 160.72 273.436 160.871C273.73 161.023 273.99 161.235 274.197 161.494C274.404 161.753 274.554 162.052 274.638 162.373C274.721 162.694 274.736 163.029 274.681 163.356C274.626 163.683 274.502 163.995 274.318 164.271C274.135 164.547 273.895 164.781 273.614 164.958C273.334 165.134 273.02 165.25 272.692 165.296C271.216 165.682 269.697 165.88 268.172 165.884Z" fill="#2D2D2C"/>
</g>
<defs>
<clipPath id="clip0_184_733">
<rect width="565" height="651" fill="white"/>
</clipPath>
</defs>
</svg>
