<svg width="68" height="86" viewBox="0 0 68 86" fill="none" xmlns="http://www.w3.org/2000/svg">
<path d="M57.4796 31.1176V23.1903C57.4875 17.2708 55.2 11.5728 51.0868 7.26699C46.9737 2.96112 41.3471 0.374175 35.3629 0.0375138C29.3786 -0.299148 23.491 1.64005 18.9093 5.45676C14.3276 9.27346 11.3997 14.6779 10.7269 20.5601C10.5941 22.7436 10.5231 25.0186 10.5138 27.385C10.5138 28.6567 10.5308 29.9008 10.5648 31.1176C7.82836 31.3463 5.27808 32.5793 3.41672 34.5734C1.55536 36.5675 0.518023 39.178 0.509277 41.8901V75.1269C0.51173 78.0099 1.67245 80.774 3.73662 82.8126C5.8008 84.8512 8.59974 85.9976 11.5189 86H56.5254C59.4446 85.9976 62.2436 84.8512 64.3077 82.8126C66.3719 80.774 67.5326 78.0099 67.5351 75.1269V41.8901C67.5253 39.1783 66.4876 36.5684 64.6265 34.5745C62.7653 32.5807 60.2156 31.3474 57.4796 31.1176ZM15.2243 23.1903C15.2243 18.2673 17.2046 13.5459 20.7294 10.0647C24.2543 6.58358 29.035 4.62789 34.0199 4.62789C39.0048 4.62789 43.7855 6.58358 47.3104 10.0647C50.8352 13.5459 52.8155 18.2673 52.8155 23.1903V31.0215H46.0346V24.7227C46.0346 17.5914 40.6479 11.7958 34.0199 11.7958C27.3919 11.7958 22.0052 17.5914 22.0052 24.7227V31.0215H15.2243V23.1903ZM41.3751 24.7227V31.0215H26.6693V24.7227C26.6693 20.1484 29.9671 16.3975 34.0199 16.3975C38.0726 16.3975 41.3565 20.1301 41.3565 24.7227H41.3751ZM62.8756 75.1269C62.8731 76.7894 62.2033 78.3832 61.0129 79.5587C59.8226 80.7343 58.2088 81.3958 56.5254 81.3982H11.5189C9.83552 81.3958 8.22176 80.7343 7.03142 79.5587C5.84107 78.3832 5.17125 76.7894 5.1688 75.1269V41.8901C5.17125 40.2275 5.84107 38.6338 7.03142 37.4582C8.22176 36.2826 9.83552 35.6211 11.5189 35.6187H56.5254C58.2088 35.6211 59.8226 36.2826 61.0129 37.4582C62.2033 38.6338 62.8731 40.2275 62.8756 41.8901V75.1269Z" fill="#307EF3"/>
<path d="M34.0013 44.7856C31.8101 44.7798 29.6919 45.5629 28.0432 46.9884C26.3946 48.4138 25.3284 50.3838 25.0445 52.5296C24.7605 54.6754 25.2783 56.8499 26.5007 58.6459C27.7231 60.4419 29.5664 61.7363 31.6855 62.2868V69.7567C31.6855 70.3675 31.9311 70.9533 32.3685 71.3852C32.8058 71.8171 33.399 72.0598 34.0175 72.0598C34.636 72.0598 35.2292 71.8171 35.6665 71.3852C36.1039 70.9533 36.3496 70.3675 36.3496 69.7567V62.2868C38.4687 61.7363 40.312 60.4419 41.5344 58.6459C42.7568 56.8499 43.2745 54.6754 42.9905 52.5296C42.7066 50.3838 41.6405 48.4138 39.9918 46.9884C38.3432 45.5629 36.2249 44.7798 34.0337 44.7856H34.0013ZM34.0013 58.0236C33.1366 58.0236 32.2912 57.7703 31.5722 57.2958C30.8531 56.8214 30.2927 56.1469 29.9618 55.3579C29.6309 54.5689 29.5443 53.7007 29.713 52.863C29.8817 52.0254 30.2981 51.256 30.9096 50.6521C31.5211 50.0482 32.3002 49.6369 33.1483 49.4703C33.9965 49.3037 34.8756 49.3892 35.6745 49.716C36.4735 50.0428 37.1563 50.5963 37.6368 51.3064C38.1172 52.0165 38.3737 52.8514 38.3737 53.7054C38.3724 54.8503 37.9114 55.948 37.0917 56.7575C36.272 57.567 35.1606 58.0224 34.0013 58.0236Z" fill="#307EF3"/>
</svg>
