<svg width="72" height="78" viewBox="0 0 72 78" fill="none" xmlns="http://www.w3.org/2000/svg">
<path d="M48.397 41.3453C52.4314 38.6734 55.499 34.77 57.1452 30.2139C58.7914 25.6579 58.9285 20.6916 57.5362 16.0513C56.1438 11.4111 53.2961 7.34384 49.4153 4.4526C45.5345 1.56135 40.8271 0 35.991 0C31.1549 0 26.4475 1.56135 22.5666 4.4526C18.6858 7.34384 15.8382 11.4111 14.4458 16.0513C13.0535 20.6916 13.1905 25.6579 14.8367 30.2139C16.4829 34.77 19.5506 38.6734 23.585 41.3453C16.6771 43.8916 10.7135 48.4969 6.49686 54.5415C2.2802 60.5862 0.0128564 67.7799 0 75.1546C0.0420897 75.9233 0.37648 76.6466 0.934471 77.1758C1.49246 77.7051 2.23166 78 3.00001 78C3.76837 78 4.50751 77.7051 5.0655 77.1758C5.62349 76.6466 5.95788 75.9233 5.99997 75.1546C5.99997 67.1828 9.16068 59.5375 14.7868 53.9006C20.4129 48.2636 28.0435 45.0968 36 45.0968C43.9565 45.0968 51.5871 48.2636 57.2132 53.9006C62.8393 59.5375 66 67.1828 66 75.1546C66.1232 75.9772 66.5604 76.7197 67.2193 77.2256C67.8783 77.7315 68.7076 77.9613 69.5323 77.8666C70.174 77.7276 70.7564 77.3918 71.1987 76.9057C71.641 76.4197 71.921 75.8076 72 75.1546C71.6309 67.8697 69.2233 60.8358 65.0526 54.857C60.8819 48.8783 55.1163 44.196 48.415 41.3453H48.397ZM35.991 39.0853C32.7277 39.0862 29.5373 38.1174 26.8236 36.3014C24.1099 34.4855 21.9946 31.904 20.7454 28.8834C19.4962 25.8629 19.1691 22.539 19.8055 19.3321C20.4419 16.1253 22.0133 13.1796 24.3208 10.8676C26.6283 8.55565 29.5683 6.98128 32.769 6.34362C35.9697 5.70597 39.2872 6.03372 42.3019 7.28536C45.3167 8.537 47.8933 10.6563 49.7057 13.3753C51.5182 16.0942 52.4851 19.2907 52.4842 22.5603C52.4806 26.9423 50.742 31.1439 47.6498 34.2428C44.5576 37.3418 40.3646 39.085 35.991 39.0898V39.0853Z" fill="#307EF3"/>
</svg>
