<svg width="92" height="92" viewBox="0 0 92 92" fill="none" xmlns="http://www.w3.org/2000/svg">
<path d="M46.7238 91.9404C46.4261 91.9427 46.1308 91.8863 45.8548 91.7744C45.5788 91.6626 45.3276 91.4974 45.1154 91.2884C44.9032 91.0794 44.7343 90.8306 44.6182 90.5563C44.5022 90.282 44.4413 89.9874 44.439 89.6896C44.4367 89.3917 44.4931 89.0963 44.605 88.8203C44.7168 88.5442 44.8819 88.2929 45.0909 88.0806C45.2998 87.8684 45.5485 87.6994 45.8227 87.5833C46.0969 87.4672 46.3913 87.4063 46.6891 87.404C57.1981 87.2509 67.2521 83.0895 74.7968 75.77C75.2291 75.3514 75.8099 75.1217 76.4115 75.1315C77.0131 75.1413 77.5861 75.3897 78.0046 75.8221C78.423 76.2546 78.6526 76.8356 78.6428 77.4373C78.6331 78.0391 78.3847 78.6123 77.9524 79.0309C69.5774 87.1472 58.423 91.7624 46.7635 91.9355L46.7238 91.9404ZM4.54984 45.9753C4.55804 40.0746 5.82501 34.2436 8.26612 28.8719C10.7072 23.5002 14.2663 18.7115 18.7054 14.8257C19.1143 14.4195 19.3532 13.8728 19.3736 13.2968C19.394 12.7207 19.1944 12.1584 18.8154 11.7243C18.4363 11.2901 17.9063 11.0167 17.3329 10.9594C16.7595 10.9021 16.1858 11.0653 15.7284 11.4159C10.8041 15.7273 6.85647 21.0404 4.14923 27.0002C1.442 32.96 0.0375565 39.4291 0.0297687 45.9753C0.0154259 46.2818 0.0633826 46.588 0.170738 46.8754C0.278094 47.1628 0.442615 47.4254 0.654351 47.6474C0.866086 47.8693 1.12064 48.0459 1.4026 48.1667C1.68455 48.2874 1.98807 48.3496 2.29476 48.3496C2.60146 48.3496 2.90497 48.2874 3.18693 48.1667C3.46889 48.0459 3.72344 47.8693 3.93517 47.6474C4.14691 47.4254 4.31143 47.1628 4.41879 46.8754C4.52614 46.588 4.5741 46.2818 4.55976 45.9753H4.54984ZM47.5574 89.707C47.562 89.4091 47.5079 89.1132 47.3982 88.8363C47.2884 88.5593 47.1253 88.3067 46.9179 88.0929C46.7106 87.879 46.4632 87.7081 46.1898 87.5899C45.9164 87.4717 45.6224 87.4085 45.3246 87.404C34.8172 87.2506 24.7649 83.0892 17.2219 75.77C16.7896 75.3514 16.2088 75.1217 15.6072 75.1315C15.0057 75.1413 14.4326 75.3897 14.0142 75.8221C13.5957 76.2546 13.3661 76.8356 13.3759 77.4373C13.3857 78.0391 13.634 78.6123 14.0663 79.0309C22.4408 87.148 33.5956 91.7634 45.2552 91.9355H45.2899C45.8845 91.9382 46.4564 91.7073 46.8824 91.2923C47.3083 90.8773 47.5543 90.3115 47.5673 89.7169L47.5574 89.707ZM17.2913 78.9763C17.7096 78.5444 17.9393 77.9641 17.93 77.3629C17.9207 76.7616 17.6732 76.1887 17.2417 75.77C13.2247 71.9225 10.0303 67.2993 7.85206 62.1804C5.67384 57.0615 4.55716 51.5536 4.56967 45.9902C4.58402 45.6838 4.53606 45.3776 4.4287 45.0902C4.32135 44.8028 4.15683 44.5402 3.94509 44.3182C3.73336 44.0963 3.47881 43.9196 3.19685 43.7989C2.91489 43.6782 2.61138 43.6159 2.30468 43.6159C1.99798 43.6159 1.69449 43.6782 1.41253 43.7989C1.13057 43.9196 0.876019 44.0963 0.664284 44.3182C0.452548 44.5402 0.288027 44.8028 0.180671 45.0902C0.0733155 45.3776 0.0253589 45.6838 0.0397017 45.9902C0.0218678 52.1643 1.25765 58.2777 3.67216 63.9598C6.08667 69.6419 9.6296 74.7743 14.0861 79.0458C14.5089 79.4562 15.0748 79.6858 15.6639 79.6861C15.9668 79.6847 16.2663 79.622 16.5443 79.5017C16.8223 79.3814 17.073 79.2061 17.2814 78.9862L17.2913 78.9763ZM48.2917 89.707C48.2904 89.1058 48.0511 88.5296 47.6262 88.1046C47.2012 87.6795 46.6252 87.4401 46.0243 87.4388H45.801C45.6521 87.4388 45.5082 87.4388 45.3594 87.4388H45.3098C44.7084 87.4322 44.129 87.6648 43.6991 88.0855C43.2693 88.5062 43.0241 89.0806 43.0175 89.6821C43.0109 90.2837 43.2435 90.8633 43.6641 91.2933C44.0847 91.7233 44.6588 91.9686 45.2602 91.9752H45.4685C45.6521 91.9752 45.8357 91.9752 46.0243 91.9752C46.6218 91.9713 47.1937 91.7321 47.6163 91.3094C48.0388 90.8868 48.2779 90.3146 48.2818 89.7169L48.2917 89.707ZM46.58 91.9504H46.7834C47.2349 91.9035 47.6645 91.7317 48.0238 91.454C48.2344 91.3058 48.432 91.1398 48.6142 90.9577C48.7829 90.7939 48.8077 90.7542 48.9863 90.5706C49.165 90.3869 49.3684 90.2083 49.5718 90.0296C49.9539 89.6921 50.2218 89.4389 50.6882 89.0022L51.4275 88.2924C51.6041 88.1245 51.7698 87.9454 51.9237 87.7564C52.0527 87.6025 52.5042 87.0665 52.4198 86.9325C52.3355 86.7985 52.0725 86.9623 51.9733 86.997C51.6259 87.136 49.9886 87.2303 46.6842 87.4189H46.2475H46.0243C45.4229 87.4189 44.8461 87.6579 44.4209 88.0832C43.9957 88.5086 43.7568 89.0855 43.7568 89.6871C43.7568 90.2887 43.9957 90.8656 44.4209 91.291C44.8461 91.7164 45.4229 91.9553 46.0243 91.9553C46.2029 91.9851 46.3864 91.9752 46.57 91.9404L46.58 91.9504ZM76.5185 14.6172C76.715 14.3933 76.8655 14.1329 76.9613 13.8509C77.0572 13.5688 77.0966 13.2706 77.0772 12.9733C77.0579 12.6761 76.9802 12.3855 76.8486 12.1183C76.717 11.851 76.534 11.6124 76.3101 11.4159C68.1278 4.22985 57.6602 0.184231 46.7735 0.000305804C46.1721 -0.00956681 45.5914 0.219955 45.1592 0.638349C44.727 1.05674 44.4786 1.62973 44.4688 2.23131C44.4589 2.83288 44.6883 3.41372 45.1066 3.84607C45.5248 4.27843 46.0977 4.5269 46.699 4.53677C56.5096 4.69858 65.9436 8.3415 73.3183 14.8157C73.5418 15.0129 73.802 15.1639 74.0841 15.2602C74.3661 15.3565 74.6643 15.3961 74.9617 15.3767C75.2591 15.3573 75.5497 15.2794 75.8168 15.1473C76.084 15.0153 76.3225 14.8317 76.5185 14.6073V14.6172ZM18.7253 14.8257C26.1021 8.35185 35.5375 4.70906 45.3495 4.5467C45.9504 4.53496 46.5223 4.28547 46.9398 3.85292C47.3573 3.42037 47.5865 2.83998 47.5772 2.23876C47.5795 1.93914 47.5209 1.64219 47.4051 1.36588C47.2892 1.08957 47.1185 0.839622 46.9033 0.63126C46.688 0.422899 46.4327 0.260465 46.1528 0.153712C45.873 0.0469595 45.5743 -0.00185913 45.275 0.0102421C34.3881 0.193306 23.9202 4.23904 15.7384 11.4258C15.4923 11.6144 15.2875 11.8515 15.1366 12.1224C14.9858 12.3933 14.892 12.6923 14.8612 13.0009C14.8304 13.3094 14.8632 13.621 14.9575 13.9164C15.0518 14.2118 15.2057 14.4847 15.4096 14.7183C15.6136 14.9519 15.8632 15.1411 16.1431 15.2744C16.423 15.4076 16.7273 15.4821 17.0371 15.493C17.3469 15.504 17.6557 15.4514 17.9443 15.3383C18.233 15.2252 18.4954 15.0541 18.7154 14.8356L18.7253 14.8257ZM77.9524 79.0359C82.5309 74.6237 86.1426 69.3079 88.5585 63.4255C90.9743 57.5431 92.1416 51.2226 91.9863 44.865C91.8309 38.5075 90.3563 32.2516 87.656 26.4943C84.9557 20.737 81.0887 15.604 76.3002 11.4209C75.8428 11.0703 75.2692 10.9071 74.6958 10.9643C74.1224 11.0216 73.5923 11.2951 73.2133 11.7292C72.8342 12.1634 72.6346 12.7257 72.6551 13.3017C72.6755 13.8778 72.9144 14.4244 73.3232 14.8306C79.7493 20.4609 84.2787 27.9403 86.2914 36.245C88.304 44.5497 87.7015 53.2737 84.5663 61.2226C84.5663 61.2226 81.0932 70.0126 74.782 75.7799L72.9164 77.4873C72.9164 77.4873 73.8144 78.1723 74.7274 78.9763C74.8949 79.1424 75.0834 79.2859 75.288 79.4031C75.7121 79.6302 76.1973 79.7165 76.6735 79.6496C77.1498 79.5827 77.5925 79.366 77.9376 79.0309L77.9524 79.0359ZM32.216 21.4616C35.9328 14.7976 41.0954 9.05157 47.3242 4.64595C47.5708 4.47532 47.781 4.25746 47.9429 4.00499C48.1047 3.75253 48.2149 3.47047 48.2671 3.17513C48.3192 2.87979 48.3123 2.57703 48.2467 2.28438C48.1811 1.99173 48.0582 1.71501 47.885 1.47021C47.7118 1.22541 47.4917 1.0174 47.2376 0.85822C46.9835 0.699039 46.7004 0.591863 46.4046 0.542864C46.1088 0.493864 45.8063 0.50399 45.5144 0.572733C45.2226 0.641476 44.9473 0.767466 44.7044 0.943345C37.9217 5.74458 32.2999 12.0042 28.2516 19.2628C27.9601 19.7894 27.8897 20.4102 28.0558 20.9887C28.2219 21.5672 28.6109 22.056 29.1373 22.3476C29.6636 22.6391 30.2842 22.7096 30.8625 22.5434C31.4408 22.3773 31.9295 21.9881 32.2209 21.4616H32.216ZM30.0676 71.2782C30.3352 71.1471 30.5743 70.9644 30.7711 70.7406C30.968 70.5168 31.1187 70.2562 31.2146 69.974C31.3105 69.6917 31.3497 69.3933 31.3299 69.0959C31.3102 68.7984 31.2319 68.5078 31.0996 68.2407C27.6639 61.3165 25.8773 53.6907 25.8799 45.9604C25.8799 45.3589 25.6411 44.782 25.2158 44.3566C24.7906 43.9312 24.2139 43.6922 23.6125 43.6922C23.0111 43.6922 22.4344 43.9312 22.0091 44.3566C21.5839 44.782 21.345 45.3589 21.345 45.9604C21.3409 54.3851 23.2889 62.6961 27.036 70.2409C27.2225 70.6218 27.5119 70.9426 27.8715 71.1672C28.2311 71.3918 28.6464 71.5111 29.0703 71.5115C29.4144 71.52 29.7557 71.4487 30.0676 71.3031V71.2782ZM48.6043 90.9478C48.8822 90.5309 52.6629 87.4239 52.4198 86.9226C52.3057 86.6893 51.3828 87.1508 49.4428 87.2749C48.5745 87.3295 48.515 87.2749 47.3242 87.2749C45.4586 87.3395 44.4961 87.3494 44.1686 87.8209C43.9962 88.0641 43.8735 88.339 43.8076 88.6297C43.7418 88.9205 43.734 89.2214 43.7847 89.5152C43.8354 89.809 43.9436 90.0898 44.1032 90.3416C44.2627 90.5934 44.4704 90.8112 44.7144 90.9825L44.9525 91.1612C45.1162 91.2903 45.2849 91.4193 45.4487 91.5384C45.6299 91.6636 45.8289 91.7607 46.0391 91.8263L46.2723 91.8859C46.4183 91.9109 46.5659 91.9258 46.7139 91.9305C46.9322 91.9305 47.5673 91.8759 48.5348 91.0123C48.5613 90.9947 48.5848 90.9729 48.6043 90.9478ZM47.865 90.4515C48.0375 90.209 48.1604 89.9347 48.2266 89.6446C48.2928 89.3544 48.301 89.054 48.2508 88.7607C48.2005 88.4673 48.0928 88.1868 47.9337 87.9352C47.7747 87.6836 47.5676 87.466 47.3242 87.2948C40.4182 82.3994 34.8431 75.8569 31.1046 68.2606C30.8206 67.7571 30.3551 67.3811 29.8033 67.2094C29.2516 67.0377 28.6551 67.0832 28.1357 67.3367C27.6164 67.5901 27.2133 68.0323 27.0089 68.573C26.8045 69.1137 26.8142 69.7121 27.036 70.2459C31.1092 78.5209 37.1821 85.6483 44.7044 90.9825C45.1938 91.3238 45.7975 91.4593 46.3858 91.36C46.974 91.2607 47.4998 90.9345 47.8501 90.4515H47.865ZM25.8799 45.9803C25.8834 37.409 28.0636 28.9791 32.216 21.4815C32.5075 20.9549 32.5779 20.3341 32.4118 19.7557C32.2457 19.1772 31.8567 18.6883 31.3303 18.3967C30.804 18.1052 30.1834 18.0347 29.6051 18.2009C29.0268 18.367 28.5381 18.7562 28.2467 19.2827C23.7214 27.4532 21.3449 36.6396 21.3401 45.9803C21.3401 46.5819 21.5789 47.1588 22.0042 47.5842C22.4294 48.0096 23.0062 48.2485 23.6075 48.2485C24.2089 48.2485 24.7856 48.0096 25.2109 47.5842C25.6361 47.1588 25.875 46.5819 25.875 45.9803H25.8799ZM32.3648 21.1638C32.5691 20.5984 32.5407 19.975 32.2858 19.4306C32.0309 18.8862 31.5703 18.4652 31.0053 18.2603C26.5353 16.6439 22.3565 14.314 18.631 11.3613C18.3998 11.1608 18.1305 11.0091 17.8392 10.9155C17.5478 10.8219 17.2406 10.7882 16.9359 10.8164C16.6312 10.8447 16.3354 10.9344 16.0663 11.0801C15.7972 11.2257 15.5604 11.4244 15.3701 11.6641C15.1797 11.9037 15.0398 12.1795 14.9589 12.4747C14.8779 12.7698 14.8574 13.0783 14.8988 13.3816C14.9402 13.6849 15.0425 13.9766 15.1996 14.2393C15.3566 14.502 15.5652 14.7302 15.8128 14.9101C19.9184 18.171 24.5267 20.7424 29.4573 22.5238C29.7051 22.6154 29.9671 22.6625 30.2313 22.6627C30.6983 22.6618 31.1537 22.5168 31.5354 22.2477C31.9172 21.9786 32.2068 21.5984 32.3648 21.1589V21.1638ZM62.5664 22.5238C67.499 20.7435 72.1092 18.172 76.2159 14.9101C76.4563 14.7272 76.6578 14.4982 76.8085 14.2364C76.9592 13.9746 77.0561 13.6853 77.0936 13.3856C77.131 13.0858 77.1082 12.7816 77.0265 12.4908C76.9448 12.1999 76.8059 11.9284 76.6178 11.692C76.4298 11.4556 76.1964 11.2592 75.9314 11.1142C75.6665 10.9693 75.3752 10.8788 75.0748 10.8479C74.7744 10.8171 74.4708 10.8467 74.182 10.9348C73.8931 11.023 73.6248 11.168 73.3927 11.3613C69.6685 14.316 65.4893 16.646 61.0183 18.2603C60.5156 18.4413 60.0929 18.7941 59.8248 19.2564C59.5567 19.7188 59.4604 20.261 59.553 20.7874C59.6455 21.3138 59.9209 21.7907 60.3307 22.1338C60.7404 22.4769 61.258 22.6642 61.7924 22.6627C62.0569 22.6613 62.319 22.6126 62.5664 22.5188V22.5238ZM62.5664 22.5238C63.114 22.3061 63.5554 21.8837 63.7971 21.3461C64.0388 20.8085 64.0618 20.1979 63.8612 19.6437C63.6606 19.0894 63.2521 18.635 62.7224 18.3768C62.1927 18.1186 61.5833 18.0768 61.0233 18.2603C56.215 20.0231 51.1353 20.9302 46.0143 20.9404C45.4129 20.9404 44.8362 21.1795 44.411 21.6048C43.9858 22.0302 43.7468 22.6071 43.7468 23.2087C43.7468 23.8103 43.9858 24.3872 44.411 24.8126C44.8362 25.2379 45.4129 25.4769 46.0143 25.4769C51.6619 25.4644 57.2638 24.4633 62.5664 22.5188V22.5238ZM48.2818 23.2087C48.2805 22.6075 48.0412 22.0313 47.6162 21.6062C47.1913 21.1811 46.6153 20.9417 46.0143 20.9404C40.8932 20.9307 35.8135 20.0236 31.0053 18.2603C30.7231 18.1481 30.4213 18.0938 30.1177 18.1005C29.8141 18.1073 29.515 18.175 29.2381 18.2996C28.9611 18.4241 28.712 18.6031 28.5056 18.8258C28.2991 19.0485 28.1394 19.3105 28.036 19.5961C27.9327 19.8817 27.8877 20.1851 27.9038 20.4885C27.9199 20.7918 27.9967 21.0888 28.1297 21.3618C28.2628 21.6349 28.4493 21.8784 28.6782 22.078C28.9071 22.2776 29.1737 22.4292 29.4623 22.5238C34.765 24.467 40.367 25.4664 46.0143 25.4769C46.3125 25.4769 46.6078 25.4181 46.8832 25.3038C47.1586 25.1895 47.4088 25.022 47.6194 24.8108C47.8301 24.5997 47.997 24.349 48.1106 24.0733C48.2243 23.7975 48.2824 23.502 48.2818 23.2037V23.2087ZM78.0864 78.9068C78.4802 78.4522 78.6778 77.86 78.6359 77.26C78.5941 76.66 78.3162 76.101 77.8631 75.7055C73.6913 72.0762 68.9309 69.1858 63.7869 67.1587C63.227 66.9388 62.6027 66.9505 62.0514 67.1911C61.5001 67.4318 61.0669 67.8816 60.8472 68.4417C60.6274 69.0018 60.6391 69.6263 60.8796 70.1778C61.1201 70.7293 61.5698 71.1626 62.1298 71.3824C66.793 73.2174 71.1075 75.8378 74.8861 79.1301C75.3406 79.524 75.9326 79.7217 76.5324 79.6798C77.1323 79.638 77.6911 79.36 78.0864 78.9068ZM65.0671 70.1019C65.1764 69.8246 65.23 69.5284 65.2248 69.2304C65.2196 68.9323 65.1558 68.6382 65.0369 68.3649C64.918 68.0915 64.7464 67.8443 64.5319 67.6373C64.3175 67.4303 64.0643 67.2677 63.7869 67.1587C58.1291 64.9179 52.0995 63.7644 46.0143 63.7588C45.4129 63.7588 44.8362 63.9978 44.411 64.4232C43.9858 64.8485 43.7468 65.4255 43.7468 66.0271C43.7468 66.6287 43.9858 67.2056 44.411 67.6309C44.8362 68.0563 45.4129 68.2953 46.0143 68.2953C51.5326 68.2994 57.0004 69.3469 62.1298 71.3824C62.3938 71.4861 62.6747 71.54 62.9584 71.5413C63.4137 71.5409 63.8583 71.4034 64.2344 71.1467C64.6105 70.89 64.9007 70.5259 65.0671 70.1019ZM29.8989 71.3824C35.0283 69.3469 40.496 68.2994 46.0143 68.2953C46.6157 68.2953 47.1924 68.0563 47.6177 67.6309C48.0429 67.2056 48.2818 66.6287 48.2818 66.0271C48.2818 65.4255 48.0429 64.8485 47.6177 64.4232C47.1924 63.9978 46.6157 63.7588 46.0143 63.7588C39.9275 63.7644 33.8963 64.9178 28.2367 67.1587C27.748 67.355 27.3426 67.7152 27.0899 68.1774C26.8371 68.6397 26.7528 69.1754 26.8512 69.693C26.9497 70.2106 27.2248 70.6779 27.6296 71.015C28.0343 71.3522 28.5436 71.5382 29.0703 71.5413C29.3542 71.5375 29.6349 71.482 29.8989 71.3775V71.3824ZM17.1425 79.1301C20.9209 75.8375 25.2355 73.217 29.8989 71.3824C30.4588 71.1619 30.9082 70.728 31.1483 70.176C31.3884 69.6241 31.3994 68.9993 31.179 68.4392C30.9586 67.8791 30.5248 67.4295 29.973 67.1894C29.4212 66.9492 28.7966 66.9382 28.2367 67.1587C23.0948 69.1869 18.3362 72.0773 14.1655 75.7055C13.7115 76.1004 13.4329 76.6595 13.3911 77.2599C13.3492 77.8602 13.5474 78.4527 13.9422 78.9068C14.337 79.361 14.896 79.6396 15.4961 79.6815C16.0963 79.7234 16.6885 79.525 17.1425 79.1301ZM70.6737 45.9853C70.6665 36.6449 68.2902 27.459 63.7671 19.2877C63.4756 18.7611 62.987 18.372 62.4087 18.2058C61.8304 18.0397 61.2098 18.1101 60.6834 18.4017C60.1571 18.6933 59.768 19.1821 59.6019 19.7606C59.4359 20.3391 59.5063 20.9599 59.7978 21.4864C63.9479 28.9849 66.1279 37.4143 66.1338 45.9853C66.1338 46.5869 66.3727 47.1638 66.7979 47.5891C67.2232 48.0145 67.7999 48.2535 68.4013 48.2535C69.0026 48.2535 69.5794 48.0145 70.0046 47.5891C70.4299 47.1638 70.6687 46.5869 70.6687 45.9853H70.6737ZM46.5601 91.5583C46.7288 91.4441 46.8975 91.32 47.0563 91.191L47.2994 91.0123C47.7935 90.6687 48.131 90.1429 48.2375 89.5505C48.3441 88.958 48.2109 88.3475 47.8675 87.8532C47.524 87.3589 46.9984 87.0213 46.4061 86.9147C45.8139 86.8082 45.2035 86.9413 44.7094 87.2849C44.5606 87.3891 44.4216 87.4983 44.2777 87.6075C44.1951 87.6763 44.109 87.741 44.0198 87.8011C43.768 87.9657 43.5516 88.1788 43.383 88.4279C43.2144 88.677 43.097 88.9572 43.0377 89.2521C42.9784 89.5471 42.9783 89.8509 43.0375 90.1459C43.0967 90.4408 43.2139 90.721 43.3824 90.9702C43.5509 91.2194 43.7673 91.4326 44.0189 91.5973C44.2706 91.7621 44.5525 91.8751 44.8482 91.9298C45.1439 91.9846 45.4476 91.9799 45.7415 91.9161C46.0354 91.8523 46.3137 91.7307 46.5601 91.5583ZM64.9827 70.2657C68.7298 62.7209 70.6778 54.4099 70.6737 45.9853C70.6737 45.3837 70.4348 44.8067 70.0096 44.3814C69.5844 43.956 69.0076 43.717 68.4062 43.717C67.8049 43.717 67.2281 43.956 66.8029 44.3814C66.3777 44.8067 66.1388 45.3837 66.1388 45.9853C66.1422 53.7162 64.3538 61.3426 60.9142 68.2655C60.7622 68.5349 60.6669 68.8325 60.6342 69.14C60.6014 69.4476 60.6319 69.7587 60.7238 70.054C60.8156 70.3493 60.9669 70.6228 61.1683 70.8575C61.3696 71.0922 61.6169 71.2832 61.8948 71.4189C62.1727 71.5545 62.4754 71.6318 62.7843 71.6461C63.0931 71.6603 63.4017 71.6113 63.6909 71.5019C63.9801 71.3925 64.2439 71.225 64.466 71.0099C64.6882 70.7947 64.864 70.5365 64.9827 70.2509V70.2657ZM47.3143 91.0024C54.8353 85.6668 60.908 78.5396 64.9827 70.2657C65.2045 69.7319 65.2142 69.1336 65.0098 68.5929C64.8054 68.0522 64.4024 67.61 63.883 67.3565C63.3636 67.1031 62.7671 67.0576 62.2154 67.2293C61.6636 67.401 61.1982 67.7769 60.9142 68.2804C57.1728 75.8748 51.5983 82.4168 44.6945 87.3147C44.2108 87.665 43.8848 88.192 43.7872 88.7813C43.6897 89.3706 43.8285 89.9747 44.1734 90.4623C44.5184 90.9499 45.0418 91.2817 45.6298 91.3856C46.2179 91.4895 46.8232 91.3571 47.3143 91.0173V91.0024ZM62.8839 22.3699C63.4094 22.0781 63.7976 21.5896 63.9633 21.0116C64.1289 20.4337 64.0583 19.8136 63.7671 19.2877C59.7189 12.0289 54.0971 5.76923 47.3143 0.968125C46.8232 0.628269 46.2179 0.495969 45.6298 0.599876C45.0418 0.703783 44.5184 1.03551 44.1734 1.5231C43.8285 2.01069 43.6897 2.61476 43.7872 3.20409C43.8848 3.79343 44.2108 4.32048 44.6945 4.67079C50.9221 9.0778 56.0844 14.8235 59.8028 21.4864C59.9462 21.7477 60.1399 21.9779 60.3728 22.1639C60.6056 22.3499 60.873 22.4879 61.1594 22.57C61.4458 22.6522 61.7457 22.6768 62.0417 22.6424C62.3377 22.6081 62.6239 22.5154 62.8839 22.3699ZM25.87 45.9853C25.8687 45.3841 25.6294 44.8079 25.2045 44.3828C24.7795 43.9577 24.2035 43.7183 23.6026 43.717H2.26748C1.66611 43.717 1.08937 43.956 0.664132 44.3814C0.238899 44.8067 0 45.3837 0 45.9853C0 46.5869 0.238899 47.1638 0.664132 47.5891C1.08937 48.0145 1.66611 48.2535 2.26748 48.2535H23.6026C23.901 48.2541 24.1966 48.196 24.4725 48.0824C24.7485 47.9688 24.9994 47.8018 25.2109 47.5912C25.4223 47.3806 25.5903 47.1304 25.7051 46.8548C25.8199 46.5793 25.8793 46.2838 25.8799 45.9853H25.87ZM70.6737 45.9853C70.6724 45.3841 70.4331 44.8079 70.0081 44.3828C69.5832 43.9577 69.0072 43.7183 68.4062 43.717H46.0143C45.4129 43.717 44.8362 43.956 44.411 44.3814C43.9858 44.8067 43.7468 45.3837 43.7468 45.9853C43.7468 46.5869 43.9858 47.1638 44.411 47.5891C44.8362 48.0145 45.4129 48.2535 46.0143 48.2535H68.4162C69.0154 48.2496 69.5888 48.009 70.0117 47.5842C70.4345 47.1594 70.6724 46.5847 70.6737 45.9853ZM48.2719 45.9853C48.2705 45.3841 48.0312 44.8079 47.6063 44.3828C47.1813 43.9577 46.6054 43.7183 46.0044 43.717H23.6125C23.0111 43.717 22.4344 43.956 22.0091 44.3814C21.5839 44.8067 21.345 45.3837 21.345 45.9853C21.345 46.5869 21.5839 47.1638 22.0091 47.5891C22.4344 48.0145 23.0111 48.2535 23.6125 48.2535H46.0143C46.6153 48.2522 47.1913 48.0128 47.6162 47.5877C48.0412 47.1626 48.2805 46.5864 48.2818 45.9853H48.2719ZM90.6989 45.9853C90.6976 45.3841 90.4583 44.8079 90.0333 44.3828C89.6084 43.9577 89.0324 43.7183 88.4314 43.717H68.4162C67.8148 43.717 67.238 43.956 66.8128 44.3814C66.3876 44.8067 66.1487 45.3837 66.1487 45.9853C66.1487 46.5869 66.3876 47.1638 66.8128 47.5891C67.238 48.0145 67.8148 48.2535 68.4162 48.2535H88.4414C89.0423 48.2522 89.6183 48.0128 90.0433 47.5877C90.4682 47.1626 90.7075 46.5864 90.7088 45.9853H90.6989ZM48.2719 23.2037V2.81943C48.2719 2.21785 48.033 1.64094 47.6077 1.21556C47.1825 0.790188 46.6058 0.551225 46.0044 0.551225C45.403 0.551225 44.8263 0.790188 44.4011 1.21556C43.9758 1.64094 43.7369 2.21785 43.7369 2.81943V23.2037C43.7369 23.8053 43.9758 24.3822 44.4011 24.8076C44.8263 25.233 45.403 25.4719 46.0044 25.4719C46.6058 25.4719 47.1825 25.233 47.6077 24.8076C48.033 24.3822 48.2719 23.8053 48.2719 23.2037ZM48.2719 45.9853V23.2037C48.2719 22.6022 48.033 22.0252 47.6077 21.5999C47.1825 21.1745 46.6058 20.9355 46.0044 20.9355C45.403 20.9355 44.8263 21.1745 44.4011 21.5999C43.9758 22.0252 43.7369 22.6022 43.7369 23.2037V45.9853C43.7369 46.5869 43.9758 47.1638 44.4011 47.5891C44.8263 48.0145 45.403 48.2535 46.0044 48.2535C46.6058 48.2535 47.1825 48.0145 47.6077 47.5891C48.033 47.1638 48.2719 46.5869 48.2719 45.9853ZM48.2719 89.166V66.037C48.2719 65.4354 48.033 64.8585 47.6077 64.4331C47.1825 64.0077 46.6058 63.7688 46.0044 63.7688C45.403 63.7688 44.8263 64.0077 44.4011 64.4331C43.9758 64.8585 43.7369 65.4354 43.7369 66.037V89.166C43.7369 89.7675 43.9758 90.3445 44.4011 90.7698C44.8263 91.1952 45.403 91.4342 46.0044 91.4342C46.6058 91.4342 47.1825 91.1952 47.6077 90.7698C48.033 90.3445 48.2719 89.7675 48.2719 89.166ZM48.2719 66.037V46.0001C48.2719 45.3986 48.033 44.8216 47.6077 44.3963C47.1825 43.9709 46.6058 43.7319 46.0044 43.7319C45.403 43.7319 44.8263 43.9709 44.4011 44.3963C43.9758 44.8216 43.7369 45.3986 43.7369 46.0001V66.037C43.7369 66.6386 43.9758 67.2155 44.4011 67.6409C44.8263 68.0663 45.403 68.3052 46.0044 68.3052C46.6058 68.3052 47.1825 68.0663 47.6077 67.6409C48.033 67.2155 48.2719 66.6386 48.2719 66.037ZM48.2719 89.7318V89.166C48.2719 88.5644 48.033 87.9874 47.6077 87.562C47.1825 87.1367 46.6058 86.8977 46.0044 86.8977C45.403 86.8977 44.8263 87.1367 44.4011 87.562C43.9758 87.9874 43.7369 88.5644 43.7369 89.166V89.7318C43.7369 90.3334 43.9758 90.9103 44.4011 91.3357C44.8263 91.761 45.403 92 46.0044 92C46.6058 92 47.1825 91.761 47.6077 91.3357C48.033 90.9103 48.2719 90.3334 48.2719 89.7318Z" fill="#307EF3"/>
</svg>
