<svg width="160" height="60" viewBox="0 0 160 60" fill="none" xmlns="http://www.w3.org/2000/svg">
<path d="M88.4275 10.2869H66.5076V49.7523H88.4275V10.2869Z" fill="#FF5A00"/>
<path d="M67.9668 30.0196C67.9668 22.0014 71.7282 14.885 77.5 10.2869C73.2522 6.93988 67.8938 4.91705 62.049 4.91705C48.2032 4.91705 37 16.1442 37 30.0196C37 43.8951 48.2032 55.1222 62.049 55.1222C67.8938 55.1222 73.2522 53.0993 77.5 49.7523C71.7201 45.2192 67.9668 38.0378 67.9668 30.0196Z" fill="#EB001B"/>
<path d="M118 30.0196C118 43.8951 106.797 55.1222 92.951 55.1222C87.1062 55.1222 81.7478 53.0993 77.5 49.7523C83.3448 45.1461 87.0332 38.0378 87.0332 30.0196C87.0332 22.0014 83.2718 14.885 77.5 10.2869C81.7397 6.93988 87.0981 4.91705 92.9429 4.91705C106.797 4.91705 118 16.2173 118 30.0196Z" fill="#F79E1B"/>
</svg>
