<svg width="160" height="60" viewBox="0 0 160 60" fill="none" xmlns="http://www.w3.org/2000/svg">
<path d="M61.0875 20.1915H52.7868C52.2188 20.1915 51.7357 20.6041 51.6471 21.1649L48.29 42.45C48.2232 42.87 48.5485 43.2487 48.9745 43.2487H52.9373C53.5054 43.2487 53.9884 42.836 54.077 42.274L54.9825 36.5331C55.0698 35.9711 55.5541 35.5585 56.1209 35.5585H58.7487C64.2165 35.5585 67.3722 32.9125 68.1963 27.6692C68.5677 25.3753 68.2121 23.5729 67.1379 22.3106C65.9582 20.9246 63.8657 20.1915 61.0875 20.1915ZM62.0451 27.9654C61.5912 30.9439 59.3155 30.9439 57.115 30.9439H55.8624L56.7412 25.3814C56.7933 25.0452 57.0846 24.7976 57.4245 24.7976H57.9986C59.4975 24.7976 60.9115 24.7976 61.6422 25.652C62.0779 26.1618 62.2114 26.9192 62.0451 27.9654Z" fill="#253B80"/>
<path d="M85.8997 27.8695H81.9248C81.5861 27.8695 81.2936 28.1171 81.2414 28.4533L81.0655 29.5651L80.7875 29.1621C79.927 27.9132 78.0081 27.4957 76.0928 27.4957C71.7003 27.4957 67.9487 30.8225 67.218 35.4893C66.8381 37.8172 67.3782 40.0432 68.6988 41.5955C69.9101 43.0229 71.6433 43.6176 73.7054 43.6176C77.2446 43.6176 79.2072 41.3419 79.2072 41.3419L79.03 42.4464C78.9633 42.8687 79.2886 43.2474 79.7121 43.2474H83.2926C83.8619 43.2474 84.3425 42.8348 84.4323 42.2728L86.5806 28.6681C86.6486 28.2494 86.3245 27.8695 85.8997 27.8695ZM80.3591 35.6058C79.9755 37.8767 78.1731 39.4011 75.8743 39.4011C74.7201 39.4011 73.7976 39.0309 73.2053 38.3294C72.6179 37.6327 72.3946 36.6411 72.5815 35.5366C72.9395 33.2851 74.7723 31.7109 77.0359 31.7109C78.1646 31.7109 79.0822 32.086 79.6867 32.7936C80.2923 33.5085 80.5326 34.5062 80.3591 35.6058Z" fill="#253B80"/>
<path d="M107.07 27.8695H103.075C102.694 27.8695 102.336 28.0588 102.12 28.3756L96.6109 36.4906L94.2757 28.6924C94.1289 28.2045 93.6786 27.8695 93.1688 27.8695H89.2436C88.7666 27.8695 88.4353 28.3356 88.587 28.7847L92.9867 41.6963L88.8504 47.5355C88.5251 47.9955 88.8528 48.6279 89.4147 48.6279H93.4043C93.7829 48.6279 94.1373 48.4434 94.3522 48.1327L107.638 28.9558C107.956 28.497 107.629 27.8695 107.07 27.8695Z" fill="#253B80"/>
<path d="M120.295 20.1915H111.993C111.426 20.1915 110.943 20.6041 110.854 21.1649L107.497 42.45C107.43 42.87 107.756 43.2487 108.179 43.2487H112.439C112.835 43.2487 113.174 42.9598 113.236 42.5665L114.188 36.5331C114.276 35.9711 114.76 35.5585 115.327 35.5585H117.953C123.422 35.5585 126.577 32.9125 127.402 27.6692C127.775 25.3753 127.417 23.5729 126.343 22.3106C125.164 20.9246 123.073 20.1915 120.295 20.1915ZM121.252 27.9654C120.799 30.9439 118.524 30.9439 116.322 30.9439H115.071L115.951 25.3814C116.003 25.0452 116.292 24.7976 116.633 24.7976H117.207C118.705 24.7976 120.12 24.7976 120.85 25.652C121.286 26.1618 121.418 26.9192 121.252 27.9654Z" fill="#179BD7"/>
<path d="M145.105 27.8695H141.133C140.792 27.8695 140.502 28.1171 140.451 28.4533L140.275 29.5651L139.996 29.1621C139.135 27.9132 137.217 27.4957 135.302 27.4957C130.91 27.4957 127.159 30.8225 126.429 35.4893C126.05 37.8172 126.588 40.0432 127.908 41.5955C129.122 43.0229 130.853 43.6176 132.915 43.6176C136.454 43.6176 138.417 41.3419 138.417 41.3419L138.239 42.4464C138.173 42.8687 138.498 43.2474 138.924 43.2474H142.503C143.07 43.2474 143.553 42.8348 143.642 42.2728L145.791 28.6681C145.857 28.2494 145.531 27.8695 145.105 27.8695ZM139.565 35.6058C139.184 37.8767 137.379 39.4011 135.08 39.4011C133.928 39.4011 133.003 39.0309 132.411 38.3294C131.824 37.6327 131.603 36.6411 131.787 35.5366C132.148 33.2851 133.978 31.7109 136.242 31.7109C137.37 31.7109 138.288 32.086 138.892 32.7936C139.5 33.5085 139.741 34.5062 139.565 35.6058Z" fill="#179BD7"/>
<path d="M149.792 20.7752L146.385 42.45C146.318 42.8699 146.643 43.2486 147.067 43.2486H150.492C151.061 43.2486 151.544 42.8359 151.632 42.274L154.991 20.9901C155.058 20.5701 154.733 20.1902 154.309 20.1902H150.474C150.135 20.1914 149.844 20.439 149.792 20.7752Z" fill="#179BD7"/>
<path d="M13.819 47.385L14.4538 43.353L13.0398 43.3202H6.28784L10.9801 13.5681C10.9947 13.4783 11.042 13.3945 11.1112 13.3351C11.1804 13.2756 11.269 13.2428 11.3612 13.2428H22.746C26.5255 13.2428 29.1338 14.0293 30.4956 15.5817C31.1341 16.3099 31.5407 17.0709 31.7373 17.9084C31.9436 18.7871 31.9473 19.837 31.7458 21.1175L31.7312 21.211V22.0314L32.3696 22.3931C32.9073 22.6783 33.3346 23.0048 33.6623 23.3787C34.2084 24.0013 34.5616 24.7927 34.7109 25.7309C34.8651 26.6958 34.8141 27.844 34.5616 29.1439C34.2703 30.6392 33.7994 31.9415 33.1634 33.0072C32.5784 33.9891 31.8332 34.8035 30.9484 35.4346C30.1036 36.0342 29.0999 36.4894 27.965 36.7807C26.8654 37.0671 25.6116 37.2115 24.2364 37.2115H23.3504C22.7169 37.2115 22.1015 37.4397 21.6184 37.8487C21.1342 38.2663 20.8137 38.8367 20.7154 39.4606L20.6487 39.8235L19.5272 46.9298L19.4762 47.1908C19.4629 47.2733 19.4398 47.3146 19.4058 47.3425C19.3755 47.368 19.3318 47.385 19.2893 47.385H13.819Z" fill="#253B80"/>
<path d="M32.974 21.3056C32.94 21.5229 32.9012 21.745 32.8575 21.9732C31.3561 29.6816 26.2196 32.3445 19.6594 32.3445H16.3193C15.517 32.3445 14.8409 32.9271 14.7159 33.7184L13.0058 44.5643L12.5215 47.6387C12.4402 48.1581 12.8407 48.6266 13.365 48.6266H19.2893C19.9908 48.6266 20.5867 48.1169 20.6972 47.4251L20.7554 47.1241L21.8709 40.0456L21.9425 39.6572C22.0517 38.9629 22.6489 38.4532 23.3504 38.4532H24.2364C29.9761 38.4532 34.4693 36.1228 35.7826 29.3794C36.3312 26.5623 36.0472 24.2101 34.5956 22.5558C34.1562 22.0569 33.6112 21.643 32.974 21.3056Z" fill="#179BD7"/>
<path d="M31.4034 20.6794C31.174 20.6126 30.9373 20.5519 30.6945 20.4973C30.4506 20.4439 30.2006 20.3966 29.9432 20.3553C29.0427 20.2097 28.0559 20.1405 26.9987 20.1405H18.0754C17.8557 20.1405 17.647 20.1902 17.4601 20.2801C17.0486 20.4779 16.7427 20.8675 16.6687 21.3445L14.7704 33.3677L14.7158 33.7184C14.8408 32.9271 15.5169 32.3445 16.3192 32.3445H19.6593C26.2195 32.3445 31.356 29.6804 32.8574 21.9732C32.9023 21.745 32.9399 21.5229 32.9739 21.3057C32.594 21.1042 32.1826 20.9318 31.7396 20.785C31.6303 20.7486 31.5175 20.7134 31.4034 20.6794Z" fill="#222D65"/>
<path d="M16.6688 21.3445C16.7428 20.8675 17.0487 20.4779 17.4601 20.2813C17.6482 20.1914 17.8558 20.1417 18.0755 20.1417H26.9988C28.056 20.1417 29.0427 20.2109 29.9433 20.3565C30.2006 20.3978 30.4506 20.4451 30.6946 20.4985C30.9373 20.5531 31.174 20.6138 31.4034 20.6806C31.5175 20.7146 31.6304 20.7498 31.7408 20.785C32.1838 20.9318 32.5953 21.1054 32.9752 21.3056C33.4219 18.457 32.9716 16.5175 31.4313 14.7612C29.7333 12.8278 26.6687 12 22.7471 12H11.3623C10.5613 12 9.87796 12.5826 9.75416 13.3752L5.01212 43.4331C4.91867 44.0278 5.37746 44.5643 5.97704 44.5643H13.0057L14.7705 33.3677L16.6688 21.3445Z" fill="#253B80"/>
</svg>
