<svg width="160" height="60" viewBox="0 0 160 60" fill="none" xmlns="http://www.w3.org/2000/svg">
<path fill-rule="evenodd" clip-rule="evenodd" d="M143 31.4728C143 22.4417 138.626 15.3156 130.265 15.3156C121.869 15.3156 116.789 22.4417 116.789 31.4023C116.789 42.0209 122.786 47.3831 131.394 47.3831C135.592 47.3831 138.767 46.4306 141.166 45.09V38.0345C138.767 39.2339 136.015 39.9748 132.522 39.9748C129.101 39.9748 126.067 38.7753 125.679 34.6125H142.929C142.929 34.1539 143 32.3195 143 31.4728ZM125.573 28.1214C125.573 24.135 128.007 22.477 130.229 22.477C132.381 22.477 134.674 24.135 134.674 28.1214H125.573Z" fill="#635BFF"/>
<path fill-rule="evenodd" clip-rule="evenodd" d="M103.172 15.3156C99.7143 15.3156 97.4918 16.9384 96.2571 18.0673L95.7985 15.88H88.0374V57.0139L96.8568 55.1442L96.8921 45.1606C98.1621 46.0778 100.032 47.3831 103.136 47.3831C109.451 47.3831 115.201 42.3031 115.201 31.12C115.166 20.8895 109.345 15.3156 103.172 15.3156ZM101.055 39.622C98.9735 39.622 97.7387 38.8812 96.8921 37.9639L96.8568 24.8759C97.774 23.8528 99.044 23.1473 101.055 23.1473C104.265 23.1473 106.488 26.7456 106.488 31.367C106.488 36.0942 104.3 39.622 101.055 39.622Z" fill="#635BFF"/>
<path fill-rule="evenodd" clip-rule="evenodd" d="M75.9016 13.2342L84.7563 11.3292V4.16779L75.9016 6.03751V13.2342Z" fill="#635BFF"/>
<path d="M84.7563 15.9153H75.9016V46.7834H84.7563V15.9153Z" fill="#635BFF"/>
<path fill-rule="evenodd" clip-rule="evenodd" d="M66.412 18.5258L65.8475 15.9153H58.2275V46.7834H67.047V25.8636C69.1284 23.1472 72.6562 23.6411 73.7498 24.0292V15.9153C72.6209 15.4919 68.4934 14.7158 66.412 18.5258Z" fill="#635BFF"/>
<path fill-rule="evenodd" clip-rule="evenodd" d="M48.7732 8.26001L40.1654 10.0945L40.1301 38.352C40.1301 43.5731 44.046 47.4184 49.2671 47.4184C52.1599 47.4184 54.2765 46.8892 55.4407 46.2542V39.0928C54.3118 39.5514 48.7379 41.1742 48.7379 35.9531V23.4295H55.4407V15.9153H48.7379L48.7732 8.26001Z" fill="#635BFF"/>
<path fill-rule="evenodd" clip-rule="evenodd" d="M24.9253 24.8759C24.9253 23.5 26.0542 22.9709 27.9239 22.9709C30.605 22.9709 33.9917 23.7823 36.6728 25.2286V16.9384C33.7447 15.7742 30.852 15.3156 27.9239 15.3156C20.7625 15.3156 16 19.055 16 25.2992C16 35.0359 29.4056 33.4837 29.4056 37.6817C29.4056 39.3045 27.9945 39.8337 26.0189 39.8337C23.0908 39.8337 19.3514 38.6342 16.3881 37.0114V45.4075C19.6689 46.8187 22.985 47.4184 26.0189 47.4184C33.3567 47.4184 38.4014 43.7848 38.4014 37.47C38.3661 26.9573 24.9253 28.827 24.9253 24.8759Z" fill="#635BFF"/>
</svg>
