<svg width="42" height="42" viewBox="0 0 42 42" fill="none" xmlns="http://www.w3.org/2000/svg">
<circle cx="21" cy="20.9998" r="21" fill="white"/>
<path d="M42 20.9998C42 32.6023 32.6025 41.9998 21 41.9998C9.3975 41.9998 0 32.6023 0 20.9998C0 9.39726 9.3975 -0.000244141 21 -0.000244141C32.6025 -0.000244141 42 9.39726 42 20.9998Z" fill="url(#paint0_linear_650_1617)"/>
<path d="M17.149 30.6247C16.4665 30.6247 16.5888 30.3622 16.3436 29.7148L14.3486 23.135L26.7386 15.3997L28.1913 15.785L26.9838 19.0747L17.149 30.6247Z" fill="#C8DAEA"/>
<path d="M17.1504 30.6247C17.6754 30.6247 17.9027 30.38 18.2004 30.0997C18.655 29.6624 24.5004 23.975 24.5004 23.975L20.9125 23.0999L17.5877 25.1999L17.1504 30.4499V30.6247Z" fill="#A9C9DD"/>
<path d="M17.5003 25.2694L25.9706 31.5169C26.9329 32.0419 27.6328 31.7794 27.8779 30.6244L31.3256 14.3846C31.6753 12.9671 30.7828 12.3371 29.8556 12.7571L9.62527 20.5623C8.24294 21.1219 8.26027 21.8921 9.38062 22.2244L14.5781 23.8519L26.6006 16.2746C27.1603 15.9244 27.6853 16.1171 27.2653 16.5019L17.5003 25.2694Z" fill="url(#paint1_linear_650_1617)"/>
<defs>
<linearGradient id="paint0_linear_650_1617" x1="27.1598" y1="6.63418" x2="16.6598" y2="31.1412" gradientUnits="userSpaceOnUse">
<stop stop-color="#37AEE2"/>
<stop offset="1" stop-color="#1E96C8"/>
</linearGradient>
<linearGradient id="paint1_linear_650_1617" x1="22.533" y1="21.5774" x2="26.9036" y2="28.5704" gradientUnits="userSpaceOnUse">
<stop stop-color="#EFF7FC"/>
<stop offset="1" stop-color="white"/>
</linearGradient>
</defs>
</svg>
