<svg width="160" height="60" viewBox="0 0 160 60" fill="none" xmlns="http://www.w3.org/2000/svg">
<path d="M70.2331 51.8508H58.9731L66.0159 8.28958H77.2753L70.2331 51.8508Z" fill="#00579F"/>
<path d="M111.051 9.35457C108.831 8.47317 105.308 7.5 100.952 7.5C89.8326 7.5 82.0023 13.4314 81.9543 21.9116C81.8619 28.1682 87.5605 31.6433 91.8227 33.7295C96.179 35.8612 97.6598 37.2526 97.6598 39.1527C97.6155 42.071 94.1397 43.4162 90.8978 43.4162C86.4023 43.4162 83.9936 42.7227 80.333 41.0991L78.8503 40.4031L77.2747 50.1816C79.9156 51.3852 84.7811 52.4532 89.8326 52.5C101.647 52.5 109.339 46.6603 109.43 37.6234C109.475 32.6645 106.466 28.8648 99.9787 25.7599C96.0405 23.7668 93.6286 22.4228 93.6286 20.3835C93.6748 18.5295 95.6686 16.6306 100.114 16.6306C103.775 16.5376 106.464 17.4177 108.502 18.2985L109.52 18.7611L111.051 9.35457Z" fill="#00579F"/>
<path d="M126.017 36.4186C126.944 33.916 130.512 24.2305 130.512 24.2305C130.466 24.3235 131.438 21.6818 131.994 20.06L132.781 23.8135C132.781 23.8135 134.913 34.2406 135.376 36.4186C133.616 36.4186 128.241 36.4186 126.017 36.4186ZM139.916 8.28958H131.206C128.521 8.28958 126.48 9.07674 125.321 11.9039L108.596 51.8501H120.411C120.411 51.8501 122.356 46.4737 122.774 45.3157C124.07 45.3157 135.563 45.3157 137.231 45.3157C137.554 46.8451 138.574 51.8501 138.574 51.8501H149L139.916 8.28958Z" fill="#00579F"/>
<path d="M49.5684 8.28958L38.5412 37.9941L37.3362 31.9697C35.2975 25.0183 28.9037 17.4657 21.7686 13.7104L31.8691 51.8046H43.7762L61.4749 8.28958H49.5684Z" fill="#00579F"/>
<path d="M28.3015 8.28958H10.1853L10 9.16975C24.1318 12.7847 33.491 21.4982 37.3362 31.9716L33.398 11.9513C32.7496 9.16913 30.7571 8.38136 28.3015 8.28958Z" fill="#FAA61A"/>
</svg>
