<svg width="34" height="34" viewBox="0 0 34 34" fill="none" xmlns="http://www.w3.org/2000/svg">
<mask id="mask0_650_1501" style="mask-type:alpha" maskUnits="userSpaceOnUse" x="0" y="0" width="34" height="34">
<circle cx="17" cy="17" r="17" fill="white"/>
</mask>
<g mask="url(#mask0_650_1501)">
<circle cx="17" cy="17" r="17" fill="white"/>
<path fill-rule="evenodd" clip-rule="evenodd" d="M5.23914 0H28.7609C31.6543 0 34 2.34566 34 5.23914V28.7609C34 31.6543 31.6543 34 28.7609 34H5.23914C2.34566 34 0 31.6543 0 28.7609V5.23914C0 2.34566 2.34566 0 5.23914 0Z" fill="#4C75A3"/>
<path fill-rule="evenodd" clip-rule="evenodd" d="M16.7746 23.4286H18.0326C18.0326 23.4286 18.4125 23.3891 18.6068 23.1918C18.7853 23.0105 18.7796 22.6703 18.7796 22.6703C18.7796 22.6703 18.755 21.077 19.5383 20.8424C20.3108 20.6111 21.3026 22.3822 22.3537 23.0633C23.1486 23.5785 23.7526 23.4657 23.7526 23.4657L26.5635 23.4286C26.5635 23.4286 28.0338 23.343 27.3366 22.2519C27.2795 22.1627 26.9304 21.4447 25.2466 19.9695C23.4839 18.4255 23.7202 18.6753 25.8433 16.0046C27.1362 14.3781 27.653 13.3851 27.4915 12.9599C27.3377 12.5547 26.3866 12.6617 26.3866 12.6617L23.2219 12.6802C23.2219 12.6802 22.9871 12.65 22.8132 12.7483C22.6431 12.8443 22.5339 13.0687 22.5339 13.0687C22.5339 13.0687 22.0328 14.3273 21.3651 15.3978C19.9558 17.6563 19.3922 17.7759 19.1619 17.6354C18.626 17.3085 18.7599 16.3224 18.7599 15.6217C18.7599 13.4328 19.1116 12.5202 18.0749 12.284C17.7309 12.2056 17.4775 12.1538 16.5977 12.1453C15.4684 12.1345 14.5128 12.1486 13.9717 12.3988C13.6116 12.5653 13.3338 12.936 13.5031 12.9574C13.7123 12.9837 14.1859 13.078 14.437 13.4005C14.7614 13.8171 14.7501 14.7522 14.7501 14.7522C14.7501 14.7522 14.9365 17.3288 14.3149 17.6488C13.8884 17.8683 13.3031 17.4202 12.0467 15.3711C11.4031 14.3215 10.917 13.1612 10.917 13.1612C10.917 13.1612 10.8234 12.9444 10.6562 12.8284C10.4534 12.6878 10.17 12.6432 10.17 12.6432L7.16258 12.6617C7.16258 12.6617 6.71122 12.6736 6.54535 12.8589C6.39778 13.0239 6.53356 13.3646 6.53356 13.3646C6.53356 13.3646 8.88792 18.5637 11.554 21.1838C13.9989 23.5863 16.7746 23.4286 16.7746 23.4286Z" fill="white"/>
</g>
</svg>
