<svg width="38" height="38" viewBox="0 0 38 38" fill="none" xmlns="http://www.w3.org/2000/svg">
<g filter="url(#filter0_d_650_1533)">
<path d="M17.5937 0C17.3929 0.0586151 17.1912 0.113322 16.9919 0.175845C15.3507 0.690876 14.23 2.34695 14.3878 4.01318C14.5606 5.83493 15.9009 7.24248 17.6625 7.45193C19.632 7.68639 21.4654 6.35231 21.8046 4.44146C21.9822 3.49665 21.7903 2.51971 21.2685 1.71228C20.7467 0.90486 19.9348 0.328576 19.0005 0.102381C18.9036 0.0789348 18.7824 0.102381 18.7105 0H17.5937Z" fill="#307EF3"/>
<path opacity="0.8" d="M34 14.2378C33.8344 13.8275 33.739 13.3898 33.4803 13.0162C32.6566 11.8267 31.5116 11.3242 30.0971 11.5055C28.7028 11.6837 27.636 12.6849 27.3023 14.0291C26.8459 15.8641 28.1729 17.7727 30.0509 18.0485C31.929 18.3244 33.6827 17.0685 33.9524 15.303C33.9524 15.2788 33.9836 15.2569 34 15.2342V14.2378Z" fill="#307EF3"/>
<path opacity="0.6" d="M21.4028 29.9999C21.4809 29.9084 21.5919 29.91 21.6919 29.8842C23.1167 29.5153 24.0365 28.1781 23.9201 26.6565C23.8146 25.3193 22.6079 24.1728 21.2105 24.0102C19.5044 23.8117 18.0593 25.0371 17.8077 26.4947C17.5357 28.0718 18.6783 29.699 20.2758 29.942C20.3422 29.9514 20.4141 29.942 20.4649 29.9999H21.4028Z" fill="#307EF3"/>
<path opacity="0.3" d="M4 13.4771C4.09222 13.7201 4.16178 13.9749 4.28135 14.2039C4.81748 15.234 5.81551 15.7388 6.87839 15.6341C8.06008 15.5177 9.0284 14.6486 9.19721 13.5333C9.43167 12.0109 8.53681 10.8542 7.13552 10.5471C5.73423 10.24 4.35638 11.1817 4.05862 12.5298C4.0441 12.5742 4.02443 12.6167 4 12.6565V13.4771Z" fill="#307EF3"/>
<path opacity="0.9" d="M26.9431 10.3888C28.9149 10.3826 30.4913 8.82578 30.4819 6.89773C30.4725 5.0072 28.854 3.45351 26.9056 3.46367C24.9572 3.47383 23.3809 5.03612 23.3887 6.9501C23.3965 8.86407 24.9799 10.3935 26.9431 10.3888Z" fill="#307EF3"/>
<path opacity="0.7" d="M28.0656 19.5061C27.4346 19.5109 26.8192 19.7025 26.297 20.0568C25.7748 20.4111 25.3693 20.9121 25.1316 21.4967C24.894 22.0812 24.8348 22.7231 24.9617 23.3412C25.0885 23.9593 25.3956 24.526 25.8442 24.9698C26.2929 25.4135 26.8629 25.7144 27.4824 25.8344C28.1019 25.9544 28.7431 25.8882 29.325 25.6442C29.9069 25.4001 30.4034 24.9891 30.7519 24.4631C31.1005 23.937 31.2853 23.3195 31.2832 22.6885C31.2972 20.916 29.8412 19.5022 28.0656 19.5061Z" fill="#307EF3"/>
<path opacity="0.5" d="M12.9109 28.6588C14.481 28.7307 15.858 27.3724 15.8424 25.8453C15.8401 25.4648 15.7627 25.0886 15.6147 24.7382C15.4667 24.3878 15.251 24.0699 14.98 23.803C14.709 23.536 14.388 23.3252 14.0353 23.1825C13.6827 23.0398 13.3053 22.9682 12.9249 22.9716C11.333 22.9716 9.97387 24.2681 9.98246 25.8054C9.99184 27.4154 11.3322 28.7213 12.9109 28.6588Z" fill="#307EF3"/>
<path opacity="0.4" d="M7.53013 23.0308C8.92048 23.1152 10.3132 21.8101 10.2741 20.2275C10.2551 19.4999 9.95228 18.8086 9.43032 18.3014C8.90836 17.7942 8.2087 17.5113 7.48089 17.5132C5.98738 17.5241 4.72911 18.6753 4.72364 20.2884C4.71973 21.7874 5.91235 23.0894 7.53013 23.0308Z" fill="#307EF3"/>
<path opacity="0.2" d="M10.0557 9.02436C11.1756 9.1158 12.3588 8.04744 12.3268 6.72352C12.2979 5.50355 11.2733 4.45707 10.0471 4.45707C8.77864 4.44926 7.76264 5.49808 7.74623 6.79386C7.73216 7.9349 8.79896 9.12987 10.0557 9.02436Z" fill="#307EF3"/>
</g>
<defs>
<filter id="filter0_d_650_1533" x="0" y="0" width="38" height="37.9999" filterUnits="userSpaceOnUse" color-interpolation-filters="sRGB">
<feFlood flood-opacity="0" result="BackgroundImageFix"/>
<feColorMatrix in="SourceAlpha" type="matrix" values="0 0 0 0 0 0 0 0 0 0 0 0 0 0 0 0 0 0 127 0" result="hardAlpha"/>
<feOffset dy="4"/>
<feGaussianBlur stdDeviation="2"/>
<feComposite in2="hardAlpha" operator="out"/>
<feColorMatrix type="matrix" values="0 0 0 0 0 0 0 0 0 0 0 0 0 0 0 0 0 0 0.25 0"/>
<feBlend mode="normal" in2="BackgroundImageFix" result="effect1_dropShadow_650_1533"/>
<feBlend mode="normal" in="SourceGraphic" in2="effect1_dropShadow_650_1533" result="shape"/>
</filter>
</defs>
</svg>
