<svg width="28" height="28" viewBox="0 0 28 28" fill="none" xmlns="http://www.w3.org/2000/svg">
<rect width="28" height="28" rx="5" fill="#307EF3"/>
<path d="M5.10217 13.5331L15.8271 9.07983C16.8888 8.61712 20.4722 7.13271 20.4722 7.13271C20.4722 7.13271 22.1299 6.48278 21.9918 8.05947C21.9454 8.7094 21.5764 10.9815 21.2088 13.4408L20.0581 20.7224C20.0581 20.7224 19.9666 21.7923 19.1835 21.9741C18.4005 22.156 17.1118 21.3255 16.8822 21.1397C16.6977 21.0059 13.4315 18.913 12.2371 17.8927C11.9146 17.6145 11.5469 17.0582 12.2835 16.4083C13.9398 14.8784 15.92 12.9767 17.1158 11.7705C17.6679 11.2142 18.2213 9.91565 15.9213 11.4923L9.4301 15.9054C9.4301 15.9054 8.69351 16.3695 7.31325 15.9509C5.93298 15.5323 4.32179 14.9774 4.32179 14.9774C4.32179 14.9774 3.21625 14.282 5.1035 13.5397L5.10217 13.5331Z" fill="white"/>
</svg>
