<svg width="28" height="28" viewBox="0 0 28 28" fill="none" xmlns="http://www.w3.org/2000/svg">
<rect width="28" height="28" rx="5" fill="#307EF3"/>
<path d="M11.115 20.4815C16.9851 20.4815 20.1955 15.2967 20.1955 10.8006C20.1955 10.6539 20.1924 10.5073 20.1862 10.361C20.8109 9.87824 21.3499 9.28084 21.7782 8.59673C21.1957 8.87158 20.5779 9.05211 19.9453 9.13236C20.6114 8.70707 21.1099 8.03819 21.348 7.25025C20.7216 7.64645 20.0363 7.92569 19.3218 8.07592C18.8409 7.52908 18.2041 7.16674 17.5104 7.04512C16.8166 6.92349 16.1045 7.04939 15.4847 7.40327C14.8649 7.75715 14.372 8.31923 14.0824 9.00229C13.7929 9.68535 13.7229 10.4512 13.8833 11.181C12.6143 11.1135 11.3728 10.7621 10.2395 10.1497C9.10613 9.53728 8.1063 8.67757 7.30493 7.62639C6.89679 8.37536 6.77174 9.262 6.95522 10.1058C7.1387 10.9496 7.61693 11.6872 8.29254 12.1683C7.78578 12.1528 7.28995 12.0075 6.84686 11.7449C6.84686 11.759 6.84686 11.7731 6.84686 11.7886C6.84725 12.5742 7.10247 13.3355 7.56924 13.9433C8.03602 14.5512 8.68562 14.9683 9.4079 15.1238C8.93788 15.2607 8.44464 15.2807 7.9662 15.1824C8.17008 15.8579 8.56668 16.4487 9.10068 16.8724C9.63467 17.2961 10.2794 17.5315 10.9449 17.5458C9.81489 18.4903 8.41985 19.0026 6.98389 19.0002C6.72951 19.0004 6.47534 18.9849 6.22266 18.9536C7.68214 19.9529 9.38051 20.4833 11.115 20.4815Z" fill="white"/>
</svg>
