<svg width="28" height="28" viewBox="0 0 28 28" fill="none" xmlns="http://www.w3.org/2000/svg">
<rect width="28" height="28" rx="5" fill="#307EF3"/>
<path fill-rule="evenodd" clip-rule="evenodd" d="M6.78271 8.12099H4.72592C4.12099 8.12099 4 8.36297 4 8.72593C4 9.33087 4.72592 12.1136 7.38765 15.7432C8.06627 16.8567 9.0035 17.7901 10.1198 18.4641C11.2361 19.1381 12.4986 19.5328 13.8 19.6148C15.1309 19.6148 15.3728 19.2519 15.3728 18.7679V16.8321C15.3728 16.2272 15.4938 16.1062 15.9778 16.1062C16.4617 16.1062 16.8247 16.2272 18.0346 17.437C19.4864 18.8889 19.7284 19.4938 20.5753 19.4938H22.7531C23.358 19.4938 23.721 19.1309 23.479 18.6469C23.0086 17.7116 22.3964 16.8546 21.6642 16.1062C21.1802 15.5012 20.4543 14.8963 20.2123 14.5333C19.9704 14.1704 19.9704 13.9284 20.2123 13.5654C21.3156 12.0374 22.287 10.4184 23.116 8.72593C23.237 8.24198 23.116 8 22.5111 8H20.3333C20.1315 8 19.9338 8.05672 19.7626 8.16368C19.5915 8.27064 19.4539 8.42353 19.3654 8.60494C18.7033 10.1829 17.8059 11.6514 16.7037 12.9605C16.2197 13.4444 15.9778 13.5654 15.7358 13.5654C15.4938 13.5654 15.3728 13.4444 15.3728 12.9605V8.84691C15.3728 8.36296 15.2518 8.12099 14.7679 8.12099H11.3802C11.3153 8.11547 11.2499 8.1242 11.1887 8.14657C11.1275 8.16894 11.0719 8.20441 11.0258 8.2505C10.9797 8.29659 10.9442 8.35219 10.9219 8.41341C10.8995 8.47463 10.8908 8.53999 10.8963 8.60494C10.8963 9.08889 11.6222 9.20988 11.7432 10.6617V13.8074C11.7432 14.5333 11.6222 14.6543 11.3802 14.6543C10.6543 14.6543 8.96049 11.9926 7.8716 8.9679C7.50864 8.36297 7.26666 8.12099 6.78271 8.12099Z" fill="white"/>
</svg>
