<svg width="28" height="28" viewBox="0 0 28 28" fill="none" xmlns="http://www.w3.org/2000/svg">
<path d="M14 28C21.732 28 28 21.732 28 14C28 6.26801 21.732 0 14 0C6.26801 0 0 6.26801 0 14C0 21.732 6.26801 28 14 28Z" fill="#307EF3"/>
<path d="M22.6236 9.98C22.5219 9.59706 22.3213 9.24757 22.042 8.96649C21.7628 8.68542 21.4146 8.48263 21.0323 8.37841C19.625 8 14 8 14 8C14 8 8.375 8 6.96773 8.37841C6.58545 8.48263 6.23725 8.68542 5.95797 8.96649C5.67869 9.24757 5.47813 9.59706 5.37636 9.98C5 11.3934 5 14.3409 5 14.3409C5 14.3409 5 17.2884 5.37636 18.7018C5.47813 19.0848 5.67869 19.4343 5.95797 19.7153C6.23725 19.9964 6.58545 20.1992 6.96773 20.3034C8.375 20.6818 14 20.6818 14 20.6818C14 20.6818 19.625 20.6818 21.0323 20.3034C21.4146 20.1992 21.7628 19.9964 22.042 19.7153C22.3213 19.4343 22.5219 19.0848 22.6236 18.7018C23 17.2884 23 14.3409 23 14.3409C23 14.3409 23 11.3934 22.6236 9.98Z" fill="white"/>
<path d="M12.1582 17.0175V11.6646L16.8627 14.341L12.1582 17.0175Z" fill="#307EF3"/>
</svg>
