<svg width="488" height="194" viewBox="0 0 488 194" fill="none" xmlns="http://www.w3.org/2000/svg">
<path d="M0 155.724V128.804L79.314 3.51407H101.766V41.8403H88.0759L34.6828 126.432V127.892H145.394V155.724H0ZM89.1712 190.4V147.511L89.5363 135.466V3.51407H121.481V190.4H89.1712Z" fill="#307EF3"/>
<path d="M243.646 193.959C228.617 193.959 215.718 190.157 204.948 182.552C194.239 174.887 185.994 163.846 180.213 149.428C174.494 134.949 171.634 117.519 171.634 97.1396C171.695 76.7598 174.585 59.4217 180.305 45.1254C186.085 30.7683 194.33 19.8179 205.039 12.2744C215.809 4.73078 228.678 0.958984 243.646 0.958984C258.615 0.958984 271.484 4.73078 282.254 12.2744C293.024 19.8179 301.268 30.7683 306.988 45.1254C312.768 59.4825 315.659 76.8206 315.659 97.1396C315.659 117.58 312.768 135.04 306.988 149.519C301.268 163.937 293.024 174.948 282.254 182.552C271.545 190.157 258.676 193.959 243.646 193.959ZM243.646 165.397C255.329 165.397 264.547 159.648 271.301 148.15C278.116 136.591 281.524 119.588 281.524 97.1396C281.524 82.2958 279.972 69.8245 276.869 59.7259C273.766 49.6272 269.385 42.0228 263.726 36.9127C258.067 31.7417 251.374 29.1562 243.646 29.1562C232.025 29.1562 222.837 34.9355 216.083 46.4942C209.329 57.9921 205.921 74.8739 205.86 97.1396C205.8 112.044 207.29 124.576 210.333 134.736C213.436 144.895 217.817 152.561 223.476 157.732C229.134 162.842 235.858 165.397 243.646 165.397Z" fill="#307EF3"/>
<path d="M342.606 155.724V128.804L421.92 3.51407H444.373V41.8403H430.682L377.289 126.432V127.892H488V155.724H342.606ZM431.777 190.4V147.511L432.142 135.466V3.51407H464.087V190.4H431.777Z" fill="#307EF3"/>
</svg>
