<svg width="601" height="242" viewBox="0 0 601 242" fill="none" xmlns="http://www.w3.org/2000/svg">
<path d="M8 191.998V193.998H10H115.261V233.681V235.681H117.261H156.126H158.126V233.681V193.998H184.89H186.89V191.998V158.541V156.541H184.89H158.126V9.03038V7.03038H156.126H134.412H132.412H117.7H115.7H105.404H104.304L103.715 7.96012L8.31046 158.568L8 159.058V159.638V191.998ZM54.239 156.541L115.7 59.232V156.541H54.239ZM255.362 225.874L255.372 225.882C268.71 235.293 284.644 239.959 303.075 239.959C321.505 239.959 337.404 235.293 350.671 225.879C363.993 216.478 374.127 202.905 381.124 185.281C388.195 167.579 391.696 146.325 391.696 121.575C391.696 96.9713 388.195 75.8627 381.123 58.3058C374.124 40.7518 363.987 27.25 350.661 17.9224C337.325 8.58748 321.431 3.95898 303.075 3.95898C284.718 3.95898 268.824 8.58748 255.488 17.9224L255.484 17.9255C242.233 27.253 232.098 40.7527 225.028 58.3028L225.026 58.3069C218.027 75.789 214.527 96.8957 214.453 121.569V121.575C214.453 146.251 217.917 167.465 224.913 185.164L224.917 185.174C231.986 202.795 242.118 216.401 255.362 225.874ZM334.617 181.877L334.616 181.88C326.79 195.193 316.306 201.625 303.075 201.625C294.191 201.625 286.586 198.731 280.156 192.93C273.7 187.033 268.582 178.18 264.917 166.189C261.333 154.225 259.55 139.373 259.623 121.583L259.623 121.581C259.696 94.9595 263.782 75.0837 271.643 61.7091L271.646 61.7051C279.476 48.3134 289.925 41.854 303.075 41.854C311.875 41.854 319.444 44.7785 325.879 50.6548L325.888 50.6627C332.342 56.4878 337.459 65.2675 341.125 77.1889C344.781 89.078 346.636 103.857 346.636 121.575C346.636 148.415 342.549 168.433 334.617 181.877ZM420.11 191.998V193.998H422.11H527.372V233.681V235.681H529.372H568.236H570.236V233.681V193.998H597H599V191.998V158.541V156.541H597H570.236V9.03038V7.03038H568.236H546.522H544.522H529.811H527.811H517.515H516.414L515.825 7.96012L420.421 158.568L420.11 159.058V159.638V191.998ZM527.811 156.541H466.349L527.811 59.232V156.541Z" stroke="#307EF3" stroke-width="4"/>
<path d="M0 187.8V155.301L95.8919 4.04362H123.037V50.3131H106.485L41.932 152.437V154.199H175.783V187.8H0ZM107.809 229.663V177.885L108.251 163.343V4.04362H146.872V229.663H107.809Z" fill="#307EF3"/>
<path d="M294.572 233.959C276.402 233.959 260.806 229.369 247.785 220.188C234.838 210.934 224.87 197.604 217.881 180.198C210.966 162.719 207.508 141.677 207.508 117.073C207.582 92.4698 211.076 71.5383 217.991 54.2791C224.98 36.9464 234.948 23.7265 247.895 14.6195C260.916 5.5125 276.475 0.958984 294.572 0.958984C312.669 0.958984 328.228 5.5125 341.249 14.6195C354.27 23.7265 364.238 36.9464 371.153 54.2791C378.142 71.6118 381.636 92.5432 381.636 117.073C381.636 141.75 378.142 162.829 371.153 180.308C364.238 197.715 354.27 211.008 341.249 220.188C328.302 229.369 312.743 233.959 294.572 233.959ZM294.572 199.477C308.697 199.477 319.842 192.537 328.008 178.656C336.247 164.702 340.367 144.174 340.367 117.073C340.367 99.1531 338.491 84.0972 334.739 71.9055C330.987 59.7139 325.69 50.5335 318.849 44.3642C312.007 38.1215 303.915 35.0001 294.572 35.0001C280.521 35.0001 269.413 41.9773 261.247 55.9315C253.082 69.8124 248.962 90.193 248.889 117.073C248.815 135.067 250.617 150.196 254.296 162.462C258.047 174.727 263.344 183.981 270.186 190.223C277.027 196.393 285.156 199.477 294.572 199.477Z" fill="#307EF3"/>
<path d="M414.217 187.8V155.301L510.108 4.04362H537.254V50.3131H520.702L456.149 152.437V154.199H590V187.8H414.217ZM522.026 229.663V177.885L522.467 163.343V4.04362H561.089V229.663H522.026Z" fill="#307EF3"/>
</svg>
