<svg width="8" height="6" viewBox="0 0 8 6" fill="none" xmlns="http://www.w3.org/2000/svg">
<path d="M2.93212 5.54947L0.75765 3.38801C0.696886 3.32725 0.666504 3.24913 0.666504 3.15364C0.666504 3.05815 0.696886 2.98003 0.75765 2.91927L1.23942 2.45052C1.30018 2.38107 1.37614 2.34635 1.46728 2.34635C1.55843 2.34635 1.63872 2.38107 1.70817 2.45052L3.1665 3.90885L6.29149 0.783854C6.36093 0.71441 6.44123 0.679688 6.53238 0.679688C6.62352 0.679688 6.69948 0.71441 6.76024 0.783854L7.24201 1.2526C7.30277 1.31337 7.33315 1.39149 7.33315 1.48698C7.33315 1.58246 7.30277 1.66059 7.24201 1.72135L3.40087 5.54947C3.34011 5.61891 3.26198 5.65363 3.1665 5.65363C3.07101 5.65363 2.99289 5.61891 2.93212 5.54947Z" fill="#7e42ff"/>
</svg>
