<svg width="184" height="35" viewBox="0 0 184 35" fill="none" xmlns="http://www.w3.org/2000/svg">
<path d="M57.1445 34.6448C55.7141 34.6448 54.4509 34.3986 53.3548 33.9063C52.2588 33.395 51.395 32.6754 50.7634 31.7475C50.1318 30.8007 49.8067 29.6551 49.7881 28.3106H53.5499C53.5871 29.2385 53.9122 30.0244 54.5252 30.6682C55.1568 31.2931 56.0206 31.6055 57.1167 31.6055C58.0641 31.6055 58.8164 31.3783 59.3738 30.9238C59.9311 30.4504 60.2097 29.8255 60.2097 29.0491C60.2097 28.2349 59.9589 27.6005 59.4574 27.1461C58.9744 26.6916 58.3242 26.3223 57.5068 26.0383C56.6894 25.7542 55.8163 25.4513 54.8874 25.1293C53.3827 24.5991 52.2309 23.9174 51.4321 23.0842C50.6519 22.251 50.2618 21.1433 50.2618 19.7609C50.2432 18.5869 50.5126 17.5833 51.0699 16.7501C51.6458 15.898 52.426 15.2447 53.4106 14.7902C54.3952 14.3168 55.5283 14.0801 56.8101 14.0801C58.1105 14.0801 59.253 14.3168 60.2376 14.7902C61.2407 15.2636 62.021 15.9264 62.5783 16.7785C63.1542 17.6306 63.4607 18.6437 63.4978 19.8177H59.6803C59.6617 19.1171 59.3923 18.5017 58.8722 17.9715C58.3706 17.4223 57.6647 17.1477 56.7544 17.1477C55.9742 17.1288 55.3147 17.3276 54.776 17.7442C54.2558 18.1419 53.9957 18.7289 53.9957 19.5053C53.9957 20.1681 54.2001 20.6983 54.6088 21.0959C55.0175 21.4747 55.5748 21.7966 56.2807 22.0617C56.9866 22.3268 57.7947 22.6108 58.705 22.9138C59.671 23.2547 60.5534 23.6523 61.3522 24.1068C62.151 24.5613 62.7919 25.1672 63.2749 25.9247C63.7579 26.6632 63.9994 27.6195 63.9994 28.7935C63.9994 29.835 63.7393 30.8007 63.2192 31.6907C62.699 32.5807 61.9281 33.3003 60.9063 33.8495C59.8846 34.3797 58.6307 34.6448 57.1445 34.6448Z" fill="white"/>
<path d="M67.1114 34.3039V14.4209H71.3469L77.5609 27.0324L83.6912 14.4209H87.9268V34.3039H84.36V20.5847L78.9263 31.4635H76.1119L70.6781 20.5847V34.3039H67.1114Z" fill="white"/>
<path d="M98.371 34.6448C96.9406 34.6448 95.6774 34.3986 94.5814 33.9063C93.4853 33.395 92.6215 32.6754 91.9899 31.7475C91.3583 30.8007 91.0332 29.6551 91.0146 28.3106H94.7764C94.8136 29.2385 95.1387 30.0244 95.7517 30.6682C96.3833 31.2931 97.2471 31.6055 98.3432 31.6055C99.2906 31.6055 100.043 31.3783 100.6 30.9238C101.158 30.4504 101.436 29.8255 101.436 29.0491C101.436 28.2349 101.185 27.6005 100.684 27.1461C100.201 26.6916 99.5507 26.3223 98.7333 26.0383C97.9159 25.7542 97.0428 25.4513 96.114 25.1293C94.6092 24.5991 93.4575 23.9174 92.6587 23.0842C91.8784 22.251 91.4883 21.1433 91.4883 19.7609C91.4697 18.5869 91.7391 17.5833 92.2964 16.7501C92.8723 15.898 93.6525 15.2447 94.6371 14.7902C95.6217 14.3168 96.7549 14.0801 98.0367 14.0801C99.337 14.0801 100.48 14.3168 101.464 14.7902C102.467 15.2636 103.247 15.9264 103.805 16.7785C104.381 17.6306 104.687 18.6437 104.724 19.8177H100.907C100.888 19.1171 100.619 18.5017 100.099 17.9715C99.5971 17.4223 98.8912 17.1477 97.9809 17.1477C97.2007 17.1288 96.5412 17.3276 96.0025 17.7442C95.4823 18.1419 95.2223 18.7289 95.2223 19.5053C95.2223 20.1681 95.4266 20.6983 95.8353 21.0959C96.244 21.4747 96.8013 21.7966 97.5072 22.0617C98.2131 22.3268 99.0212 22.6108 99.9315 22.9138C100.897 23.2547 101.78 23.6523 102.579 24.1068C103.378 24.5613 104.018 25.1672 104.501 25.9247C104.984 26.6632 105.226 27.6195 105.226 28.7935C105.226 29.835 104.966 30.8007 104.446 31.6907C103.926 32.5807 103.155 33.3003 102.133 33.8495C101.111 34.3797 99.8572 34.6448 98.371 34.6448Z" fill="white"/>
<path d="M107.864 34.3039V31.6623C109.053 30.6587 110.205 29.6646 111.319 28.6799C112.453 27.6952 113.456 26.72 114.329 25.7542C115.221 24.7885 115.927 23.8512 116.447 22.9422C116.985 22.0143 117.255 21.1149 117.255 20.2438C117.255 19.4296 117.032 18.71 116.586 18.0851C116.159 17.4602 115.444 17.1477 114.44 17.1477C113.419 17.1477 112.648 17.4886 112.128 18.1703C111.607 18.852 111.347 19.6757 111.347 20.6415H107.892C107.929 19.1834 108.245 17.9715 108.839 17.0057C109.434 16.021 110.223 15.292 111.208 14.8186C112.193 14.3262 113.298 14.0801 114.524 14.0801C116.512 14.0801 118.054 14.6387 119.15 15.7559C120.264 16.8542 120.822 18.2839 120.822 20.045C120.822 21.1433 120.571 22.2132 120.069 23.2547C119.586 24.2962 118.945 25.2998 118.146 26.2655C117.348 27.2313 116.484 28.1402 115.555 28.9923C114.626 29.8255 113.725 30.6019 112.852 31.3215H121.295V34.3039H107.864Z" fill="white"/>
<path d="M124.257 34.3039V14.4209H128.493L134.707 27.0324L140.837 14.4209H145.072V34.3039H141.506V20.5847L136.072 31.4635H133.258L127.824 20.5847V34.3039H124.257Z" fill="white"/>
<path d="M147.603 34.3039L154.736 14.4209H158.749L165.883 34.3039H162.093L160.532 29.7024H152.925L151.337 34.3039H147.603ZM153.901 26.862H159.557L156.715 18.5964L153.901 26.862Z" fill="white"/>
<path d="M167.448 34.3039L173.55 24.2488L167.364 14.4209H171.46L175.835 21.3516L179.848 14.4209H183.861L177.758 24.4192L184 34.3039H179.904L175.473 27.2881L171.46 34.3039H167.448Z" fill="white"/>
<path d="M15.1351 21.8887C15.1351 20.8569 14.7666 20.0529 14.0296 19.4767C13.306 18.9005 12.0264 18.3042 10.1906 17.6878C8.3548 17.0714 6.85402 16.4751 5.68823 15.8989C1.89608 14.0363 -8.53989e-07 11.477 0 8.22081C4.25237e-07 6.59942 0.468995 5.17234 1.40699 3.93955C2.35838 2.69337 3.69836 1.72858 5.42694 1.04519C7.15552 0.348395 9.0985 -5.65811e-07 11.2559 0C13.3597 5.51755e-07 15.2423 0.375197 16.9039 1.12559C17.7202 1.4913 18.4474 1.9334 19.0855 2.45188C19.5136 2.15339 19.9745 1.88552 20.4682 1.64824C22.1968 0.817451 24.2403 0.402056 26.5986 0.402056C30.163 0.402057 32.9703 1.32665 35.0204 3.17583C37.0706 5.02501 38.1158 7.55758 38.156 10.7735L38.156 30.0693L31.0608 30.0693L31.0608 10.6328C30.9804 7.43028 29.493 5.829 26.5986 5.829C25.138 5.82899 24.0326 6.23099 23.2822 7.03498C22.5318 7.83897 22.1566 9.14546 22.1566 10.9544L22.1566 15.7855C20.9892 14.3779 19.3897 13.2005 17.4494 12.2472C16.7572 11.9052 15.9732 11.564 15.1016 11.2229V10.9142C15.1016 10.2799 15.141 9.67021 15.22 9.0851H15.1552C15.1552 7.89251 14.7867 6.96792 14.0497 6.31133C13.3262 5.65474 12.3413 5.32644 11.0951 5.32644C9.83549 5.32644 8.8372 5.60784 8.10021 6.17063C7.37662 6.72002 7.01482 7.42352 7.01482 8.28111C7.01482 9.0315 7.41682 9.71489 8.22081 10.3313C9.0248 10.9343 10.4385 11.5641 12.4619 12.2207C14.4852 12.8639 16.1468 13.5606 17.4466 14.311C20.609 16.1334 22.1901 18.6459 22.1901 21.8485C22.1901 24.4078 21.2254 26.4178 19.2958 27.8784C17.3662 29.339 14.7197 30.0693 11.3564 30.0693L11.3564 24.7629C12.5222 24.7629 13.44 24.515 14.11 24.0192C14.7934 23.51 15.1351 22.7998 15.1351 21.8887Z" fill="white"/>
</svg>
