<svg width="30" height="24" viewBox="0 0 30 24" fill="none" xmlns="http://www.w3.org/2000/svg">
<path d="M11.9941 17.3955C11.9941 16.5885 11.7058 15.9597 11.1294 15.509C10.5634 15.0583 9.56251 14.5919 8.12665 14.1098C6.69078 13.6277 5.51693 13.1613 4.6051 12.7106C1.63904 11.2538 0.156005 9.25194 0.156006 6.70511C0.156006 5.43693 0.522834 4.32073 1.25649 3.3565C2.00063 2.38178 3.04871 1.62717 4.40073 1.09265C5.75275 0.547646 7.27247 0.275146 8.95987 0.275146C10.6054 0.275147 12.0779 0.56861 13.3775 1.15553C14.016 1.44158 14.5848 1.78737 15.0839 2.1929C15.4187 1.95944 15.7792 1.74992 16.1654 1.56433C17.5174 0.914522 19.1157 0.589617 20.9603 0.589618C23.7482 0.589619 25.9439 1.31279 27.5475 2.75914C29.1511 4.20549 29.9686 6.18636 30 8.70175L30 23.7941L24.4504 23.7941L24.4504 8.59171C24.3875 6.0868 23.2242 4.83434 20.9603 4.83434C19.8179 4.83434 18.9533 5.14876 18.3663 5.77761C17.7794 6.40646 17.4859 7.42834 17.4859 8.84324L17.4859 12.6219C16.5729 11.521 15.3218 10.6 13.8042 9.85439C13.2628 9.58688 12.6496 9.32004 11.9678 9.05319V8.8118C11.9678 8.31567 11.9987 7.83878 12.0604 7.38112H12.0098C12.0098 6.44833 11.7216 5.72516 11.1451 5.2116C10.5792 4.69804 9.80882 4.44126 8.8341 4.44126C7.84891 4.44126 7.06809 4.66136 6.49165 5.10155C5.92568 5.53126 5.6427 6.0815 5.6427 6.75228C5.6427 7.3392 5.95712 7.87372 6.58597 8.35584C7.21482 8.82747 8.32054 9.32007 9.90314 9.83363C11.4857 10.3367 12.7854 10.8817 13.802 11.4686C16.2755 12.894 17.5122 14.8592 17.5122 17.3641C17.5122 19.3659 16.7576 20.938 15.2483 22.0804C13.7391 23.2228 11.6692 23.794 9.03847 23.794L9.03848 19.6437C9.9503 19.6437 10.6682 19.4498 11.1923 19.062C11.7268 18.6637 11.9941 18.1082 11.9941 17.3955Z" fill="#307EF3"/>
</svg>
