<svg  viewBox="0 0 184 35" fill="none" xmlns="http://www.w3.org/2000/svg">
<path d="M57.1448 34.6445C55.7144 34.6445 54.4511 34.3984 53.3551 33.906C52.2591 33.3948 51.3952 32.6752 50.7636 31.7473C50.132 30.8005 49.8069 29.6549 49.7883 28.3104H53.5501C53.5873 29.2383 53.9124 30.0241 54.5254 30.6679C55.157 31.2928 56.0209 31.6053 57.1169 31.6053C58.0643 31.6053 58.8167 31.378 59.374 30.9236C59.9313 30.4502 60.21 29.8253 60.21 29.0489C60.21 28.2346 59.9592 27.6003 59.4576 27.1458C58.9746 26.6913 58.3244 26.3221 57.507 26.038C56.6896 25.754 55.8165 25.451 54.8877 25.1291C53.383 24.5989 52.2312 23.9172 51.4324 23.084C50.6522 22.2508 50.262 21.143 50.262 19.7607C50.2435 18.5866 50.5128 17.583 51.0701 16.7498C51.646 15.8977 52.4262 15.2444 53.4108 14.7899C54.3954 14.3165 55.5286 14.0798 56.8104 14.0798C58.1108 14.0798 59.2532 14.3165 60.2378 14.7899C61.241 15.2633 62.0212 15.9261 62.5785 16.7782C63.1544 17.6304 63.4609 18.6435 63.4981 19.8175H59.6805C59.6619 19.1169 59.3926 18.5014 58.8724 17.9712C58.3708 17.4221 57.6649 17.1475 56.7547 17.1475C55.9744 17.1286 55.315 17.3274 54.7762 17.744C54.2561 18.1416 53.996 18.7287 53.996 19.5051C53.996 20.1678 54.2003 20.698 54.609 21.0957C55.0177 21.4744 55.575 21.7963 56.2809 22.0614C56.9869 22.3265 57.795 22.6106 58.7052 22.9136C59.6712 23.2544 60.5536 23.6521 61.3524 24.1065C62.1512 24.561 62.7921 25.167 63.2751 25.9244C63.7581 26.6629 63.9996 27.6192 63.9996 28.7933C63.9996 29.8347 63.7396 30.8005 63.2194 31.6905C62.6993 32.5805 61.9283 33.3001 60.9066 33.8492C59.8849 34.3794 58.6309 34.6445 57.1448 34.6445Z" fill="#27425B"/>
<path d="M67.1116 34.3037V14.4207H71.3472L77.5611 27.0322L83.6915 14.4207H87.927V34.3037H84.3603V20.5844L78.9265 31.4633H76.1121L70.6784 20.5844V34.3037H67.1116Z" fill="#27425B"/>
<path d="M98.3713 34.6445C96.9409 34.6445 95.6776 34.3984 94.5816 33.906C93.4856 33.3948 92.6217 32.6752 91.9901 31.7473C91.3585 30.8005 91.0334 29.6549 91.0148 28.3104H94.7767C94.8138 29.2383 95.1389 30.0241 95.752 30.6679C96.3836 31.2928 97.2474 31.6053 98.3434 31.6053C99.2908 31.6053 100.043 31.378 100.601 30.9236C101.158 30.4502 101.436 29.8253 101.436 29.0489C101.436 28.2346 101.186 27.6003 100.684 27.1458C100.201 26.6913 99.5509 26.3221 98.7335 26.038C97.9162 25.754 97.043 25.451 96.1142 25.1291C94.6095 24.5989 93.4577 23.9172 92.6589 23.084C91.8787 22.2508 91.4886 21.143 91.4886 19.7607C91.47 18.5866 91.7393 17.583 92.2966 16.7498C92.8725 15.8977 93.6528 15.2444 94.6373 14.7899C95.6219 14.3165 96.7551 14.0798 98.0369 14.0798C99.3373 14.0798 100.48 14.3165 101.464 14.7899C102.467 15.2633 103.248 15.9261 103.805 16.7782C104.381 17.6304 104.687 18.6435 104.725 19.8175H100.907C100.888 19.1169 100.619 18.5014 100.099 17.9712C99.5974 17.4221 98.8914 17.1475 97.9812 17.1475C97.201 17.1286 96.5415 17.3274 96.0027 17.744C95.4826 18.1416 95.2225 18.7287 95.2225 19.5051C95.2225 20.1678 95.4269 20.698 95.8355 21.0957C96.2442 21.4744 96.8015 21.7963 97.5075 22.0614C98.2134 22.3265 99.0215 22.6106 99.9317 22.9136C100.898 23.2544 101.78 23.6521 102.579 24.1065C103.378 24.561 104.019 25.167 104.502 25.9244C104.985 26.6629 105.226 27.6192 105.226 28.7933C105.226 29.8347 104.966 30.8005 104.446 31.6905C103.926 32.5805 103.155 33.3001 102.133 33.8492C101.111 34.3794 99.8574 34.6445 98.3713 34.6445Z" fill="#27425B"/>
<path d="M107.864 34.3037V31.6621C109.053 30.6585 110.205 29.6643 111.32 28.6796C112.453 27.695 113.456 26.7197 114.329 25.754C115.221 24.7883 115.927 23.8509 116.447 22.942C116.986 22.0141 117.255 21.1146 117.255 20.2436C117.255 19.4293 117.032 18.7097 116.586 18.0848C116.159 17.4599 115.444 17.1475 114.441 17.1475C113.419 17.1475 112.648 17.4883 112.128 18.1701C111.608 18.8518 111.348 19.6755 111.348 20.6412H107.892C107.929 19.1831 108.245 17.9712 108.84 17.0055C109.434 16.0208 110.224 15.2917 111.208 14.8183C112.193 14.326 113.298 14.0798 114.524 14.0798C116.512 14.0798 118.054 14.6385 119.15 15.7557C120.264 16.854 120.822 18.2837 120.822 20.0447C120.822 21.143 120.571 22.2129 120.069 23.2544C119.586 24.2959 118.946 25.2995 118.147 26.2653C117.348 27.231 116.484 28.14 115.555 28.9921C114.626 29.8253 113.725 30.6017 112.852 31.3212H121.296V34.3037H107.864Z" fill="#27425B"/>
<path d="M124.257 34.3037V14.4207H128.493L134.707 27.0322L140.837 14.4207H145.073V34.3037H141.506V20.5844L136.072 31.4633H133.258L127.824 20.5844V34.3037H124.257Z" fill="#27425B"/>
<path d="M147.603 34.3037L154.737 14.4207H158.749L165.883 34.3037H162.093L160.533 29.7022H152.925L151.337 34.3037H147.603ZM153.901 26.8618H159.557L156.715 18.5961L153.901 26.8618Z" fill="#27425B"/>
<path d="M167.448 34.3037L173.551 24.2486L167.364 14.4207H171.461L175.836 21.3513L179.848 14.4207H183.861L177.758 24.419L184 34.3037H179.904L175.473 27.2878L171.461 34.3037H167.448Z" fill="#27425B"/>
<path d="M15.1351 21.8887C15.1351 20.8569 14.7666 20.0529 14.0296 19.4767C13.306 18.9005 12.0264 18.3042 10.1906 17.6878C8.3548 17.0714 6.85402 16.4751 5.68823 15.8989C1.89608 14.0363 -8.53989e-07 11.477 0 8.22081C4.25237e-07 6.59942 0.468995 5.17234 1.40699 3.93955C2.35838 2.69337 3.69836 1.72858 5.42694 1.04519C7.15552 0.348395 9.0985 -5.65811e-07 11.2559 0C13.3597 5.51755e-07 15.2423 0.375197 16.9039 1.12559C17.7202 1.4913 18.4474 1.9334 19.0855 2.45188C19.5136 2.15339 19.9745 1.88552 20.4682 1.64824C22.1968 0.817451 24.2403 0.402056 26.5986 0.402056C30.163 0.402057 32.9703 1.32665 35.0204 3.17583C37.0706 5.02501 38.1158 7.55758 38.156 10.7735L38.156 30.0693L31.0608 30.0693L31.0608 10.6328C30.9804 7.43028 29.493 5.829 26.5986 5.829C25.138 5.82899 24.0326 6.23099 23.2822 7.03498C22.5318 7.83897 22.1566 9.14546 22.1566 10.9544L22.1566 15.7855C20.9892 14.3779 19.3897 13.2005 17.4494 12.2472C16.7572 11.9052 15.9732 11.564 15.1016 11.2229V10.9142C15.1016 10.2799 15.141 9.67021 15.22 9.0851H15.1552C15.1552 7.89251 14.7867 6.96792 14.0497 6.31133C13.3262 5.65474 12.3413 5.32644 11.0951 5.32644C9.83549 5.32644 8.8372 5.60784 8.10021 6.17063C7.37662 6.72002 7.01482 7.42352 7.01482 8.28111C7.01482 9.0315 7.41682 9.71489 8.22081 10.3313C9.0248 10.9343 10.4385 11.5641 12.4619 12.2207C14.4852 12.8639 16.1468 13.5606 17.4466 14.311C20.609 16.1334 22.1901 18.6459 22.1901 21.8485C22.1901 24.4078 21.2254 26.4178 19.2958 27.8784C17.3662 29.339 14.7197 30.0693 11.3564 30.0693L11.3564 24.7629C12.5222 24.7629 13.44 24.515 14.11 24.0192C14.7934 23.51 15.1351 22.7998 15.1351 21.8887Z" fill="#307EF3"/>
</svg>
